<svg width="51" height="51" viewBox="0 0 51 51" fill="none" xmlns="http://www.w3.org/2000/svg">
<path d="M30.7981 21.4486C30.9234 21.5818 31.0486 21.7075 31.1813 21.8332C32.4413 23.0093 34.195 23.5862 35.9781 23.416C36.3318 23.3791 36.6781 23.3273 37.0097 23.2459C39.0434 22.7726 40.5982 21.4782 41.2097 19.6587C41.5266 18.7194 41.5634 17.7283 41.3497 16.7963C41.1213 15.7978 40.5908 14.8658 39.8098 14.141C38.9476 13.3422 37.7687 12.9502 36.5602 13.0463C36.295 13.0685 36.0445 13.1055 35.8013 13.1647C34.4087 13.4901 33.3255 14.3851 32.8981 15.6498C32.6697 16.3155 32.6402 17.0108 32.795 17.6691C32.9571 18.3717 33.3255 19.0226 33.8708 19.5256C34.6518 20.2578 35.7203 20.5019 36.6855 20.2726C37.2603 20.1394 37.8055 19.8362 38.2403 19.3702C38.4466 19.1483 38.5129 18.8525 38.4466 18.5788C38.4097 18.4161 38.3213 18.2608 38.1961 18.1424C37.975 17.9353 37.6803 17.8688 37.4076 17.9353C37.2455 17.9723 37.0908 18.0611 36.9729 18.1868C36.7813 18.3939 36.5455 18.5271 36.295 18.5862C35.8676 18.6824 35.4034 18.5788 35.0571 18.2534C34.7697 17.9871 34.5781 17.6469 34.4897 17.277C34.4086 16.9294 34.4234 16.567 34.5413 16.2194C34.7771 15.5463 35.3371 15.0655 36.1918 14.8658C36.3539 14.8288 36.5308 14.7993 36.715 14.7845C37.4445 14.7253 38.1445 14.9546 38.6382 15.4205C39.1613 15.9087 39.5076 16.53 39.6624 17.1957C39.8097 17.817 39.7803 18.4753 39.574 19.104C39.154 20.3392 38.1371 21.1972 36.6487 21.5522C36.3908 21.6113 36.1108 21.6557 35.8234 21.6853C34.4971 21.811 33.2813 21.4116 32.3676 20.561C32.2644 20.4649 32.1687 20.3688 32.0729 20.2652C31.4465 19.5921 31.0339 18.8007 30.835 17.9501C30.6508 17.1587 30.6581 16.3082 30.8644 15.4576C31.3286 13.5789 32.6771 12.0774 34.475 11.4413L34.696 11.3673H34.7034C35.0424 11.2342 35.4402 11.1159 35.8676 11.0197C37.1423 10.7239 38.7266 10.5759 40.2518 10.6351C41.615 10.6943 42.8013 10.5685 43.8329 10.3318C47.6645 9.43687 49.2782 6.9443 49.5066 6.5523C49.5656 6.47833 49.6172 6.39697 49.6688 6.31561C50.1993 5.46502 50.3982 4.45913 50.2509 3.46062C50.2361 3.34967 50.214 3.23872 50.1919 3.13517C49.9635 2.15885 49.4035 1.29348 48.5856 0.694376C47.7161 0.05089 46.6477 -0.134018 45.6677 0.0952702C44.8866 0.28018 44.1645 0.72394 43.6487 1.4118C43.1476 2.08487 42.9634 2.96508 43.1477 3.80827V3.81563L43.1624 3.87481C43.4277 5.02125 44.2087 5.87924 45.2624 6.10113C45.6456 6.18249 46.0287 6.17508 46.3898 6.09372C46.9719 5.95319 47.5098 5.61295 47.8782 5.10999C48.0329 4.8955 48.0772 4.63665 48.0256 4.39256C47.9814 4.20026 47.8635 4.01536 47.694 3.88962C47.4803 3.73429 47.2224 3.68991 46.9793 3.74168C46.7877 3.78606 46.6035 3.89701 46.4782 4.07453C46.3603 4.23725 46.1835 4.34819 45.9919 4.39256C45.874 4.42215 45.7487 4.42215 45.6234 4.39256C45.4392 4.35558 45.2845 4.25943 45.1519 4.1115C45.0193 3.96357 44.9087 3.74909 44.8498 3.47542L44.8424 3.43845C44.7687 3.08342 44.8424 2.70619 45.034 2.45472C45.2992 2.10709 45.6603 1.87778 46.0582 1.78902C46.5593 1.67068 47.1045 1.76686 47.554 2.0923C48.0403 2.44733 48.3645 2.95028 48.4972 3.5272C48.5119 3.59377 48.5266 3.6529 48.534 3.71947C48.6372 4.37775 48.4751 5.02867 48.0845 5.56121L48.0772 5.56857L48.033 5.63515L48.0256 5.64256V5.64996C47.974 5.73132 46.7361 7.86146 43.435 8.63808C42.5508 8.84518 41.5192 8.95611 40.3182 8.89694C38.6161 8.83037 36.9066 8.9857 35.4845 9.31853C34.9834 9.43688 34.5266 9.57741 34.1066 9.73273L33.9002 9.80672C31.5423 10.6351 29.7739 12.6025 29.1771 15.0507C28.9044 16.175 28.897 17.2993 29.1402 18.3569C29.4054 19.4886 29.9655 20.5537 30.7981 21.4486Z" fill="#E0E0E0"/>
<path d="M21.7051 30.0575C21.8377 30.1832 21.963 30.3163 22.0809 30.4494C23.2303 31.7364 23.7608 33.5041 23.5619 35.2941C23.5177 35.6491 23.4588 35.9967 23.3703 36.3296C22.8545 38.3562 21.5356 39.8946 19.7082 40.4715C18.765 40.7748 17.7776 40.7896 16.8566 40.5529C15.8692 40.3014 14.9482 39.7541 14.2408 38.9553C13.4597 38.0751 13.0913 36.8843 13.2166 35.6713C13.246 35.4124 13.2902 35.1536 13.3492 34.9095C13.7029 33.519 14.6166 32.4539 15.8839 32.0471C16.5471 31.8326 17.2471 31.8178 17.8956 31.9879C18.5882 32.1654 19.2292 32.55 19.7229 33.1048C20.4303 33.9036 20.6514 34.976 20.4082 35.9449C20.2608 36.5219 19.9513 37.0618 19.4724 37.4834C19.2513 37.6831 18.9493 37.7497 18.6766 37.6757C18.5145 37.6313 18.3598 37.5426 18.2419 37.4095C18.0429 37.1876 17.9766 36.8843 18.0503 36.6106C18.0945 36.4479 18.1829 36.2926 18.3155 36.1742C18.5218 35.9893 18.6618 35.7527 18.7282 35.5012C18.8387 35.0722 18.7355 34.6062 18.4261 34.2512C18.1682 33.9553 17.8292 33.7557 17.4682 33.6669C17.1292 33.5781 16.7608 33.5855 16.4145 33.6965C15.7366 33.9184 15.2503 34.4731 15.0292 35.3237C14.985 35.4864 14.9555 35.6639 14.9334 35.8488C14.8597 36.581 15.0734 37.2837 15.5229 37.794C15.9945 38.3266 16.6061 38.689 17.2692 38.8591C17.8882 39.0144 18.544 39.007 19.1703 38.8073C20.4082 38.4153 21.2851 37.4094 21.6682 35.9154C21.7345 35.6565 21.7861 35.3754 21.8156 35.087C21.9703 33.7556 21.5945 32.5278 20.7692 31.5959C20.6735 31.4923 20.5777 31.3888 20.4819 31.2926C19.8261 30.6492 19.045 30.2202 18.1977 29.9983C17.4092 29.7986 16.5692 29.7838 15.7145 29.9761C13.8282 30.3977 12.3102 31.7216 11.6397 33.519L11.5587 33.7334V33.7408C11.4187 34.0811 11.2934 34.4731 11.1902 34.9021C10.866 36.1743 10.6892 37.7571 10.7186 39.2955C10.7555 40.6639 10.6008 41.8547 10.3429 42.8828C9.37025 46.7141 6.85759 48.2821 6.46706 48.504C6.38601 48.5558 6.31232 48.6076 6.23127 48.6593C5.37652 49.1697 4.36704 49.3546 3.3723 49.1845C3.26177 49.1623 3.15861 49.1401 3.04808 49.1179C2.07544 48.8664 1.22806 48.2895 0.645954 47.4537C0.027003 46.5661 -0.135089 45.4937 0.108071 44.5174C0.307019 43.7408 0.763839 43.0233 1.46384 42.5203C2.14174 42.0322 3.02596 41.8695 3.8586 42.0618H3.86597L3.92493 42.0766C5.05968 42.365 5.89969 43.1638 6.09864 44.2289C6.17232 44.6135 6.15756 44.9981 6.06914 45.3606C5.92177 45.9449 5.56808 46.47 5.05966 46.8324C4.84597 46.9804 4.58073 47.0247 4.34494 46.9656C4.15336 46.9138 3.97648 46.7954 3.85122 46.6253C3.69648 46.4108 3.65965 46.1446 3.71859 45.9079C3.77017 45.7156 3.88072 45.5381 4.05756 45.4124C4.21967 45.294 4.33757 45.1239 4.38915 44.9316C4.41862 44.8132 4.426 44.6875 4.39652 44.5617C4.35968 44.3768 4.27126 44.2215 4.1239 44.081C3.97653 43.9478 3.76281 43.8295 3.49755 43.7629L3.46072 43.7555C3.10703 43.6742 2.73122 43.7408 2.47332 43.9331C2.11963 44.1919 1.89122 44.547 1.78806 44.9464C1.66279 45.4493 1.74384 45.9966 2.06069 46.4478C2.40701 46.936 2.90072 47.2836 3.46809 47.4241C3.52704 47.4389 3.59336 47.4537 3.65968 47.4685C4.31547 47.5795 4.9639 47.4389 5.5018 47.0543L5.50913 47.0469L5.57546 47.0099L5.58284 47.0025H5.59021C5.67864 46.9508 7.82284 45.7525 8.65548 42.4612C8.87653 41.581 9.00917 40.5455 8.97969 39.3399C8.95022 37.6313 9.14181 35.9228 9.50287 34.4953C9.62813 33.9997 9.77548 33.5337 9.94496 33.1195L10.0187 32.9199C10.8955 30.5678 12.885 28.837 15.3387 28.2897C16.4661 28.0382 17.5861 28.053 18.6324 28.3193C19.7819 28.6151 20.8356 29.1995 21.7051 30.0575Z" fill="#E0E0E0"/>
<path d="M27.9991 49.6354C27.8149 49.5984 27.6307 49.5466 27.4465 49.4948C25.7002 48.9993 24.2339 47.7271 23.416 46.0185C23.2539 45.6783 23.1139 45.3381 23.0033 44.9905C22.3254 42.8973 22.6422 40.7893 23.9391 39.2361C24.6096 38.4372 25.4791 37.8677 26.4296 37.5571C27.4539 37.2242 28.5739 37.1947 29.6497 37.5053C30.836 37.8456 31.8308 38.7035 32.3981 39.85C32.5234 40.1014 32.6192 40.3529 32.7076 40.6044C33.1718 42.0393 32.9581 43.5038 32.0592 44.5836C31.5876 45.1531 30.976 45.5526 30.3055 45.7745C29.5907 46.0112 28.8023 46.0333 28.0507 45.8114C26.9675 45.5008 26.1718 44.6724 25.8475 43.6739C25.656 43.0822 25.6339 42.4165 25.8181 41.773C25.9065 41.4698 26.1349 41.2405 26.4149 41.1517C26.5844 41.1 26.7686 41.0926 26.9454 41.1443C27.2475 41.2331 27.476 41.4624 27.5644 41.7434C27.616 41.9136 27.6233 42.0984 27.5717 42.276C27.4907 42.557 27.4981 42.8455 27.5865 43.1043C27.7265 43.5407 28.0802 43.9106 28.5591 44.0437C28.957 44.1546 29.3697 44.1473 29.7454 44.0215C30.0991 43.9032 30.416 43.6961 30.6665 43.4002C31.1455 42.8159 31.2707 42.0541 30.9833 41.1739C30.9318 41.0038 30.8581 40.8337 30.7697 40.6561C30.4307 39.9609 29.8339 39.458 29.156 39.2657C28.4339 39.0586 27.6897 39.0807 27.0044 39.3026C26.3707 39.5097 25.7886 39.8944 25.3391 40.4195C24.4549 41.4698 24.2412 42.8603 24.7349 44.3987C24.8233 44.665 24.9339 44.9387 25.0665 45.2197C25.6781 46.4919 26.6949 47.3721 27.9549 47.7345C28.0949 47.7789 28.2423 47.8085 28.3823 47.838C29.3255 48.0377 30.2613 47.986 31.1381 47.6975C31.9486 47.4312 32.7076 46.9653 33.3634 46.3144C34.8002 44.8721 35.4118 42.8381 34.9992 40.8633L34.9476 40.6266V40.6192C34.8813 40.242 34.7707 39.8204 34.6307 39.3766C34.2034 38.0674 33.4739 36.5512 32.5897 35.205C31.7939 34.0068 31.256 32.8604 30.9171 31.8027C29.6349 27.8456 30.9981 25.035 31.2191 24.6134C31.256 24.5172 31.3002 24.4285 31.3444 24.3397C31.8234 23.4004 32.6118 22.6682 33.5918 22.2614C33.7023 22.217 33.8055 22.18 33.916 22.143C34.9181 21.8176 36.0013 21.8546 36.9813 22.2688C38.0276 22.7051 38.7792 23.5705 39.1034 24.5838C39.3613 25.39 39.3539 26.285 39.015 27.1282C38.6834 27.9418 37.9908 28.5927 37.136 28.8885H37.1287L37.0623 28.9107C35.8907 29.2953 34.6971 29.0512 33.916 28.2228C33.636 27.927 33.4297 27.572 33.3118 27.1948C33.1129 26.5883 33.1349 25.9226 33.3855 25.3161C33.496 25.0572 33.7023 24.8723 33.9455 24.7983C34.1444 24.7317 34.3728 24.7392 34.5792 24.8279C34.8371 24.9315 35.0213 25.146 35.095 25.3901C35.1613 25.5898 35.1539 25.8116 35.0729 26.0261C34.9918 26.2258 34.9844 26.4403 35.0508 26.64C35.0876 26.7658 35.1539 26.8767 35.2497 26.9802C35.3824 27.1282 35.5518 27.2169 35.7655 27.2539C35.9718 27.2909 36.2224 27.2761 36.5024 27.18L36.5392 27.1652C36.9003 27.0394 37.195 26.7658 37.3203 26.4551C37.4897 26.0261 37.4971 25.5749 37.3645 25.1681C37.195 24.6504 36.8118 24.2066 36.2813 23.9847C35.6992 23.7406 35.0655 23.7185 34.476 23.9108C34.4097 23.933 34.3434 23.9551 34.2845 23.9847C33.636 24.251 33.1423 24.7466 32.877 25.3901L32.8697 25.3975L32.8328 25.4714V25.4788V25.4862C32.7886 25.575 31.5507 27.8604 32.6486 31.2628C32.9434 32.1725 33.4076 33.1636 34.1076 34.2213C35.0876 35.7228 35.8834 37.35 36.355 38.8293C36.5245 39.3396 36.6497 39.8352 36.7308 40.3011L36.775 40.523C37.3129 43.1044 36.5097 45.7745 34.6381 47.6457C33.776 48.5037 32.7739 49.125 31.6907 49.4801C30.5191 49.8277 29.2591 49.9016 27.9991 49.6354Z" fill="#E0E0E0"/>
<path d="M50.929 28.1199C50.8996 27.935 50.8701 27.7427 50.8259 27.5578C50.4501 25.7753 49.2859 24.222 47.6427 23.2901C47.3111 23.1052 46.9795 22.9425 46.6479 22.8093C44.6142 21.9883 42.4922 22.1658 40.8711 23.3641C40.0311 23.9853 39.4048 24.8137 39.029 25.7457C38.6311 26.7442 38.5206 27.8684 38.7563 28.9631C39.0142 30.1761 39.8026 31.2264 40.9005 31.8699C41.1437 32.0104 41.3869 32.1287 41.63 32.2249C43.0227 32.787 44.4963 32.6687 45.6311 31.8403C46.2279 31.4039 46.6701 30.8196 46.9353 30.1613C47.2153 29.4586 47.289 28.6746 47.1269 27.9054C46.8911 26.8033 46.1174 25.9454 45.1448 25.5608C44.5627 25.3315 43.9143 25.2575 43.2585 25.3981C42.949 25.4646 42.7132 25.6791 42.6027 25.9528C42.5363 26.1155 42.5216 26.3004 42.5585 26.4853C42.6248 26.796 42.8385 27.0326 43.1111 27.1436C43.2732 27.2102 43.4574 27.225 43.6416 27.188C43.929 27.1288 44.209 27.1584 44.4669 27.2545C44.8943 27.4246 45.2332 27.8019 45.3364 28.29C45.4248 28.6968 45.3806 29.1036 45.2332 29.4734C45.0932 29.8211 44.8648 30.1243 44.5553 30.3536C43.9437 30.7974 43.1774 30.864 42.3153 30.5237C42.1532 30.4572 41.9837 30.3758 41.8142 30.2797C41.1511 29.895 40.6869 29.2663 40.5395 28.5711C40.3774 27.8388 40.4511 27.0918 40.7237 26.4187C40.9742 25.7974 41.3869 25.2427 41.9469 24.8285C43.0521 24.0149 44.4448 23.8892 45.9479 24.4883C46.2132 24.5918 46.4711 24.725 46.7364 24.8729C47.9595 25.5682 48.7627 26.6554 49.0353 27.935C49.0648 28.0829 49.0943 28.2234 49.109 28.3714C49.2417 29.3255 49.1311 30.2649 48.7848 31.1154C48.468 31.9069 47.9522 32.6391 47.2595 33.2456C45.7343 34.5917 43.6637 35.0651 41.7332 34.5178L41.4974 34.4512H41.49C41.1142 34.3551 40.709 34.2219 40.2742 34.0444C38.9995 33.534 37.5405 32.6983 36.2584 31.722C35.1237 30.8418 34.0184 30.2353 32.9868 29.8137C29.1405 28.2678 26.252 29.4365 25.8246 29.6362C25.7289 29.6658 25.6331 29.7027 25.5446 29.7471C24.5794 30.1613 23.7983 30.901 23.3268 31.8625C23.2752 31.966 23.231 32.077 23.1868 32.1805C22.7962 33.1642 22.7667 34.2441 23.1057 35.2574C23.4667 36.3373 24.2847 37.1435 25.2647 37.5355C26.0457 37.8535 26.9373 37.9053 27.7994 37.6243C28.632 37.3506 29.3247 36.6923 29.671 35.8639V35.8565L29.6931 35.7974C30.1573 34.6509 29.9952 33.4379 29.2215 32.6021C28.9415 32.2989 28.6099 32.077 28.2415 31.929C27.652 31.6923 26.9889 31.6628 26.3699 31.8772C26.1121 31.966 25.9057 32.1657 25.8173 32.4024C25.7363 32.5947 25.7289 32.824 25.8026 33.0385C25.891 33.3048 26.0899 33.4971 26.3257 33.5932C26.5173 33.6746 26.7457 33.682 26.9594 33.608C27.1584 33.5415 27.3794 33.5489 27.571 33.6228C27.6889 33.6746 27.7994 33.7486 27.8952 33.8447C28.0278 33.9926 28.1089 34.1627 28.131 34.3772C28.1531 34.5843 28.1163 34.8358 28.0131 35.1095L27.9984 35.1465C27.851 35.5015 27.5563 35.7752 27.2394 35.8787C26.8047 36.0192 26.3552 35.9971 25.9573 35.8343C25.4562 35.6346 25.0362 35.2204 24.852 34.6657C24.6531 34.0666 24.6678 33.4305 24.8963 32.8536C24.9184 32.787 24.9478 32.7278 24.9773 32.6613C25.2868 32.0326 25.8173 31.5666 26.4731 31.3447H26.4804L26.5542 31.3152H26.5615H26.5689C26.6647 31.2708 29.0152 30.1909 32.3236 31.5222C33.2079 31.8773 34.1657 32.4098 35.1679 33.179C36.5973 34.2663 38.1595 35.1687 39.5963 35.7382C40.0974 35.9379 40.5763 36.1006 41.0332 36.2116L41.2542 36.2707C43.789 36.9808 46.4932 36.3595 48.4827 34.6065C49.3964 33.8077 50.0817 32.8388 50.5017 31.7737C50.9512 30.6495 51.1059 29.3921 50.929 28.1199Z" fill="#E0E0E0"/>
<path d="M28.226 27.1657C28.5134 27.3284 28.8155 27.4764 29.1176 27.5947C29.0071 27.3137 28.8744 27.0178 28.7123 26.7368C28.4544 26.2708 28.1228 25.8492 27.7618 25.6051C27.6513 25.5311 27.5628 25.5089 27.4818 25.5089C27.3639 25.5089 27.2534 25.5681 27.1723 25.6421C27.0913 25.7234 27.0323 25.8344 27.0397 25.9528C27.0397 26.0341 27.0618 26.1228 27.1355 26.2338C27.3565 26.5814 27.7692 26.8995 28.226 27.1657Z" fill="#E0E0E0"/>
<path d="M26.1381 24.606L26.315 24.7835L26.1381 24.606C26.5065 24.2362 26.9855 24.0365 27.4718 24.0439C27.8476 24.0439 28.2308 24.1622 28.5697 24.3915C29.4466 24.9832 30.0213 26.0039 30.3971 26.8767C30.7729 27.7568 30.935 28.4965 30.9571 28.5704C30.9645 28.6222 30.9718 28.6666 30.9718 28.7184C30.9718 28.9255 30.8834 29.1029 30.7508 29.2361C30.6181 29.3692 30.4413 29.458 30.235 29.458C30.1908 29.458 30.1392 29.4506 30.0876 29.4432C30.0066 29.4284 29.2697 29.2583 28.4002 28.8885C27.5307 28.5113 26.5139 27.9344 25.9244 27.0542C25.696 26.714 25.5781 26.3293 25.5781 25.9521C25.5781 25.4566 25.7697 24.9758 26.1381 24.606ZM27.0297 25.9521C27.0297 26.0335 27.0518 26.1222 27.1255 26.2332C27.3539 26.5808 27.7592 26.8988 28.2234 27.1651C28.5108 27.3278 28.8129 27.4758 29.115 27.5941C29.0045 27.313 28.8718 27.0172 28.7097 26.7361C28.4518 26.2702 28.1202 25.8486 27.7592 25.6045C27.6486 25.5305 27.5602 25.5083 27.4792 25.5083C27.3613 25.5083 27.2507 25.5675 27.1697 25.6414C27.0886 25.7228 27.0297 25.8338 27.0297 25.9521Z" fill="#E0E0E0"/>
<path d="M21.9619 19.9466C21.6745 19.7838 21.3724 19.636 21.0703 19.5176C21.1808 19.7987 21.3135 20.0945 21.4756 20.3756C21.7335 20.8415 22.065 21.2632 22.4261 21.5072C22.5366 21.5812 22.625 21.6034 22.7061 21.6034C22.824 21.6034 22.9345 21.5442 23.0156 21.4702C23.0966 21.3889 23.1556 21.2779 23.1482 21.1596C23.1482 21.0782 23.1261 20.9895 23.0524 20.8785C22.824 20.5383 22.4187 20.2128 21.9619 19.9466Z" fill="#E0E0E0"/>
<path d="M24.0407 22.5059L23.8639 22.3284L24.0407 22.5059C23.6723 22.8757 23.1934 23.0754 22.7071 23.068C22.3313 23.068 21.9481 22.9497 21.6092 22.7204C20.7323 22.1287 20.1576 21.108 19.7818 20.2352C19.406 19.355 19.2439 18.6154 19.2218 18.5415C19.2144 18.4897 19.207 18.4453 19.207 18.3935C19.207 18.1864 19.2954 18.0089 19.4281 17.8758C19.5607 17.7426 19.7376 17.6539 19.9439 17.6539C19.9881 17.6539 20.0397 17.6613 20.0913 17.6687C20.1723 17.6835 20.9091 17.8536 21.7786 18.2234C22.6481 18.6006 23.6649 19.1775 24.2544 20.0577C24.4828 20.3979 24.6008 20.7825 24.6008 21.1598C24.6081 21.6553 24.4165 22.1361 24.0407 22.5059ZM23.1491 21.1598C23.1491 21.0784 23.1271 20.9896 23.0534 20.8787C22.825 20.5311 22.4197 20.213 21.9555 19.9467C21.6681 19.784 21.366 19.6361 21.0639 19.5178C21.1744 19.7988 21.3071 20.0947 21.4692 20.3757C21.7271 20.8417 22.0586 21.2633 22.4197 21.5074C22.5302 21.5814 22.6186 21.6036 22.6997 21.6036C22.8176 21.6036 22.9281 21.5444 23.0091 21.4704C23.0976 21.389 23.1491 21.2781 23.1491 21.1598Z" fill="#E0E0E0"/>
<path d="M39.0195 39.7468C39.0195 38.7409 39.83 37.9272 40.8321 37.9272C41.8343 37.9272 42.6448 38.7409 42.6448 39.7468C42.6448 40.7527 41.8343 41.5663 40.8321 41.5663C39.83 41.5737 39.0195 40.7527 39.0195 39.7468Z" fill="#E0E0E0"/>
<path d="M30.8203 49.266C30.8203 49.7098 31.1887 50.0723 31.6308 50.0723C36.6193 50.0427 41.3941 48.0679 44.9236 44.5768C48.4531 41.0857 50.4573 36.352 50.5015 31.4038C50.5089 30.96 50.1478 30.5902 49.7057 30.5902C49.2636 30.5902 48.8951 30.9452 48.8951 31.389C48.8583 35.9008 47.0309 40.2277 43.7962 43.4229C40.5688 46.6182 36.1919 48.4229 31.6235 48.4525C31.1813 48.4599 30.8203 48.8223 30.8203 49.266Z" fill="#E0E0E0"/>
<path d="M14.6767 29.6951C15.0672 29.6951 15.384 29.3845 15.384 28.9925C15.4135 25.0428 17.0198 21.2558 19.842 18.4674C22.6641 15.6716 26.4957 14.0888 30.4894 14.0666C30.8799 14.0666 31.1894 13.7485 31.1894 13.3565C31.1894 12.9645 30.8726 12.6538 30.482 12.6538C26.1199 12.6834 21.942 14.4068 18.8546 17.4615C15.7672 20.5162 14.0135 24.6582 13.9767 28.9851C13.9693 29.3771 14.2861 29.6951 14.6767 29.6951Z" fill="#E0E0E0"/>
</svg>
