<svg width="51" height="51" viewBox="0 0 51 51" fill="none" xmlns="http://www.w3.org/2000/svg">
<path d="M30.7981 29.5524C30.9234 29.4192 31.0486 29.2935 31.1813 29.1677C32.4413 27.9917 34.195 27.4148 35.9781 27.5849C36.3318 27.6219 36.6781 27.6737 37.0097 27.755C39.0434 28.2284 40.5982 29.5228 41.2097 31.3423C41.5266 32.2816 41.5634 33.2727 41.3497 34.2047C41.1213 35.2032 40.5908 36.1351 39.8098 36.86C38.9476 37.6588 37.7687 38.0508 36.5602 37.9546C36.295 37.9324 36.0445 37.8955 35.8013 37.8363C34.4087 37.5109 33.3255 36.6159 32.8981 35.3511C32.6697 34.6855 32.6402 33.9902 32.795 33.3319C32.9571 32.6292 33.3255 31.9784 33.8708 31.4754C34.6518 30.7432 35.7203 30.4991 36.6855 30.7284C37.2603 30.8615 37.8055 31.1648 38.2403 31.6307C38.4466 31.8526 38.5129 32.1485 38.4466 32.4222C38.4097 32.5849 38.3213 32.7402 38.1961 32.8586C37.975 33.0657 37.6803 33.1322 37.4076 33.0656C37.2455 33.0287 37.0908 32.9399 36.9729 32.8141C36.7813 32.607 36.5455 32.4739 36.295 32.4148C35.8676 32.3186 35.4034 32.4222 35.0571 32.7476C34.7697 33.0139 34.5781 33.3541 34.4897 33.7239C34.4086 34.0716 34.4234 34.434 34.5413 34.7816C34.7771 35.4547 35.3371 35.9355 36.1918 36.1352C36.3539 36.1721 36.5308 36.2017 36.715 36.2165C37.4445 36.2757 38.1445 36.0464 38.6382 35.5804C39.1613 35.0923 39.5076 34.471 39.6624 33.8053C39.8097 33.184 39.7803 32.5257 39.574 31.897C39.154 30.6618 38.1371 29.8038 36.6487 29.4488C36.3908 29.3896 36.1108 29.3453 35.8234 29.3157C34.4971 29.1899 33.2813 29.5894 32.3676 30.4399C32.2644 30.5361 32.1687 30.6322 32.0729 30.7358C31.4465 31.4088 31.0339 32.2002 30.835 33.0508C30.6508 33.8422 30.6581 34.6928 30.8644 35.5434C31.3286 37.4221 32.6771 38.9236 34.475 39.5597L34.696 39.6336H34.7034C35.0424 39.7668 35.4402 39.8851 35.8676 39.9812C37.1423 40.2771 38.7266 40.425 40.2518 40.3659C41.615 40.3067 42.8013 40.4325 43.8329 40.6691C47.6645 41.5641 49.2782 44.0567 49.5066 44.4487C49.5656 44.5226 49.6172 44.604 49.6688 44.6854C50.1993 45.536 50.3982 46.5419 50.2509 47.5404C50.2361 47.6513 50.214 47.7623 50.1919 47.8658C49.9635 48.8421 49.4035 49.7075 48.5856 50.3066C47.7161 50.9501 46.6477 51.135 45.6677 50.9057C44.8866 50.7208 44.1645 50.277 43.6487 49.5892C43.1476 48.9161 42.9634 48.0359 43.1477 47.1927V47.1854L43.1624 47.1262C43.4277 45.9797 44.2087 45.1217 45.2624 44.8998C45.6456 44.8185 46.0287 44.8259 46.3898 44.9073C46.9719 45.0478 47.5098 45.388 47.8782 45.891C48.0329 46.1055 48.0772 46.3643 48.0256 46.6084C47.9814 46.8007 47.8635 46.9856 47.694 47.1114C47.4803 47.2667 47.2224 47.3111 46.9793 47.2593C46.7877 47.2149 46.6035 47.104 46.4782 46.9265C46.3603 46.7637 46.1835 46.6528 45.9919 46.6084C45.874 46.5788 45.7487 46.5788 45.6234 46.6084C45.4392 46.6454 45.2845 46.7416 45.1519 46.8895C45.0193 47.0374 44.9087 47.2519 44.8498 47.5256L44.8424 47.5625C44.7687 47.9176 44.8424 48.2948 45.034 48.5463C45.2992 48.8939 45.6603 49.1232 46.0582 49.212C46.5593 49.3303 47.1045 49.2341 47.554 48.9087C48.0403 48.5536 48.3645 48.0507 48.4972 47.4738C48.5119 47.4072 48.5266 47.3481 48.534 47.2815C48.6372 46.6232 48.4751 45.9723 48.0845 45.4398L48.0772 45.4324L48.033 45.3658L48.0256 45.3584V45.351C47.974 45.2697 46.7361 43.1395 43.435 42.3629C42.5508 42.1558 41.5192 42.0449 40.3182 42.104C38.6161 42.1706 36.9066 42.0153 35.4845 41.6824C34.9834 41.5641 34.5266 41.4236 34.1066 41.2682L33.9002 41.1943C31.5423 40.3659 29.7739 38.3984 29.1771 35.9502C28.9044 34.826 28.897 33.7017 29.1402 32.644C29.4054 31.5124 29.9655 30.4473 30.7981 29.5524Z" fill="#E0E0E0"/>
<path d="M21.7051 20.943C21.8377 20.8173 21.963 20.6842 22.0809 20.551C23.2303 19.2641 23.7608 17.4964 23.5619 15.7064C23.5177 15.3514 23.4588 15.0038 23.3703 14.6709C22.8545 12.6443 21.5356 11.1059 19.7082 10.529C18.765 10.2257 17.7776 10.2109 16.8566 10.4476C15.8692 10.699 14.9482 11.2464 14.2408 12.0452C13.4597 12.9254 13.0913 14.1162 13.2166 15.3292C13.246 15.5881 13.2902 15.8469 13.3492 16.091C13.7029 17.4815 14.6166 18.5466 15.8839 18.9534C16.5471 19.1679 17.2471 19.1827 17.8956 19.0126C18.5882 18.8351 19.2292 18.4505 19.7229 17.8957C20.4303 17.0969 20.6514 16.0245 20.4082 15.0555C20.2608 14.4786 19.9513 13.9387 19.4724 13.5171C19.2513 13.3174 18.9493 13.2508 18.6766 13.3248C18.5145 13.3691 18.3598 13.4579 18.2419 13.591C18.0429 13.8129 17.9766 14.1162 18.0503 14.3898C18.0945 14.5526 18.1829 14.7079 18.3155 14.8263C18.5218 15.0112 18.6618 15.2478 18.7282 15.4993C18.8387 15.9283 18.7355 16.3943 18.4261 16.7493C18.1682 17.0452 17.8292 17.2448 17.4682 17.3336C17.1292 17.4223 16.7608 17.415 16.4145 17.304C15.7366 17.0821 15.2503 16.5274 15.0292 15.6768C14.985 15.5141 14.9555 15.3366 14.9334 15.1517C14.8597 14.4195 15.0734 13.7168 15.5229 13.2064C15.9945 12.6739 16.6061 12.3115 17.2692 12.1414C17.8882 11.986 18.544 11.9934 19.1703 12.1931C20.4082 12.5852 21.2851 13.591 21.6682 15.0851C21.7345 15.344 21.7861 15.625 21.8156 15.9135C21.9703 17.2449 21.5945 18.4727 20.7692 19.4046C20.6735 19.5082 20.5777 19.6117 20.4819 19.7078C19.8261 20.3513 19.045 20.7803 18.1977 21.0022C17.4092 21.2019 16.5692 21.2167 15.7145 21.0244C13.8282 20.6028 12.3102 19.2789 11.6397 17.4815L11.5587 17.2671V17.2596C11.4187 16.9194 11.2934 16.5274 11.1902 16.0984C10.866 14.8262 10.6892 13.2434 10.7186 11.705C10.7555 10.3366 10.6008 9.14583 10.3429 8.11773C9.37025 4.28641 6.85759 2.71835 6.46706 2.49646C6.38601 2.44468 6.31232 2.39294 6.23127 2.34116C5.37652 1.83081 4.36704 1.64589 3.3723 1.816C3.26177 1.83819 3.15861 1.8604 3.04808 1.88259C2.07544 2.13407 1.22806 2.71098 0.645954 3.54677C0.027003 4.43434 -0.135089 5.50679 0.108071 6.48312C0.307019 7.25974 0.763839 7.97719 1.46384 8.48015C2.14174 8.96831 3.02596 9.13103 3.8586 8.93872H3.86597L3.92493 8.92391C5.05968 8.63545 5.89969 7.83666 6.09864 6.77159C6.17232 6.38697 6.15756 6.00234 6.06914 5.63992C5.92177 5.0556 5.56808 4.53047 5.05966 4.16805C4.84597 4.02012 4.58073 3.97574 4.34494 4.03492C4.15336 4.08669 3.97648 4.20505 3.85122 4.37517C3.69648 4.58966 3.65965 4.85591 3.71859 5.09259C3.77017 5.2849 3.88072 5.4624 4.05756 5.58814C4.21967 5.70648 4.33757 5.87661 4.38915 6.06892C4.41862 6.18726 4.426 6.313 4.39652 6.43874C4.35968 6.62365 4.27126 6.77899 4.1239 6.91952C3.97653 7.05266 3.76281 7.17099 3.49755 7.23756L3.46072 7.24497C3.10703 7.32632 2.73122 7.25972 2.47332 7.06741C2.11963 6.80854 1.89122 6.45352 1.78806 6.05411C1.66279 5.55116 1.74384 5.00385 2.06069 4.55267C2.40701 4.06451 2.90072 3.71688 3.46809 3.57634C3.52704 3.56155 3.59336 3.54676 3.65968 3.53197C4.31547 3.42102 4.9639 3.56155 5.5018 3.94616L5.50913 3.95357L5.57546 3.99054L5.58284 3.99794H5.59021C5.67864 4.04972 7.82284 5.24794 8.65548 8.53933C8.87653 9.4195 9.00917 10.455 8.97969 11.6606C8.95022 13.3691 9.14181 15.0777 9.50287 16.5052C9.62813 17.0008 9.77548 17.4668 9.94496 17.881L10.0187 18.0806C10.8955 20.4327 12.885 22.1634 15.3387 22.7108C16.4661 22.9623 17.5861 22.9475 18.6324 22.6812C19.7819 22.3854 20.8356 21.801 21.7051 20.943Z" fill="#E0E0E0"/>
<path d="M27.9972 1.36476C27.813 1.40174 27.6287 1.45352 27.4445 1.50529C25.6982 2.00085 24.2319 3.27304 23.414 4.9816C23.2519 5.32183 23.1119 5.66203 23.0014 6.00966C22.3235 8.10284 22.6403 10.2108 23.9371 11.7641C24.6077 12.5629 25.4772 13.1324 26.4277 13.4431C27.4519 13.7759 28.5719 13.8054 29.6477 13.4948C30.834 13.1546 31.8288 12.2966 32.3962 11.1502C32.5214 10.8987 32.6172 10.6472 32.7056 10.3957C33.1698 8.96081 32.9562 7.49637 32.0572 6.4165C31.5856 5.84698 30.974 5.44754 30.3035 5.22565C29.5888 4.98896 28.8003 4.96678 28.0488 5.18868C26.9656 5.49932 26.1698 6.32773 25.8456 7.32624C25.654 7.91795 25.6319 8.58363 25.8161 9.22712C25.9046 9.53037 26.133 9.75963 26.413 9.84839C26.5825 9.90016 26.7666 9.90756 26.9435 9.85579C27.2456 9.76703 27.474 9.53775 27.5625 9.25669C27.614 9.08657 27.6214 8.90168 27.5698 8.72417C27.4887 8.4431 27.4961 8.15465 27.5845 7.89578C27.7245 7.45939 28.0782 7.08956 28.5572 6.95642C28.9551 6.84548 29.3677 6.85285 29.7435 6.97859C30.0972 7.09693 30.414 7.30405 30.6646 7.5999C31.1435 8.18422 31.2688 8.94605 30.9814 9.82622C30.9298 9.99634 30.8561 10.1665 30.7677 10.344C30.4288 11.0392 29.8319 11.5421 29.154 11.7345C28.4319 11.9416 27.6877 11.9194 27.0024 11.6975C26.3688 11.4904 25.7866 11.1058 25.3372 10.5806C24.4529 9.53033 24.2393 8.13986 24.7329 6.60141C24.8214 6.33514 24.9319 6.06144 25.0645 5.78038C25.6761 4.5082 26.693 3.62806 27.953 3.26563C28.093 3.22126 28.2403 3.19166 28.3803 3.16207C29.3235 2.96237 30.2593 3.01415 31.1361 3.30261C31.9467 3.56888 32.7056 4.03485 33.3614 4.68573C34.7983 6.12802 35.4099 8.16202 34.9972 10.1369L34.9456 10.3735V10.3809C34.8793 10.7582 34.7688 11.1798 34.6288 11.6235C34.2014 12.9327 33.4719 14.449 32.5877 15.7951C31.7919 16.9933 31.2541 18.1397 30.9151 19.1974C29.633 23.1545 30.9961 25.9651 31.2172 26.3867C31.254 26.4829 31.2983 26.5716 31.3425 26.6604C31.8214 27.5997 32.6099 28.332 33.5899 28.7388C33.7004 28.7831 33.8035 28.8201 33.9141 28.8571C34.9162 29.1825 35.9993 29.1456 36.9793 28.7314C38.0257 28.295 38.7772 27.4296 39.1015 26.4163C39.3594 25.6101 39.352 24.7151 39.013 23.8719C38.6815 23.0583 37.9888 22.4075 37.1341 22.1116H37.1267L37.0604 22.0894C35.8888 21.7048 34.6951 21.9489 33.9141 22.7773C33.6341 23.0731 33.4277 23.4281 33.3099 23.8054C33.1109 24.4119 33.133 25.0776 33.3835 25.6841C33.494 25.9429 33.7004 26.1279 33.9435 26.2018C34.1425 26.2684 34.3709 26.261 34.5772 26.1722C34.8351 26.0687 35.0193 25.8542 35.093 25.6101C35.1593 25.4104 35.152 25.1885 35.0709 24.974C34.9899 24.7743 34.9825 24.5598 35.0488 24.3601C35.0856 24.2343 35.152 24.1234 35.2478 24.0199C35.3804 23.8719 35.5499 23.7832 35.7636 23.7462C35.9699 23.7092 36.2204 23.724 36.5004 23.8202L36.5372 23.835C36.8983 23.9607 37.193 24.2343 37.3183 24.545C37.4878 24.974 37.4951 25.4252 37.3625 25.832C37.193 26.3497 36.8099 26.7935 36.2793 27.0154C35.6972 27.2595 35.0636 27.2817 34.4741 27.0893C34.4078 27.0672 34.3414 27.045 34.2825 27.0154C33.6341 26.7491 33.1404 26.2536 32.8751 25.6101L32.8677 25.6027L32.8309 25.5287V25.5213V25.5139C32.7867 25.4252 31.5488 23.1397 32.6467 19.7373C32.9414 18.8276 33.4057 17.8365 34.1057 16.7788C35.0857 15.2773 35.8815 13.6501 36.353 12.1709C36.5225 11.6605 36.6478 11.165 36.7288 10.699L36.773 10.4771C37.3109 7.89577 36.5078 5.22567 34.6362 3.35439C33.7741 2.49641 32.7719 1.87508 31.6888 1.52005C30.5172 1.17242 29.2572 1.09849 27.9972 1.36476Z" fill="#E0E0E0"/>
<path d="M50.929 22.8809C50.8996 23.0658 50.8701 23.2581 50.8259 23.443C50.4501 25.2255 49.2859 26.7788 47.6427 27.7107C47.3111 27.8956 46.9795 28.0583 46.6479 28.1915C44.6142 29.0125 42.4922 28.835 40.8711 27.6367C40.0311 27.0154 39.4048 26.1871 39.029 25.2551C38.6311 24.2566 38.5206 23.1324 38.7563 22.0377C39.0142 20.8247 39.8026 19.7744 40.9005 19.1309C41.1437 18.9904 41.3869 18.872 41.63 18.7759C43.0227 18.2138 44.4963 18.3321 45.6311 19.1605C46.2279 19.5969 46.6701 20.1812 46.9353 20.8395C47.2153 21.5422 47.289 22.3262 47.1269 23.0954C46.8911 24.1975 46.1174 25.0554 45.1448 25.44C44.5627 25.6693 43.9143 25.7433 43.2585 25.6027C42.949 25.5362 42.7132 25.3217 42.6027 25.048C42.5363 24.8853 42.5216 24.7004 42.5585 24.5155C42.6248 24.2048 42.8385 23.9681 43.1111 23.8572C43.2732 23.7906 43.4574 23.7758 43.6416 23.8128C43.929 23.872 44.209 23.8424 44.4669 23.7463C44.8943 23.5762 45.2332 23.1989 45.3364 22.7108C45.4248 22.304 45.3806 21.8972 45.2332 21.5274C45.0932 21.1797 44.8648 20.8765 44.5553 20.6472C43.9437 20.2034 43.1774 20.1368 42.3153 20.477C42.1532 20.5436 41.9837 20.625 41.8142 20.7211C41.1511 21.1058 40.6869 21.7344 40.5395 22.4297C40.3774 23.1619 40.4511 23.909 40.7237 24.5821C40.9742 25.2034 41.3869 25.7581 41.9469 26.1723C43.0521 26.9859 44.4448 27.1116 45.9479 26.5125C46.2132 26.409 46.4711 26.2758 46.7364 26.1279C47.9595 25.4326 48.7627 24.3454 49.0353 23.0658C49.0648 22.9179 49.0943 22.7773 49.109 22.6294C49.2417 21.6753 49.1311 20.7359 48.7848 19.8853C48.468 19.0939 47.9522 18.3617 47.2595 17.7552C45.7343 16.409 43.6637 15.9357 41.7332 16.483L41.4974 16.5496H41.49C41.1142 16.6457 40.709 16.7789 40.2742 16.9564C38.9995 17.4668 37.5405 18.3025 36.2584 19.2788C35.1237 20.159 34.0184 20.7655 32.9868 21.1871C29.1405 22.733 26.252 21.5643 25.8246 21.3646C25.7289 21.335 25.6331 21.2981 25.5446 21.2537C24.5794 20.8395 23.7983 20.0998 23.3268 19.1383C23.2752 19.0348 23.231 18.9238 23.1868 18.8203C22.7962 17.8365 22.7667 16.7567 23.1057 15.7434C23.4667 14.6635 24.2847 13.8573 25.2647 13.4653C26.0457 13.1473 26.9373 13.0955 27.7994 13.3765C28.632 13.6502 29.3247 14.3085 29.671 15.1369V15.1443L29.6931 15.2034C30.1573 16.3499 29.9952 17.5629 29.2215 18.3987C28.9415 18.7019 28.6099 18.9238 28.2415 19.0718C27.652 19.3084 26.9889 19.338 26.3699 19.1235C26.1121 19.0348 25.9057 18.8351 25.8173 18.5984C25.7363 18.4061 25.7289 18.1768 25.8026 17.9623C25.891 17.696 26.0899 17.5037 26.3257 17.4076C26.5173 17.3262 26.7457 17.3188 26.9594 17.3928C27.1584 17.4593 27.3794 17.4519 27.571 17.378C27.6889 17.3262 27.7994 17.2522 27.8952 17.1561C28.0278 17.0082 28.1089 16.8381 28.131 16.6236C28.1531 16.4165 28.1163 16.165 28.0131 15.8913L27.9984 15.8543C27.851 15.4993 27.5563 15.2256 27.2394 15.1221C26.8047 14.9815 26.3552 15.0037 25.9573 15.1665C25.4562 15.3662 25.0362 15.7804 24.852 16.3351C24.6531 16.9342 24.6678 17.5703 24.8963 18.1472C24.9184 18.2138 24.9478 18.273 24.9773 18.3395C25.2868 18.9682 25.8173 19.4342 26.4731 19.6561H26.4804L26.5542 19.6856H26.5615H26.5689C26.6647 19.73 29.0152 20.8099 32.3236 19.4786C33.2079 19.1235 34.1657 18.591 35.1679 17.8218C36.5973 16.7345 38.1595 15.8321 39.5963 15.2626C40.0974 15.0629 40.5763 14.9002 41.0332 14.7892L41.2542 14.7301C43.789 14.02 46.4932 14.6413 48.4827 16.3943C49.3964 17.1931 50.0817 18.162 50.5017 19.2271C50.9512 20.3513 51.1059 21.6087 50.929 22.8809Z" fill="#E0E0E0"/>
<path d="M28.226 23.835C28.5134 23.6723 28.8155 23.5243 29.1176 23.406C29.0071 23.6871 28.8744 23.9829 28.7123 24.264C28.4544 24.7299 28.1228 25.1516 27.7618 25.3956C27.6513 25.4696 27.5628 25.4918 27.4818 25.4918C27.3639 25.4918 27.2534 25.4326 27.1723 25.3587C27.0913 25.2773 27.0323 25.1663 27.0397 25.048C27.0397 24.9666 27.0618 24.8779 27.1355 24.767C27.3565 24.4193 27.7692 24.1013 28.226 23.835Z" fill="#E0E0E0"/>
<path d="M26.14 26.3941L26.3169 26.2166L26.14 26.3941C26.5085 26.764 26.9875 26.9637 27.4738 26.9563C27.8496 26.9563 28.2327 26.838 28.5717 26.6087C29.4485 26.017 30.0232 24.9962 30.399 24.1234C30.7748 23.2433 30.9369 22.5037 30.9591 22.4297C30.9664 22.3779 30.9738 22.3335 30.9738 22.2818C30.9738 22.0747 30.8853 21.8972 30.7527 21.764C30.6201 21.6309 30.4433 21.5421 30.237 21.5421C30.1927 21.5421 30.1412 21.5495 30.0896 21.5569C30.0085 21.5717 29.2716 21.7418 28.4022 22.1117C27.5327 22.4889 26.5159 23.0658 25.9264 23.9459C25.698 24.2862 25.5801 24.6708 25.5801 25.048C25.5801 25.5435 25.7716 26.0243 26.14 26.3941ZM27.0316 25.048C27.0316 24.9666 27.0538 24.8779 27.1274 24.767C27.3559 24.4193 27.7611 24.1013 28.2253 23.835C28.5127 23.6723 28.8148 23.5244 29.1169 23.406C29.0064 23.6871 28.8738 23.9829 28.7117 24.264C28.4538 24.7299 28.1222 25.1516 27.7611 25.3956C27.6506 25.4696 27.5622 25.4918 27.4811 25.4918C27.3632 25.4918 27.2527 25.4326 27.1716 25.3587C27.0906 25.2773 27.0316 25.1663 27.0316 25.048Z" fill="#E0E0E0"/>
<path d="M21.9619 31.0539C21.6745 31.2166 21.3724 31.3645 21.0703 31.4829C21.1808 31.2018 21.3135 30.906 21.4756 30.6249C21.7335 30.1589 22.065 29.7373 22.4261 29.4933C22.5366 29.4193 22.625 29.3971 22.7061 29.3971C22.824 29.3971 22.9345 29.4563 23.0156 29.5303C23.0966 29.6116 23.1556 29.7226 23.1482 29.8409C23.1482 29.9223 23.1261 30.011 23.0524 30.122C22.824 30.4622 22.4187 30.7877 21.9619 31.0539Z" fill="#E0E0E0"/>
<path d="M24.0407 28.4946L23.8639 28.6721L24.0407 28.4946C23.6723 28.1248 23.1934 27.9251 22.7071 27.9324C22.3313 27.9324 21.9481 28.0508 21.6092 28.2801C20.7323 28.8718 20.1576 29.8925 19.7818 30.7653C19.406 31.6454 19.2439 32.3851 19.2218 32.459C19.2144 32.5108 19.207 32.5552 19.207 32.607C19.207 32.8141 19.2954 32.9916 19.4281 33.1247C19.5607 33.2579 19.7376 33.3466 19.9439 33.3466C19.9881 33.3466 20.0397 33.3392 20.0913 33.3318C20.1723 33.317 20.9091 33.1469 21.7786 32.7771C22.6481 32.3999 23.6649 31.823 24.2544 30.9428C24.4828 30.6025 24.6008 30.2179 24.6008 29.8407C24.6081 29.3452 24.4165 28.8644 24.0407 28.4946ZM23.1491 29.8407C23.1491 29.9221 23.1271 30.0108 23.0534 30.1218C22.825 30.4694 22.4197 30.7875 21.9555 31.0537C21.6681 31.2165 21.366 31.3644 21.0639 31.4827C21.1744 31.2016 21.3071 30.9058 21.4692 30.6247C21.7271 30.1588 22.0586 29.7372 22.4197 29.4931C22.5302 29.4191 22.6186 29.3969 22.6997 29.3969C22.8176 29.3969 22.9281 29.4561 23.0091 29.5301C23.0976 29.6115 23.1491 29.7224 23.1491 29.8407Z" fill="#E0E0E0"/>
<path d="M39.0215 11.2537C39.0215 12.2596 39.832 13.0732 40.8341 13.0732C41.8362 13.0732 42.6468 12.2596 42.6468 11.2537C42.6468 10.2478 41.8362 9.43419 40.8341 9.43419C39.832 9.4268 39.0215 10.2478 39.0215 11.2537Z" fill="#E0E0E0"/>
<path d="M30.8203 1.73445C30.8203 1.29067 31.1887 0.928223 31.6308 0.928223C36.6193 0.957808 41.3941 2.93264 44.9236 6.42373C48.4531 9.91482 50.4573 14.6485 50.5015 19.5967C50.5089 20.0405 50.1478 20.4103 49.7057 20.4103C49.2636 20.4103 48.8951 20.0553 48.8951 19.6115C48.8583 15.0997 47.0309 10.7728 43.7962 7.57756C40.5688 4.38232 36.1919 2.57762 31.6235 2.54803C31.1813 2.54064 30.8203 2.17823 30.8203 1.73445Z" fill="#E0E0E0"/>
<path d="M14.6747 21.3054C15.0652 21.3054 15.3821 21.616 15.3821 22.008C15.4116 25.9577 17.0179 29.7447 19.84 32.5331C22.6621 35.3289 26.4937 36.9117 30.4875 36.9339C30.878 36.9339 31.1875 37.252 31.1875 37.644C31.1875 38.036 30.8706 38.3466 30.4801 38.3466C26.1179 38.3171 21.94 36.5937 18.8527 33.539C15.7653 30.4843 14.0116 26.3423 13.9747 22.0154C13.9674 21.6234 14.2842 21.3054 14.6747 21.3054Z" fill="#E0E0E0"/>
</svg>
