<svg width="166" height="166" viewBox="0 0 166 166" fill="none" xmlns="http://www.w3.org/2000/svg">
<path d="M89.4893 56.4575C88.7681 56.6697 87.9974 56.7616 87.2125 56.7262C85.4023 56.6414 83.5638 55.8494 82.2556 54.5695C81.0606 53.4028 80.0565 51.4654 80.5232 49.9521C80.7849 49.0965 81.5556 48.1419 82.4678 47.8238C83.0759 47.6116 83.7759 47.6046 84.4406 47.8167C85.678 48.2056 85.9962 49.2167 86.965 49.8461C90.3025 52.0098 90.7268 48.6723 90.3096 47.2652C90.0268 46.3176 89.3691 45.4903 88.6055 44.7832C81.0253 37.797 75.1492 48.0147 72.9784 53.3533C70.7581 58.7981 69.8884 64.957 66.9044 70.0623C65.3487 72.721 62.3576 75.4433 58.8787 75.3868C58.914 74.9554 58.9565 74.5312 58.9989 74.0928C59.1544 73.7109 59.3029 73.322 59.4514 72.9331C61.3394 71.9502 62.9728 70.133 64.0406 68.8248C66.7771 65.4802 68.1347 61.3083 69.5136 57.2849C70.6945 53.8413 71.946 50.4542 73.7845 47.3146C75.3684 44.6135 77.313 41.3255 80.3747 39.8759C85.0487 37.6485 91.441 39.982 93.8381 44.7125C96.1362 49.2309 94.5522 54.9443 89.4893 56.4575Z" fill="url(#paint0_linear_190_8329)"/>
<path d="M71.9742 53.4104C71.8682 53.6862 71.7621 53.962 71.6631 54.2448C71.7621 53.962 71.8682 53.6862 71.9742 53.4104Z" fill="url(#paint1_linear_190_8329)"/>
<path d="M30.8565 53.6301C32.4828 50.83 35.4315 48.5885 38.9882 48.4541C42.5379 48.3127 46.5189 50.7522 47.1836 54.0615C47.8554 57.3778 44.1572 60.5527 40.763 59.1809C38.8892 58.4243 37.475 56.6 35.5022 56.2818C33.8264 56.006 32.2495 57.0031 31.5778 58.3678C30.8989 59.7254 30.9767 61.373 31.3303 62.9145C34.0102 74.6454 49.3756 79.0082 58.5115 72.8847C66.8341 67.3198 67.421 56.8475 67.1806 46.9904C67.0533 41.7861 62.1884 34.4888 55.7255 36.8647C55.1032 37.0909 54.2688 37.3596 53.8163 36.8364C53.6466 36.6384 53.59 36.3838 53.5617 36.1434C53.3496 34.2908 54.1486 32.5018 55.478 31.2432C57.175 29.631 59.7843 28.634 62.344 28.6622C63.4754 28.6764 66.1623 30.0481 67.0109 29.7511C67.9513 29.4188 68.7079 25.6924 69.0191 24.7873C71.9889 16.2454 74.2799 6.21865 83.0481 1.38204C84.9431 0.33552 85.5795 2.42854 85.3461 3.83569C84.8512 6.73483 85.4169 9.88856 84.6673 12.7028C85.6361 13.12 86.8806 13.0917 87.9342 13.5655C89.1433 14.11 90.2323 14.9161 91.0879 15.8848C94.3618 19.5405 93.9658 23.9388 91.8374 27.0005C91.4626 27.5309 90.5717 27.2763 90.402 26.555C89.3201 22.1922 83.9319 24.0731 82.2349 25.5297C80.2691 27.2126 78.6923 29.2703 77.2144 31.3421C74.2658 35.4504 73.0637 40.1881 72.5334 45.159C72.6748 54.1393 71.501 63.2327 66.9897 70.7563C63.6521 76.3142 57.6063 80.7335 50.4504 80.6204C47.7068 80.578 44.9421 79.8638 42.3682 78.69C41.1166 78.1173 39.9145 77.4384 38.7761 76.6677C30.906 71.3715 26.628 60.9133 30.8565 53.6301Z" fill="url(#paint2_linear_190_8329)"/>
<path d="M88.3157 109.096C87.5944 108.884 86.8237 108.792 86.0388 108.827C84.2286 108.912 82.3901 109.704 81.082 110.984C79.8869 112.15 78.8829 114.088 79.3496 115.601C79.6112 116.457 80.3819 117.411 81.2941 117.729C81.9022 117.942 82.6022 117.949 83.2669 117.736C84.5044 117.348 84.8155 116.343 85.7913 115.707C89.1289 113.543 89.5531 116.881 89.1359 118.288C88.853 119.236 88.1955 120.063 87.4318 120.77C79.8516 127.756 73.9755 117.538 71.8047 112.2C69.5844 106.755 68.7147 100.596 65.7307 95.4909C64.175 92.8322 61.184 90.1098 57.705 90.1664C57.7404 90.5977 57.7828 91.022 57.8252 91.4604C57.9808 91.8422 58.1293 92.2311 58.2778 92.62C60.1657 93.6029 61.7992 95.4202 62.8669 96.7284C65.6034 100.073 66.961 104.245 68.3399 108.268C69.5208 111.712 70.7723 115.099 72.6108 118.239C74.1947 120.94 76.1393 124.228 79.201 125.677C83.875 127.905 90.2673 125.571 92.6644 120.841C94.9766 116.322 93.3927 110.609 88.3157 109.096Z" fill="url(#paint3_linear_190_8329)"/>
<path d="M70.8071 112.136C70.7011 111.861 70.595 111.585 70.496 111.302C70.595 111.585 70.7011 111.861 70.8071 112.136Z" fill="url(#paint4_linear_190_8329)"/>
<path d="M29.689 111.917C31.3153 114.717 34.264 116.958 37.8207 117.093C41.3704 117.234 45.3514 114.795 46.016 111.485C46.6807 108.176 42.9897 104.994 39.5955 106.366C37.7217 107.123 36.3075 108.947 34.3347 109.265C32.6588 109.541 31.082 108.544 30.4102 107.179C29.7314 105.821 29.8092 104.174 30.1627 102.632C32.8427 90.9015 48.2081 86.5386 57.3439 92.6622C65.6666 98.2271 66.2535 108.699 66.013 118.556C65.8858 123.761 61.0209 131.058 54.5579 128.682C53.9357 128.456 53.1013 128.187 52.6487 128.71C52.479 128.908 52.4224 129.163 52.3941 129.403C52.182 131.256 52.9811 133.045 54.3104 134.304C56.0075 135.916 58.6167 136.913 61.1764 136.885C62.3078 136.87 64.9948 135.499 65.8433 135.796C66.7838 136.128 67.5404 139.854 67.8515 140.76C70.8214 149.301 73.1124 159.328 81.8805 164.165C83.7756 165.211 84.4119 163.118 84.1786 161.711C83.6836 158.812 84.2493 155.658 83.4998 152.844C84.4685 152.427 85.713 152.455 86.7666 151.981C87.9758 151.437 89.0647 150.631 89.9203 149.662C93.1942 146.006 92.7982 141.608 90.6699 138.546C90.2951 138.016 89.4041 138.271 89.2344 138.992C88.1525 143.355 82.7644 141.474 81.0673 140.017C79.1016 138.334 77.5247 136.277 76.0469 134.205C73.0982 130.096 71.8962 125.359 71.3658 120.388C71.5073 111.408 70.3335 102.314 65.8221 94.7906C62.4846 89.2327 56.4388 84.8133 49.2829 84.9264C46.5393 84.9689 43.7745 85.683 41.2006 86.8568C39.9491 87.4296 38.747 88.1084 37.6086 88.8792C29.7385 94.1754 25.4605 104.648 29.689 111.917Z" fill="url(#paint5_linear_190_8329)"/>
<path d="M79.2788 67.0364C80.7496 72.7639 73.8765 78.4773 68.2833 82.0624C67.6115 82.4937 66.9469 82.8897 66.3458 83.2503C66.9964 83.519 67.6964 83.8372 68.3964 84.1837C74.3786 87.0687 81.9022 91.9194 81.1385 97.7743C87.9126 92.8245 83.8255 86.0222 72.1158 82.8967C83.3588 78.3854 86.5974 71.1305 79.2788 67.0364Z" fill="url(#paint6_linear_190_8329)"/>
<path d="M101.666 138.51L79.6533 116.498C79.031 115.876 79.024 114.865 79.6533 114.235C80.2756 113.613 81.2867 113.606 81.916 114.235L103.928 136.248C104.551 136.87 104.55 137.888 103.928 138.51C103.299 139.14 102.288 139.133 101.666 138.51Z" fill="url(#paint7_linear_190_8329)"/>
<path d="M81.6103 50.7449C80.9881 50.1227 80.981 49.1115 81.6103 48.4822L103.623 26.4699C104.245 25.8477 105.256 25.8406 105.885 26.47C106.508 27.0922 106.508 28.1104 105.885 28.7327L83.8731 50.7449C83.2367 51.3672 82.2326 51.3672 81.6103 50.7449Z" fill="url(#paint8_linear_190_8329)"/>
<path d="M37.8413 114.003C36.0311 112.193 36.0311 109.251 37.8413 107.441C44.8063 100.476 48.2923 91.2764 48.2923 82.0133C48.2853 72.7573 44.8063 63.5507 37.8413 56.5857L37.6504 56.3948C35.8261 54.5846 35.8261 51.6431 37.6292 49.8258C39.4323 48.0085 42.381 48.0015 44.1982 49.8046L44.3962 50.0026L44.4033 50.0096C53.1855 58.7919 57.5767 70.4238 57.5696 81.9991C57.5767 93.5745 53.1855 105.206 44.4033 113.989C42.5931 115.813 39.6515 115.813 37.8413 114.003Z" fill="url(#paint9_linear_190_8329)"/>
<defs>
<linearGradient id="paint0_linear_190_8329" x1="-151.744" y1="-764.365" x2="171.296" y2="402.632" gradientUnits="userSpaceOnUse">
<stop stop-color="#EEDEBC"/>
<stop offset="0.059" stop-color="#DDC6A3"/>
<stop offset="0.1398" stop-color="#C9A885"/>
<stop offset="0.2581" stop-color="#9A7A5F"/>
<stop offset="0.3602" stop-color="#C9A885"/>
<stop offset="0.4892" stop-color="#EEDEBC"/>
<stop offset="0.5415" stop-color="#DDC6A3"/>
<stop offset="0.6129" stop-color="#C9A885"/>
<stop offset="0.7204" stop-color="#9A7A5F"/>
<stop offset="0.8387" stop-color="#C9A885"/>
<stop offset="1" stop-color="#EEDEBC"/>
</linearGradient>
<linearGradient id="paint1_linear_190_8329" x1="-154.441" y1="-763.576" x2="168.599" y2="403.362" gradientUnits="userSpaceOnUse">
<stop stop-color="#EEDEBC"/>
<stop offset="0.059" stop-color="#DDC6A3"/>
<stop offset="0.1398" stop-color="#C9A885"/>
<stop offset="0.2581" stop-color="#9A7A5F"/>
<stop offset="0.3602" stop-color="#C9A885"/>
<stop offset="0.4892" stop-color="#EEDEBC"/>
<stop offset="0.5415" stop-color="#DDC6A3"/>
<stop offset="0.6129" stop-color="#C9A885"/>
<stop offset="0.7204" stop-color="#9A7A5F"/>
<stop offset="0.8387" stop-color="#C9A885"/>
<stop offset="1" stop-color="#EEDEBC"/>
</linearGradient>
<linearGradient id="paint2_linear_190_8329" x1="-161.013" y1="-761.801" x2="162.028" y2="405.198" gradientUnits="userSpaceOnUse">
<stop stop-color="#EEDEBC"/>
<stop offset="0.059" stop-color="#DDC6A3"/>
<stop offset="0.1398" stop-color="#C9A885"/>
<stop offset="0.2581" stop-color="#9A7A5F"/>
<stop offset="0.3602" stop-color="#C9A885"/>
<stop offset="0.4892" stop-color="#EEDEBC"/>
<stop offset="0.5415" stop-color="#DDC6A3"/>
<stop offset="0.6129" stop-color="#C9A885"/>
<stop offset="0.7204" stop-color="#9A7A5F"/>
<stop offset="0.8387" stop-color="#C9A885"/>
<stop offset="1" stop-color="#EEDEBC"/>
</linearGradient>
<linearGradient id="paint3_linear_190_8329" x1="-163.548" y1="-761.098" x2="159.492" y2="405.901" gradientUnits="userSpaceOnUse">
<stop stop-color="#EEDEBC"/>
<stop offset="0.059" stop-color="#DDC6A3"/>
<stop offset="0.1398" stop-color="#C9A885"/>
<stop offset="0.2581" stop-color="#9A7A5F"/>
<stop offset="0.3602" stop-color="#C9A885"/>
<stop offset="0.4892" stop-color="#EEDEBC"/>
<stop offset="0.5415" stop-color="#DDC6A3"/>
<stop offset="0.6129" stop-color="#C9A885"/>
<stop offset="0.7204" stop-color="#9A7A5F"/>
<stop offset="0.8387" stop-color="#C9A885"/>
<stop offset="1" stop-color="#EEDEBC"/>
</linearGradient>
<linearGradient id="paint4_linear_190_8329" x1="-170.444" y1="-759.25" x2="152.623" y2="407.824" gradientUnits="userSpaceOnUse">
<stop stop-color="#EEDEBC"/>
<stop offset="0.059" stop-color="#DDC6A3"/>
<stop offset="0.1398" stop-color="#C9A885"/>
<stop offset="0.2581" stop-color="#9A7A5F"/>
<stop offset="0.3602" stop-color="#C9A885"/>
<stop offset="0.4892" stop-color="#EEDEBC"/>
<stop offset="0.5415" stop-color="#DDC6A3"/>
<stop offset="0.6129" stop-color="#C9A885"/>
<stop offset="0.7204" stop-color="#9A7A5F"/>
<stop offset="0.8387" stop-color="#C9A885"/>
<stop offset="1" stop-color="#EEDEBC"/>
</linearGradient>
<linearGradient id="paint5_linear_190_8329" x1="-183.558" y1="-755.558" x2="139.481" y2="411.437" gradientUnits="userSpaceOnUse">
<stop stop-color="#EEDEBC"/>
<stop offset="0.059" stop-color="#DDC6A3"/>
<stop offset="0.1398" stop-color="#C9A885"/>
<stop offset="0.2581" stop-color="#9A7A5F"/>
<stop offset="0.3602" stop-color="#C9A885"/>
<stop offset="0.4892" stop-color="#EEDEBC"/>
<stop offset="0.5415" stop-color="#DDC6A3"/>
<stop offset="0.6129" stop-color="#C9A885"/>
<stop offset="0.7204" stop-color="#9A7A5F"/>
<stop offset="0.8387" stop-color="#C9A885"/>
<stop offset="1" stop-color="#EEDEBC"/>
</linearGradient>
<linearGradient id="paint6_linear_190_8329" x1="-157.812" y1="-762.683" x2="165.229" y2="404.314" gradientUnits="userSpaceOnUse">
<stop stop-color="#EEDEBC"/>
<stop offset="0.059" stop-color="#DDC6A3"/>
<stop offset="0.1398" stop-color="#C9A885"/>
<stop offset="0.2581" stop-color="#9A7A5F"/>
<stop offset="0.3602" stop-color="#C9A885"/>
<stop offset="0.4892" stop-color="#EEDEBC"/>
<stop offset="0.5415" stop-color="#DDC6A3"/>
<stop offset="0.6129" stop-color="#C9A885"/>
<stop offset="0.7204" stop-color="#9A7A5F"/>
<stop offset="0.8387" stop-color="#C9A885"/>
<stop offset="1" stop-color="#EEDEBC"/>
</linearGradient>
<linearGradient id="paint7_linear_190_8329" x1="-154.567" y1="-763.584" x2="168.474" y2="403.413" gradientUnits="userSpaceOnUse">
<stop stop-color="#EEDEBC"/>
<stop offset="0.059" stop-color="#DDC6A3"/>
<stop offset="0.1398" stop-color="#C9A885"/>
<stop offset="0.2581" stop-color="#9A7A5F"/>
<stop offset="0.3602" stop-color="#C9A885"/>
<stop offset="0.4892" stop-color="#EEDEBC"/>
<stop offset="0.5415" stop-color="#DDC6A3"/>
<stop offset="0.6129" stop-color="#C9A885"/>
<stop offset="0.7204" stop-color="#9A7A5F"/>
<stop offset="0.8387" stop-color="#C9A885"/>
<stop offset="1" stop-color="#EEDEBC"/>
</linearGradient>
<linearGradient id="paint8_linear_190_8329" x1="-130.184" y1="-770.336" x2="192.856" y2="396.667" gradientUnits="userSpaceOnUse">
<stop stop-color="#EEDEBC"/>
<stop offset="0.059" stop-color="#DDC6A3"/>
<stop offset="0.1398" stop-color="#C9A885"/>
<stop offset="0.2581" stop-color="#9A7A5F"/>
<stop offset="0.3602" stop-color="#C9A885"/>
<stop offset="0.4892" stop-color="#EEDEBC"/>
<stop offset="0.5415" stop-color="#DDC6A3"/>
<stop offset="0.6129" stop-color="#C9A885"/>
<stop offset="0.7204" stop-color="#9A7A5F"/>
<stop offset="0.8387" stop-color="#C9A885"/>
<stop offset="1" stop-color="#EEDEBC"/>
</linearGradient>
<linearGradient id="paint9_linear_190_8329" x1="-187.703" y1="-754.412" x2="135.338" y2="412.586" gradientUnits="userSpaceOnUse">
<stop stop-color="#EEDEBC"/>
<stop offset="0.059" stop-color="#DDC6A3"/>
<stop offset="0.1398" stop-color="#C9A885"/>
<stop offset="0.2581" stop-color="#9A7A5F"/>
<stop offset="0.3602" stop-color="#C9A885"/>
<stop offset="0.4892" stop-color="#EEDEBC"/>
<stop offset="0.5415" stop-color="#DDC6A3"/>
<stop offset="0.6129" stop-color="#C9A885"/>
<stop offset="0.7204" stop-color="#9A7A5F"/>
<stop offset="0.8387" stop-color="#C9A885"/>
<stop offset="1" stop-color="#EEDEBC"/>
</linearGradient>
</defs>
</svg>
