<svg width="182" height="185" viewBox="0 0 182 185" fill="none" xmlns="http://www.w3.org/2000/svg">
<g filter="url(#filter0_f_150_837)">
<path d="M70.2507 127.203C69.7118 126.215 68.9932 125.302 68.1249 124.508C66.1189 122.682 63.3344 121.574 60.5948 121.544C58.0948 121.514 54.981 122.502 53.8732 124.598C53.2444 125.781 53.0498 127.607 53.6785 128.91C54.0977 129.778 54.8313 130.526 55.7594 131.005C57.481 131.904 58.8882 131.17 60.5798 131.529C66.4033 132.772 63.3195 136.754 61.3883 137.802C60.0859 138.506 58.514 138.685 56.957 138.625C41.5376 137.997 46.1335 120.96 49.4869 113.011C52.9001 104.897 58.499 97.457 60.7446 88.8939C61.9123 84.4328 61.6278 78.3848 57.8852 74.762C57.466 75.256 57.0618 75.75 56.6426 76.259C56.4031 76.8279 56.1486 77.3967 55.8941 77.9656C56.8522 81.0046 56.6576 84.6573 56.4031 87.1723C55.7594 93.6096 52.7804 99.463 49.9809 105.182C47.5857 110.077 45.3251 114.987 43.9478 120.257C42.7652 124.793 41.343 130.332 43.0496 135.107C45.6395 142.413 54.8762 146.709 62.4212 144.239C69.6369 141.889 74.0082 134.164 70.2507 127.203Z" fill="#F8F7F7"/>
<path d="M48.4888 111.888C48.4889 111.484 48.489 111.08 48.4891 110.676C48.489 111.08 48.4889 111.484 48.4888 111.888Z" fill="#F8F7F7"/>
<path d="M5.19453 68.1302C3.95199 72.8159 4.70055 78.31 8.32336 82.2172C11.9312 86.1245 18.7278 87.7563 22.9344 84.9568C27.156 82.1574 26.6021 74.8818 21.5571 72.741C18.7726 71.5584 15.3445 71.9925 12.9193 70.241C10.8534 68.7589 10.2396 66.0343 10.9731 63.8786C11.6917 61.7229 13.5181 60.0612 15.5241 58.8037C30.7788 49.2227 51.6625 60.8696 54.8511 77.0225C57.7704 91.7234 47.3061 103.43 36.6173 113.61C30.9735 118.984 18.099 121.559 13.7726 112.203C13.3534 111.305 12.7546 110.137 11.7217 110.212C11.3324 110.242 11.003 110.451 10.7186 110.676C8.53291 112.412 7.48501 115.152 7.55986 117.892C7.64968 121.395 9.35635 125.212 12.0959 127.892C13.3085 129.074 17.6049 130.467 18.1888 131.679C18.8325 133.027 15.6888 137.772 15.06 139.06C9.16171 151.245 0.972931 164.285 5.13468 178.686C6.0329 181.8 8.92215 180.258 10.1647 178.521C12.7096 174.928 16.6469 172.189 18.8326 168.416C20.2997 169 21.5871 170.347 23.2039 170.961C25.0602 171.665 27.0662 171.964 28.9974 171.845C36.3328 171.44 40.5695 166.365 41.5575 160.871C41.7222 159.913 40.5095 159.24 39.5664 159.823C33.8028 163.296 30.0902 155.602 29.8357 152.263C29.5363 148.401 30.0453 144.554 30.674 140.796C31.9016 133.326 35.6442 127.038 40.3449 121.215C50.0008 111.858 58.3841 100.99 61.5728 88.2503C63.9231 78.8339 62.2015 67.7559 54.5068 60.3007C51.5576 57.4414 47.875 55.2707 43.9078 53.7886C41.9767 53.07 39.9856 52.5161 37.9646 52.1269C24.0272 49.4023 8.42812 55.9443 5.19453 68.1302Z" fill="#F8F7F7"/>
<path d="M124.733 70.2409C123.745 69.702 122.832 68.9834 122.038 68.1151C120.212 66.1091 119.104 63.3246 119.074 60.5851C119.044 58.085 120.032 54.9712 122.128 53.8634C123.311 53.2346 125.137 53.04 126.44 53.6688C127.308 54.0879 128.056 54.8215 128.535 55.7496C129.434 57.4712 128.7 58.8635 129.059 60.5701C130.302 66.3935 134.284 63.3097 135.332 61.3785C136.036 60.0761 136.215 58.5042 136.155 56.9473C135.527 41.5278 118.49 46.1237 110.541 49.4771C102.427 52.8903 94.987 58.4892 86.424 60.7348C81.9628 61.9025 75.9148 61.618 72.292 57.8754C72.786 57.4563 73.28 57.0521 73.789 56.6329C74.3579 56.3934 74.9268 56.1389 75.4957 55.8844C78.5346 56.8425 82.1874 56.6479 84.7024 56.3934C91.1397 55.7496 96.993 52.7706 102.712 49.9711C107.607 47.5759 112.517 45.3153 117.787 43.9381C122.323 42.7554 127.862 41.3332 132.637 43.0399C139.943 45.6297 144.239 54.8664 141.769 62.4114C139.434 69.6421 131.709 74.0134 124.733 70.2409Z" fill="#F8F7F7"/>
<path d="M109.418 48.4891C109.014 48.6687 108.61 48.8484 108.205 49.043C108.61 48.8484 109.014 48.6687 109.418 48.4891Z" fill="#F8F7F7"/>
<path d="M65.654 5.19494C70.3397 3.95241 75.8339 4.70092 79.7411 8.32373C83.6484 11.9316 85.2801 18.7281 82.4807 22.9348C79.6812 27.1414 72.4057 26.6025 70.2649 21.5575C69.0823 18.773 69.5164 15.3448 67.7649 12.9196C66.2828 10.8537 63.5582 10.2399 61.4025 10.9735C59.2468 11.6921 57.5851 13.5184 56.3276 15.5245C46.7466 30.7792 58.3934 51.6628 74.5464 54.8515C89.2473 57.7707 100.954 47.3064 111.134 36.6176C116.508 30.9738 119.083 18.0994 109.727 13.7729C108.828 13.3538 107.661 12.755 107.736 11.722C107.766 11.3328 107.975 11.0034 108.2 10.719C109.936 8.53332 112.676 7.4854 115.415 7.56026C118.918 7.65008 122.736 9.35669 125.416 12.0963C126.598 13.3089 127.99 17.6053 129.203 18.1892C130.55 18.8329 135.296 15.6891 136.583 15.0604C148.769 9.16207 161.808 0.973311 176.21 5.13506C179.324 6.03328 177.782 8.92255 176.045 10.1651C172.452 12.71 169.713 16.6472 165.94 18.8329C166.524 20.3 167.871 21.5874 168.485 23.2042C169.189 25.0606 169.488 27.0666 169.368 28.9978C168.964 36.3332 163.889 40.5698 158.395 41.5578C157.437 41.7225 156.763 40.5099 157.347 39.5668C160.82 33.8032 153.126 30.0906 149.787 29.8361C145.925 29.5367 142.077 30.0457 138.32 30.6744C130.85 31.902 124.562 35.6446 118.739 40.3452C109.382 50.0011 98.5139 58.3845 85.7741 61.5732C76.3578 63.9235 65.2798 62.2019 57.8246 54.5072C54.9653 51.558 52.7945 47.8753 51.3124 43.9082C50.5939 41.977 50.04 39.986 49.6508 37.965C46.9262 24.0276 53.4832 8.41356 65.654 5.19494Z" fill="#F8F7F7"/>
<path d="M70.6402 105.197C78.2601 100.691 77.0325 87.3671 74.9067 77.6513C74.6522 76.4837 74.3678 75.3609 74.1133 74.3429C75.0864 74.7471 76.1642 75.1513 77.272 75.5256C86.6584 78.8041 99.7574 81.6334 105.147 74.6273C107.078 87.0377 95.5507 89.912 79.8469 80.825C86.9728 97.502 82.7212 108.61 70.6402 105.197Z" fill="#F8F7F7"/>
<path d="M169.998 53.2347L123.396 53.2347C122.078 53.2347 121 54.2976 121 55.6299C121 56.9473 122.063 58.0252 123.396 58.0252L169.998 58.0252C171.316 58.0252 172.393 56.9473 172.393 55.6299C172.393 54.2976 171.316 53.2347 169.998 53.2347Z" fill="#F8F7F7"/>
<path d="M55.8736 124.913C54.5563 124.913 53.4783 125.975 53.4783 127.308L53.4783 173.91C53.4783 175.228 54.5413 176.306 55.8736 176.306C57.191 176.306 58.2689 175.228 58.2689 173.91L58.2689 127.308C58.2539 125.975 57.191 124.913 55.8736 124.913Z" fill="#F8F7F7"/>
<path d="M76.5013 11.6172C72.6689 11.6172 69.5551 14.731 69.5551 18.5634C69.5551 33.3092 63.5071 46.7375 53.7015 56.5431C43.896 66.3337 30.4676 72.3967 15.7218 72.3967H15.3176C11.4702 72.3817 8.35646 75.4955 8.34149 79.3279C8.32652 83.1603 11.4404 86.2891 15.2728 86.3041H15.6919H15.7069C34.3 86.3041 51.2614 78.6393 63.5071 66.3786C75.7678 54.1329 83.4326 37.1715 83.4326 18.5784C83.4475 14.731 80.3337 11.6172 76.5013 11.6172Z" fill="#F8F7F7"/>
</g>
<defs>
<filter id="filter0_f_150_837" x="-0.000366211" y="0" width="182" height="184.476" filterUnits="userSpaceOnUse" color-interpolation-filters="sRGB">
<feFlood flood-opacity="0" result="BackgroundImageFix"/>
<feBlend mode="normal" in="SourceGraphic" in2="BackgroundImageFix" result="shape"/>
<feGaussianBlur stdDeviation="2" result="effect1_foregroundBlur_150_837"/>
</filter>
</defs>
</svg>
