<svg width="145" height="29" viewBox="0 0 145 29" fill="none" xmlns="http://www.w3.org/2000/svg">
<path d="M64.7713 11.7524L64.6214 11.7149C63.1639 11.4151 61.3275 10.5698 59.6993 9.44128C56.5138 7.20513 53.9944 7.86723 53.2241 8.15872C53.9445 8.07127 54.6857 8.31279 55.2145 8.83748C55.9349 9.55371 56.1307 10.6114 55.7392 11.6733C55.4644 12.4103 54.8814 13.01 54.161 13.2806C52.5162 13.9011 50.6589 13.0641 50.0218 11.4193C49.6554 10.474 49.6804 9.44545 50.0884 8.521C50.4882 7.60905 51.2253 6.90531 52.1372 6.53886C52.6536 6.26819 56.3014 4.71079 60.7987 7.86723C62.1978 8.83748 63.8094 9.58703 65.0336 9.84104L65.2085 9.88268C66.7076 10.2325 68.2733 9.80356 69.3935 8.72921C70.4429 7.72565 70.8968 6.35564 70.6386 4.96481C70.6178 4.85237 70.5928 4.74411 70.5678 4.63584C70.3221 3.68224 69.6684 2.89522 68.7314 2.41217C67.3822 1.72509 66.0747 1.76673 65.1336 2.51628C64.3007 3.18254 63.9426 4.28605 64.2133 5.32293C64.3424 5.81846 64.6963 6.24737 65.1835 6.50138C65.9248 6.88865 66.6368 6.88448 67.1365 6.48889C67.5654 6.14743 67.7528 5.5811 67.6113 5.04809C67.4822 4.55672 66.9783 4.2569 66.4911 4.38599C65.9789 4.51924 65.4542 4.21109 65.3168 3.6989C65.1835 3.18255 65.4917 2.65786 66.0039 2.52461C67.5155 2.12901 69.0729 3.04096 69.4726 4.56088C69.8058 5.83095 69.3602 7.18014 68.3358 7.99632C67.2323 8.87496 65.7207 8.95407 64.2924 8.20452C63.3263 7.70066 62.6226 6.82619 62.3561 5.81013C61.8939 4.04036 62.5101 2.15816 63.9343 1.01718C65.4709 -0.215412 67.5946 -0.336171 69.6142 0.700706C71.0259 1.42527 72.0544 2.68284 72.4375 4.15279C72.4792 4.30687 72.5125 4.46511 72.5416 4.61502C72.9206 6.65129 72.2626 8.65842 70.7344 10.1159C70.2264 10.5989 69.6559 10.9945 69.0437 11.286C67.7237 11.9148 66.2246 12.0897 64.7713 11.7524ZM51.8499 9.29137C51.65 9.74943 51.6375 10.2575 51.8166 10.7238C52.0748 11.3901 52.8201 11.7274 53.4822 11.4776C53.6946 11.3943 53.8487 11.2194 53.932 10.9987C54.0569 10.6572 54.0319 10.3741 53.8612 10.2033C53.7238 10.0701 53.5239 10.0243 53.349 10.0951C52.8535 10.2866 52.2955 10.0409 52.1039 9.54539C52.0206 9.32469 52.0206 9.09566 52.0914 8.88745C51.9956 9.01237 51.9123 9.14563 51.8499 9.29137Z" fill="url(#paint0_linear_611_3237)"/>
<path d="M75.7434 11.286C75.1313 10.9945 74.5608 10.5989 74.0528 10.1159C72.5245 8.65425 71.8666 6.65129 72.2455 4.61502C72.2747 4.46094 72.308 4.30687 72.3496 4.15279C72.7327 2.68284 73.7613 1.42527 75.1729 0.700706C77.1925 -0.336171 79.3163 -0.215412 80.8528 1.01718C82.2728 2.15816 82.8933 4.04036 82.4311 5.81013C82.1645 6.82619 81.4567 7.70066 80.4947 8.20452C79.0664 8.95407 77.5548 8.87496 76.4513 7.99632C75.4269 7.18014 74.9814 5.83095 75.3145 4.56088C75.7143 3.04513 77.2675 2.13318 78.7833 2.52461C79.2955 2.6537 79.6036 3.18255 79.4703 3.6989C79.3371 4.21109 78.8124 4.51924 78.296 4.38599C77.8088 4.2569 77.305 4.55672 77.1759 5.04809C77.0343 5.5811 77.2217 6.14743 77.6506 6.48889C78.1461 6.88448 78.8582 6.88865 79.6036 6.50138C80.0908 6.24737 80.4448 5.8143 80.5739 5.32293C80.8445 4.28605 80.4822 3.18671 79.6536 2.51628C78.7125 1.76673 77.4007 1.72509 76.0557 2.41217C75.1188 2.89105 74.465 3.68224 74.2193 4.63584C74.1902 4.74411 74.1652 4.85654 74.1486 4.96481C73.8904 6.35564 74.3443 7.72565 75.3936 8.72921C76.518 9.80356 78.0795 10.2325 79.5786 9.88268L79.7535 9.84104C80.9778 9.59119 82.5893 8.83748 83.9885 7.86723C88.4858 4.71079 92.1336 6.26819 92.6499 6.53886C93.5619 6.90531 94.2989 7.60905 94.6987 8.521C95.1068 9.44545 95.1276 10.474 94.7653 11.4193C94.1282 13.0641 92.271 13.9011 90.6262 13.2806C89.9099 13.01 89.3228 12.4103 89.0479 11.6733C88.6523 10.6114 88.848 9.55371 89.5726 8.83748C90.1056 8.31279 90.8427 8.07127 91.5631 8.15872C90.7927 7.86723 88.2692 7.20513 85.0878 9.44128C83.4596 10.5698 81.6232 11.4151 80.1658 11.7149L80.0158 11.7524C78.5501 12.0897 77.0551 11.9148 75.7434 11.286ZM92.6874 8.88745C92.7582 9.09566 92.7582 9.32469 92.6749 9.54539C92.4834 10.0409 91.9254 10.2866 91.4298 10.0951C91.2549 10.0284 91.0509 10.0701 90.9176 10.2033C90.7427 10.3741 90.7177 10.6572 90.8468 10.9987C90.9301 11.2194 91.0884 11.3943 91.2966 11.4776C91.9587 11.7274 92.7082 11.3859 92.9622 10.7238C93.1413 10.2575 93.133 9.74943 92.9289 9.29137C92.8665 9.14563 92.7832 9.01237 92.6874 8.88745Z" fill="url(#paint1_linear_611_3237)"/>
<path d="M102.391 14.4132C100.909 12.4976 98.9139 11.4108 96.8484 11.3816C96.3404 11.3733 95.8282 11.4316 95.3244 11.5524C92.9633 12.127 91.1519 14.0467 90.7146 16.4453C90.6647 16.7076 90.6397 16.9741 90.6355 17.2406C90.6189 18.3524 90.9895 19.4643 91.6891 20.3887C92.7051 21.7296 94.1001 22.5041 95.5576 22.5249C95.9074 22.5291 96.2613 22.4916 96.6152 22.4083C98.2809 22.0127 99.551 20.6636 99.8633 18.9771C99.9008 18.773 99.9216 18.569 99.9216 18.3649C99.9466 16.6077 98.7098 15.0378 96.9317 14.7046H96.9276C96.9276 14.7046 96.9276 14.7046 96.9234 14.7046L96.7527 14.688C96.2613 14.6797 95.8282 15.0253 95.7283 15.5208V15.525C95.7283 15.525 95.7283 15.525 95.7283 15.5291L95.7116 15.704C95.7033 16.1996 96.0531 16.6368 96.5528 16.7284C97.3315 16.87 97.877 17.5654 97.8645 18.3358C97.8645 18.4274 97.8562 18.5148 97.8395 18.6065C97.6771 19.4934 97.0067 20.1972 96.1364 20.4054C95.949 20.4512 95.7658 20.4678 95.5825 20.4678C94.7955 20.4553 93.996 20.0181 93.3256 19.1436C92.9008 18.5856 92.6801 17.9194 92.6926 17.2739C92.6968 17.124 92.7093 16.9699 92.7384 16.82C93.0341 15.221 94.2417 13.9384 95.8116 13.5553C96.1572 13.4721 96.4987 13.4304 96.8443 13.4387C98.2476 13.4596 99.6343 14.2174 100.771 15.6791C101.55 16.6868 101.945 17.8403 101.929 19.0062C101.925 19.2852 101.895 19.5684 101.845 19.8474C101.816 20.0098 101.779 20.1722 101.737 20.3304C101.208 22.3542 99.755 23.8949 97.7146 24.5862C96.9692 24.836 96.2072 24.9526 95.4493 24.9402C94.0002 24.9193 92.5844 24.428 91.4184 23.5077L91.2018 23.3369L91.1977 23.3328L91.1935 23.3286C89.811 22.3042 88.1578 20.3346 86.9377 18.24V18.2442C85.168 15.1544 83.0151 13.4762 81.1662 12.5809C79.3132 11.6856 77.7641 11.569 77.177 11.5607C77.102 11.5607 77.0437 11.5607 77.0021 11.5607C76.9271 11.5565 76.8522 11.5524 76.7772 11.5524H76.6564C75.4738 11.5649 74.3412 11.9938 73.4417 12.7808C73.1752 13.014 72.942 13.268 72.7338 13.547C72.5214 13.2763 72.2799 13.0223 72.0134 12.7975C71.1306 12.0521 70.0354 11.6482 68.8945 11.6315H68.7737C68.6612 11.6315 68.5488 11.6398 68.4364 11.6481C68.0866 11.644 66.5708 11.6856 64.672 12.5559C62.7565 13.4346 60.4578 15.1669 58.6215 18.5107V18.5065C57.443 20.6261 55.8232 22.629 54.4448 23.6909L54.4365 23.6992L54.2408 23.8616C53.004 24.8735 51.4716 25.394 49.9142 25.3732C49.2646 25.3649 48.6067 25.2608 47.9695 25.0567C45.9125 24.403 44.43 22.8914 43.8637 20.8759C43.8179 20.7177 43.7804 20.5553 43.7471 20.3929C43.6721 20.0348 43.6388 19.6725 43.643 19.3144C43.6596 18.2317 44.0302 17.1573 44.7382 16.2079C45.9 14.6547 47.3449 13.8718 48.819 13.8926C49.098 13.8968 49.377 13.9301 49.656 13.9926C51.2342 14.3465 52.4668 15.6041 52.7916 17.199C52.8291 17.3905 52.8499 17.5862 52.8458 17.782C52.8374 18.3899 52.6292 19.0062 52.2461 19.5351C51.5632 20.4637 50.7345 20.9134 49.91 20.9051C49.7601 20.9009 49.6102 20.8843 49.4603 20.8551C48.5858 20.6636 47.9029 19.9681 47.7239 19.0853C47.6989 18.9687 47.6905 18.8521 47.6905 18.7397C47.703 17.9985 48.2236 17.3364 48.9731 17.1823C49.4561 17.0824 49.7893 16.6618 49.7934 16.1912C49.7934 16.1205 49.7893 16.0455 49.7726 15.9705C49.6727 15.4875 49.2563 15.1544 48.7815 15.146C48.7066 15.146 48.6316 15.1502 48.5609 15.1669C46.8494 15.5167 45.6584 17.0199 45.6334 18.7064C45.6293 18.9646 45.6543 19.2311 45.7084 19.4934C46.0498 21.1716 47.3491 22.4958 49.0189 22.8622C49.3021 22.9247 49.5894 22.958 49.8725 22.9622C51.405 22.9872 52.8666 22.1752 53.9076 20.751C54.5406 19.8807 54.8862 18.8521 54.9029 17.8153C54.907 17.4738 54.8779 17.1282 54.8071 16.7909C54.3199 14.4007 52.4751 12.5185 50.1057 11.9854C49.6935 11.8938 49.2812 11.8439 48.869 11.8397C46.7036 11.8064 44.6049 12.9474 43.0933 14.9795C42.1356 16.2662 41.615 17.7861 41.5942 19.3144C41.5859 19.8141 41.6317 20.3179 41.7358 20.8093C41.7774 21.0217 41.8274 21.2299 41.8857 21.4381C42.6352 24.124 44.6382 26.1686 47.3491 27.0222C48.1819 27.2846 49.0397 27.422 49.8892 27.4345C51.9255 27.4636 53.9326 26.7849 55.5483 25.4565L55.7315 25.3066C57.3639 24.0407 59.0962 21.892 60.4245 19.5143V19.5101C62.0486 16.5535 64.014 15.1169 65.5964 14.4048C67.1788 13.6928 68.3698 13.7094 68.4489 13.7094H68.4572H68.5405H68.553H68.5655C68.6696 13.7011 68.7695 13.6969 68.8736 13.6969C69.5399 13.7052 70.1728 13.9426 70.6934 14.3798C71.293 14.8879 71.6595 15.5916 71.7302 16.3786C71.7386 16.4536 71.7386 16.5285 71.7386 16.5993C71.7219 17.6737 70.8974 18.5981 69.8147 18.7022L69.6856 18.7064C69.3442 18.7022 68.9777 18.5523 68.7029 18.2941C68.324 17.936 68.1616 17.5571 68.1657 17.224C68.1657 17.1199 68.1865 17.0158 68.2198 16.9117C68.3489 16.541 68.6862 16.2745 69.0735 16.2412C69.6024 16.1913 70.0021 15.754 70.0104 15.2335L70.0063 15.1294V15.1252C69.9563 14.588 69.5066 14.1966 68.9902 14.1883L68.8903 14.1925C67.6952 14.3007 66.6708 15.1002 66.2752 16.2329C66.1669 16.5452 66.1086 16.87 66.1045 17.1906C66.092 18.1317 66.5167 19.0562 67.2829 19.7849C67.9325 20.3971 68.7862 20.7468 69.6523 20.7593C69.7689 20.7593 69.8897 20.7552 70.0104 20.7468C70.3602 20.7135 70.6892 20.6219 71.0057 20.5095C70.5851 20.8968 70.2853 21.4214 70.1728 22.0336C70.1229 22.3084 70.0979 22.5874 70.0937 22.8664C70.0771 24.2239 70.5393 25.5981 71.0098 26.6641C71.4804 27.726 71.9593 28.4755 72.0134 28.5546C72.2133 28.8586 72.5464 28.996 72.8587 29.0002C73.1877 29.0044 73.5416 28.8628 73.7499 28.538C73.7957 28.463 74.237 27.751 74.6743 26.7349C75.1115 25.7189 75.5488 24.403 75.5696 23.0913C75.5738 22.7207 75.5446 22.3459 75.4697 21.9836C75.3489 21.3756 75.0366 20.8551 74.616 20.4762C74.9325 20.5844 75.2615 20.6636 75.6071 20.6927H75.6112C75.6737 20.6969 75.7403 20.701 75.807 20.701C76.7272 20.7135 77.6392 20.3429 78.3138 19.6808C79.03 18.9771 79.4339 18.1026 79.4464 17.2115C79.4506 16.8409 79.3881 16.4702 79.259 16.108C78.8426 14.9836 77.8099 14.2049 76.619 14.1175H76.6106C76.6106 14.1175 76.6106 14.1175 76.6065 14.1175L76.5565 14.1133C76.011 14.1008 75.5571 14.5173 75.5155 15.0544H75.5113V15.0669C75.5113 15.0669 75.5113 15.0669 75.5113 15.0711L75.5071 15.1294C75.4988 15.6707 75.9152 16.1288 76.4649 16.1704C76.8522 16.1954 77.1936 16.4536 77.331 16.8242C77.3727 16.9408 77.3935 17.0616 77.3935 17.1823C77.3893 17.503 77.2311 17.8652 76.8771 18.215C76.5898 18.4982 76.2026 18.6523 75.8444 18.6481L75.7736 18.6439C74.6535 18.5565 73.7915 17.5904 73.8082 16.4703L73.8123 16.3537C73.8665 15.5666 74.2204 14.8546 74.8117 14.3382C75.3614 13.8593 76.0485 13.6053 76.7689 13.6178L76.9313 13.6261H76.9438H77.0354H77.0437H77.052C77.0562 13.6261 77.102 13.6261 77.1686 13.6261C77.5559 13.6303 78.7927 13.7094 80.3084 14.4506C81.8242 15.1918 83.6314 16.591 85.1721 19.2811V19.2852C86.5422 21.6338 88.3161 23.7492 89.9568 24.9735L90.1567 25.1317C91.6849 26.3351 93.5379 26.9764 95.4285 27.0056C96.4154 27.0222 97.4148 26.8682 98.3809 26.5434C101.075 25.6397 103.041 23.5576 103.74 20.8593C103.794 20.6511 103.84 20.4429 103.882 20.2305C103.953 19.8474 103.99 19.4559 103.998 19.0687C103.998 17.4155 103.444 15.7748 102.391 14.4132ZM72.8129 21.8503H72.8171C72.9462 21.8503 73.0836 21.892 73.1877 21.9711C73.2918 22.0502 73.3834 22.1668 73.4334 22.3917C73.475 22.6041 73.4958 22.8373 73.4917 23.0788C73.4834 23.9408 73.1752 24.9277 72.8379 25.7438C72.4506 24.8402 72.1133 23.7742 72.13 22.8955C72.1342 22.7248 72.1466 22.5624 72.1758 22.4083C72.2216 22.1751 72.3132 22.0586 72.4173 21.9753C72.5256 21.8962 72.663 21.8545 72.7963 21.8545L72.8129 21.8503ZM72.8504 19.7932H72.7796C72.5589 19.7932 72.3465 19.8307 72.1383 19.8807C72.3715 19.6975 72.5797 19.4893 72.7713 19.2602C72.967 19.4851 73.1835 19.685 73.4209 19.864C73.2377 19.8266 73.0503 19.7974 72.8504 19.7932Z" fill="url(#paint2_linear_611_3237)"/>
<path d="M144.037 14.7646H96.5318C96.1195 14.7646 95.7822 15.0978 95.7822 15.5142C95.7822 15.9265 96.1154 16.2638 96.5318 16.2638H144.037C144.449 16.2638 144.786 15.9265 144.786 15.5142C144.782 15.0978 144.449 14.7646 144.037 14.7646Z" fill="url(#paint3_linear_611_3237)"/>
<path d="M48.4682 15.1377H0.963411C0.551159 15.1377 0.213867 15.4708 0.213867 15.8872C0.213867 16.2995 0.546995 16.6368 0.963411 16.6368H48.4682C48.8804 16.6368 49.2177 16.2995 49.2177 15.8872C49.2177 15.4708 48.8846 15.1377 48.4682 15.1377Z" fill="url(#paint4_linear_611_3237)"/>
<defs>
<linearGradient id="paint0_linear_611_3237" x1="-101.701" y1="100.818" x2="337.043" y2="-147.686" gradientUnits="userSpaceOnUse">
<stop stop-color="#EEDEBC"/>
<stop offset="0.059" stop-color="#DDC6A3"/>
<stop offset="0.1398" stop-color="#C9A885"/>
<stop offset="0.2581" stop-color="#9A7A5F"/>
<stop offset="0.3602" stop-color="#C9A885"/>
<stop offset="0.4892" stop-color="#EEDEBC"/>
<stop offset="0.5415" stop-color="#DDC6A3"/>
<stop offset="0.6129" stop-color="#C9A885"/>
<stop offset="0.7204" stop-color="#9A7A5F"/>
<stop offset="0.8387" stop-color="#C9A885"/>
<stop offset="1" stop-color="#EEDEBC"/>
</linearGradient>
<linearGradient id="paint1_linear_611_3237" x1="-96.82" y1="109.435" x2="341.923" y2="-139.068" gradientUnits="userSpaceOnUse">
<stop stop-color="#EEDEBC"/>
<stop offset="0.059" stop-color="#DDC6A3"/>
<stop offset="0.1398" stop-color="#C9A885"/>
<stop offset="0.2581" stop-color="#9A7A5F"/>
<stop offset="0.3602" stop-color="#C9A885"/>
<stop offset="0.4892" stop-color="#EEDEBC"/>
<stop offset="0.5415" stop-color="#DDC6A3"/>
<stop offset="0.6129" stop-color="#C9A885"/>
<stop offset="0.7204" stop-color="#9A7A5F"/>
<stop offset="0.8387" stop-color="#C9A885"/>
<stop offset="1" stop-color="#EEDEBC"/>
</linearGradient>
<linearGradient id="paint2_linear_611_3237" x1="-94.2986" y1="113.885" x2="344.444" y2="-134.618" gradientUnits="userSpaceOnUse">
<stop stop-color="#EEDEBC"/>
<stop offset="0.059" stop-color="#DDC6A3"/>
<stop offset="0.1398" stop-color="#C9A885"/>
<stop offset="0.2581" stop-color="#9A7A5F"/>
<stop offset="0.3602" stop-color="#C9A885"/>
<stop offset="0.4892" stop-color="#EEDEBC"/>
<stop offset="0.5415" stop-color="#DDC6A3"/>
<stop offset="0.6129" stop-color="#C9A885"/>
<stop offset="0.7204" stop-color="#9A7A5F"/>
<stop offset="0.8387" stop-color="#C9A885"/>
<stop offset="1" stop-color="#EEDEBC"/>
</linearGradient>
<linearGradient id="paint3_linear_611_3237" x1="-84.3653" y1="131.426" x2="354.38" y2="-117.078" gradientUnits="userSpaceOnUse">
<stop stop-color="#EEDEBC"/>
<stop offset="0.059" stop-color="#DDC6A3"/>
<stop offset="0.1398" stop-color="#C9A885"/>
<stop offset="0.2581" stop-color="#9A7A5F"/>
<stop offset="0.3602" stop-color="#C9A885"/>
<stop offset="0.4892" stop-color="#EEDEBC"/>
<stop offset="0.5415" stop-color="#DDC6A3"/>
<stop offset="0.6129" stop-color="#C9A885"/>
<stop offset="0.7204" stop-color="#9A7A5F"/>
<stop offset="0.8387" stop-color="#C9A885"/>
<stop offset="1" stop-color="#EEDEBC"/>
</linearGradient>
<linearGradient id="paint4_linear_611_3237" x1="-107.417" y1="90.7255" x2="331.327" y2="-157.779" gradientUnits="userSpaceOnUse">
<stop stop-color="#EEDEBC"/>
<stop offset="0.059" stop-color="#DDC6A3"/>
<stop offset="0.1398" stop-color="#C9A885"/>
<stop offset="0.2581" stop-color="#9A7A5F"/>
<stop offset="0.3602" stop-color="#C9A885"/>
<stop offset="0.4892" stop-color="#EEDEBC"/>
<stop offset="0.5415" stop-color="#DDC6A3"/>
<stop offset="0.6129" stop-color="#C9A885"/>
<stop offset="0.7204" stop-color="#9A7A5F"/>
<stop offset="0.8387" stop-color="#C9A885"/>
<stop offset="1" stop-color="#EEDEBC"/>
</linearGradient>
</defs>
</svg>
