<svg width="51" height="51" viewBox="0 0 51 51" fill="none" xmlns="http://www.w3.org/2000/svg">
<path d="M30.7981 21.4476C30.9234 21.5808 31.0486 21.7065 31.1813 21.8323C32.4413 23.0083 34.195 23.5852 35.9781 23.4151C36.3318 23.3781 36.6781 23.3263 37.0097 23.245C39.0434 22.7716 40.5982 21.4772 41.2097 19.6577C41.5266 18.7184 41.5634 17.7273 41.3497 16.7953C41.1213 15.7968 40.5908 14.8649 39.8098 14.14C38.9476 13.3412 37.7687 12.9492 36.5602 13.0454C36.295 13.0676 36.0445 13.1045 35.8013 13.1637C34.4087 13.4891 33.3255 14.3841 32.8981 15.6489C32.6697 16.3145 32.6402 17.0098 32.795 17.6681C32.9571 18.3708 33.3255 19.0216 33.8708 19.5246C34.6518 20.2568 35.7203 20.5009 36.6855 20.2716C37.2603 20.1385 37.8055 19.8352 38.2403 19.3693C38.4466 19.1474 38.5129 18.8515 38.4466 18.5778C38.4097 18.4151 38.3213 18.2598 38.1961 18.1414C37.975 17.9343 37.6803 17.8678 37.4076 17.9344C37.2455 17.9713 37.0908 18.0601 36.9729 18.1859C36.7813 18.393 36.5455 18.5261 36.295 18.5852C35.8676 18.6814 35.4034 18.5778 35.0571 18.2524C34.7697 17.9861 34.5781 17.6459 34.4897 17.2761C34.4086 16.9284 34.4234 16.566 34.5413 16.2184C34.7771 15.5453 35.3371 15.0645 36.1918 14.8648C36.3539 14.8279 36.5308 14.7983 36.715 14.7835C37.4445 14.7243 38.1445 14.9536 38.6382 15.4196C39.1613 15.9077 39.5076 16.529 39.6624 17.1947C39.8097 17.816 39.7803 18.4743 39.574 19.103C39.154 20.3382 38.1371 21.1962 36.6487 21.5512C36.3908 21.6104 36.1108 21.6547 35.8234 21.6843C34.4971 21.8101 33.2813 21.4106 32.3676 20.5601C32.2644 20.4639 32.1687 20.3678 32.0729 20.2642C31.4465 19.5912 31.0339 18.7998 30.835 17.9492C30.6508 17.1578 30.6581 16.3072 30.8644 15.4566C31.3286 13.5779 32.6771 12.0764 34.475 11.4403L34.696 11.3664H34.7034C35.0424 11.2332 35.4402 11.1149 35.8676 11.0188C37.1423 10.7229 38.7266 10.575 40.2518 10.6341C41.615 10.6933 42.8013 10.5675 43.8329 10.3309C47.6645 9.4359 49.2782 6.94333 49.5066 6.55132C49.5656 6.47736 49.6172 6.39599 49.6688 6.31463C50.1993 5.46405 50.3982 4.45815 50.2509 3.45964C50.2361 3.34869 50.214 3.23775 50.1919 3.1342C49.9635 2.15787 49.4035 1.29251 48.5856 0.693399C47.7161 0.0499134 46.6477 -0.134995 45.6677 0.0942936C44.8866 0.279203 44.1645 0.722963 43.6487 1.41083C43.1476 2.0839 42.9634 2.9641 43.1477 3.80729V3.81465L43.1624 3.87383C43.4277 5.02027 44.2087 5.87826 45.2624 6.10015C45.6456 6.18151 46.0287 6.17411 46.3898 6.09275C46.9719 5.95222 47.5098 5.61197 47.8782 5.10902C48.0329 4.89452 48.0772 4.63567 48.0256 4.39159C47.9814 4.19928 47.8635 4.01438 47.694 3.88864C47.4803 3.73332 47.2224 3.68893 46.9793 3.7407C46.7877 3.78508 46.6035 3.89604 46.4782 4.07355C46.3603 4.23627 46.1835 4.34721 45.9919 4.39159C45.874 4.42118 45.7487 4.42118 45.6234 4.39159C45.4392 4.35461 45.2845 4.25845 45.1519 4.11052C45.0193 3.96259 44.9087 3.74811 44.8498 3.47445L44.8424 3.43747C44.7687 3.08245 44.8424 2.70522 45.034 2.45374C45.2992 2.10611 45.6603 1.8768 46.0582 1.78805C46.5593 1.66971 47.1045 1.76588 47.554 2.09133C48.0403 2.44635 48.3645 2.94931 48.4972 3.52622C48.5119 3.59279 48.5266 3.65193 48.534 3.71849C48.6372 4.37677 48.4751 5.02769 48.0845 5.56023L48.0772 5.56759L48.033 5.63417L48.0256 5.64158V5.64898C47.974 5.73034 46.7361 7.86048 43.435 8.6371C42.5508 8.8442 41.5192 8.95513 40.3182 8.89596C38.6161 8.82939 36.9066 8.98472 35.4845 9.31756C34.9834 9.4359 34.5266 9.57643 34.1066 9.73175L33.9002 9.80574C31.5423 10.6341 29.7739 12.6016 29.1771 15.0498C28.9044 16.174 28.897 17.2983 29.1402 18.356C29.4054 19.4876 29.9655 20.5527 30.7981 21.4476Z" fill="#E0E0E0"/>
<path d="M21.7051 30.057C21.8377 30.1828 21.963 30.3159 22.0809 30.449C23.2303 31.736 23.7608 33.5037 23.5619 35.2936C23.5177 35.6487 23.4588 35.9963 23.3703 36.3291C22.8545 38.3558 21.5356 39.8942 19.7082 40.4711C18.765 40.7744 17.7776 40.7892 16.8566 40.5525C15.8692 40.301 14.9482 39.7537 14.2408 38.9549C13.4597 38.0747 13.0913 36.8839 13.2166 35.6709C13.246 35.412 13.2902 35.1531 13.3492 34.9091C13.7029 33.5185 14.6166 32.4535 15.8839 32.0467C16.5471 31.8322 17.2471 31.8174 17.8956 31.9875C18.5882 32.165 19.2292 32.5496 19.7229 33.1043C20.4303 33.9031 20.6514 34.9756 20.4082 35.9445C20.2608 36.5214 19.9513 37.0614 19.4724 37.483C19.2513 37.6827 18.9493 37.7493 18.6766 37.6753C18.5145 37.6309 18.3598 37.5422 18.2419 37.409C18.0429 37.1871 17.9766 36.8839 18.0503 36.6102C18.0945 36.4475 18.1829 36.2921 18.3155 36.1738C18.5218 35.9889 18.6618 35.7522 18.7282 35.5008C18.8387 35.0718 18.7355 34.6058 18.4261 34.2508C18.1682 33.9549 17.8292 33.7552 17.4682 33.6665C17.1292 33.5777 16.7608 33.5851 16.4145 33.696C15.7366 33.9179 15.2503 34.4727 15.0292 35.3232C14.985 35.486 14.9555 35.6635 14.9334 35.8484C14.8597 36.5806 15.0734 37.2833 15.5229 37.7936C15.9945 38.3262 16.6061 38.6886 17.2692 38.8587C17.8882 39.014 18.544 39.0066 19.1703 38.8069C20.4082 38.4149 21.2851 37.409 21.6682 35.915C21.7345 35.6561 21.7861 35.375 21.8156 35.0866C21.9703 33.7552 21.5945 32.5274 20.7692 31.5954C20.6735 31.4919 20.5777 31.3884 20.4819 31.2922C19.8261 30.6487 19.045 30.2197 18.1977 29.9978C17.4092 29.7981 16.5692 29.7833 15.7145 29.9756C13.8282 30.3972 12.3102 31.7212 11.6397 33.5185L11.5587 33.733V33.7404C11.4187 34.0806 11.2934 34.4727 11.1902 34.9017C10.866 36.1738 10.6892 37.7567 10.7186 39.2951C10.7555 40.6634 10.6008 41.8542 10.3429 42.8823C9.37025 46.7137 6.85759 48.2817 6.46706 48.5036C6.38601 48.5554 6.31232 48.6071 6.23127 48.6589C5.37652 49.1693 4.36704 49.3542 3.3723 49.1841C3.26177 49.1619 3.15861 49.1397 3.04808 49.1175C2.07544 48.866 1.22806 48.2891 0.645954 47.4533C0.027003 46.5657 -0.135089 45.4933 0.108071 44.5169C0.307019 43.7403 0.763839 43.0229 1.46384 42.5199C2.14174 42.0318 3.02596 41.869 3.8586 42.0613H3.86597L3.92493 42.0761C5.05968 42.3646 5.89969 43.1634 6.09864 44.2285C6.17232 44.6131 6.15756 44.9977 6.06914 45.3601C5.92177 45.9445 5.56808 46.4696 5.05966 46.832C4.84597 46.9799 4.58073 47.0243 4.34494 46.9651C4.15336 46.9134 3.97648 46.795 3.85122 46.6249C3.69648 46.4104 3.65965 46.1442 3.71859 45.9075C3.77017 45.7152 3.88072 45.5377 4.05756 45.4119C4.21967 45.2936 4.33757 45.1234 4.38915 44.9311C4.41862 44.8128 4.426 44.6871 4.39652 44.5613C4.35968 44.3764 4.27126 44.2211 4.1239 44.0805C3.97653 43.9474 3.76281 43.8291 3.49755 43.7625L3.46072 43.7551C3.10703 43.6737 2.73122 43.7403 2.47332 43.9326C2.11963 44.1915 1.89122 44.5465 1.78806 44.9459C1.66279 45.4489 1.74384 45.9962 2.06069 46.4474C2.40701 46.9356 2.90072 47.2832 3.46809 47.4237C3.52704 47.4385 3.59336 47.4533 3.65968 47.4681C4.31547 47.579 4.9639 47.4385 5.5018 47.0539L5.50913 47.0465L5.57546 47.0095L5.58284 47.0021H5.59021C5.67864 46.9503 7.82284 45.7521 8.65548 42.4607C8.87653 41.5806 9.00917 40.5451 8.97969 39.3395C8.95022 37.6309 9.14181 35.9224 9.50287 34.4949C9.62813 33.9993 9.77548 33.5333 9.94496 33.1191L10.0187 32.9194C10.8955 30.5674 12.885 28.8366 15.3387 28.2893C16.4661 28.0378 17.5861 28.0526 18.6324 28.3189C19.7819 28.6147 20.8356 29.1991 21.7051 30.057Z" fill="#E0E0E0"/>
<path d="M27.9972 49.6352C27.813 49.5983 27.6287 49.5465 27.4445 49.4947C25.6982 48.9991 24.2319 47.727 23.414 46.0184C23.2519 45.6782 23.1119 45.338 23.0014 44.9903C22.3235 42.8972 22.6403 40.7892 23.9371 39.2359C24.6077 38.4371 25.4772 37.8676 26.4277 37.5569C27.4519 37.2241 28.5719 37.1946 29.6477 37.5052C30.834 37.8454 31.8288 38.7034 32.3962 39.8498C32.5214 40.1013 32.6172 40.3528 32.7056 40.6043C33.1698 42.0392 32.9562 43.5036 32.0572 44.5835C31.5856 45.153 30.974 45.5525 30.3035 45.7744C29.5888 46.011 28.8003 46.0332 28.0488 45.8113C26.9656 45.5007 26.1698 44.6723 25.8456 43.6738C25.654 43.082 25.6319 42.4164 25.8161 41.7729C25.9046 41.4696 26.133 41.2404 26.413 41.1516C26.5825 41.0998 26.7666 41.0924 26.9435 41.1442C27.2456 41.233 27.474 41.4623 27.5625 41.7433C27.614 41.9134 27.6214 42.0983 27.5698 42.2758C27.4887 42.5569 27.4961 42.8454 27.5845 43.1042C27.7245 43.5406 28.0782 43.9104 28.5572 44.0436C28.9551 44.1545 29.3677 44.1472 29.7435 44.0214C30.0972 43.9031 30.414 43.696 30.6646 43.4001C31.1435 42.8158 31.2688 42.0539 30.9814 41.1738C30.9298 41.0037 30.8561 40.8335 30.7677 40.656C30.4288 39.9608 29.8319 39.4579 29.154 39.2655C28.4319 39.0584 27.6877 39.0806 27.0024 39.3025C26.3688 39.5096 25.7866 39.8942 25.3372 40.4194C24.4529 41.4697 24.2393 42.8601 24.7329 44.3986C24.8214 44.6649 24.9319 44.9386 25.0645 45.2196C25.6761 46.4918 26.693 47.3719 27.953 47.7344C28.093 47.7787 28.2403 47.8083 28.3803 47.8379C29.3235 48.0376 30.2593 47.9859 31.1361 47.6974C31.9467 47.4311 32.7056 46.9652 33.3614 46.3143C34.7983 44.872 35.4099 42.838 34.9972 40.8631L34.9456 40.6265V40.6191C34.8793 40.2418 34.7688 39.8202 34.6288 39.3765C34.2014 38.0673 33.4719 36.551 32.5877 35.2049C31.7919 34.0067 31.2541 32.8603 30.9151 31.8026C29.633 27.8455 30.9961 25.0349 31.2172 24.6133C31.254 24.5171 31.2983 24.4284 31.3425 24.3396C31.8214 23.4003 32.6099 22.668 33.5899 22.2612C33.7004 22.2169 33.8035 22.1799 33.9141 22.1429C34.9162 21.8175 35.9993 21.8544 36.9793 22.2686C38.0257 22.705 38.7772 23.5704 39.1015 24.5837C39.3594 25.3899 39.352 26.2849 39.013 27.1281C38.6815 27.9417 37.9888 28.5925 37.1341 28.8884H37.1267L37.0604 28.9106C35.8888 29.2952 34.6951 29.0511 33.9141 28.2227C33.6341 27.9269 33.4277 27.5719 33.3099 27.1946C33.1109 26.5881 33.133 25.9224 33.3835 25.3159C33.494 25.0571 33.7004 24.8721 33.9435 24.7982C34.1425 24.7316 34.3709 24.739 34.5772 24.8278C34.8351 24.9313 35.0193 25.1458 35.093 25.3899C35.1593 25.5896 35.152 25.8115 35.0709 26.026C34.9899 26.2257 34.9825 26.4402 35.0488 26.6399C35.0856 26.7657 35.152 26.8766 35.2478 26.9801C35.3804 27.1281 35.5499 27.2168 35.7636 27.2538C35.9699 27.2908 36.2204 27.276 36.5004 27.1798L36.5372 27.165C36.8983 27.0393 37.193 26.7657 37.3183 26.455C37.4878 26.026 37.4951 25.5748 37.3625 25.168C37.193 24.6503 36.8099 24.2065 36.2793 23.9846C35.6972 23.7405 35.0636 23.7183 34.4741 23.9107C34.4078 23.9328 34.3414 23.955 34.2825 23.9846C33.6341 24.2509 33.1404 24.7464 32.8751 25.3899L32.8677 25.3973L32.8309 25.4713V25.4787V25.4861C32.7867 25.5748 31.5488 27.8603 32.6467 31.2627C32.9414 32.1724 33.4057 33.1635 34.1057 34.2212C35.0857 35.7227 35.8815 37.3499 36.353 38.8291C36.5225 39.3395 36.6478 39.835 36.7288 40.301L36.773 40.5229C37.3109 43.1042 36.5078 45.7743 34.6362 47.6456C33.7741 48.5036 32.7719 49.1249 31.6888 49.4799C30.5172 49.8276 29.2572 49.9015 27.9972 49.6352Z" fill="#E0E0E0"/>
<path d="M50.929 28.1192C50.8996 27.9343 50.8701 27.742 50.8259 27.5571C50.4501 25.7745 49.2859 24.2213 47.6427 23.2893C47.3111 23.1044 46.9795 22.9417 46.6479 22.8086C44.6142 21.9876 42.4922 22.1651 40.8711 23.3633C40.0311 23.9846 39.4048 24.813 39.029 25.7449C38.6311 26.7434 38.5206 27.8677 38.7563 28.9623C39.0142 30.1753 39.8026 31.2257 40.9005 31.8692C41.1437 32.0097 41.3869 32.128 41.63 32.2242C43.0227 32.7863 44.4963 32.6679 45.6311 31.8395C46.2279 31.4032 46.6701 30.8188 46.9353 30.1606C47.2153 29.4579 47.289 28.6739 47.1269 27.9047C46.8911 26.8026 46.1174 25.9446 45.1448 25.56C44.5627 25.3307 43.9143 25.2568 43.2585 25.3973C42.949 25.4639 42.7132 25.6784 42.6027 25.9521C42.5363 26.1148 42.5216 26.2997 42.5585 26.4846C42.6248 26.7952 42.8385 27.0319 43.1111 27.1429C43.2732 27.2094 43.4574 27.2242 43.6416 27.1872C43.929 27.1281 44.209 27.1576 44.4669 27.2538C44.8943 27.4239 45.2332 27.8011 45.3364 28.2893C45.4248 28.6961 45.3806 29.1029 45.2332 29.4727C45.0932 29.8203 44.8648 30.1236 44.5553 30.3529C43.9437 30.7966 43.1774 30.8632 42.3153 30.523C42.1532 30.4564 41.9837 30.3751 41.8142 30.2789C41.1511 29.8943 40.6869 29.2656 40.5395 28.5704C40.3774 27.8381 40.4511 27.0911 40.7237 26.418C40.9742 25.7967 41.3869 25.242 41.9469 24.8278C43.0521 24.0142 44.4448 23.8884 45.9479 24.4875C46.2132 24.5911 46.4711 24.7242 46.7364 24.8722C47.9595 25.5674 48.7627 26.6547 49.0353 27.9343C49.0648 28.0822 49.0943 28.2227 49.109 28.3706C49.2417 29.3248 49.1311 30.2641 48.7848 31.1147C48.468 31.9061 47.9522 32.6384 47.2595 33.2449C45.7343 34.591 43.6637 35.0644 41.7332 34.517L41.4974 34.4505H41.49C41.1142 34.3543 40.709 34.2212 40.2742 34.0437C38.9995 33.5333 37.5405 32.6975 36.2584 31.7212C35.1237 30.8411 34.0184 30.2345 32.9868 29.8129C29.1405 28.2671 26.252 29.4357 25.8246 29.6354C25.7289 29.665 25.6331 29.702 25.5446 29.7464C24.5794 30.1606 23.7983 30.9002 23.3268 31.8618C23.2752 31.9653 23.231 32.0762 23.1868 32.1798C22.7962 33.1635 22.7667 34.2434 23.1057 35.2567C23.4667 36.3365 24.2847 37.1428 25.2647 37.5348C26.0457 37.8528 26.9373 37.9046 27.7994 37.6235C28.632 37.3499 29.3247 36.6916 29.671 35.8632V35.8558L29.6931 35.7966C30.1573 34.6502 29.9952 33.4372 29.2215 32.6014C28.9415 32.2981 28.6099 32.0762 28.2415 31.9283C27.652 31.6916 26.9889 31.662 26.3699 31.8765C26.1121 31.9653 25.9057 32.165 25.8173 32.4017C25.7363 32.594 25.7289 32.8233 25.8026 33.0378C25.891 33.304 26.0899 33.4963 26.3257 33.5925C26.5173 33.6738 26.7457 33.6813 26.9594 33.6073C27.1584 33.5407 27.3794 33.5481 27.571 33.6221C27.6889 33.6739 27.7994 33.7478 27.8952 33.844C28.0278 33.9919 28.1089 34.162 28.131 34.3765C28.1531 34.5836 28.1163 34.8351 28.0131 35.1087L27.9984 35.1458C27.851 35.5008 27.5563 35.7744 27.2394 35.878C26.8047 36.0185 26.3552 35.9963 25.9573 35.8336C25.4562 35.6339 25.0362 35.2197 24.852 34.665C24.6531 34.0659 24.6678 33.4298 24.8963 32.8528C24.9184 32.7863 24.9478 32.7271 24.9773 32.6605C25.2868 32.0318 25.8173 31.5659 26.4731 31.344H26.4804L26.5542 31.3144H26.5615H26.5689C26.6647 31.2701 29.0152 30.1902 32.3236 31.5215C33.2079 31.8765 34.1657 32.4091 35.1679 33.1783C36.5973 34.2656 38.1595 35.1679 39.5963 35.7375C40.0974 35.9372 40.5763 36.0999 41.0332 36.2108L41.2542 36.27C43.789 36.98 46.4932 36.3587 48.4827 34.6058C49.3964 33.807 50.0817 32.8381 50.5017 31.773C50.9512 30.6488 51.1059 29.3914 50.929 28.1192Z" fill="#E0E0E0"/>
<path d="M28.226 27.165C28.5134 27.3277 28.8155 27.4757 29.1176 27.594C29.0071 27.3129 28.8744 27.0171 28.7123 26.736C28.4544 26.2701 28.1228 25.8484 27.7618 25.6044C27.6513 25.5304 27.5628 25.5082 27.4818 25.5082C27.3639 25.5082 27.2534 25.5674 27.1723 25.6413C27.0913 25.7227 27.0323 25.8337 27.0397 25.952C27.0397 26.0334 27.0618 26.1221 27.1355 26.233C27.3565 26.5807 27.7692 26.8987 28.226 27.165Z" fill="#E0E0E0"/>
<path d="M26.14 24.6059L26.3169 24.7834L26.14 24.6059C26.5085 24.236 26.9875 24.0363 27.4738 24.0437C27.8496 24.0437 28.2327 24.162 28.5717 24.3913C29.4485 24.983 30.0232 26.0038 30.399 26.8766C30.7748 27.7567 30.9369 28.4963 30.9591 28.5703C30.9664 28.6221 30.9738 28.6665 30.9738 28.7182C30.9738 28.9253 30.8853 29.1028 30.7527 29.236C30.6201 29.3691 30.4433 29.4579 30.237 29.4579C30.1927 29.4579 30.1412 29.4505 30.0896 29.4431C30.0085 29.4283 29.2716 29.2582 28.4022 28.8883C27.5327 28.5111 26.5159 27.9342 25.9264 27.0541C25.698 26.7138 25.5801 26.3292 25.5801 25.952C25.5801 25.4565 25.7716 24.9757 26.14 24.6059ZM27.0316 25.952C27.0316 26.0334 27.0538 26.1221 27.1274 26.233C27.3559 26.5807 27.7611 26.8987 28.2253 27.165C28.5127 27.3277 28.8148 27.4756 29.1169 27.594C29.0064 27.3129 28.8738 27.0171 28.7117 26.736C28.4538 26.2701 28.1222 25.8484 27.7611 25.6044C27.6506 25.5304 27.5622 25.5082 27.4811 25.5082C27.3632 25.5082 27.2527 25.5674 27.1716 25.6413C27.0906 25.7227 27.0316 25.8337 27.0316 25.952Z" fill="#E0E0E0"/>
<path d="M21.9619 19.9461C21.6745 19.7834 21.3724 19.6355 21.0703 19.5171C21.1808 19.7982 21.3135 20.094 21.4756 20.3751C21.7335 20.8411 22.065 21.2627 22.4261 21.5067C22.5366 21.5807 22.625 21.6029 22.7061 21.6029C22.824 21.6029 22.9345 21.5437 23.0156 21.4697C23.0966 21.3884 23.1556 21.2774 23.1482 21.1591C23.1482 21.0777 23.1261 20.989 23.0524 20.878C22.824 20.5378 22.4187 20.2123 21.9619 19.9461Z" fill="#E0E0E0"/>
<path d="M24.0407 22.5054L23.8639 22.3279L24.0407 22.5054C23.6723 22.8752 23.1934 23.0749 22.7071 23.0676C22.3313 23.0676 21.9481 22.9492 21.6092 22.7199C20.7323 22.1282 20.1576 21.1075 19.7818 20.2347C19.406 19.3546 19.2439 18.6149 19.2218 18.541C19.2144 18.4892 19.207 18.4448 19.207 18.393C19.207 18.1859 19.2954 18.0084 19.4281 17.8753C19.5607 17.7421 19.7376 17.6534 19.9439 17.6534C19.9881 17.6534 20.0397 17.6608 20.0913 17.6682C20.1723 17.683 20.9091 17.8531 21.7786 18.2229C22.6481 18.6001 23.6649 19.177 24.2544 20.0572C24.4828 20.3975 24.6008 20.7821 24.6008 21.1593C24.6081 21.6548 24.4165 22.1356 24.0407 22.5054ZM23.1491 21.1593C23.1491 21.0779 23.1271 20.9892 23.0534 20.8782C22.825 20.5306 22.4197 20.2125 21.9555 19.9463C21.6681 19.7835 21.366 19.6356 21.0639 19.5173C21.1744 19.7984 21.3071 20.0942 21.4692 20.3753C21.7271 20.8412 22.0586 21.2628 22.4197 21.5069C22.5302 21.5809 22.6186 21.6031 22.6997 21.6031C22.8176 21.6031 22.9281 21.5439 23.0091 21.4699C23.0976 21.3885 23.1491 21.2776 23.1491 21.1593Z" fill="#E0E0E0"/>
<path d="M39.0215 39.7462C39.0215 38.7403 39.832 37.9267 40.8341 37.9267C41.8362 37.9267 42.6468 38.7403 42.6468 39.7462C42.6468 40.7521 41.8362 41.5657 40.8341 41.5657C39.832 41.5731 39.0215 40.7521 39.0215 39.7462Z" fill="#E0E0E0"/>
<path d="M30.8203 49.2656C30.8203 49.7093 31.1887 50.0718 31.6308 50.0718C36.6193 50.0422 41.3941 48.0674 44.9236 44.5763C48.4531 41.0852 50.4573 36.3515 50.5015 31.4033C50.5089 30.9595 50.1478 30.5897 49.7057 30.5897C49.2636 30.5897 48.8951 30.9447 48.8951 31.3885C48.8583 35.9003 47.0309 40.2272 43.7962 43.4224C40.5688 46.6177 36.1919 48.4224 31.6235 48.452C31.1813 48.4594 30.8203 48.8218 30.8203 49.2656Z" fill="#E0E0E0"/>
<path d="M14.6747 29.6946C15.0652 29.6946 15.3821 29.3839 15.3821 28.9919C15.4116 25.0422 17.0179 21.2553 19.84 18.4668C22.6621 15.671 26.4937 14.0882 30.4875 14.066C30.878 14.066 31.1875 13.748 31.1875 13.356C31.1875 12.9639 30.8706 12.6533 30.4801 12.6533C26.1179 12.6829 21.94 14.4062 18.8527 17.4609C15.7653 20.5156 14.0116 24.6576 13.9747 28.9845C13.9674 29.3765 14.2842 29.6946 14.6747 29.6946Z" fill="#E0E0E0"/>
</svg>
