<svg width="1316" height="23" viewBox="0 0 1316 23" fill="none" xmlns="http://www.w3.org/2000/svg">
<path d="M1316 12H20.1199C13.9703 12 9.08424 11.3295 9 10.5C9 9.67046 13.9703 9 20.1199 9H1316V12Z" fill="url(#paint0_linear_105_469)"/>
<path d="M1316 23H20.1199C13.9703 23 9.08424 22.553 9 22C9 21.447 13.9703 21 20.1199 21H1316V23Z" fill="url(#paint1_linear_105_469)"/>
<path d="M0.429993 9.52994C0.159993 9.69994 0 9.99996 0 10.31C0 10.62 0.159993 10.9199 0.429993 11.0899C0.629993 11.2199 5.4 14.25 9.13 13.51C10.72 13.2 11.79 11.91 11.79 10.31C11.79 8.70996 10.72 7.41995 9.13 7.10995C8.72001 7.02995 8.31001 6.98996 7.88 6.98996C4.41 6.98996 0.609993 9.40994 0.429993 9.52994ZM8.77002 11.68C6.83002 12.06 4.37003 11.07 2.84003 10.3C4.49003 9.47995 6.94002 8.56996 8.77002 8.92996C9.62002 9.09996 9.92999 9.74995 9.92999 10.3C9.92999 10.86 9.62002 11.51 8.77002 11.68Z" fill="url(#paint2_linear_105_469)"/>
<path d="M13.3998 10.2501C12.6598 10.8901 12.2098 11.7801 12.1298 12.7501C11.9998 14.4501 13.2698 15.9601 14.9598 16.1101C15.6798 16.1801 16.4598 15.9001 17.0098 15.3701C17.7998 14.6101 18.0697 13.6001 17.7397 12.6801C17.4997 12.0001 16.9497 11.4801 16.2897 11.2501C17.0897 11.3201 19.5698 11.81 21.4098 15.09C22.3598 16.75 23.6097 18.2601 24.7297 19.1201L24.8698 19.2301C26.5197 20.5601 28.7198 20.9601 30.7498 20.3001C32.6998 19.6701 34.1098 18.1901 34.6298 16.2601C34.6698 16.1101 34.7097 15.9601 34.7397 15.8101C35.0197 14.3701 34.6498 12.8401 33.7198 11.6201C32.3898 9.87007 30.4898 9.08003 28.6298 9.52003C26.9098 9.92003 25.5798 11.3 25.2498 13.04C25.0598 14.04 25.3098 15.1001 25.9398 15.9401C26.8698 17.1901 28.2198 17.7501 29.5598 17.4501C30.7998 17.1701 31.7497 16.1801 31.9897 14.9301C32.2797 13.4401 31.2998 11.9901 29.8198 11.7001C29.3198 11.6001 28.8297 11.9301 28.7297 12.4401C28.6297 12.9501 28.9598 13.43 29.4698 13.53C29.9498 13.62 30.2597 14.09 30.1697 14.58C30.0697 15.1 29.6698 15.5201 29.1498 15.6401C28.5498 15.7801 27.9298 15.48 27.4398 14.83C27.1198 14.4 26.9898 13.8801 27.0898 13.3901C27.2898 12.3701 28.0598 11.56 29.0698 11.33C30.2098 11.07 31.3698 11.5801 32.2598 12.7501C32.8798 13.5601 33.1197 14.52 32.9297 15.46C32.9097 15.57 32.8798 15.67 32.8498 15.78C32.4998 17.1 31.5298 18.1 30.1898 18.54C28.7598 19.01 27.2097 18.73 26.0497 17.79L25.8898 17.6701C24.9498 16.9601 23.8597 15.6201 23.0397 14.2001C20.4297 9.55008 16.5698 9.41004 16.0298 9.41004C15.9498 9.40004 15.8698 9.40003 15.7798 9.40003C14.8998 9.37004 14.0598 9.67007 13.3998 10.2501ZM15.1197 14.2501C14.4397 14.1901 13.9297 13.5801 13.9797 12.8901C14.0197 12.4101 14.2397 11.97 14.6097 11.65C14.7297 11.55 14.8597 11.46 14.9897 11.4C14.8397 11.55 14.7397 11.7501 14.7297 11.9801C14.6897 12.4901 15.0698 12.9401 15.5798 12.9801C15.7598 12.9901 15.9197 13.12 15.9797 13.29C16.0597 13.51 15.9598 13.77 15.7098 14.02C15.5598 14.16 15.3597 14.2501 15.1697 14.2501C15.1497 14.2601 15.1397 14.2601 15.1197 14.2501Z" fill="url(#paint3_linear_105_469)"/>
<path d="M24.8599 1.38005L24.7399 1.47002C23.5899 2.34002 22.34 3.85001 21.4 5.52001C19.56 8.81001 17.08 9.28002 16.28 9.35002C16.95 9.13002 17.4899 8.61003 17.7299 7.92003C18.0599 6.99003 17.7899 5.99003 16.9999 5.23003C16.4499 4.70003 15.6899 4.42004 14.9499 4.49004C13.2499 4.64004 11.9799 6.15002 12.1199 7.85002C12.1999 8.83002 12.6499 9.72002 13.3899 10.35C14.1199 10.98 15.0599 11.29 16.0099 11.22C16.5699 11.24 20.4099 11.07 23.0099 6.43004C23.8299 5.00004 24.9199 3.67005 25.8799 2.94005L26.0199 2.83C27.1799 1.9 28.73 1.62 30.16 2.08C31.5 2.52 32.4699 3.52001 32.8199 4.84001C32.8499 4.94001 32.8699 5.05002 32.8899 5.16002C33.0699 6.10002 32.83 7.06004 32.22 7.87004C31.33 9.04004 30.17 9.55003 29.03 9.29003C28.02 9.06003 27.2499 8.25003 27.0499 7.23003C26.9599 6.74003 27.08 6.22003 27.4 5.79003C27.89 5.14003 28.5099 4.85003 29.1099 4.98003C29.6299 5.10003 30.0299 5.51003 30.1299 6.04003C30.2199 6.52003 29.9099 6.99001 29.4299 7.09001C28.9299 7.19001 28.5999 7.68004 28.6899 8.18004C28.7899 8.69004 29.28 9.02003 29.78 8.92003C31.27 8.63003 32.2399 7.18005 31.9499 5.69005C31.7099 4.44005 30.7499 3.45003 29.5199 3.17003C28.1899 2.86003 26.84 3.43004 25.9 4.68004C25.27 5.53004 25.02 6.58 25.21 7.58C25.55 9.32 26.87 10.7 28.59 11.1C30.45 11.53 32.3499 10.75 33.6799 9.00005C34.6099 7.78005 34.9799 6.25004 34.6999 4.81004C34.6699 4.66004 34.63 4.51003 34.6 4.36003C34.08 2.42003 32.66 0.950045 30.72 0.310044C30.07 0.100044 29.4099 4.673e-05 28.7499 4.673e-05C27.3699 4.673e-05 25.9899 0.480052 24.8599 1.38005ZM14.6099 8.94005C14.2399 8.63005 14.0199 8.19006 13.9799 7.70006C13.9299 7.01006 14.4399 6.40001 15.1199 6.34001C15.3399 6.32001 15.55 6.41005 15.71 6.57005C15.96 6.81005 16.0599 7.07003 15.9799 7.30003C15.9199 7.47003 15.7599 7.60003 15.5799 7.61003C15.0699 7.65003 14.6799 8.10003 14.7299 8.61003C14.7499 8.84003 14.8499 9.04005 14.9899 9.19005C14.8499 9.13005 14.7299 9.04005 14.6099 8.94005Z" fill="url(#paint4_linear_105_469)"/>
<defs>
<linearGradient id="paint0_linear_105_469" x1="7903.29" y1="-547.425" x2="7269.27" y2="2092.3" gradientUnits="userSpaceOnUse">
<stop stop-color="#EEDEBC"/>
<stop offset="0.059" stop-color="#DDC6A3"/>
<stop offset="0.1398" stop-color="#C9A885"/>
<stop offset="0.2581" stop-color="#9A7A5F"/>
<stop offset="0.3602" stop-color="#C9A885"/>
<stop offset="0.4892" stop-color="#EEDEBC"/>
<stop offset="0.5415" stop-color="#DDC6A3"/>
<stop offset="0.6129" stop-color="#C9A885"/>
<stop offset="0.7204" stop-color="#9A7A5F"/>
<stop offset="0.8387" stop-color="#C9A885"/>
<stop offset="1" stop-color="#EEDEBC"/>
</linearGradient>
<linearGradient id="paint1_linear_105_469" x1="7903.29" y1="-349.95" x2="7612.7" y2="1464.86" gradientUnits="userSpaceOnUse">
<stop stop-color="#EEDEBC"/>
<stop offset="0.059" stop-color="#DDC6A3"/>
<stop offset="0.1398" stop-color="#C9A885"/>
<stop offset="0.2581" stop-color="#9A7A5F"/>
<stop offset="0.3602" stop-color="#C9A885"/>
<stop offset="0.4892" stop-color="#EEDEBC"/>
<stop offset="0.5415" stop-color="#DDC6A3"/>
<stop offset="0.6129" stop-color="#C9A885"/>
<stop offset="0.7204" stop-color="#9A7A5F"/>
<stop offset="0.8387" stop-color="#C9A885"/>
<stop offset="1" stop-color="#EEDEBC"/>
</linearGradient>
<linearGradient id="paint2_linear_105_469" x1="934.978" y1="-515.253" x2="-118.64" y2="81.5125" gradientUnits="userSpaceOnUse">
<stop stop-color="#EEDEBC"/>
<stop offset="0.059" stop-color="#DDC6A3"/>
<stop offset="0.1398" stop-color="#C9A885"/>
<stop offset="0.2581" stop-color="#9A7A5F"/>
<stop offset="0.3602" stop-color="#C9A885"/>
<stop offset="0.4892" stop-color="#EEDEBC"/>
<stop offset="0.5415" stop-color="#DDC6A3"/>
<stop offset="0.6129" stop-color="#C9A885"/>
<stop offset="0.7204" stop-color="#9A7A5F"/>
<stop offset="0.8387" stop-color="#C9A885"/>
<stop offset="1" stop-color="#EEDEBC"/>
</linearGradient>
<linearGradient id="paint3_linear_105_469" x1="940.758" y1="-505.049" x2="-112.859" y2="91.7181" gradientUnits="userSpaceOnUse">
<stop stop-color="#EEDEBC"/>
<stop offset="0.059" stop-color="#DDC6A3"/>
<stop offset="0.1398" stop-color="#C9A885"/>
<stop offset="0.2581" stop-color="#9A7A5F"/>
<stop offset="0.3602" stop-color="#C9A885"/>
<stop offset="0.4892" stop-color="#EEDEBC"/>
<stop offset="0.5415" stop-color="#DDC6A3"/>
<stop offset="0.6129" stop-color="#C9A885"/>
<stop offset="0.7204" stop-color="#9A7A5F"/>
<stop offset="0.8387" stop-color="#C9A885"/>
<stop offset="1" stop-color="#EEDEBC"/>
</linearGradient>
<linearGradient id="paint4_linear_105_469" x1="937.701" y1="-510.449" x2="-115.914" y2="86.3205" gradientUnits="userSpaceOnUse">
<stop stop-color="#EEDEBC"/>
<stop offset="0.059" stop-color="#DDC6A3"/>
<stop offset="0.1398" stop-color="#C9A885"/>
<stop offset="0.2581" stop-color="#9A7A5F"/>
<stop offset="0.3602" stop-color="#C9A885"/>
<stop offset="0.4892" stop-color="#EEDEBC"/>
<stop offset="0.5415" stop-color="#DDC6A3"/>
<stop offset="0.6129" stop-color="#C9A885"/>
<stop offset="0.7204" stop-color="#9A7A5F"/>
<stop offset="0.8387" stop-color="#C9A885"/>
<stop offset="1" stop-color="#EEDEBC"/>
</linearGradient>
</defs>
</svg>
