<svg width="117" height="118" viewBox="0 0 117 118" fill="none" xmlns="http://www.w3.org/2000/svg">
<path d="M44.2549 82.2982C43.8949 81.6382 43.4149 81.0282 42.8349 80.4982C41.4949 79.2782 39.6349 78.5382 37.8049 78.5182C36.1349 78.4982 34.0549 79.1582 33.3149 80.5582C32.8949 81.3482 32.7649 82.5682 33.1849 83.4382C33.4649 84.0182 33.9549 84.5182 34.5749 84.8382C35.7249 85.4382 36.6648 84.9482 37.7948 85.1882C41.6848 86.0182 39.6249 88.6782 38.3349 89.3782C37.4649 89.8482 36.4149 89.9682 35.3749 89.9282C25.0749 89.5082 28.1449 78.1282 30.3849 72.8182C32.6649 67.3982 36.4049 62.4282 37.9049 56.7082C38.6849 53.7282 38.4949 49.6882 35.9949 47.2682C35.7149 47.5982 35.4448 47.9282 35.1648 48.2682C35.0048 48.6482 34.8348 49.0282 34.6648 49.4082C35.3048 51.4382 35.1749 53.8782 35.0049 55.5582C34.5749 59.8582 32.5849 63.7682 30.7149 67.5882C29.1149 70.8582 27.6049 74.1382 26.6849 77.6582C25.8949 80.6882 24.9449 84.3882 26.0849 87.5782C27.8149 92.4582 33.9849 95.3282 39.0249 93.6782C43.8449 92.1082 46.7649 86.9482 44.2549 82.2982Z" fill="white"/>
<path d="M29.7181 72.0682C29.7182 71.7982 29.7182 71.5282 29.7183 71.2582C29.7182 71.5282 29.7182 71.7982 29.7181 72.0682Z" fill="white"/>
<path d="M0.7981 42.8382C-0.0319005 45.9682 0.468126 49.6382 2.88813 52.2482C5.29813 54.8582 9.83814 55.9482 12.6481 54.0782C15.4681 52.2082 15.0981 47.3482 11.7281 45.9182C9.86809 45.1282 7.57813 45.4182 5.95813 44.2482C4.57813 43.2582 4.16815 41.4382 4.65815 39.9982C5.13815 38.5582 6.35812 37.4482 7.69812 36.6082C17.8881 30.2082 31.8381 37.9882 33.9681 48.7782C35.9181 58.5982 28.9282 66.4182 21.7882 73.2182C18.0182 76.8082 9.41814 78.5282 6.52814 72.2782C6.24814 71.6782 5.84815 70.8982 5.15815 70.9482C4.89815 70.9682 4.6781 71.1082 4.4881 71.2582C3.0281 72.4182 2.32812 74.2482 2.37812 76.0782C2.43812 78.4182 3.57815 80.9682 5.40815 82.7582C6.21815 83.5482 9.08809 84.4782 9.47809 85.2882C9.90809 86.1882 7.80813 89.3582 7.38813 90.2182C3.44813 98.3582 -2.02188 107.068 0.758121 116.688C1.35812 118.768 3.28811 117.738 4.11811 116.578C5.81811 114.178 8.44815 112.348 9.90815 109.828C10.8881 110.218 11.7481 111.118 12.8281 111.528C14.0681 111.998 15.4081 112.198 16.6981 112.118C21.5981 111.848 24.4281 108.458 25.0881 104.788C25.1981 104.148 24.3881 103.698 23.7581 104.088C19.9081 106.408 17.4281 101.268 17.2581 99.0382C17.0581 96.4582 17.3981 93.8882 17.8181 91.3782C18.6381 86.3882 21.1381 82.1882 24.2781 78.2982C30.7281 72.0482 36.3281 64.7882 38.4581 56.2782C40.0281 49.9882 38.8781 42.5882 33.7381 37.6082C31.7681 35.6982 29.3081 34.2482 26.6581 33.2582C25.3681 32.7782 24.0381 32.4082 22.6881 32.1482C13.3781 30.3282 2.9581 34.6982 0.7981 42.8382Z" fill="white"/>
<path d="M80.6481 44.2482C79.9881 43.8882 79.3781 43.4082 78.8481 42.8282C77.6281 41.4882 76.8881 39.6282 76.8681 37.7982C76.8481 36.1282 77.5081 34.0482 78.9081 33.3082C79.6981 32.8882 80.9181 32.7582 81.7881 33.1782C82.3681 33.4582 82.8681 33.9482 83.1881 34.5682C83.7881 35.7182 83.2981 36.6482 83.5381 37.7882C84.3681 41.6782 87.0281 39.6182 87.7281 38.3282C88.1981 37.4582 88.3181 36.4082 88.2781 35.3682C87.8581 25.0682 76.4781 28.1382 71.1681 30.3782C65.7481 32.6582 60.7781 36.3982 55.0581 37.8982C52.0781 38.6782 48.0381 38.4882 45.6181 35.9882C45.9481 35.7082 46.2781 35.4382 46.6181 35.1582C46.9981 34.9982 47.3781 34.8282 47.7581 34.6582C49.7881 35.2982 52.2281 35.1682 53.9081 34.9982C58.2081 34.5682 62.1181 32.5782 65.9381 30.7082C69.2081 29.1082 72.4881 27.5982 76.0081 26.6782C79.0381 25.8882 82.7381 24.9382 85.9281 26.0782C90.8081 27.8082 93.6781 33.9782 92.0281 39.0182C90.4681 43.8482 85.3081 46.7682 80.6481 44.2482Z" fill="white"/>
<path d="M70.418 29.7182C70.148 29.8382 69.878 29.9582 69.608 30.0882C69.878 29.9582 70.148 29.8382 70.418 29.7182Z" fill="white"/>
<path d="M41.1841 0.798208C44.3141 -0.0317923 47.9841 0.468204 50.5941 2.8882C53.2041 5.2982 54.294 9.83821 52.424 12.6482C50.554 15.4582 45.6941 15.0982 44.2641 11.7282C43.4741 9.86821 43.7641 7.5782 42.5941 5.9582C41.6041 4.5782 39.7841 4.16821 38.3441 4.65821C36.9041 5.13821 35.7941 6.35821 34.9541 7.69821C28.5541 17.8882 36.3341 31.8382 47.1241 33.9682C56.9441 35.9182 64.7641 28.9282 71.5641 21.7882C75.1541 18.0182 76.8741 9.4182 70.6241 6.5282C70.0241 6.2482 69.244 5.84821 69.294 5.15821C69.314 4.89821 69.454 4.6782 69.604 4.4882C70.764 3.0282 72.594 2.32821 74.424 2.37821C76.764 2.43821 79.314 3.57821 81.104 5.40821C81.894 6.21821 82.8241 9.08821 83.6341 9.47821C84.5341 9.90821 87.7041 7.8082 88.5641 7.3882C96.7041 3.4482 105.414 -2.02179 115.034 0.758207C117.114 1.35821 116.084 3.28821 114.924 4.11821C112.524 5.81821 110.694 8.44821 108.174 9.90821C108.564 10.8882 109.464 11.7482 109.874 12.8282C110.344 14.0682 110.544 15.4082 110.464 16.6982C110.194 21.5982 106.804 24.4282 103.134 25.0882C102.494 25.1982 102.044 24.3882 102.434 23.7582C104.754 19.9082 99.6141 17.4282 97.3841 17.2582C94.8041 17.0582 92.234 17.3982 89.724 17.8182C84.734 18.6382 80.5341 21.1382 76.6441 24.2782C70.3941 30.7282 63.1341 36.3282 54.6241 38.4582C48.3341 40.0282 40.9341 38.8782 35.9541 33.7382C34.0441 31.7682 32.594 29.3082 31.604 26.6582C31.124 25.3682 30.754 24.0382 30.494 22.6882C28.674 13.3782 33.0541 2.94821 41.1841 0.798208Z" fill="white"/>
<path d="M44.5148 67.5982C49.6048 64.5882 48.7848 55.6882 47.3648 49.1982C47.1948 48.4182 47.0048 47.6682 46.8348 46.9882C47.4848 47.2582 48.2048 47.5282 48.9448 47.7782C55.2148 49.9682 63.9648 51.8582 67.5648 47.1782C68.8548 55.4682 61.1548 57.3882 50.6648 51.3182C55.4248 62.4582 52.5848 69.8782 44.5148 67.5982Z" fill="white"/>
<path d="M110.885 32.8882L79.7549 32.8882C78.8749 32.8882 78.1549 33.5982 78.1549 34.4882C78.1549 35.3682 78.8649 36.0882 79.7549 36.0882H110.885C111.765 36.0882 112.485 35.3682 112.485 34.4882C112.485 33.5982 111.765 32.8882 110.885 32.8882Z" fill="white"/>
<path d="M34.6508 80.7682C33.7708 80.7682 33.0507 81.4782 33.0507 82.3682V113.498C33.0507 114.378 33.7608 115.098 34.6508 115.098C35.5308 115.098 36.2507 114.378 36.2507 113.498L36.2507 82.3682C36.2407 81.4782 35.5308 80.7682 34.6508 80.7682Z" fill="white"/>
<path d="M48.4298 5.0882C45.8698 5.0882 43.7898 7.1682 43.7898 9.7282C43.7898 19.5782 39.7498 28.5482 33.1998 35.0982C26.6498 41.6382 17.6798 45.6882 7.8298 45.6882H7.55978C4.98978 45.6782 2.90981 47.7582 2.89981 50.3182C2.88981 52.8782 4.96981 54.9682 7.52981 54.9782H7.80978H7.81979C20.2398 54.9782 31.5698 49.8582 39.7498 41.6682C47.9398 33.4882 53.0598 22.1582 53.0598 9.73819C53.0698 7.16819 50.9898 5.0882 48.4298 5.0882Z" fill="white"/>
</svg>
