<svg width="51" height="51" viewBox="0 0 51 51" fill="none" xmlns="http://www.w3.org/2000/svg">
<path d="M30.7976 29.5524C30.9229 29.4192 31.0481 29.2935 31.1808 29.1677C32.4408 27.9917 34.1945 27.4148 35.9777 27.5849C36.3313 27.6219 36.6776 27.6737 37.0092 27.755C39.0429 28.2284 40.5977 29.5228 41.2093 31.3423C41.5261 32.2816 41.5629 33.2727 41.3493 34.2047C41.1208 35.2032 40.5903 36.1351 39.8093 36.86C38.9472 37.6588 37.7682 38.0508 36.5598 37.9546C36.2945 37.9324 36.044 37.8955 35.8008 37.8363C34.4082 37.5109 33.325 36.6159 32.8976 35.3511C32.6692 34.6855 32.6397 33.9902 32.7945 33.3319C32.9566 32.6292 33.325 31.9784 33.8703 31.4754C34.6513 30.7432 35.7198 30.4991 36.685 30.7284C37.2598 30.8615 37.805 31.1648 38.2398 31.6307C38.4461 31.8526 38.5124 32.1485 38.4461 32.4222C38.4092 32.5849 38.3208 32.7402 38.1956 32.8586C37.9745 33.0657 37.6798 33.1322 37.4071 33.0656C37.245 33.0287 37.0903 32.9399 36.9724 32.8141C36.7808 32.607 36.545 32.4739 36.2945 32.4148C35.8671 32.3186 35.4029 32.4222 35.0566 32.7476C34.7692 33.0139 34.5776 33.3541 34.4892 33.7239C34.4082 34.0716 34.4229 34.434 34.5408 34.7816C34.7766 35.4547 35.3366 35.9355 36.1913 36.1352C36.3534 36.1721 36.5303 36.2017 36.7145 36.2165C37.444 36.2757 38.144 36.0464 38.6377 35.5804C39.1608 35.0923 39.5072 34.471 39.6619 33.8053C39.8093 33.184 39.7798 32.5257 39.5735 31.897C39.1535 30.6618 38.1366 29.8038 36.6482 29.4488C36.3903 29.3896 36.1103 29.3453 35.8229 29.3157C34.4966 29.1899 33.2808 29.5894 32.3671 30.4399C32.2639 30.5361 32.1682 30.6322 32.0724 30.7358C31.4461 31.4088 31.0334 32.2002 30.8345 33.0508C30.6503 33.8422 30.6576 34.6928 30.8639 35.5434C31.3282 37.4221 32.6766 38.9236 34.4745 39.5597L34.6955 39.6336H34.7029C35.0419 39.7668 35.4397 39.8851 35.8671 39.9812C37.1419 40.2771 38.7261 40.425 40.2514 40.3659C41.6145 40.3067 42.8008 40.4325 43.8324 40.6691C47.664 41.5641 49.2777 44.0567 49.5062 44.4487C49.5651 44.5226 49.6167 44.604 49.6683 44.6854C50.1988 45.536 50.3977 46.5419 50.2504 47.5404C50.2356 47.6513 50.2135 47.7623 50.1914 47.8658C49.963 48.8421 49.403 49.7075 48.5851 50.3066C47.7156 50.9501 46.6472 51.135 45.6672 50.9057C44.8861 50.7208 44.164 50.277 43.6482 49.5892C43.1472 48.9161 42.963 48.0359 43.1472 47.1927V47.1854L43.1619 47.1262C43.4272 45.9797 44.2082 45.1217 45.2619 44.8998C45.6451 44.8185 46.0283 44.8259 46.3893 44.9073C46.9714 45.0478 47.5093 45.388 47.8777 45.891C48.0324 46.1055 48.0767 46.3643 48.0251 46.6084C47.9809 46.8007 47.863 46.9856 47.6935 47.1114C47.4798 47.2667 47.2219 47.3111 46.9788 47.2593C46.7872 47.2149 46.603 47.104 46.4777 46.9265C46.3598 46.7637 46.183 46.6528 45.9914 46.6084C45.8735 46.5788 45.7482 46.5788 45.623 46.6084C45.4387 46.6454 45.284 46.7416 45.1514 46.8895C45.0188 47.0374 44.9082 47.2519 44.8493 47.5256L44.8419 47.5625C44.7682 47.9176 44.8419 48.2948 45.0335 48.5463C45.2988 48.8939 45.6598 49.1232 46.0577 49.212C46.5588 49.3303 47.1041 49.2341 47.5535 48.9087C48.0399 48.5536 48.364 48.0507 48.4967 47.4738C48.5114 47.4072 48.5261 47.3481 48.5335 47.2815C48.6367 46.6232 48.4746 45.9723 48.084 45.4398L48.0767 45.4324L48.0325 45.3658L48.0251 45.3584V45.351C47.9735 45.2697 46.7356 43.1395 43.4345 42.3629C42.5503 42.1558 41.5188 42.0449 40.3177 42.104C38.6156 42.1706 36.9061 42.0153 35.484 41.6824C34.9829 41.5641 34.5261 41.4236 34.1061 41.2682L33.8997 41.1943C31.5418 40.3659 29.7734 38.3984 29.1766 35.9502C28.9039 34.826 28.8965 33.7017 29.1397 32.644C29.405 31.5124 29.965 30.4473 30.7976 29.5524Z" fill="#E0E0E0"/>
<path d="M21.7051 20.943C21.8377 20.8172 21.963 20.6841 22.0809 20.551C23.2303 19.264 23.7608 17.4963 23.5619 15.7064C23.5177 15.3513 23.4588 15.0037 23.3703 14.6709C22.8545 12.6442 21.5356 11.1058 19.7082 10.5289C18.765 10.2256 17.7776 10.2108 16.8566 10.4475C15.8692 10.699 14.9482 11.2463 14.2408 12.0451C13.4597 12.9253 13.0913 14.1161 13.2166 15.3291C13.246 15.588 13.2902 15.8469 13.3492 16.0909C13.7029 17.4815 14.6166 18.5465 15.8839 18.9533C16.5471 19.1678 17.2471 19.1826 17.8956 19.0125C18.5882 18.835 19.2292 18.4504 19.7229 17.8957C20.4303 17.0969 20.6514 16.0244 20.4082 15.0555C20.2608 14.4786 19.9513 13.9386 19.4724 13.517C19.2513 13.3173 18.9493 13.2507 18.6766 13.3247C18.5145 13.3691 18.3598 13.4578 18.2419 13.591C18.0429 13.8129 17.9766 14.1161 18.0503 14.3898C18.0945 14.5525 18.1829 14.7079 18.3155 14.8262C18.5218 15.0111 18.6618 15.2478 18.7282 15.4992C18.8387 15.9282 18.7355 16.3942 18.4261 16.7492C18.1682 17.0451 17.8292 17.2448 17.4682 17.3335C17.1292 17.4223 16.7608 17.4149 16.4145 17.304C15.7366 17.0821 15.2503 16.5273 15.0292 15.6768C14.985 15.514 14.9555 15.3365 14.9334 15.1516C14.8597 14.4194 15.0734 13.7167 15.5229 13.2064C15.9945 12.6738 16.6061 12.3114 17.2692 12.1413C17.8882 11.986 18.544 11.9934 19.1703 12.1931C20.4082 12.5851 21.2851 13.591 21.6682 15.085C21.7345 15.3439 21.7861 15.625 21.8156 15.9134C21.9703 17.2448 21.5945 18.4726 20.7692 19.4046C20.6735 19.5081 20.5777 19.6116 20.4819 19.7078C19.8261 20.3513 19.045 20.7803 18.1977 21.0022C17.4092 21.2019 16.5692 21.2167 15.7145 21.0244C13.8282 20.6028 12.3102 19.2788 11.6397 17.4815L11.5587 17.267V17.2596C11.4187 16.9194 11.2934 16.5273 11.1902 16.0983C10.866 14.8262 10.6892 13.2433 10.7186 11.7049C10.7555 10.3366 10.6008 9.14577 10.3429 8.11767C9.37025 4.28635 6.85759 2.71829 6.46706 2.4964C6.38601 2.44462 6.31232 2.39287 6.23127 2.3411C5.37652 1.83075 4.36704 1.64582 3.3723 1.81594C3.26177 1.83813 3.15861 1.86034 3.04808 1.88253C2.07544 2.13401 1.22806 2.71092 0.645954 3.54671C0.027003 4.43428 -0.135089 5.50673 0.108071 6.48306C0.307019 7.25968 0.763839 7.97713 1.46384 8.48009C2.14174 8.96825 3.02596 9.13096 3.8586 8.93866H3.86597L3.92493 8.92385C5.05968 8.63539 5.89969 7.8366 6.09864 6.77152C6.17232 6.38691 6.15756 6.00228 6.06914 5.63986C5.92177 5.05554 5.56808 4.53041 5.05966 4.16798C4.84597 4.02006 4.58073 3.97568 4.34494 4.03485C4.15336 4.08663 3.97648 4.20499 3.85122 4.3751C3.69648 4.5896 3.65965 4.85585 3.71859 5.09253C3.77017 5.28484 3.88072 5.46234 4.05756 5.58808C4.21967 5.70642 4.33757 5.87655 4.38915 6.06886C4.41862 6.1872 4.426 6.31294 4.39652 6.43868C4.35968 6.62359 4.27126 6.77893 4.1239 6.91946C3.97653 7.0526 3.76281 7.17093 3.49755 7.2375L3.46072 7.2449C3.10703 7.32626 2.73122 7.25966 2.47332 7.06735C2.11963 6.80848 1.89122 6.45346 1.78806 6.05405C1.66279 5.5511 1.74384 5.00379 2.06069 4.55261C2.40701 4.06445 2.90072 3.71681 3.46809 3.57628C3.52704 3.56149 3.59336 3.5467 3.65968 3.53191C4.31547 3.42096 4.9639 3.56149 5.5018 3.9461L5.50913 3.95351L5.57546 3.99048L5.58284 3.99788H5.59021C5.67864 4.04966 7.82284 5.24788 8.65548 8.53927C8.87653 9.41944 9.00917 10.4549 8.97969 11.6605C8.95022 13.3691 9.14181 15.0776 9.50287 16.5051C9.62813 17.0007 9.77548 17.4667 9.94496 17.8809L10.0187 18.0806C10.8955 20.4326 12.885 22.1634 15.3387 22.7107C16.4661 22.9622 17.5861 22.9474 18.6324 22.6811C19.7819 22.3853 20.8356 21.8009 21.7051 20.943Z" fill="#E0E0E0"/>
<path d="M27.998 1.36488C27.8138 1.40186 27.6295 1.45364 27.4453 1.50541C25.699 2.00097 24.2327 3.27316 23.4148 4.98172C23.2527 5.32196 23.1127 5.66216 23.0022 6.00979C22.3243 8.10296 22.6411 10.211 23.9379 11.7642C24.6085 12.563 25.4779 13.1325 26.4285 13.4432C27.4527 13.776 28.5727 13.8056 29.6485 13.4949C30.8348 13.1547 31.8296 12.2967 32.397 11.1503C32.5222 10.8988 32.618 10.6473 32.7064 10.3958C33.1706 8.96094 32.957 7.49649 32.058 6.41662C31.5864 5.8471 30.9748 5.44766 30.3043 5.22577C29.5896 4.98909 28.8011 4.96691 28.0495 5.1888C26.9664 5.49945 26.1706 6.32785 25.8464 7.32636C25.6548 7.91807 25.6327 8.58375 25.8169 9.22724C25.9053 9.53049 26.1338 9.75975 26.4138 9.84851C26.5832 9.90028 26.7674 9.90769 26.9443 9.85591C27.2464 9.76716 27.4748 9.53787 27.5633 9.25681C27.6148 9.08669 27.6222 8.9018 27.5706 8.72429C27.4895 8.44323 27.4969 8.15477 27.5853 7.8959C27.7253 7.45951 28.079 7.08968 28.558 6.95654C28.9559 6.8456 29.3685 6.85297 29.7443 6.97871C30.098 7.09705 30.4148 7.30417 30.6653 7.60002C31.1443 8.18434 31.2696 8.94617 30.9822 9.82634C30.9306 9.99646 30.8569 10.1666 30.7685 10.3441C30.4296 11.0394 29.8327 11.5423 29.1548 11.7346C28.4327 11.9417 27.6885 11.9195 27.0032 11.6976C26.3696 11.4905 25.7874 11.1059 25.338 10.5807C24.4537 9.53046 24.2401 8.13998 24.7337 6.60153C24.8222 6.33526 24.9327 6.06156 25.0653 5.7805C25.6769 4.50832 26.6937 3.62818 27.9538 3.26576C28.0938 3.22138 28.2411 3.19178 28.3811 3.1622C29.3243 2.96249 30.2601 3.01427 31.1369 3.30273C31.9475 3.569 32.7064 4.03497 33.3622 4.68585C34.7991 6.12814 35.4106 8.16214 34.998 10.137L34.9464 10.3737V10.3811C34.8801 10.7583 34.7696 11.1799 34.6296 11.6237C34.2022 12.9328 33.4727 14.4491 32.5885 15.7952C31.7927 16.9934 31.2548 18.1399 30.9159 19.1975C29.6338 23.1546 30.9969 25.9653 31.218 26.3868C31.2548 26.483 31.2991 26.5718 31.3433 26.6605C31.8222 27.5998 32.6106 28.3321 33.5907 28.7389C33.7012 28.7833 33.8043 28.8202 33.9149 28.8572C34.917 29.1827 36.0001 29.1457 36.9801 28.7315C38.0265 28.2951 38.778 27.4297 39.1023 26.4164C39.3602 25.6102 39.3528 24.7152 39.0138 23.8721C38.6823 23.0585 37.9896 22.4076 37.1349 22.1117H37.1275L37.0612 22.0895C35.8896 21.7049 34.6959 21.949 33.9149 22.7774C33.6349 23.0733 33.4285 23.4283 33.3106 23.8055C33.1117 24.412 33.1338 25.0777 33.3843 25.6842C33.4948 25.9431 33.7012 26.128 33.9443 26.2019C34.1433 26.2685 34.3717 26.2611 34.578 26.1723C34.8359 26.0688 35.0201 25.8543 35.0938 25.6102C35.1601 25.4105 35.1528 25.1886 35.0717 24.9741C34.9907 24.7744 34.9833 24.5599 35.0496 24.3602C35.0864 24.2345 35.1528 24.1235 35.2486 24.02C35.3812 23.8721 35.5507 23.7833 35.7644 23.7463C35.9707 23.7094 36.2212 23.7241 36.5012 23.8203L36.538 23.8351C36.8991 23.9608 37.1938 24.2345 37.3191 24.5451C37.4886 24.9741 37.4959 25.4253 37.3633 25.8321C37.1938 26.3499 36.8106 26.7936 36.2801 27.0155C35.698 27.2596 35.0644 27.2818 34.4749 27.0895C34.4086 27.0673 34.3422 27.0451 34.2833 27.0155C33.6349 26.7493 33.1412 26.2537 32.8759 25.6102L32.8685 25.6028L32.8317 25.5288V25.5214V25.514C32.7875 25.4253 31.5496 23.1398 32.6475 19.7375C32.9422 18.8277 33.4065 17.8366 34.1065 16.7789C35.0865 15.2774 35.8822 13.6503 36.3538 12.171C36.5233 11.6606 36.6486 11.1651 36.7296 10.6991L36.7738 10.4772C37.3117 7.89589 36.5086 5.22579 34.637 3.35451C33.7749 2.49653 32.7727 1.8752 31.6896 1.52018C30.518 1.17255 29.258 1.09861 27.998 1.36488Z" fill="#E0E0E0"/>
<path d="M50.9285 22.8808C50.8991 23.0657 50.8696 23.258 50.8254 23.4429C50.4496 25.2255 49.2854 26.7787 47.6422 27.7107C47.3106 27.8956 46.979 28.0583 46.6475 28.1914C44.6138 29.0124 42.4917 28.8349 40.8706 27.6367C40.0306 27.0154 39.4043 26.187 39.0285 25.2551C38.6306 24.2566 38.5201 23.1323 38.7559 22.0377C39.0138 20.8247 39.8022 19.7743 40.9001 19.1308C41.1432 18.9903 41.3864 18.872 41.6295 18.7758C43.0222 18.2137 44.4959 18.3321 45.6306 19.1605C46.2275 19.5968 46.6696 20.1812 46.9348 20.8394C47.2148 21.5421 47.2885 22.3261 47.1264 23.0953C46.8906 24.1974 46.1169 25.0554 45.1443 25.44C44.5622 25.6693 43.9138 25.7432 43.258 25.6027C42.9485 25.5361 42.7127 25.3216 42.6022 25.0479C42.5359 24.8852 42.5211 24.7003 42.558 24.5154C42.6243 24.2048 42.838 23.9681 43.1106 23.8571C43.2727 23.7906 43.4569 23.7758 43.6411 23.8128C43.9285 23.8719 44.2085 23.8424 44.4664 23.7462C44.8938 23.5761 45.2327 23.1989 45.3359 22.7107C45.4243 22.3039 45.3801 21.8971 45.2327 21.5273C45.0927 21.1797 44.8643 20.8764 44.5548 20.6471C43.9433 20.2034 43.1769 20.1368 42.3148 20.477C42.1527 20.5436 41.9832 20.6249 41.8137 20.7211C41.1506 21.1057 40.6864 21.7344 40.539 22.4296C40.3769 23.1619 40.4506 23.9089 40.7232 24.582C40.9738 25.2033 41.3864 25.758 41.9464 26.1722C43.0516 26.9858 44.4443 27.1116 45.9474 26.5125C46.2127 26.4089 46.4706 26.2758 46.7359 26.1278C47.959 25.4326 48.7622 24.3453 49.0348 23.0657C49.0643 22.9178 49.0938 22.7773 49.1085 22.6294C49.2412 21.6752 49.1306 20.7359 48.7843 19.8853C48.4675 19.0939 47.9517 18.3616 47.2591 17.7551C45.7338 16.409 43.6632 15.9356 41.7327 16.483L41.4969 16.5495H41.4895C41.1137 16.6457 40.7085 16.7788 40.2738 16.9563C38.999 17.4667 37.54 18.3025 36.2579 19.2788C35.1232 20.1589 34.0179 20.7655 32.9863 21.1871C29.14 22.7329 26.2515 21.5643 25.8242 21.3646C25.7284 21.335 25.6326 21.298 25.5441 21.2536C24.5789 20.8394 23.7979 20.0998 23.3263 19.1382C23.2747 19.0347 23.2305 18.9238 23.1863 18.8202C22.7957 17.8365 22.7662 16.7566 23.1052 15.7433C23.4662 14.6635 24.2842 13.8572 25.2642 13.4652C26.0452 13.1472 26.9368 13.0954 27.7989 13.3765C28.6315 13.6501 29.3242 14.3084 29.6705 15.1368V15.1442L29.6926 15.2034C30.1568 16.3498 29.9947 17.5628 29.2211 18.3986C28.9411 18.7019 28.6095 18.9238 28.241 19.0717C27.6516 19.3084 26.9884 19.338 26.3695 19.1235C26.1116 19.0347 25.9052 18.835 25.8168 18.5983C25.7358 18.406 25.7284 18.1767 25.8021 17.9622C25.8905 17.696 26.0894 17.5037 26.3252 17.4075C26.5168 17.3262 26.7452 17.3187 26.9589 17.3927C27.1579 17.4593 27.3789 17.4519 27.5705 17.3779C27.6884 17.3261 27.7989 17.2522 27.8947 17.156C28.0273 17.0081 28.1084 16.838 28.1305 16.6235C28.1526 16.4164 28.1158 16.1649 28.0126 15.8913L27.9979 15.8542C27.8505 15.4992 27.5558 15.2256 27.2389 15.122C26.8042 14.9815 26.3547 15.0037 25.9568 15.1664C25.4557 15.3661 25.0357 15.7803 24.8515 16.335C24.6526 16.9341 24.6673 17.5702 24.8958 18.1472C24.9179 18.2137 24.9473 18.2729 24.9768 18.3395C25.2863 18.9682 25.8168 19.4341 26.4726 19.656H26.48L26.5537 19.6856H26.561H26.5684C26.6642 19.7299 29.0147 20.8098 32.3232 19.4785C33.2074 19.1235 34.1653 18.5909 35.1674 17.8217C36.5969 16.7344 38.159 15.8321 39.5958 15.2625C40.0969 15.0628 40.5758 14.9001 41.0327 14.7892L41.2537 14.73C43.7885 14.02 46.4927 14.6413 48.4822 16.3942C49.3959 17.193 50.0812 18.1619 50.5012 19.227C50.9507 20.3512 51.1054 21.6086 50.9285 22.8808Z" fill="#E0E0E0"/>
<path d="M28.2261 23.835C28.5134 23.6723 28.8156 23.5243 29.1177 23.406C29.0071 23.6871 28.8745 23.9829 28.7124 24.264C28.4545 24.7299 28.1229 25.1516 27.7618 25.3956C27.6513 25.4696 27.5629 25.4918 27.4818 25.4918C27.3639 25.4918 27.2534 25.4326 27.1724 25.3587C27.0913 25.2773 27.0324 25.1663 27.0397 25.048C27.0397 24.9666 27.0619 24.8779 27.1355 24.767C27.3566 24.4193 27.7692 24.1013 28.2261 23.835Z" fill="#E0E0E0"/>
<path d="M26.1408 26.394L26.3177 26.2165L26.1408 26.394C26.5093 26.7638 26.9883 26.9635 27.4746 26.9561C27.8504 26.9561 28.2335 26.8378 28.5725 26.6085C29.4493 26.0168 30.024 24.9961 30.3998 24.1233C30.7756 23.2432 30.9377 22.5035 30.9598 22.4296C30.9672 22.3778 30.9746 22.3334 30.9746 22.2816C30.9746 22.0745 30.8861 21.8971 30.7535 21.7639C30.6209 21.6308 30.4441 21.542 30.2377 21.542C30.1935 21.542 30.142 21.5494 30.0904 21.5568C30.0093 21.5716 29.2724 21.7417 28.403 22.1115C27.5335 22.4887 26.5166 23.0656 25.9272 23.9458C25.6987 24.286 25.5809 24.6707 25.5809 25.0479C25.5809 25.5434 25.7724 26.0242 26.1408 26.394ZM27.0324 25.0479C27.0324 24.9665 27.0545 24.8778 27.1282 24.7668C27.3567 24.4192 27.7619 24.1012 28.2261 23.8349C28.5135 23.6722 28.8156 23.5242 29.1177 23.4059C29.0072 23.687 28.8746 23.9828 28.7125 24.2639C28.4546 24.7298 28.123 25.1514 27.7619 25.3955C27.6514 25.4695 27.563 25.4917 27.4819 25.4917C27.364 25.4917 27.2535 25.4325 27.1724 25.3586C27.0914 25.2772 27.0324 25.1662 27.0324 25.0479Z" fill="#E0E0E0"/>
<path d="M21.9628 31.0538C21.6755 31.2165 21.3734 31.3644 21.0713 31.4828C21.1818 31.2017 21.3144 30.9059 21.4765 30.6248C21.7344 30.1588 22.066 29.7372 22.4271 29.4931C22.5376 29.4192 22.626 29.397 22.7071 29.397C22.825 29.397 22.9355 29.4562 23.0165 29.5301C23.0976 29.6115 23.1565 29.7224 23.1492 29.8408C23.1492 29.9221 23.1271 30.0109 23.0534 30.1218C22.825 30.4621 22.4197 30.7875 21.9628 31.0538Z" fill="#E0E0E0"/>
<path d="M24.0408 28.4945L23.864 28.672L24.0408 28.4945C23.6724 28.1246 23.1934 27.9249 22.7071 27.9323C22.3313 27.9323 21.9482 28.0507 21.6092 28.28C20.7324 28.8717 20.1576 29.8924 19.7819 30.7652C19.4061 31.6453 19.2439 32.3849 19.2218 32.4589C19.2145 32.5107 19.2071 32.5551 19.2071 32.6068C19.2071 32.8139 19.2955 32.9915 19.4281 33.1246C19.5608 33.2577 19.7376 33.3465 19.9439 33.3465C19.9882 33.3465 20.0397 33.3391 20.0913 33.3317C20.1724 33.3169 20.9092 33.1468 21.7787 32.7769C22.6482 32.3997 23.665 31.8228 24.2545 30.9427C24.4829 30.6024 24.6008 30.2178 24.6008 29.8406C24.6082 29.345 24.4166 28.8643 24.0408 28.4945ZM23.1492 29.8406C23.1492 29.922 23.1271 30.0107 23.0535 30.1217C22.825 30.4693 22.4197 30.7874 21.9555 31.0536C21.6681 31.2163 21.3661 31.3642 21.064 31.4826C21.1745 31.2015 21.3071 30.9057 21.4692 30.6246C21.7271 30.1586 22.0587 29.737 22.4197 29.493C22.5303 29.419 22.6187 29.3968 22.6997 29.3968C22.8176 29.3968 22.9281 29.456 23.0092 29.53C23.0976 29.6113 23.1492 29.7223 23.1492 29.8406Z" fill="#E0E0E0"/>
<path d="M39.0213 11.2537C39.0213 12.2596 39.8318 13.0732 40.8339 13.0732C41.836 13.0732 42.6466 12.2596 42.6466 11.2537C42.6466 10.2477 41.836 9.43413 40.8339 9.43413C39.8318 9.42674 39.0213 10.2477 39.0213 11.2537Z" fill="#E0E0E0"/>
<path d="M30.8202 1.73445C30.8202 1.29067 31.1886 0.928223 31.6307 0.928223C36.6192 0.957808 41.394 2.93264 44.9235 6.42373C48.4529 9.91482 50.4572 14.6485 50.5014 19.5967C50.5088 20.0405 50.1477 20.4103 49.7056 20.4103C49.2635 20.4103 48.895 20.0553 48.895 19.6115C48.8582 15.0997 47.0308 10.7728 43.7961 7.57756C40.5687 4.38232 36.1918 2.57762 31.6233 2.54803C31.1812 2.54064 30.8202 2.17823 30.8202 1.73445Z" fill="#E0E0E0"/>
<path d="M14.6757 21.3054C15.0662 21.3054 15.3831 21.6161 15.3831 22.0081C15.4125 25.9578 17.0189 29.7447 19.841 32.5332C22.6631 35.329 26.4947 36.9118 30.4884 36.934C30.879 36.934 31.1884 37.252 31.1884 37.644C31.1884 38.0361 30.8716 38.3467 30.4811 38.3467C26.1189 38.3171 21.941 36.5938 18.8536 33.5391C15.7662 30.4844 14.0126 26.3424 13.9757 22.0155C13.9683 21.6235 14.2852 21.3054 14.6757 21.3054Z" fill="#E0E0E0"/>
</svg>
