<svg width="182" height="185" viewBox="0 0 182 185" fill="none" xmlns="http://www.w3.org/2000/svg">
<g filter="url(#filter0_f_150_850)">
<path d="M111.749 127.203C112.288 126.215 113.006 125.302 113.874 124.508C115.88 122.682 118.665 121.574 121.405 121.544C123.905 121.514 127.018 122.502 128.126 124.598C128.755 125.781 128.95 127.607 128.321 128.91C127.902 129.778 127.168 130.526 126.24 131.005C124.518 131.904 123.111 131.17 121.42 131.529C115.596 132.772 118.68 136.754 120.611 137.802C121.914 138.506 123.485 138.685 125.042 138.625C140.462 137.997 135.866 120.96 132.513 113.011C129.099 104.897 123.5 97.457 121.255 88.8939C120.087 84.4328 120.372 78.3848 124.114 74.762C124.533 75.256 124.938 75.75 125.357 76.259C125.596 76.8279 125.851 77.3967 126.105 77.9656C125.147 81.0046 125.342 84.6573 125.596 87.1723C126.24 93.6096 129.219 99.463 132.018 105.182C134.414 110.077 136.674 114.987 138.052 120.257C139.234 124.793 140.656 130.332 138.95 135.107C136.36 142.413 127.123 146.709 119.578 144.239C112.362 141.889 107.991 134.164 111.749 127.203Z" fill="#F8F7F7"/>
<path d="M133.511 111.888C133.51 111.484 133.51 111.08 133.51 110.676C133.51 111.08 133.51 111.484 133.511 111.888Z" fill="#F8F7F7"/>
<path d="M176.805 68.1302C178.047 72.8159 177.299 78.31 173.676 82.2172C170.068 86.1245 163.272 87.7563 159.065 84.9568C154.843 82.1574 155.397 74.8818 160.442 72.741C163.227 71.5584 166.655 71.9925 169.08 70.241C171.146 68.7589 171.76 66.0343 171.026 63.8786C170.308 61.7229 168.481 60.0612 166.475 58.8037C151.22 49.2227 130.337 60.8696 127.148 77.0225C124.229 91.7234 134.693 103.43 145.382 113.61C151.026 118.984 163.9 121.559 168.227 112.203C168.646 111.305 169.245 110.137 170.278 110.212C170.667 110.242 170.996 110.451 171.281 110.676C173.466 112.412 174.514 115.152 174.439 117.892C174.35 121.395 172.643 125.212 169.903 127.892C168.691 129.074 164.394 130.467 163.811 131.679C163.167 133.027 166.311 137.772 166.939 139.06C172.838 151.245 181.026 164.285 176.865 178.686C175.966 181.8 173.077 180.258 171.835 178.521C169.29 174.928 165.352 172.189 163.167 168.416C161.7 169 160.412 170.347 158.795 170.961C156.939 171.665 154.933 171.964 153.002 171.845C145.666 171.44 141.43 166.365 140.442 160.871C140.277 159.913 141.49 159.24 142.433 159.823C148.196 163.296 151.909 155.602 152.164 152.263C152.463 148.401 151.954 144.554 151.325 140.796C150.098 133.326 146.355 127.038 141.654 121.215C131.999 111.858 123.615 100.99 120.427 88.2503C118.076 78.8339 119.798 67.7559 127.493 60.3007C130.442 57.4414 134.124 55.2707 138.091 53.7886C140.023 53.07 142.014 52.5161 144.035 52.1269C157.972 49.4023 173.571 55.9443 176.805 68.1302Z" fill="#F8F7F7"/>
<path d="M57.2663 70.2409C58.2544 69.702 59.1675 68.9834 59.961 68.1151C61.7874 66.1091 62.8952 63.3246 62.9252 60.5851C62.9551 58.085 61.967 54.9712 59.8712 53.8634C58.6885 53.2346 56.8621 53.04 55.5597 53.6688C54.6914 54.0879 53.943 54.8215 53.4639 55.7496C52.5657 57.4712 53.2992 58.8635 52.9399 60.5701C51.6974 66.3935 47.7153 63.3097 46.6674 61.3785C45.9638 60.0761 45.7841 58.5042 45.844 56.9473C46.4727 41.5278 63.509 46.1237 71.4583 49.4771C79.5722 52.8903 87.0124 58.4892 95.5754 60.7348C100.037 61.9025 106.085 61.618 109.707 57.8754C109.213 57.4563 108.719 57.0521 108.21 56.6329C107.642 56.3934 107.073 56.1389 106.504 55.8844C103.465 56.8425 99.812 56.6479 97.297 56.3934C90.8597 55.7496 85.0064 52.7706 79.2877 49.9711C74.3924 47.5759 69.4821 45.3153 64.2126 43.9381C59.6766 42.7554 54.1376 41.3332 49.3621 43.0399C42.0565 45.6297 37.76 54.8664 40.2301 62.4114C42.5655 69.6421 50.2902 74.0134 57.2663 70.2409Z" fill="#F8F7F7"/>
<path d="M72.5815 48.4891C72.9857 48.6687 73.3899 48.8484 73.7941 49.043C73.3899 48.8484 72.9857 48.6687 72.5815 48.4891Z" fill="#F8F7F7"/>
<path d="M116.345 5.19494C111.66 3.95241 106.166 4.70092 102.258 8.32373C98.3511 11.9316 96.7194 18.7281 99.5189 22.9348C102.318 27.1414 109.594 26.6025 111.735 21.5575C112.917 18.773 112.483 15.3448 114.235 12.9196C115.717 10.8537 118.441 10.2399 120.597 10.9735C122.753 11.6921 124.414 13.5184 125.672 15.5245C135.253 30.7792 123.606 51.6628 107.453 54.8515C92.7523 57.7707 81.0455 47.3064 70.8656 36.6176C65.4913 30.9738 62.9164 18.0994 72.2729 13.7729C73.1711 13.3538 74.3388 12.755 74.2639 11.722C74.234 11.3328 74.0244 11.0034 73.7999 10.719C72.0633 8.53332 69.3237 7.4854 66.5842 7.56026C63.0811 7.65008 59.2637 9.35669 56.584 12.0963C55.4013 13.3089 54.0091 17.6053 52.7965 18.1892C51.4491 18.8329 46.7035 15.6891 45.4161 15.0604C33.2303 9.16207 20.1911 0.973311 5.78962 5.13506C2.67579 6.03328 4.2178 8.92255 5.95436 10.1651C9.54724 12.71 12.2868 16.6472 16.0593 18.8329C15.4755 20.3 14.1281 21.5874 13.5144 23.2042C12.8108 25.0606 12.5113 27.0666 12.6311 28.9978C13.0353 36.3332 18.1102 40.5698 23.6043 41.5578C24.5624 41.7225 25.2361 40.5099 24.6523 39.5668C21.1792 33.8032 28.8739 30.0906 32.2123 29.8361C36.0746 29.5367 39.922 30.0457 43.6796 30.6744C51.1498 31.902 57.4372 35.6446 63.2607 40.3452C72.6171 50.0011 83.4856 58.3845 96.2254 61.5732C105.642 63.9235 116.72 62.2019 124.175 54.5072C127.034 51.558 129.205 47.8753 130.687 43.9082C131.406 41.977 131.96 39.986 132.349 37.965C135.073 24.0276 128.516 8.41356 116.345 5.19494Z" fill="#F8F7F7"/>
<path d="M111.359 105.197C103.739 100.691 104.967 87.3671 107.093 77.6513C107.347 76.4837 107.632 75.3609 107.886 74.3429C106.913 74.7471 105.835 75.1513 104.727 75.5256C95.3411 78.8041 82.2421 81.6334 76.8528 74.6273C74.9216 87.0377 86.4488 89.912 102.153 80.825C95.0268 97.502 99.2783 108.61 111.359 105.197Z" fill="#F8F7F7"/>
<path d="M12.0012 53.2347L58.6038 53.2347C59.9212 53.2347 60.999 54.2976 60.999 55.6299C60.999 56.9473 59.9361 58.0252 58.6038 58.0252L12.0012 58.0252C10.6838 58.0252 9.60596 56.9473 9.60596 55.6299C9.60596 54.2976 10.6838 53.2347 12.0012 53.2347Z" fill="#F8F7F7"/>
<path d="M126.126 124.913C127.443 124.913 128.521 125.975 128.521 127.308V173.91C128.521 175.228 127.458 176.306 126.126 176.306C124.809 176.306 123.731 175.228 123.731 173.91V127.308C123.746 125.975 124.809 124.913 126.126 124.913Z" fill="#F8F7F7"/>
<path d="M105.498 11.6172C109.331 11.6172 112.444 14.731 112.444 18.5634C112.444 33.3092 118.492 46.7375 128.298 56.5431C138.104 66.3337 151.532 72.3967 166.278 72.3967H166.682C170.529 72.3817 173.643 75.4955 173.658 79.3279C173.673 83.1603 170.559 86.2891 166.727 86.3041H166.308H166.293C147.7 86.3041 130.738 78.6393 118.492 66.3786C106.232 54.1329 98.5669 37.1715 98.5669 18.5784C98.552 14.731 101.666 11.6172 105.498 11.6172Z" fill="#F8F7F7"/>
</g>
<defs>
<filter id="filter0_f_150_850" x="-0.000488281" y="0" width="182" height="184.476" filterUnits="userSpaceOnUse" color-interpolation-filters="sRGB">
<feFlood flood-opacity="0" result="BackgroundImageFix"/>
<feBlend mode="normal" in="SourceGraphic" in2="BackgroundImageFix" result="shape"/>
<feGaussianBlur stdDeviation="2" result="effect1_foregroundBlur_150_850"/>
</filter>
</defs>
</svg>
