<svg width="51" height="51" viewBox="0 0 51 51" fill="none" xmlns="http://www.w3.org/2000/svg">
<path d="M20.2024 22.0736C20.0771 22.2068 19.9519 22.3325 19.8192 22.4582C18.5592 23.6343 16.8055 24.2112 15.0223 24.041C14.6687 24.0041 14.3224 23.9523 13.9908 23.8709C11.9571 23.3976 10.4023 22.1032 9.79075 20.2837C9.4739 19.3444 9.43706 18.3533 9.65075 17.4213C9.87917 16.4228 10.4097 15.4908 11.1907 14.766C12.0528 13.9672 13.2318 13.5752 14.4402 13.6713C14.7055 13.6935 14.956 13.7305 15.1992 13.7897C16.5918 14.1151 17.675 15.0101 18.1024 16.2748C18.3308 16.9405 18.3603 17.6358 18.2055 18.2941C18.0434 18.9967 17.675 19.6476 17.1297 20.1506C16.3487 20.8828 15.2802 21.1269 14.315 20.8976C13.7402 20.7644 13.195 20.4612 12.7602 19.9952C12.5539 19.7733 12.4876 19.4775 12.5539 19.2038C12.5908 19.0411 12.6792 18.8858 12.8044 18.7674C13.0255 18.5603 13.3202 18.4938 13.5929 18.5603C13.755 18.5973 13.9097 18.6861 14.0276 18.8118C14.2192 19.0189 14.455 19.1521 14.7055 19.2112C15.1329 19.3074 15.5971 19.2038 15.9434 18.8784C16.2308 18.6121 16.4224 18.2719 16.5108 17.902C16.5918 17.5544 16.5771 17.192 16.4592 16.8444C16.2234 16.1713 15.6634 15.6905 14.8087 15.4908C14.6466 15.4538 14.4697 15.4243 14.2855 15.4095C13.556 15.3503 12.856 15.5796 12.3623 16.0455C11.8392 16.5337 11.4928 17.155 11.3381 17.8207C11.1907 18.442 11.2202 19.1003 11.4265 19.729C11.8465 20.9642 12.8634 21.8222 14.3518 22.1772C14.6097 22.2363 14.8897 22.2807 15.1771 22.3103C16.5034 22.436 17.7192 22.0366 18.6329 21.186C18.7361 21.0899 18.8318 20.9938 18.9276 20.8902C19.5539 20.2171 19.9666 19.4257 20.1655 18.5751C20.3497 17.7837 20.3424 16.9332 20.1361 16.0826C19.6718 14.2039 18.3234 12.7024 16.5255 12.0663L16.3045 11.9923H16.2971C15.9581 11.8592 15.5603 11.7409 15.1329 11.6447C13.8581 11.3489 12.2739 11.2009 10.7486 11.2601C9.38547 11.3193 8.19916 11.1935 7.16757 10.9568C3.33597 10.0619 1.72227 7.5693 1.49384 7.1773C1.4349 7.10333 1.38329 7.02197 1.33171 6.94061C0.801184 6.09002 0.602251 5.08413 0.74962 4.08562C0.764359 3.97467 0.786476 3.86372 0.808582 3.76017C1.037 2.78385 1.597 1.91848 2.4149 1.31938C3.28438 0.67589 4.35283 0.490982 5.33283 0.72027C6.11389 0.90518 6.83599 1.34894 7.35179 2.0368C7.85284 2.70987 8.03705 3.59008 7.85284 4.43327V4.44063L7.83809 4.49981C7.57282 5.64625 6.79178 6.50424 5.73809 6.72613C5.35493 6.80749 4.97175 6.80008 4.61069 6.71872C4.02858 6.57819 3.49072 6.23795 3.12229 5.73499C2.96755 5.5205 2.92333 5.26165 2.97491 5.01756C3.01912 4.82526 3.13703 4.64036 3.3065 4.51462C3.52019 4.35929 3.77806 4.31491 4.02122 4.36668C4.2128 4.41106 4.39701 4.52201 4.52227 4.69953C4.64017 4.86225 4.81704 4.97319 5.00862 5.01756C5.12651 5.04715 5.25178 5.04715 5.37704 5.01756C5.56125 4.98058 5.71596 4.88443 5.84859 4.7365C5.98122 4.58857 6.09177 4.37409 6.15072 4.10042L6.1581 4.06345C6.23178 3.70842 6.15809 3.33119 5.96651 3.07972C5.70125 2.73209 5.34018 2.50278 4.94228 2.41402C4.44123 2.29568 3.89594 2.39186 3.44646 2.7173C2.96014 3.07233 2.63595 3.57528 2.50332 4.1522C2.48858 4.21877 2.47386 4.2779 2.46649 4.34447C2.36333 5.00275 2.52542 5.65367 2.91595 6.18621L2.92333 6.19357L2.96754 6.26015L2.97491 6.26756V6.27496C3.02649 6.35632 4.26438 8.48646 7.56546 9.26308C8.44967 9.47018 9.48124 9.58111 10.6823 9.52194C12.3844 9.45537 14.0939 9.6107 15.516 9.94353C16.0171 10.0619 16.4739 10.2024 16.8939 10.3577L17.1003 10.4317C19.4582 11.2601 21.2266 13.2275 21.8234 15.6757C22.0961 16.8 22.1035 17.9243 21.8603 18.9819C21.595 20.1136 21.035 21.1787 20.2024 22.0736Z" fill="#E0E0E0"/>
<path d="M29.2949 30.683C29.1623 30.8087 29.037 30.9419 28.9191 31.075C27.7697 32.362 27.2392 34.1297 27.4381 35.9196C27.4823 36.2746 27.5412 36.6223 27.6297 36.9551C28.1455 38.9817 29.4644 40.5202 31.2918 41.0971C32.235 41.4003 33.2224 41.4152 34.1434 41.1785C35.1308 40.927 36.0518 40.3796 36.7592 39.5808C37.5403 38.7007 37.9087 37.5098 37.7834 36.2968C37.754 36.038 37.7098 35.7791 37.6508 35.535C37.2971 34.1445 36.3834 33.0794 35.1161 32.6726C34.4529 32.4581 33.7529 32.4433 33.1044 32.6135C32.4118 32.791 31.7708 33.1756 31.2771 33.7303C30.5697 34.5291 30.3486 35.6016 30.5918 36.5705C30.7392 37.1474 31.0487 37.6874 31.5276 38.109C31.7487 38.3087 32.0507 38.3752 32.3234 38.3013C32.4855 38.2569 32.6402 38.1681 32.7581 38.035C32.9571 37.8131 33.0234 37.5099 32.9497 37.2362C32.9055 37.0735 32.8171 36.9181 32.6845 36.7998C32.4782 36.6149 32.3382 36.3782 32.2718 36.1267C32.1613 35.6977 32.2645 35.2318 32.5739 34.8767C32.8318 34.5809 33.1708 34.3812 33.5318 34.2924C33.8708 34.2037 34.2392 34.2111 34.5855 34.322C35.2634 34.5439 35.7497 35.0986 35.9708 35.9492C36.015 36.1119 36.0445 36.2894 36.0666 36.4743C36.1403 37.2066 35.9266 37.9092 35.4771 38.4196C35.0055 38.9521 34.3939 39.3146 33.7308 39.4847C33.1118 39.64 32.456 39.6326 31.8297 39.4329C30.5918 39.0409 29.7149 38.035 29.3318 36.5409C29.2655 36.2821 29.2139 36.001 29.1844 35.7125C29.0297 34.3812 29.4055 33.1534 30.2308 32.2214C30.3265 32.1179 30.4223 32.0143 30.5181 31.9182C31.1739 31.2747 31.955 30.8457 32.8023 30.6238C33.5908 30.4241 34.4308 30.4093 35.2855 30.6016C37.1718 31.0232 38.6898 32.3472 39.3603 34.1445L39.4413 34.359V34.3664C39.5813 34.7066 39.7066 35.0986 39.8098 35.5276C40.134 36.7998 40.3108 38.3826 40.2814 39.9211C40.2445 41.2894 40.3992 42.4802 40.6571 43.5083C41.6298 47.3396 44.1424 48.9077 44.5329 49.1296C44.614 49.1814 44.6877 49.2331 44.7687 49.2849C45.6235 49.7952 46.633 49.9802 47.6277 49.81C47.7382 49.7878 47.8414 49.7656 47.9519 49.7434C48.9246 49.492 49.7719 48.9151 50.354 48.0793C50.973 47.1917 51.1351 46.1192 50.8919 45.1429C50.693 44.3663 50.2362 43.6488 49.5362 43.1459C48.8583 42.6577 47.974 42.495 47.1414 42.6873H47.134L47.0751 42.7021C45.9403 42.9906 45.1003 43.7894 44.9014 44.8545C44.8277 45.2391 44.8424 45.6237 44.9309 45.9861C45.0782 46.5704 45.4319 47.0956 45.9403 47.458C46.154 47.6059 46.4193 47.6503 46.6551 47.5911C46.8466 47.5393 47.0235 47.421 47.1488 47.2509C47.3035 47.0364 47.3404 46.7701 47.2814 46.5334C47.2298 46.3411 47.1193 46.1636 46.9424 46.0379C46.7803 45.9196 46.6624 45.7494 46.6109 45.5571C46.5814 45.4388 46.574 45.313 46.6035 45.1873C46.6403 45.0024 46.7287 44.847 46.8761 44.7065C47.0235 44.5734 47.2372 44.455 47.5025 44.3885L47.5393 44.3811C47.893 44.2997 48.2688 44.3663 48.5267 44.5586C48.8804 44.8175 49.1088 45.1725 49.2119 45.5719C49.3372 46.0749 49.2562 46.6222 48.9393 47.0734C48.593 47.5615 48.0993 47.9092 47.5319 48.0497C47.473 48.0645 47.4066 48.0793 47.3403 48.0941C46.6845 48.205 46.0361 48.0645 45.4982 47.6799L45.4909 47.6725L45.4245 47.6355L45.4172 47.6281H45.4098C45.3214 47.5763 43.1772 46.3781 42.3445 43.0867C42.1235 42.2065 41.9908 41.1711 42.0203 39.9655C42.0498 38.2569 41.8582 36.5483 41.4971 35.1208C41.3719 34.6253 41.2245 34.1593 41.055 33.7451L40.9813 33.5454C40.1045 31.1934 38.115 29.4626 35.6613 28.9153C34.5339 28.6638 33.4139 28.6786 32.3676 28.9448C31.2181 29.2407 30.1644 29.825 29.2949 30.683Z" fill="#E0E0E0"/>
<path d="M23.0021 50.2611C23.1863 50.2241 23.3705 50.1723 23.5547 50.1206C25.3011 49.625 26.7674 48.3528 27.5853 46.6443C27.7474 46.304 27.8874 45.9638 27.9979 45.6162C28.6758 43.523 28.359 41.415 27.0621 39.8618C26.3916 39.063 25.5221 38.4934 24.5716 38.1828C23.5474 37.85 22.4274 37.8204 21.3516 38.1311C20.1652 38.4713 19.1705 39.3293 18.6031 40.4757C18.4778 40.7272 18.3821 40.9787 18.2936 41.2301C17.8294 42.665 18.0431 44.1295 18.9421 45.2094C19.4136 45.7789 20.0252 46.1783 20.6958 46.4002C21.4105 46.6369 22.1989 46.6591 22.9505 46.4372C24.0337 46.1265 24.8295 45.2981 25.1537 44.2996C25.3453 43.7079 25.3673 43.0422 25.1831 42.3987C25.0947 42.0955 24.8663 41.8662 24.5863 41.7775C24.4168 41.7257 24.2326 41.7183 24.0558 41.7701C23.7537 41.8588 23.5252 42.0881 23.4368 42.3692C23.3852 42.5393 23.3779 42.7242 23.4295 42.9017C23.5105 43.1827 23.5032 43.4712 23.4147 43.7301C23.2747 44.1665 22.921 44.5363 22.4421 44.6694C22.0442 44.7804 21.6316 44.773 21.2558 44.6473C20.9021 44.5289 20.5852 44.3218 20.3347 44.026C19.8558 43.4416 19.7305 42.6798 20.0179 41.7996C20.0695 41.6295 20.1431 41.4594 20.2315 41.2819C20.5705 40.5866 21.1673 40.0837 21.8452 39.8914C22.5674 39.6843 23.3116 39.7065 23.9968 39.9284C24.6305 40.1355 25.2126 40.5201 25.6621 41.0452C26.5463 42.0955 26.76 43.486 26.2663 45.0244C26.1779 45.2907 26.0674 45.5644 25.9347 45.8455C25.3231 47.1177 24.3063 47.9978 23.0463 48.3602C22.9063 48.4046 22.7589 48.4342 22.6189 48.4638C21.6758 48.6635 20.74 48.6117 19.8631 48.3232C19.0526 48.057 18.2936 47.591 17.6378 46.9401C16.201 45.4978 15.5894 43.4638 16.0021 41.489L16.0536 41.2523V41.2449C16.12 40.8677 16.2305 40.4461 16.3705 40.0023C16.7978 38.6932 17.5273 37.1769 18.4116 35.8307C19.2073 34.6325 19.7452 33.4861 20.0842 32.4284C21.3663 28.4714 20.0031 25.6607 19.7821 25.2391C19.7452 25.143 19.701 25.0542 19.6568 24.9655C19.1778 24.0261 18.3894 23.2939 17.4094 22.8871C17.2989 22.8427 17.1957 22.8057 17.0852 22.7688C16.0831 22.4433 14.9999 22.4803 14.0199 22.8945C12.9736 23.3309 12.222 24.1963 11.8978 25.2096C11.6399 26.0158 11.6473 26.9107 11.9862 27.7539C12.3178 28.5675 13.0104 29.2184 13.8652 29.5143H13.8726L13.9389 29.5365C15.1105 29.9211 16.3041 29.677 17.0852 28.8486C17.3652 28.5527 17.5715 28.1977 17.6894 27.8205C17.8884 27.214 17.8663 26.5483 17.6157 25.9418C17.5052 25.6829 17.2989 25.498 17.0557 25.424C16.8568 25.3575 16.6284 25.3649 16.4221 25.4537C16.1642 25.5572 15.9799 25.7717 15.9063 26.0158C15.8399 26.2155 15.8473 26.4374 15.9283 26.6519C16.0094 26.8516 16.0168 27.0661 15.9505 27.2658C15.9136 27.3915 15.8473 27.5024 15.7515 27.606C15.6189 27.7539 15.4494 27.8427 15.2357 27.8796C15.0294 27.9166 14.7789 27.9018 14.4989 27.8057L14.462 27.7909C14.101 27.6651 13.8062 27.3915 13.681 27.0809C13.5115 26.6519 13.5041 26.2007 13.6368 25.7939C13.8062 25.2761 14.1894 24.8323 14.7199 24.6105C15.3021 24.3664 15.9357 24.3442 16.5252 24.5365C16.5915 24.5587 16.6578 24.5809 16.7168 24.6105C17.3652 24.8767 17.8589 25.3723 18.1242 26.0158L18.1315 26.0232L18.1684 26.0971V26.1045V26.1119C18.2126 26.2007 19.4505 28.4862 18.3526 31.8885C18.0579 32.7983 17.5936 33.7894 16.8936 34.8471C15.9136 36.3485 15.1178 37.9757 14.6462 39.455C14.4768 39.9653 14.3515 40.4609 14.2704 40.9269L14.2262 41.1487C13.6883 43.7301 14.4915 46.4002 16.3631 48.2715C17.2252 49.1294 18.2273 49.7508 19.3105 50.1058C20.4821 50.4534 21.7421 50.5274 23.0021 50.2611Z" fill="#E0E0E0"/>
<path d="M0.0714626 28.7452C0.100937 28.5603 0.130423 28.3679 0.174633 28.183C0.550425 26.4005 1.7146 24.8473 3.35777 23.9153C3.68935 23.7304 4.02096 23.5677 4.35254 23.4346C6.38624 22.6136 8.50833 22.7911 10.1294 23.9893C10.9694 24.6106 11.5957 25.439 11.9715 26.3709C12.3694 27.3694 12.4799 28.4937 12.2441 29.5883C11.9862 30.8013 11.1978 31.8516 10.0999 32.4951C9.85678 32.6357 9.61363 32.754 9.37047 32.8501C7.97783 33.4123 6.50414 33.2939 5.36939 32.4655C4.77255 32.0291 4.33043 31.4448 4.06516 30.7865C3.78516 30.0839 3.71147 29.2999 3.87357 28.5306C4.10937 27.4286 4.88306 26.5706 5.85569 26.186C6.4378 25.9567 7.08623 25.8828 7.74202 26.0233C8.0515 26.0899 8.2873 26.3044 8.39783 26.578C8.46414 26.7408 8.47888 26.9256 8.44203 27.1105C8.37572 27.4212 8.16203 27.6579 7.8894 27.7688C7.72729 27.8354 7.5431 27.8502 7.35889 27.8132C7.07152 27.754 6.79148 27.7836 6.53358 27.8798C6.10621 28.0499 5.76727 28.4271 5.66411 28.9153C5.57569 29.3221 5.61991 29.7289 5.76728 30.0987C5.90728 30.4463 6.13569 30.7496 6.44516 30.9788C7.05675 31.4226 7.8231 31.4892 8.68521 31.149C8.84731 31.0824 9.01678 31.001 9.18626 30.9049C9.84942 30.5203 10.3136 29.8916 10.461 29.1963C10.6231 28.4641 10.5494 27.717 10.2768 27.044C10.0262 26.4227 9.61363 25.868 9.05363 25.4538C7.94836 24.6402 6.55572 24.5144 5.05256 25.1135C4.78729 25.2171 4.52939 25.3502 4.26412 25.4981C3.04096 26.1934 2.2378 27.2807 1.96517 28.5603C1.93569 28.7082 1.90619 28.8487 1.89145 28.9966C1.75882 29.9507 1.86935 30.8901 2.21567 31.7407C2.53251 32.5321 3.04831 33.2643 3.74095 33.8709C5.26622 35.217 7.33676 35.6903 9.2673 35.143L9.5031 35.0765H9.51047C9.88626 34.9803 10.2915 34.8471 10.7262 34.6696C12.001 34.1593 13.46 33.3235 14.7421 32.3472C15.8768 31.467 16.9821 30.8605 18.0137 30.4389C21.86 28.8931 24.7485 30.0617 25.1758 30.2614C25.2716 30.291 25.3674 30.328 25.4559 30.3723C26.4211 30.7865 27.2021 31.5262 27.6737 32.4877C27.7253 32.5913 27.7695 32.7022 27.8137 32.8058C28.2043 33.7895 28.2338 34.8693 27.8948 35.8826C27.5338 36.9625 26.7158 37.7687 25.7358 38.1607C24.9548 38.4788 24.0632 38.5306 23.2011 38.2495C22.3685 37.9758 21.6758 37.3175 21.3295 36.4892V36.4818L21.3074 36.4226C20.8432 35.2762 21.0053 34.0632 21.7789 33.2274C22.0589 32.9241 22.3905 32.7022 22.759 32.5543C23.3484 32.3176 24.0116 32.288 24.6305 32.5025C24.8884 32.5912 25.0948 32.791 25.1832 33.0277C25.2642 33.22 25.2716 33.4492 25.1979 33.6637C25.1095 33.93 24.9106 34.1223 24.6748 34.2185C24.4832 34.2998 24.2548 34.3072 24.0411 34.2333C23.8421 34.1667 23.6211 34.1741 23.4295 34.2481C23.3116 34.2998 23.2011 34.3738 23.1053 34.47C22.9727 34.6179 22.8916 34.788 22.8695 35.0025C22.8474 35.2096 22.8842 35.461 22.9874 35.7347L23.0021 35.7717C23.1495 36.1268 23.4442 36.4004 23.7611 36.504C24.1958 36.6445 24.6453 36.6223 25.0432 36.4596C25.5443 36.2599 25.9643 35.8457 26.1485 35.2909C26.3474 34.6918 26.3327 34.0557 26.1042 33.4788C26.0821 33.4123 26.0527 33.3531 26.0232 33.2865C25.7137 32.6578 25.1832 32.1919 24.5274 31.97H24.52L24.4463 31.9404H24.439H24.4316C24.3358 31.896 21.9853 30.8161 18.6768 32.1475C17.7926 32.5025 16.8347 33.035 15.8326 33.8043C14.4031 34.8915 12.841 35.7939 11.4042 36.3634C10.9031 36.5631 10.4242 36.7259 9.96731 36.8368L9.74627 36.8959C7.21151 37.606 4.50729 36.9847 2.5178 35.2318C1.60411 34.433 0.918804 33.4641 0.498802 32.399C0.0493259 31.2747 -0.105381 30.0173 0.0714626 28.7452Z" fill="#E0E0E0"/>
<path d="M22.774 27.791C22.4866 27.9537 22.1845 28.1016 21.8824 28.22C21.9929 27.9389 22.1256 27.6431 22.2877 27.362C22.5456 26.896 22.8772 26.4744 23.2382 26.2303C23.3487 26.1564 23.4372 26.1342 23.5182 26.1342C23.6361 26.1342 23.7466 26.1934 23.8277 26.2673C23.9087 26.3487 23.9677 26.4597 23.9603 26.578C23.9603 26.6594 23.9382 26.7481 23.8645 26.859C23.6435 27.2066 23.2308 27.5247 22.774 27.791Z" fill="#E0E0E0"/>
<path d="M24.8592 25.232L24.6823 25.4095L24.8592 25.232C24.4908 24.8621 24.0118 24.6624 23.5255 24.6698C23.1497 24.6698 22.7665 24.7881 22.4276 25.0174C21.5507 25.6091 20.976 26.6299 20.6002 27.5027C20.2244 28.3828 20.0623 29.1224 20.0402 29.1964C20.0328 29.2482 20.0255 29.2926 20.0255 29.3443C20.0255 29.5514 20.1139 29.7289 20.2466 29.8621C20.3792 29.9952 20.556 30.084 20.7623 30.084C20.8065 30.084 20.8581 30.0766 20.9097 30.0692C20.9907 30.0544 21.7276 29.8843 22.5971 29.5144C23.4666 29.1372 24.4834 28.5603 25.0729 27.6802C25.3013 27.3399 25.4192 26.9553 25.4192 26.5781C25.4192 26.0825 25.2276 25.6018 24.8592 25.232ZM23.9676 26.5781C23.9676 26.6595 23.9455 26.7482 23.8718 26.8591C23.6434 27.2068 23.2381 27.5248 22.7739 27.7911C22.4866 27.9538 22.1844 28.1017 21.8823 28.2201C21.9929 27.939 22.1255 27.6432 22.2876 27.3621C22.5455 26.8961 22.8771 26.4745 23.2382 26.2305C23.3487 26.1565 23.4371 26.1343 23.5182 26.1343C23.6361 26.1343 23.7466 26.1935 23.8276 26.2674C23.9087 26.3488 23.9676 26.4598 23.9676 26.5781Z" fill="#E0E0E0"/>
<path d="M29.0372 20.5722C29.3245 20.4095 29.6266 20.2616 29.9287 20.1432C29.8182 20.4243 29.6856 20.7201 29.5235 21.0012C29.2656 21.4672 28.934 21.8888 28.5729 22.1328C28.4624 22.2068 28.374 22.229 28.2929 22.229C28.175 22.229 28.0645 22.1698 27.9835 22.0958C27.9024 22.0145 27.8435 21.9035 27.8508 21.7852C27.8508 21.7038 27.8729 21.6151 27.9466 21.5041C28.175 21.1639 28.5803 20.8384 29.0372 20.5722Z" fill="#E0E0E0"/>
<path d="M26.9593 23.1315L27.1361 22.954L26.9593 23.1315C27.3277 23.5013 27.8066 23.701 28.2929 23.6936C28.6687 23.6936 29.0519 23.5753 29.3908 23.346C30.2677 22.7543 30.8424 21.7336 31.2182 20.8608C31.594 19.9807 31.7561 19.241 31.7782 19.1671C31.7856 19.1153 31.793 19.0709 31.793 19.0191C31.793 18.812 31.7046 18.6345 31.5719 18.5014C31.4393 18.3682 31.2624 18.2795 31.0561 18.2795C31.0119 18.2795 30.9603 18.2869 30.9087 18.2943C30.8277 18.3091 30.0909 18.4792 29.2214 18.849C28.3519 19.2262 27.3351 19.8031 26.7456 20.6833C26.5172 21.0236 26.3992 21.4082 26.3992 21.7854C26.3919 22.2809 26.5835 22.7617 26.9593 23.1315ZM27.8509 21.7854C27.8509 21.704 27.8729 21.6152 27.9466 21.5043C28.175 21.1567 28.5803 20.8386 29.0445 20.5724C29.3319 20.4096 29.634 20.2617 29.9361 20.1434C29.8256 20.4245 29.6929 20.7203 29.5308 21.0014C29.2729 21.4673 28.9414 21.8889 28.5803 22.133C28.4698 22.207 28.3814 22.2292 28.3003 22.2292C28.1824 22.2292 28.0719 22.17 27.9909 22.096C27.9024 22.0146 27.8509 21.9037 27.8509 21.7854Z" fill="#E0E0E0"/>
<path d="M11.9788 40.3723C11.9788 39.3664 11.1683 38.5528 10.1661 38.5528C9.16403 38.5528 8.35349 39.3664 8.35349 40.3723C8.35349 41.3782 9.16403 42.1918 10.1661 42.1918C11.1683 42.1992 11.9788 41.3782 11.9788 40.3723Z" fill="#E0E0E0"/>
<path d="M20.1797 49.8915C20.1797 50.3353 19.8113 50.6978 19.3692 50.6978C14.3807 50.6682 9.60592 48.6933 6.07643 45.2022C2.54693 41.7112 0.5427 36.9775 0.498487 32.0293C0.491119 31.5855 0.852188 31.2157 1.2943 31.2157C1.7364 31.2157 2.10485 31.5707 2.10485 32.0145C2.1417 36.5263 3.96906 40.8532 7.20382 44.0484C10.4312 47.2437 14.8081 49.0484 19.3765 49.0779C19.8187 49.0853 20.1797 49.4477 20.1797 49.8915Z" fill="#E0E0E0"/>
<path d="M36.3243 30.3206C35.9338 30.3206 35.6169 30.0099 35.6169 29.6179C35.5875 25.6682 33.9811 21.8812 31.159 19.0928C28.3369 16.297 24.5053 14.7142 20.5116 14.692C20.121 14.692 19.8116 14.3739 19.8116 13.9819C19.8116 13.5899 20.1284 13.2793 20.5189 13.2793C24.8811 13.3089 29.059 15.0322 32.1464 18.0869C35.2338 21.1416 36.9874 25.2836 37.0243 29.6105C37.0317 30.0025 36.7148 30.3206 36.3243 30.3206Z" fill="#E0E0E0"/>
</svg>
