<svg width="213" height="213" viewBox="0 0 213 213" fill="none" xmlns="http://www.w3.org/2000/svg">
<path d="M1.32001 0H212.54V211.22C212.54 211.95 211.95 212.54 211.22 212.54C210.49 212.54 209.9 211.95 209.9 211.22V2.63H1.32001C0.590007 2.63 0 2.04 0 1.31C0.01 0.589998 0.600007 0 1.32001 0Z" fill="url(#paint0_linear_105_411)"/>
<path d="M21.1799 11.16H175.01C175.74 11.16 176.33 11.75 176.33 12.48C176.33 13.21 175.74 13.8 175.01 13.8H21.1799C20.4499 13.8 19.8599 13.21 19.8599 12.48C19.8699 11.75 20.4499 11.16 21.1799 11.16Z" fill="url(#paint1_linear_105_411)"/>
<path d="M200.36 35.12C200.97 35.12 201.46 35.61 201.46 36.22V190.05C201.46 190.66 200.97 191.15 200.36 191.15C199.75 191.15 199.26 190.66 199.26 190.05V36.22C199.26 35.61 199.76 35.12 200.36 35.12Z" fill="url(#paint2_linear_105_411)"/>
<path d="M184.77 38.9199C184.94 38.7399 185.11 38.5699 185.29 38.3999C187 36.8099 189.38 36.0299 191.8 36.2599C192.28 36.3099 192.75 36.3799 193.2 36.4899C195.96 37.1299 198.07 38.8799 198.9 41.3399C199.33 42.6099 199.38 43.9499 199.09 45.2099C198.78 46.5599 198.06 47.8199 197 48.7999C195.83 49.8799 194.23 50.4099 192.59 50.2799C192.23 50.2499 191.89 50.1999 191.56 50.1199C189.67 49.6799 188.2 48.4699 187.62 46.7599C187.31 45.8599 187.27 44.9199 187.48 44.0299C187.7 43.0799 188.2 42.1999 188.94 41.5199C190 40.5299 191.45 40.1999 192.76 40.5099C193.54 40.6899 194.28 41.0999 194.87 41.7299C195.15 42.0299 195.24 42.4299 195.15 42.7999C195.1 43.0199 194.98 43.2299 194.81 43.3899C194.51 43.6699 194.11 43.7599 193.74 43.6699C193.52 43.6199 193.31 43.4999 193.15 43.3299C192.89 43.0499 192.57 42.8699 192.23 42.7899C191.65 42.6599 191.02 42.7999 190.55 43.2399C190.16 43.5999 189.9 44.0599 189.78 44.5599C189.67 45.0299 189.69 45.5199 189.85 45.9899C190.17 46.8999 190.93 47.5499 192.09 47.8199C192.31 47.8699 192.55 47.9099 192.8 47.9299C193.79 48.0099 194.74 47.6999 195.41 47.0699C196.12 46.4099 196.59 45.5699 196.8 44.6699C197 43.8299 196.96 42.9399 196.68 42.0899C196.11 40.4199 194.73 39.2599 192.71 38.7799C192.36 38.6999 191.98 38.6399 191.59 38.5999C189.79 38.4299 188.14 38.9699 186.9 40.1199C186.76 40.2499 186.63 40.3799 186.5 40.5199C185.65 41.4299 185.09 42.4999 184.82 43.6499C184.57 44.7199 184.58 45.8699 184.86 47.0199C185.49 49.5599 187.32 51.5899 189.76 52.4499L190.06 52.5499H190.07C190.53 52.7299 191.07 52.8899 191.65 53.0199C193.38 53.4199 195.53 53.6199 197.6 53.5399C199.45 53.4599 201.06 53.6299 202.46 53.9499C207.66 55.1599 209.85 58.5299 210.16 59.0599C210.24 59.1599 210.31 59.2699 210.38 59.3799C211.1 60.5299 211.37 61.8899 211.17 63.2399C211.15 63.3899 211.12 63.5399 211.09 63.6799C210.78 64.9999 210.02 66.1699 208.91 66.9799C207.73 67.8499 206.28 68.0999 204.95 67.7899C203.89 67.5399 202.91 66.9399 202.21 66.0099C201.53 65.0999 201.28 63.9099 201.53 62.7699V62.7599L201.55 62.6799C201.91 61.1299 202.97 59.9699 204.4 59.6699C204.92 59.5599 205.44 59.5699 205.93 59.6799C206.72 59.8699 207.45 60.3299 207.95 61.0099C208.16 61.2999 208.22 61.6499 208.15 61.9799C208.09 62.2399 207.93 62.4899 207.7 62.6599C207.41 62.8699 207.06 62.9299 206.73 62.8599C206.47 62.7999 206.22 62.6499 206.05 62.4099C205.89 62.1899 205.65 62.0399 205.39 61.9799C205.23 61.9399 205.06 61.9399 204.89 61.9799C204.64 62.0299 204.43 62.1599 204.25 62.3599C204.07 62.5599 203.92 62.8499 203.84 63.2199L203.83 63.2699C203.73 63.7499 203.83 64.2599 204.09 64.5999C204.45 65.0699 204.94 65.3799 205.48 65.4999C206.16 65.6599 206.9 65.5299 207.51 65.0899C208.17 64.6099 208.61 63.9299 208.79 63.1499C208.81 63.0599 208.83 62.9799 208.84 62.8899C208.98 61.9999 208.76 61.1199 208.23 60.3999L208.22 60.3899L208.16 60.2999L208.15 60.2899V60.2799C208.08 60.1699 206.4 57.2899 201.92 56.2399C200.72 55.9599 199.32 55.8099 197.69 55.8899C195.38 55.9799 193.06 55.7699 191.13 55.3199C190.45 55.1599 189.83 54.9699 189.26 54.7599L188.98 54.6599C185.78 53.5399 183.38 50.8799 182.57 47.5699C182.2 46.0499 182.19 44.5299 182.52 43.0999C182.88 41.5699 183.64 40.1299 184.77 38.9199Z" fill="url(#paint3_linear_105_411)"/>
<path d="M172.43 27.28C172.61 27.11 172.78 26.93 172.94 26.75C174.5 25.01 175.22 22.62 174.95 20.2C174.89 19.72 174.81 19.25 174.69 18.8C173.99 16.06 172.2 13.98 169.72 13.2C168.44 12.79 167.1 12.77 165.85 13.09C164.51 13.43 163.26 14.17 162.3 15.25C161.24 16.44 160.74 18.05 160.91 19.69C160.95 20.04 161.01 20.39 161.09 20.72C161.57 22.6 162.81 24.04 164.53 24.59C165.43 24.88 166.38 24.9 167.26 24.67C168.2 24.43 169.07 23.91 169.74 23.16C170.7 22.08 171 20.63 170.67 19.32C170.47 18.54 170.05 17.81 169.4 17.24C169.1 16.97 168.69 16.88 168.32 16.98C168.1 17.04 167.89 17.16 167.73 17.34C167.46 17.64 167.37 18.05 167.47 18.42C167.53 18.64 167.65 18.85 167.83 19.01C168.11 19.26 168.3 19.58 168.39 19.92C168.54 20.5 168.4 21.13 167.98 21.61C167.63 22.01 167.17 22.28 166.68 22.4C166.22 22.52 165.72 22.51 165.25 22.36C164.33 22.06 163.67 21.31 163.37 20.16C163.31 19.94 163.27 19.7 163.24 19.45C163.14 18.46 163.43 17.51 164.04 16.82C164.68 16.1 165.51 15.61 166.41 15.38C167.25 15.17 168.14 15.18 168.99 15.45C170.67 15.98 171.86 17.34 172.38 19.36C172.47 19.71 172.54 20.09 172.58 20.48C172.79 22.28 172.28 23.94 171.16 25.2C171.03 25.34 170.9 25.48 170.77 25.61C169.88 26.48 168.82 27.06 167.67 27.36C166.6 27.63 165.46 27.65 164.3 27.39C161.74 26.82 159.68 25.03 158.77 22.6L158.66 22.31V22.3C158.47 21.84 158.3 21.31 158.16 20.73C157.72 19.01 157.48 16.87 157.52 14.79C157.57 12.94 157.36 11.33 157.01 9.94002C155.69 4.76002 152.28 2.63999 151.75 2.33999C151.64 2.26999 151.54 2.20003 151.43 2.13003C150.27 1.44003 148.9 1.19 147.55 1.42C147.4 1.45 147.26 1.48003 147.11 1.51003C145.79 1.85003 144.64 2.63003 143.85 3.76003C143.01 4.96003 142.79 6.41 143.12 7.73C143.39 8.78 144.01 9.75001 144.96 10.43C145.88 11.09 147.08 11.31 148.21 11.05H148.22L148.3 11.03C149.84 10.64 150.98 9.56002 151.25 8.12002C151.35 7.60002 151.33 7.07999 151.21 6.58999C151.01 5.79999 150.53 5.09 149.84 4.6C149.55 4.4 149.19 4.34 148.87 4.42C148.61 4.49 148.37 4.65003 148.2 4.88003C147.99 5.17003 147.94 5.53 148.02 5.85C148.09 6.11 148.24 6.34998 148.48 6.51998C148.7 6.67998 148.86 6.91 148.93 7.17C148.97 7.33 148.98 7.5 148.94 7.67C148.89 7.92 148.77 8.13003 148.57 8.32003C148.37 8.50003 148.08 8.66002 147.72 8.75002L147.67 8.76003C147.19 8.87003 146.68 8.77998 146.33 8.51998C145.85 8.16998 145.54 7.68998 145.4 7.14998C145.23 6.46998 145.34 5.73002 145.77 5.12002C146.24 4.46002 146.91 3.99001 147.68 3.80001C147.76 3.78001 147.85 3.76001 147.94 3.74001C148.83 3.59001 149.71 3.78001 150.44 4.30001L150.45 4.31002L150.54 4.36001L150.55 4.37002H150.56C150.68 4.44002 153.59 6.06003 154.72 10.51C155.02 11.7 155.2 13.1 155.16 14.73C155.12 17.04 155.38 19.35 155.87 21.28C156.04 21.95 156.24 22.58 156.47 23.14L156.57 23.41C157.76 26.59 160.46 28.93 163.79 29.67C165.32 30.01 166.84 29.99 168.26 29.63C169.82 29.23 171.25 28.44 172.43 27.28Z" fill="url(#paint4_linear_105_411)"/>
<path d="M180.97 0.809942C180.72 0.859942 180.47 0.929945 180.22 0.999945C177.85 1.66994 175.86 3.38996 174.75 5.69996C174.53 6.15996 174.34 6.61991 174.19 7.08991C173.27 9.91991 173.7 12.7699 175.46 14.8699C176.37 15.9499 177.55 16.72 178.84 17.14C180.23 17.59 181.75 17.6299 183.21 17.2099C184.82 16.7499 186.17 15.5899 186.94 14.0399C187.11 13.6999 187.24 13.3599 187.36 13.0199C187.99 11.0799 187.7 9.09996 186.48 7.63996C185.84 6.86996 185.01 6.32991 184.1 6.02991C183.13 5.70991 182.06 5.67992 181.04 5.97993C179.57 6.39993 178.49 7.51994 178.05 8.86994C177.79 9.66994 177.76 10.5699 178.01 11.4399C178.13 11.8499 178.44 12.1599 178.82 12.2799C179.05 12.3499 179.3 12.3599 179.54 12.2899C179.95 12.1699 180.26 11.8599 180.38 11.4799C180.45 11.2499 180.46 11 180.39 10.76C180.28 10.38 180.29 9.98996 180.41 9.63996C180.6 9.04996 181.08 8.54994 181.73 8.36994C182.27 8.21994 182.83 8.22991 183.34 8.39991C183.82 8.55991 184.25 8.83994 184.59 9.23993C185.24 10.0299 185.41 11.0599 185.02 12.2499C184.95 12.4799 184.85 12.71 184.73 12.95C184.27 13.89 183.46 14.5699 182.54 14.8299C181.56 15.1099 180.55 15.0799 179.62 14.7799C178.76 14.4999 177.97 13.9799 177.36 13.2699C176.16 11.8499 175.87 9.96996 176.54 7.88996C176.66 7.52996 176.81 7.15991 176.99 6.77991C177.82 5.05991 179.2 3.86995 180.91 3.37995C181.1 3.31995 181.3 3.27993 181.49 3.23993C182.77 2.96993 184.04 3.03994 185.23 3.42994C186.33 3.78994 187.36 4.41993 188.25 5.29993C190.2 7.24993 191.03 9.99993 190.47 12.6699L190.4 12.9899V12.9999C190.31 13.5099 190.16 14.0799 189.97 14.6799C189.39 16.4499 188.4 18.5 187.2 20.32C186.12 21.94 185.39 23.4899 184.93 24.9199C183.19 30.2699 185.04 34.07 185.34 34.64C185.39 34.77 185.45 34.89 185.51 35.01C186.16 36.28 187.23 37.27 188.56 37.82C188.71 37.88 188.85 37.9299 189 37.9799C190.36 38.4199 191.83 38.3699 193.16 37.8099C194.58 37.2199 195.6 36.0499 196.04 34.6799C196.39 33.5899 196.38 32.3799 195.92 31.2399C195.47 30.1399 194.53 29.2599 193.37 28.8599H193.36L193.27 28.8299C191.68 28.3099 190.06 28.64 189 29.76C188.62 30.16 188.34 30.6399 188.18 31.1499C187.91 31.9699 187.94 32.8699 188.28 33.6899C188.43 34.0399 188.71 34.29 189.04 34.39C189.31 34.48 189.62 34.4699 189.9 34.3499C190.25 34.2099 190.5 33.9199 190.6 33.5899C190.69 33.3199 190.68 33.0199 190.57 32.7299C190.46 32.4599 190.45 32.1699 190.54 31.8999C190.59 31.7299 190.68 31.5799 190.81 31.4399C190.99 31.2399 191.22 31.12 191.51 31.07C191.79 31.02 192.13 31.0399 192.51 31.1699L192.56 31.1899C193.05 31.3599 193.45 31.7299 193.62 32.1499C193.85 32.7299 193.86 33.34 193.68 33.89C193.45 34.59 192.93 35.1899 192.21 35.4899C191.42 35.8199 190.56 35.8499 189.76 35.5899C189.67 35.5599 189.58 35.5299 189.5 35.4899C188.62 35.1299 187.95 34.4599 187.59 33.5899L187.58 33.5799L187.53 33.4799V33.4699V33.4599C187.47 33.3399 185.79 30.2499 187.28 25.6499C187.68 24.4199 188.31 23.0799 189.26 21.6499C190.59 19.6199 191.67 17.4199 192.31 15.4199C192.54 14.7299 192.71 14.0599 192.82 13.4299L192.88 13.1299C193.61 9.63995 192.52 6.02994 189.98 3.49994C188.81 2.33994 187.45 1.4999 185.98 1.0199C184.39 0.549903 182.68 0.449942 180.97 0.809942Z" fill="url(#paint5_linear_105_411)"/>
<path d="M212.09 29.9C212.05 30.15 212.01 30.41 211.95 30.66C211.44 33.07 209.86 35.17 207.63 36.43C207.18 36.68 206.73 36.9 206.28 37.08C203.52 38.19 200.64 37.95 198.44 36.33C197.3 35.49 196.45 34.37 195.94 33.11C195.4 31.76 195.25 30.2401 195.57 28.7601C195.92 27.1201 196.99 25.7 198.48 24.83C198.81 24.64 199.14 24.48 199.47 24.35C201.36 23.59 203.36 23.75 204.9 24.87C205.71 25.46 206.31 26.2501 206.67 27.1401C207.05 28.0901 207.15 29.1501 206.93 30.1901C206.61 31.6801 205.56 32.84 204.24 33.36C203.45 33.67 202.57 33.77 201.68 33.58C201.26 33.49 200.94 33.2 200.79 32.83C200.7 32.61 200.68 32.36 200.73 32.11C200.82 31.69 201.11 31.37 201.48 31.22C201.7 31.13 201.95 31.11 202.2 31.16C202.59 31.24 202.97 31.2001 203.32 31.0701C203.9 30.8401 204.36 30.33 204.5 29.67C204.62 29.12 204.56 28.5701 204.36 28.0701C204.17 27.6001 203.86 27.1901 203.44 26.8801C202.61 26.2801 201.57 26.19 200.4 26.65C200.18 26.74 199.95 26.85 199.72 26.98C198.82 27.5 198.19 28.35 197.99 29.29C197.77 30.28 197.87 31.2901 198.24 32.2001C198.58 33.0401 199.14 33.79 199.9 34.35C201.4 35.45 203.29 35.62 205.33 34.81C205.69 34.67 206.04 34.49 206.4 34.29C208.06 33.35 209.15 31.88 209.52 30.15C209.56 29.95 209.6 29.76 209.62 29.56C209.8 28.27 209.65 27 209.18 25.85C208.75 24.78 208.05 23.79 207.11 22.97C205.04 21.15 202.23 20.51 199.61 21.25L199.29 21.34H199.28C198.77 21.47 198.22 21.6501 197.63 21.8901C195.9 22.5801 193.92 23.71 192.18 25.03C190.64 26.22 189.14 27.04 187.74 27.61C182.52 29.7 178.6 28.12 178.02 27.85C177.89 27.81 177.76 27.7601 177.64 27.7001C176.33 27.1401 175.27 26.14 174.63 24.84C174.56 24.7 174.5 24.55 174.44 24.41C173.91 23.08 173.87 21.62 174.33 20.25C174.82 18.79 175.93 17.7 177.26 17.17C178.32 16.74 179.53 16.67 180.7 17.05C181.83 17.42 182.77 18.31 183.24 19.43V19.4401L183.27 19.52C183.9 21.07 183.68 22.71 182.63 23.84C182.25 24.25 181.8 24.55 181.3 24.75C180.5 25.07 179.6 25.1101 178.76 24.8201C178.41 24.7001 178.13 24.43 178.01 24.11C177.9 23.85 177.89 23.54 177.99 23.25C178.11 22.89 178.38 22.63 178.7 22.5C178.96 22.39 179.27 22.38 179.56 22.48C179.83 22.57 180.13 22.56 180.39 22.46C180.55 22.39 180.7 22.29 180.83 22.16C181.01 21.96 181.12 21.7301 181.15 21.4401C181.18 21.1601 181.13 20.8201 180.99 20.4501L180.97 20.4C180.77 19.92 180.37 19.55 179.94 19.41C179.35 19.22 178.74 19.25 178.2 19.47C177.52 19.74 176.95 20.3 176.7 21.05C176.43 21.86 176.45 22.72 176.76 23.5C176.79 23.59 176.83 23.6701 176.87 23.7601C177.29 24.6101 178.01 25.24 178.9 25.54H178.91L179.01 25.58H179.02H179.03C179.16 25.64 182.35 27.1 186.84 25.3C188.04 24.82 189.34 24.1 190.7 23.06C192.64 21.59 194.76 20.37 196.71 19.6C197.39 19.33 198.04 19.11 198.66 18.96L198.96 18.8801C202.4 17.9201 206.07 18.7601 208.77 21.1301C210.01 22.2101 210.94 23.52 211.51 24.96C212.12 26.48 212.33 28.18 212.09 29.9Z" fill="url(#paint6_linear_105_411)"/>
<path d="M181.28 31.19C181.67 30.97 182.08 30.77 182.49 30.61C182.34 30.99 182.16 31.39 181.94 31.77C181.59 32.4 181.14 32.97 180.65 33.3C180.5 33.4 180.38 33.43 180.27 33.43C180.11 33.43 179.96 33.35 179.85 33.25C179.74 33.14 179.66 32.99 179.67 32.83C179.67 32.72 179.7 32.6 179.8 32.45C180.1 31.98 180.66 31.55 181.28 31.19Z" fill="url(#paint7_linear_105_411)"/>
<path d="M178.45 34.65L178.69 34.41L178.45 34.65C178.95 35.15 179.6 35.42 180.26 35.41C180.77 35.41 181.29 35.25 181.75 34.94C182.94 34.14 183.72 32.76 184.23 31.58C184.74 30.39 184.96 29.39 184.99 29.29C185 29.22 185.01 29.16 185.01 29.09C185.01 28.81 184.89 28.57 184.71 28.39C184.53 28.21 184.29 28.09 184.01 28.09C183.95 28.09 183.88 28.1 183.81 28.11C183.7 28.13 182.7 28.36 181.52 28.86C180.34 29.37 178.96 30.15 178.16 31.34C177.85 31.8 177.69 32.32 177.69 32.83C177.69 33.5 177.95 34.15 178.45 34.65ZM179.66 32.83C179.66 32.72 179.69 32.6 179.79 32.45C180.1 31.98 180.65 31.55 181.28 31.19C181.67 30.97 182.08 30.77 182.49 30.61C182.34 30.99 182.16 31.39 181.94 31.77C181.59 32.4 181.14 32.97 180.65 33.3C180.5 33.4 180.38 33.43 180.27 33.43C180.11 33.43 179.96 33.35 179.85 33.25C179.74 33.14 179.66 32.99 179.66 32.83Z" fill="url(#paint8_linear_105_411)"/>
<path d="M172.78 40.95C172.39 41.17 171.98 41.37 171.57 41.53C171.72 41.15 171.9 40.75 172.12 40.37C172.47 39.74 172.92 39.17 173.41 38.84C173.56 38.74 173.68 38.71 173.79 38.71C173.95 38.71 174.1 38.79 174.21 38.89C174.32 39 174.4 39.15 174.39 39.31C174.39 39.42 174.36 39.54 174.26 39.69C173.95 40.15 173.4 40.59 172.78 40.95Z" fill="url(#paint9_linear_105_411)"/>
<path d="M175.6 37.49L175.36 37.73L175.6 37.49C175.1 36.99 174.45 36.72 173.79 36.73C173.28 36.73 172.76 36.89 172.3 37.2C171.11 38 170.33 39.38 169.82 40.56C169.31 41.75 169.09 42.75 169.06 42.85C169.05 42.92 169.04 42.98 169.04 43.05C169.04 43.33 169.16 43.57 169.34 43.75C169.52 43.93 169.76 44.05 170.04 44.05C170.1 44.05 170.17 44.04 170.24 44.03C170.35 44.01 171.35 43.78 172.53 43.28C173.71 42.77 175.09 41.99 175.89 40.8C176.2 40.34 176.36 39.82 176.36 39.31C176.37 38.64 176.11 37.99 175.6 37.49ZM174.39 39.31C174.39 39.42 174.36 39.54 174.26 39.69C173.95 40.16 173.4 40.59 172.77 40.95C172.38 41.17 171.97 41.37 171.56 41.53C171.71 41.15 171.89 40.75 172.11 40.37C172.46 39.74 172.91 39.17 173.4 38.84C173.55 38.74 173.67 38.71 173.78 38.71C173.94 38.71 174.09 38.79 174.2 38.89C174.32 39 174.39 39.15 174.39 39.31Z" fill="url(#paint10_linear_105_411)"/>
<path d="M195.93 14.1799C195.93 15.5399 197.03 16.64 198.39 16.64C199.75 16.64 200.85 15.5399 200.85 14.1799C200.85 12.8199 199.75 11.7199 198.39 11.7199C197.03 11.7099 195.93 12.8199 195.93 14.1799Z" fill="url(#paint11_linear_105_411)"/>
<path d="M184.8 1.31C184.8 0.709998 185.3 0.219971 185.9 0.219971C192.67 0.259971 199.15 2.92996 203.94 7.64996C208.73 12.37 211.45 18.77 211.51 25.46C211.52 26.06 211.03 26.56 210.43 26.56C209.83 26.56 209.33 26.08 209.33 25.48C209.28 19.38 206.8 13.53 202.41 9.20996C198.03 4.88996 192.09 2.44997 185.89 2.40997C185.29 2.39997 184.8 1.91 184.8 1.31Z" fill="url(#paint12_linear_105_411)"/>
<path d="M162.89 27.7699C163.42 27.7699 163.85 28.1899 163.85 28.7199C163.89 34.0599 166.07 39.18 169.9 42.95C173.73 46.73 178.93 48.8699 184.35 48.8999C184.88 48.8999 185.3 49.3299 185.3 49.8599C185.3 50.3899 184.87 50.8099 184.34 50.8099C178.42 50.7699 172.75 48.4399 168.56 44.3099C164.37 40.1799 161.99 34.5799 161.94 28.7299C161.93 28.1999 162.36 27.7699 162.89 27.7699Z" fill="url(#paint13_linear_105_411)"/>
<path d="M10.8401 13.19C10.5701 13.02 10.4102 12.72 10.4102 12.41C10.4102 12.1 10.5701 11.8 10.8401 11.63C11.0401 11.5 15.8102 8.46999 19.5402 9.20999C21.1302 9.51999 22.2001 10.81 22.2001 12.41C22.2001 14.01 21.1302 15.3 19.5402 15.61C19.1302 15.69 18.7202 15.73 18.2902 15.73C14.8202 15.73 11.0201 13.31 10.8401 13.19ZM19.1802 11.04C17.2402 10.66 14.7802 11.65 13.2502 12.42C14.9002 13.24 17.3502 14.15 19.1802 13.79C20.0302 13.62 20.3401 12.97 20.3401 12.42C20.3401 11.86 20.0302 11.21 19.1802 11.04Z" fill="url(#paint14_linear_105_411)"/>
<path d="M23.8099 12.47C23.0699 11.83 22.6199 10.94 22.5399 9.97002C22.4099 8.27002 23.6799 6.76004 25.3699 6.61004C26.0899 6.54004 26.8699 6.82003 27.4199 7.35003C28.2099 8.11003 28.4799 9.12003 28.1499 10.04C27.9099 10.72 27.3599 11.24 26.6999 11.47C27.4999 11.4 29.9799 10.9101 31.8199 7.63006C32.7699 5.97006 34.0199 4.46003 35.1399 3.60003L35.2799 3.49004C36.9299 2.16004 39.1299 1.76003 41.1599 2.42003C43.1099 3.05003 44.5199 4.53001 45.0399 6.46001C45.0799 6.61001 45.1199 6.76002 45.1499 6.91002C45.4299 8.35002 45.0599 9.88003 44.1299 11.1C42.7999 12.85 40.8999 13.6401 39.0399 13.2001C37.3199 12.8001 35.9899 11.42 35.6599 9.68004C35.4699 8.68004 35.7199 7.62002 36.3499 6.78002C37.2799 5.53002 38.6299 4.97001 39.9699 5.27001C41.2099 5.55001 42.1599 6.54003 42.3999 7.79003C42.6899 9.28003 41.7099 10.73 40.2299 11.02C39.7299 11.12 39.2399 10.79 39.1399 10.28C39.0399 9.77002 39.3699 9.29005 39.8799 9.19005C40.3599 9.10005 40.6699 8.63006 40.5799 8.14007C40.4799 7.62007 40.0799 7.20001 39.5599 7.08001C38.9599 6.94001 38.3399 7.24007 37.8499 7.89007C37.5299 8.32007 37.3999 8.84001 37.4999 9.33001C37.6999 10.35 38.4699 11.1601 39.4799 11.3901C40.6199 11.6501 41.7799 11.14 42.6699 9.97002C43.2899 9.16002 43.5299 8.20006 43.3399 7.26006C43.3199 7.15006 43.2899 7.05005 43.2599 6.94005C42.9099 5.62005 41.9399 4.62004 40.5999 4.18004C39.1699 3.71004 37.6199 3.99004 36.4599 4.93004L36.2999 5.05004C35.3599 5.76004 34.2699 7.10001 33.4499 8.52001C30.8399 13.17 26.9799 13.31 26.4399 13.31C26.3599 13.32 26.2799 13.3201 26.1899 13.3201C25.3099 13.3501 24.4699 13.05 23.8099 12.47ZM25.5299 8.47002C24.8499 8.53002 24.3399 9.14001 24.3899 9.83001C24.4299 10.31 24.6499 10.7501 25.0199 11.0701C25.1399 11.1701 25.2699 11.2601 25.3999 11.3201C25.2499 11.1701 25.1499 10.97 25.1399 10.74C25.0999 10.23 25.4799 9.78004 25.9899 9.74004C26.1699 9.73004 26.3299 9.60004 26.3899 9.43004C26.4699 9.21004 26.3699 8.95006 26.1199 8.70006C25.9699 8.56006 25.7699 8.47002 25.5799 8.47002C25.5599 8.46002 25.5499 8.46002 25.5299 8.47002Z" fill="url(#paint15_linear_105_411)"/>
<path d="M35.2701 21.34L35.1501 21.2501C34.0001 20.3801 32.7501 18.8701 31.8101 17.2001C29.9701 13.9101 27.4901 13.4401 26.6901 13.3701C27.3601 13.5901 27.9001 14.1101 28.1401 14.8001C28.4701 15.7301 28.2001 16.7301 27.4101 17.4901C26.8601 18.0201 26.1001 18.3001 25.3601 18.2301C23.6601 18.0801 22.3901 16.5701 22.5301 14.8701C22.6101 13.8901 23.0601 13.0001 23.8001 12.3701C24.5301 11.7401 25.4701 11.4301 26.4201 11.5001C26.9801 11.4801 30.8201 11.6501 33.4201 16.2901C34.2401 17.7201 35.3301 19.05 36.2901 19.78L36.4301 19.8901C37.5901 20.8201 39.1401 21.1001 40.5701 20.6401C41.9101 20.2001 42.8801 19.2001 43.2301 17.8801C43.2601 17.7801 43.2801 17.6701 43.3001 17.5601C43.4801 16.6201 43.2401 15.6601 42.6301 14.8501C41.7401 13.6801 40.5801 13.1701 39.4401 13.4301C38.4301 13.6601 37.6601 14.4701 37.4601 15.4901C37.3701 15.9801 37.4901 16.5001 37.8101 16.9301C38.3001 17.5801 38.9201 17.8701 39.5201 17.7401C40.0401 17.6201 40.4401 17.2101 40.5401 16.6801C40.6301 16.2001 40.3201 15.7301 39.8401 15.6301C39.3401 15.5301 39.0101 15.0401 39.1001 14.5401C39.2001 14.0301 39.6901 13.7001 40.1901 13.8001C41.6801 14.0901 42.6501 15.54 42.3601 17.03C42.1201 18.28 41.1601 19.2701 39.9301 19.5501C38.6001 19.8601 37.2501 19.2901 36.3101 18.0401C35.6801 17.1901 35.4301 16.1401 35.6201 15.1401C35.9601 13.4001 37.2801 12.0201 39.0001 11.6201C40.8601 11.1901 42.7601 11.97 44.0901 13.72C45.0201 14.94 45.3901 16.47 45.1101 17.91C45.0801 18.06 45.0401 18.2101 45.0101 18.3601C44.4901 20.3001 43.0701 21.77 41.1301 22.41C40.4801 22.62 39.8201 22.72 39.1601 22.72C37.7801 22.72 36.4001 22.24 35.2701 21.34ZM25.0201 13.78C24.6501 14.09 24.4301 14.53 24.3901 15.02C24.3401 15.71 24.8501 16.3201 25.5301 16.3801C25.7501 16.4001 25.9601 16.31 26.1201 16.15C26.3701 15.91 26.4701 15.6501 26.3901 15.4201C26.3301 15.2501 26.1701 15.1201 25.9901 15.1101C25.4801 15.0701 25.0901 14.6201 25.1401 14.1101C25.1601 13.8801 25.2601 13.68 25.4001 13.53C25.2601 13.59 25.1401 13.68 25.0201 13.78Z" fill="url(#paint16_linear_105_411)"/>
<path d="M201.14 205.09C200.97 205.36 200.67 205.52 200.36 205.52C200.05 205.52 199.75 205.36 199.58 205.09C199.45 204.89 196.42 200.12 197.16 196.39C197.47 194.8 198.76 193.73 200.36 193.73C201.96 193.73 203.25 194.8 203.56 196.39C203.64 196.8 203.68 197.21 203.68 197.64C203.68 201.1 201.26 204.91 201.14 205.09ZM198.98 196.75C198.6 198.69 199.59 201.15 200.36 202.68C201.18 201.03 202.09 198.58 201.73 196.75C201.56 195.9 200.91 195.59 200.36 195.59C199.8 195.59 199.15 195.89 198.98 196.75Z" fill="url(#paint17_linear_105_411)"/>
<path d="M200.42 192.12C199.78 192.86 198.89 193.31 197.92 193.39C196.22 193.52 194.71 192.25 194.56 190.56C194.49 189.84 194.77 189.06 195.3 188.51C196.06 187.72 197.07 187.45 197.99 187.78C198.67 188.02 199.19 188.57 199.42 189.23C199.35 188.43 198.86 185.95 195.58 184.11C193.92 183.16 192.41 181.91 191.55 180.79L191.44 180.65C190.11 179 189.71 176.8 190.37 174.77C191 172.82 192.48 171.41 194.41 170.89C194.56 170.85 194.71 170.81 194.86 170.78C196.3 170.5 197.83 170.87 199.05 171.8C200.8 173.13 201.59 175.03 201.15 176.89C200.75 178.61 199.37 179.94 197.63 180.27C196.63 180.46 195.57 180.21 194.73 179.58C193.48 178.65 192.92 177.3 193.22 175.96C193.5 174.72 194.49 173.77 195.74 173.53C197.23 173.24 198.68 174.22 198.97 175.7C199.07 176.2 198.74 176.69 198.23 176.79C197.72 176.89 197.24 176.56 197.14 176.05C197.05 175.57 196.58 175.26 196.09 175.35C195.57 175.45 195.15 175.85 195.03 176.37C194.89 176.97 195.19 177.59 195.84 178.08C196.27 178.4 196.79 178.53 197.28 178.43C198.3 178.23 199.11 177.46 199.34 176.45C199.6 175.31 199.09 174.15 197.92 173.26C197.11 172.64 196.15 172.4 195.21 172.59C195.1 172.61 195 172.64 194.89 172.67C193.57 173.02 192.57 173.99 192.13 175.33C191.66 176.76 191.94 178.31 192.88 179.47L193 179.63C193.71 180.57 195.05 181.66 196.47 182.48C201.12 185.09 201.26 188.95 201.26 189.49C201.27 189.57 201.27 189.65 201.27 189.74C201.3 190.62 200.99 191.45 200.42 192.12ZM196.41 190.4C196.47 191.08 197.08 191.59 197.77 191.54C198.25 191.5 198.69 191.28 199.01 190.91C199.11 190.79 199.2 190.66 199.26 190.53C199.11 190.68 198.91 190.78 198.68 190.79C198.17 190.83 197.72 190.45 197.68 189.94C197.67 189.76 197.54 189.6 197.37 189.54C197.15 189.46 196.89 189.56 196.64 189.81C196.5 189.96 196.41 190.16 196.41 190.35C196.41 190.36 196.41 190.38 196.41 190.4Z" fill="url(#paint18_linear_105_411)"/>
<path d="M209.28 180.66L209.19 180.78C208.32 181.93 206.81 183.18 205.14 184.12C201.85 185.96 201.38 188.44 201.31 189.24C201.53 188.57 202.05 188.03 202.74 187.79C203.67 187.46 204.67 187.73 205.43 188.52C205.96 189.07 206.24 189.83 206.17 190.57C206.02 192.27 204.51 193.54 202.81 193.4C201.83 193.32 200.94 192.87 200.31 192.13C199.68 191.4 199.37 190.46 199.44 189.51C199.42 188.95 199.59 185.11 204.23 182.51C205.66 181.69 206.99 180.6 207.72 179.64L207.83 179.5C208.76 178.34 209.04 176.79 208.58 175.36C208.14 174.02 207.14 173.05 205.82 172.7C205.72 172.67 205.61 172.65 205.5 172.63C204.56 172.45 203.6 172.69 202.79 173.3C201.62 174.19 201.11 175.35 201.37 176.49C201.61 177.5 202.41 178.27 203.43 178.47C203.92 178.56 204.44 178.44 204.87 178.12C205.52 177.63 205.81 177.01 205.68 176.41C205.56 175.89 205.15 175.49 204.62 175.39C204.14 175.3 203.67 175.61 203.57 176.09C203.47 176.59 202.98 176.92 202.48 176.83C201.97 176.73 201.64 176.24 201.74 175.74C202.03 174.25 203.48 173.28 204.97 173.57C206.22 173.81 207.21 174.77 207.49 176C207.8 177.33 207.23 178.68 205.98 179.62C205.13 180.25 204.08 180.5 203.08 180.31C201.34 179.97 199.96 178.65 199.56 176.93C199.13 175.07 199.91 173.17 201.66 171.84C202.88 170.91 204.41 170.54 205.85 170.82C206 170.85 206.15 170.89 206.3 170.92C208.24 171.44 209.71 172.86 210.35 174.8C210.56 175.45 210.66 176.11 210.66 176.77C210.66 178.15 210.19 179.53 209.28 180.66ZM201.72 190.91C202.03 191.28 202.47 191.5 202.96 191.54C203.65 191.59 204.26 191.08 204.32 190.4C204.34 190.18 204.25 189.97 204.09 189.81C203.85 189.56 203.59 189.46 203.36 189.54C203.19 189.6 203.06 189.76 203.05 189.94C203.01 190.45 202.56 190.84 202.05 190.79C201.82 190.77 201.62 190.67 201.47 190.53C201.54 190.66 201.62 190.79 201.72 190.91Z" fill="url(#paint19_linear_105_411)"/>
<defs>
<linearGradient id="paint0_linear_105_411" x1="952.316" y1="525.744" x2="-101.301" y2="-71.0246" gradientUnits="userSpaceOnUse">
<stop stop-color="#EEDEBC"/>
<stop offset="0.059" stop-color="#DDC6A3"/>
<stop offset="0.1398" stop-color="#C9A885"/>
<stop offset="0.2581" stop-color="#9A7A5F"/>
<stop offset="0.3602" stop-color="#C9A885"/>
<stop offset="0.4892" stop-color="#EEDEBC"/>
<stop offset="0.5415" stop-color="#DDC6A3"/>
<stop offset="0.6129" stop-color="#C9A885"/>
<stop offset="0.7204" stop-color="#9A7A5F"/>
<stop offset="0.8387" stop-color="#C9A885"/>
<stop offset="1" stop-color="#EEDEBC"/>
</linearGradient>
<linearGradient id="paint1_linear_105_411" x1="964.94" y1="503.456" x2="-88.6783" y2="-93.3093" gradientUnits="userSpaceOnUse">
<stop stop-color="#EEDEBC"/>
<stop offset="0.059" stop-color="#DDC6A3"/>
<stop offset="0.1398" stop-color="#C9A885"/>
<stop offset="0.2581" stop-color="#9A7A5F"/>
<stop offset="0.3602" stop-color="#C9A885"/>
<stop offset="0.4892" stop-color="#EEDEBC"/>
<stop offset="0.5415" stop-color="#DDC6A3"/>
<stop offset="0.6129" stop-color="#C9A885"/>
<stop offset="0.7204" stop-color="#9A7A5F"/>
<stop offset="0.8387" stop-color="#C9A885"/>
<stop offset="1" stop-color="#EEDEBC"/>
</linearGradient>
<linearGradient id="paint2_linear_105_411" x1="946.596" y1="535.807" x2="-107.007" y2="-60.9394" gradientUnits="userSpaceOnUse">
<stop stop-color="#EEDEBC"/>
<stop offset="0.059" stop-color="#DDC6A3"/>
<stop offset="0.1398" stop-color="#C9A885"/>
<stop offset="0.2581" stop-color="#9A7A5F"/>
<stop offset="0.3602" stop-color="#C9A885"/>
<stop offset="0.4892" stop-color="#EEDEBC"/>
<stop offset="0.5415" stop-color="#DDC6A3"/>
<stop offset="0.6129" stop-color="#C9A885"/>
<stop offset="0.7204" stop-color="#9A7A5F"/>
<stop offset="0.8387" stop-color="#C9A885"/>
<stop offset="1" stop-color="#EEDEBC"/>
</linearGradient>
<linearGradient id="paint3_linear_105_411" x1="972.5" y1="490.111" x2="-81.1174" y2="-106.658" gradientUnits="userSpaceOnUse">
<stop stop-color="#EEDEBC"/>
<stop offset="0.059" stop-color="#DDC6A3"/>
<stop offset="0.1398" stop-color="#C9A885"/>
<stop offset="0.2581" stop-color="#9A7A5F"/>
<stop offset="0.3602" stop-color="#C9A885"/>
<stop offset="0.4892" stop-color="#EEDEBC"/>
<stop offset="0.5415" stop-color="#DDC6A3"/>
<stop offset="0.6129" stop-color="#C9A885"/>
<stop offset="0.7204" stop-color="#9A7A5F"/>
<stop offset="0.8387" stop-color="#C9A885"/>
<stop offset="1" stop-color="#EEDEBC"/>
</linearGradient>
<linearGradient id="paint4_linear_105_411" x1="977.828" y1="480.702" x2="-75.7882" y2="-116.065" gradientUnits="userSpaceOnUse">
<stop stop-color="#EEDEBC"/>
<stop offset="0.059" stop-color="#DDC6A3"/>
<stop offset="0.1398" stop-color="#C9A885"/>
<stop offset="0.2581" stop-color="#9A7A5F"/>
<stop offset="0.3602" stop-color="#C9A885"/>
<stop offset="0.4892" stop-color="#EEDEBC"/>
<stop offset="0.5415" stop-color="#DDC6A3"/>
<stop offset="0.6129" stop-color="#C9A885"/>
<stop offset="0.7204" stop-color="#9A7A5F"/>
<stop offset="0.8387" stop-color="#C9A885"/>
<stop offset="1" stop-color="#EEDEBC"/>
</linearGradient>
<linearGradient id="paint5_linear_105_411" x1="983.648" y1="470.428" x2="-69.9681" y2="-126.34" gradientUnits="userSpaceOnUse">
<stop stop-color="#EEDEBC"/>
<stop offset="0.059" stop-color="#DDC6A3"/>
<stop offset="0.1398" stop-color="#C9A885"/>
<stop offset="0.2581" stop-color="#9A7A5F"/>
<stop offset="0.3602" stop-color="#C9A885"/>
<stop offset="0.4892" stop-color="#EEDEBC"/>
<stop offset="0.5415" stop-color="#DDC6A3"/>
<stop offset="0.6129" stop-color="#C9A885"/>
<stop offset="0.7204" stop-color="#9A7A5F"/>
<stop offset="0.8387" stop-color="#C9A885"/>
<stop offset="1" stop-color="#EEDEBC"/>
</linearGradient>
<linearGradient id="paint6_linear_105_411" x1="982.979" y1="471.61" x2="-70.6388" y2="-125.159" gradientUnits="userSpaceOnUse">
<stop stop-color="#EEDEBC"/>
<stop offset="0.059" stop-color="#DDC6A3"/>
<stop offset="0.1398" stop-color="#C9A885"/>
<stop offset="0.2581" stop-color="#9A7A5F"/>
<stop offset="0.3602" stop-color="#C9A885"/>
<stop offset="0.4892" stop-color="#EEDEBC"/>
<stop offset="0.5415" stop-color="#DDC6A3"/>
<stop offset="0.6129" stop-color="#C9A885"/>
<stop offset="0.7204" stop-color="#9A7A5F"/>
<stop offset="0.8387" stop-color="#C9A885"/>
<stop offset="1" stop-color="#EEDEBC"/>
</linearGradient>
<linearGradient id="paint7_linear_105_411" x1="976.77" y1="482.575" x2="-76.8499" y2="-114.195" gradientUnits="userSpaceOnUse">
<stop stop-color="#EEDEBC"/>
<stop offset="0.059" stop-color="#DDC6A3"/>
<stop offset="0.1398" stop-color="#C9A885"/>
<stop offset="0.2581" stop-color="#9A7A5F"/>
<stop offset="0.3602" stop-color="#C9A885"/>
<stop offset="0.4892" stop-color="#EEDEBC"/>
<stop offset="0.5415" stop-color="#DDC6A3"/>
<stop offset="0.6129" stop-color="#C9A885"/>
<stop offset="0.7204" stop-color="#9A7A5F"/>
<stop offset="0.8387" stop-color="#C9A885"/>
<stop offset="1" stop-color="#EEDEBC"/>
</linearGradient>
<linearGradient id="paint8_linear_105_411" x1="977.034" y1="482.105" x2="-76.5837" y2="-114.664" gradientUnits="userSpaceOnUse">
<stop stop-color="#EEDEBC"/>
<stop offset="0.059" stop-color="#DDC6A3"/>
<stop offset="0.1398" stop-color="#C9A885"/>
<stop offset="0.2581" stop-color="#9A7A5F"/>
<stop offset="0.3602" stop-color="#C9A885"/>
<stop offset="0.4892" stop-color="#EEDEBC"/>
<stop offset="0.5415" stop-color="#DDC6A3"/>
<stop offset="0.6129" stop-color="#C9A885"/>
<stop offset="0.7204" stop-color="#9A7A5F"/>
<stop offset="0.8387" stop-color="#C9A885"/>
<stop offset="1" stop-color="#EEDEBC"/>
</linearGradient>
<linearGradient id="paint9_linear_105_411" x1="971.204" y1="492.37" x2="-82.4033" y2="-104.38" gradientUnits="userSpaceOnUse">
<stop stop-color="#EEDEBC"/>
<stop offset="0.059" stop-color="#DDC6A3"/>
<stop offset="0.1398" stop-color="#C9A885"/>
<stop offset="0.2581" stop-color="#9A7A5F"/>
<stop offset="0.3602" stop-color="#C9A885"/>
<stop offset="0.4892" stop-color="#EEDEBC"/>
<stop offset="0.5415" stop-color="#DDC6A3"/>
<stop offset="0.6129" stop-color="#C9A885"/>
<stop offset="0.7204" stop-color="#9A7A5F"/>
<stop offset="0.8387" stop-color="#C9A885"/>
<stop offset="1" stop-color="#EEDEBC"/>
</linearGradient>
<linearGradient id="paint10_linear_105_411" x1="970.955" y1="492.839" x2="-82.6632" y2="-103.931" gradientUnits="userSpaceOnUse">
<stop stop-color="#EEDEBC"/>
<stop offset="0.059" stop-color="#DDC6A3"/>
<stop offset="0.1398" stop-color="#C9A885"/>
<stop offset="0.2581" stop-color="#9A7A5F"/>
<stop offset="0.3602" stop-color="#C9A885"/>
<stop offset="0.4892" stop-color="#EEDEBC"/>
<stop offset="0.5415" stop-color="#DDC6A3"/>
<stop offset="0.6129" stop-color="#C9A885"/>
<stop offset="0.7204" stop-color="#9A7A5F"/>
<stop offset="0.8387" stop-color="#C9A885"/>
<stop offset="1" stop-color="#EEDEBC"/>
</linearGradient>
<linearGradient id="paint11_linear_105_411" x1="988.563" y1="461.739" x2="-65.0507" y2="-135.021" gradientUnits="userSpaceOnUse">
<stop stop-color="#EEDEBC"/>
<stop offset="0.059" stop-color="#DDC6A3"/>
<stop offset="0.1398" stop-color="#C9A885"/>
<stop offset="0.2581" stop-color="#9A7A5F"/>
<stop offset="0.3602" stop-color="#C9A885"/>
<stop offset="0.4892" stop-color="#EEDEBC"/>
<stop offset="0.5415" stop-color="#DDC6A3"/>
<stop offset="0.6129" stop-color="#C9A885"/>
<stop offset="0.7204" stop-color="#9A7A5F"/>
<stop offset="0.8387" stop-color="#C9A885"/>
<stop offset="1" stop-color="#EEDEBC"/>
</linearGradient>
<linearGradient id="paint12_linear_105_411" x1="989.632" y1="459.862" x2="-63.9858" y2="-136.907" gradientUnits="userSpaceOnUse">
<stop stop-color="#EEDEBC"/>
<stop offset="0.059" stop-color="#DDC6A3"/>
<stop offset="0.1398" stop-color="#C9A885"/>
<stop offset="0.2581" stop-color="#9A7A5F"/>
<stop offset="0.3602" stop-color="#C9A885"/>
<stop offset="0.4892" stop-color="#EEDEBC"/>
<stop offset="0.5415" stop-color="#DDC6A3"/>
<stop offset="0.6129" stop-color="#C9A885"/>
<stop offset="0.7204" stop-color="#9A7A5F"/>
<stop offset="0.8387" stop-color="#C9A885"/>
<stop offset="1" stop-color="#EEDEBC"/>
</linearGradient>
<linearGradient id="paint13_linear_105_411" x1="971.103" y1="492.577" x2="-82.513" y2="-104.19" gradientUnits="userSpaceOnUse">
<stop stop-color="#EEDEBC"/>
<stop offset="0.059" stop-color="#DDC6A3"/>
<stop offset="0.1398" stop-color="#C9A885"/>
<stop offset="0.2581" stop-color="#9A7A5F"/>
<stop offset="0.3602" stop-color="#C9A885"/>
<stop offset="0.4892" stop-color="#EEDEBC"/>
<stop offset="0.5415" stop-color="#DDC6A3"/>
<stop offset="0.6129" stop-color="#C9A885"/>
<stop offset="0.7204" stop-color="#9A7A5F"/>
<stop offset="0.8387" stop-color="#C9A885"/>
<stop offset="1" stop-color="#EEDEBC"/>
</linearGradient>
<linearGradient id="paint14_linear_105_411" x1="945.388" y1="537.973" x2="-108.229" y2="-58.7925" gradientUnits="userSpaceOnUse">
<stop stop-color="#EEDEBC"/>
<stop offset="0.059" stop-color="#DDC6A3"/>
<stop offset="0.1398" stop-color="#C9A885"/>
<stop offset="0.2581" stop-color="#9A7A5F"/>
<stop offset="0.3602" stop-color="#C9A885"/>
<stop offset="0.4892" stop-color="#EEDEBC"/>
<stop offset="0.5415" stop-color="#DDC6A3"/>
<stop offset="0.6129" stop-color="#C9A885"/>
<stop offset="0.7204" stop-color="#9A7A5F"/>
<stop offset="0.8387" stop-color="#C9A885"/>
<stop offset="1" stop-color="#EEDEBC"/>
</linearGradient>
<linearGradient id="paint15_linear_105_411" x1="951.169" y1="527.769" x2="-102.448" y2="-68.9981" gradientUnits="userSpaceOnUse">
<stop stop-color="#EEDEBC"/>
<stop offset="0.059" stop-color="#DDC6A3"/>
<stop offset="0.1398" stop-color="#C9A885"/>
<stop offset="0.2581" stop-color="#9A7A5F"/>
<stop offset="0.3602" stop-color="#C9A885"/>
<stop offset="0.4892" stop-color="#EEDEBC"/>
<stop offset="0.5415" stop-color="#DDC6A3"/>
<stop offset="0.6129" stop-color="#C9A885"/>
<stop offset="0.7204" stop-color="#9A7A5F"/>
<stop offset="0.8387" stop-color="#C9A885"/>
<stop offset="1" stop-color="#EEDEBC"/>
</linearGradient>
<linearGradient id="paint16_linear_105_411" x1="948.111" y1="533.169" x2="-105.504" y2="-63.6004" gradientUnits="userSpaceOnUse">
<stop stop-color="#EEDEBC"/>
<stop offset="0.059" stop-color="#DDC6A3"/>
<stop offset="0.1398" stop-color="#C9A885"/>
<stop offset="0.2581" stop-color="#9A7A5F"/>
<stop offset="0.3602" stop-color="#C9A885"/>
<stop offset="0.4892" stop-color="#EEDEBC"/>
<stop offset="0.5415" stop-color="#DDC6A3"/>
<stop offset="0.6129" stop-color="#C9A885"/>
<stop offset="0.7204" stop-color="#9A7A5F"/>
<stop offset="0.8387" stop-color="#C9A885"/>
<stop offset="1" stop-color="#EEDEBC"/>
</linearGradient>
<linearGradient id="paint17_linear_105_411" x1="909.607" y1="601.154" x2="-144.012" y2="4.3824" gradientUnits="userSpaceOnUse">
<stop stop-color="#EEDEBC"/>
<stop offset="0.059" stop-color="#DDC6A3"/>
<stop offset="0.1398" stop-color="#C9A885"/>
<stop offset="0.2581" stop-color="#9A7A5F"/>
<stop offset="0.3602" stop-color="#C9A885"/>
<stop offset="0.4892" stop-color="#EEDEBC"/>
<stop offset="0.5415" stop-color="#DDC6A3"/>
<stop offset="0.6129" stop-color="#C9A885"/>
<stop offset="0.7204" stop-color="#9A7A5F"/>
<stop offset="0.8387" stop-color="#C9A885"/>
<stop offset="1" stop-color="#EEDEBC"/>
</linearGradient>
<linearGradient id="paint18_linear_105_411" x1="916.249" y1="589.418" x2="-137.368" y2="-7.34716" gradientUnits="userSpaceOnUse">
<stop stop-color="#EEDEBC"/>
<stop offset="0.059" stop-color="#DDC6A3"/>
<stop offset="0.1398" stop-color="#C9A885"/>
<stop offset="0.2581" stop-color="#9A7A5F"/>
<stop offset="0.3602" stop-color="#C9A885"/>
<stop offset="0.4892" stop-color="#EEDEBC"/>
<stop offset="0.5415" stop-color="#DDC6A3"/>
<stop offset="0.6129" stop-color="#C9A885"/>
<stop offset="0.7204" stop-color="#9A7A5F"/>
<stop offset="0.8387" stop-color="#C9A885"/>
<stop offset="1" stop-color="#EEDEBC"/>
</linearGradient>
<linearGradient id="paint19_linear_105_411" x1="918" y1="586.329" x2="-135.615" y2="-10.4382" gradientUnits="userSpaceOnUse">
<stop stop-color="#EEDEBC"/>
<stop offset="0.059" stop-color="#DDC6A3"/>
<stop offset="0.1398" stop-color="#C9A885"/>
<stop offset="0.2581" stop-color="#9A7A5F"/>
<stop offset="0.3602" stop-color="#C9A885"/>
<stop offset="0.4892" stop-color="#EEDEBC"/>
<stop offset="0.5415" stop-color="#DDC6A3"/>
<stop offset="0.6129" stop-color="#C9A885"/>
<stop offset="0.7204" stop-color="#9A7A5F"/>
<stop offset="0.8387" stop-color="#C9A885"/>
<stop offset="1" stop-color="#EEDEBC"/>
</linearGradient>
</defs>
</svg>
