<svg width="51" height="51" viewBox="0 0 51 51" fill="none" xmlns="http://www.w3.org/2000/svg">
<path d="M20.2019 21.4476C20.0766 21.5808 19.9514 21.7065 19.8187 21.8323C18.5587 23.0083 16.805 23.5852 15.0219 23.4151C14.6682 23.3781 14.3219 23.3263 13.9903 23.245C11.9566 22.7716 10.4018 21.4772 9.79026 19.6577C9.47342 18.7184 9.43657 17.7273 9.65026 16.7953C9.87868 15.7968 10.4092 14.8649 11.1902 14.14C12.0524 13.3412 13.2313 12.9492 14.4398 13.0454C14.705 13.0676 14.9555 13.1045 15.1987 13.1637C16.5913 13.4891 17.6745 14.3841 18.1019 15.6489C18.3303 16.3145 18.3598 17.0098 18.205 17.6681C18.0429 18.3708 17.6745 19.0216 17.1292 19.5246C16.3482 20.2568 15.2797 20.5009 14.3145 20.2716C13.7397 20.1385 13.1945 19.8352 12.7597 19.3693C12.5534 19.1474 12.4871 18.8515 12.5534 18.5778C12.5903 18.4151 12.6787 18.2598 12.8039 18.1414C13.025 17.9343 13.3197 17.8678 13.5924 17.9344C13.7545 17.9713 13.9092 18.0601 14.0271 18.1859C14.2187 18.393 14.4545 18.5261 14.705 18.5852C15.1324 18.6814 15.5966 18.5778 15.9429 18.2524C16.2303 17.9861 16.4219 17.6459 16.5103 17.2761C16.5914 16.9284 16.5766 16.566 16.4587 16.2184C16.2229 15.5453 15.6629 15.0645 14.8082 14.8648C14.6461 14.8279 14.4692 14.7983 14.285 14.7835C13.5555 14.7243 12.8555 14.9536 12.3618 15.4196C11.8387 15.9077 11.4924 16.529 11.3376 17.1947C11.1903 17.816 11.2197 18.4743 11.426 19.103C11.846 20.3382 12.8629 21.1962 14.3513 21.5512C14.6092 21.6104 14.8892 21.6547 15.1766 21.6843C16.5029 21.8101 17.7187 21.4106 18.6324 20.5601C18.7356 20.4639 18.8313 20.3678 18.9271 20.2642C19.5535 19.5912 19.9661 18.7998 20.165 17.9492C20.3492 17.1578 20.3419 16.3072 20.1356 15.4566C19.6714 13.5779 18.3229 12.0764 16.525 11.4403L16.304 11.3664H16.2966C15.9576 11.2332 15.5598 11.1149 15.1324 11.0188C13.8577 10.7229 12.2734 10.575 10.7482 10.6341C9.38498 10.6933 8.19867 10.5675 7.16709 10.3309C3.33548 9.4359 1.72178 6.94333 1.49335 6.55132C1.43441 6.47736 1.3828 6.39599 1.33123 6.31463C0.800695 5.46405 0.601763 4.45815 0.749132 3.45964C0.76387 3.34869 0.785988 3.23775 0.808094 3.1342C1.03652 2.15787 1.59651 1.29251 2.41441 0.693399C3.28389 0.0499134 4.35234 -0.134995 5.33234 0.0942936C6.1134 0.279203 6.83551 0.722963 7.3513 1.41083C7.85235 2.0839 8.03656 2.9641 7.85235 3.80729V3.81465L7.8376 3.87383C7.57233 5.02027 6.79129 5.87826 5.7376 6.10015C5.35444 6.18151 4.97126 6.17411 4.6102 6.09275C4.0281 5.95222 3.49023 5.61197 3.1218 5.10902C2.96707 4.89452 2.92285 4.63567 2.97442 4.39159C3.01864 4.19928 3.13654 4.01438 3.30602 3.88864C3.5197 3.73332 3.77758 3.68893 4.02073 3.7407C4.21231 3.78508 4.39652 3.89604 4.52179 4.07355C4.63968 4.23627 4.81655 4.34721 5.00813 4.39159C5.12603 4.42118 5.25129 4.42118 5.37655 4.39159C5.56077 4.35461 5.71547 4.25845 5.8481 4.11052C5.98073 3.96259 6.09129 3.74811 6.15023 3.47445L6.15761 3.43747C6.23129 3.08245 6.1576 2.70522 5.96602 2.45374C5.70076 2.10611 5.33969 1.8768 4.94179 1.78805C4.44074 1.66971 3.89545 1.76588 3.44597 2.09133C2.95965 2.44635 2.63547 2.94931 2.50283 3.52622C2.4881 3.59279 2.47337 3.65193 2.466 3.71849C2.36284 4.37677 2.52494 5.02769 2.91546 5.56023L2.92284 5.56759L2.96705 5.63417L2.97442 5.64158V5.64898C3.026 5.73034 4.26389 7.86048 7.56497 8.6371C8.44918 8.8442 9.48075 8.95513 10.6818 8.89596C12.3839 8.82939 14.0934 8.98472 15.5155 9.31756C16.0166 9.4359 16.4734 9.57643 16.8934 9.73175L17.0998 9.80574C19.4577 10.6341 21.2261 12.6016 21.8229 15.0498C22.0956 16.174 22.103 17.2983 21.8598 18.356C21.5946 19.4876 21.0345 20.5527 20.2019 21.4476Z" fill="#E0E0E0"/>
<path d="M29.2949 30.057C29.1623 30.1828 29.037 30.3159 28.9191 30.449C27.7697 31.736 27.2392 33.5037 27.4381 35.2936C27.4823 35.6487 27.5412 35.9963 27.6297 36.3291C28.1455 38.3558 29.4644 39.8942 31.2918 40.4711C32.235 40.7744 33.2224 40.7892 34.1434 40.5525C35.1308 40.301 36.0518 39.7537 36.7592 38.9549C37.5403 38.0747 37.9087 36.8839 37.7834 35.6709C37.754 35.412 37.7098 35.1531 37.6508 34.9091C37.2971 33.5185 36.3834 32.4535 35.1161 32.0467C34.4529 31.8322 33.7529 31.8174 33.1044 31.9875C32.4118 32.165 31.7708 32.5496 31.2771 33.1043C30.5697 33.9031 30.3486 34.9756 30.5918 35.9445C30.7392 36.5214 31.0487 37.0614 31.5276 37.483C31.7487 37.6827 32.0507 37.7493 32.3234 37.6753C32.4855 37.6309 32.6402 37.5422 32.7581 37.409C32.9571 37.1871 33.0234 36.8839 32.9497 36.6102C32.9055 36.4475 32.8171 36.2921 32.6845 36.1738C32.4782 35.9889 32.3382 35.7522 32.2718 35.5008C32.1613 35.0718 32.2645 34.6058 32.5739 34.2508C32.8318 33.9549 33.1708 33.7552 33.5318 33.6665C33.8708 33.5777 34.2392 33.5851 34.5855 33.696C35.2634 33.9179 35.7497 34.4727 35.9708 35.3232C36.015 35.486 36.0445 35.6635 36.0666 35.8484C36.1403 36.5806 35.9266 37.2833 35.4771 37.7936C35.0055 38.3262 34.3939 38.6886 33.7308 38.8587C33.1118 39.014 32.456 39.0066 31.8297 38.8069C30.5918 38.4149 29.7149 37.409 29.3318 35.915C29.2655 35.6561 29.2139 35.375 29.1844 35.0866C29.0297 33.7552 29.4055 32.5274 30.2308 31.5954C30.3265 31.4919 30.4223 31.3884 30.5181 31.2922C31.1739 30.6487 31.955 30.2197 32.8023 29.9978C33.5908 29.7981 34.4308 29.7833 35.2855 29.9756C37.1718 30.3972 38.6898 31.7212 39.3603 33.5185L39.4413 33.733V33.7404C39.5813 34.0806 39.7066 34.4727 39.8098 34.9017C40.134 36.1738 40.3108 37.7567 40.2814 39.2951C40.2445 40.6634 40.3992 41.8542 40.6571 42.8823C41.6298 46.7137 44.1424 48.2817 44.5329 48.5036C44.614 48.5554 44.6877 48.6071 44.7687 48.6589C45.6235 49.1693 46.633 49.3542 47.6277 49.1841C47.7382 49.1619 47.8414 49.1397 47.9519 49.1175C48.9246 48.866 49.7719 48.2891 50.354 47.4533C50.973 46.5657 51.1351 45.4933 50.8919 44.5169C50.693 43.7403 50.2362 43.0229 49.5362 42.5199C48.8583 42.0318 47.974 41.869 47.1414 42.0613H47.134L47.0751 42.0761C45.9403 42.3646 45.1003 43.1634 44.9014 44.2285C44.8277 44.6131 44.8424 44.9977 44.9309 45.3601C45.0782 45.9445 45.4319 46.4696 45.9403 46.832C46.154 46.9799 46.4193 47.0243 46.6551 46.9651C46.8466 46.9134 47.0235 46.795 47.1488 46.6249C47.3035 46.4104 47.3404 46.1442 47.2814 45.9075C47.2298 45.7152 47.1193 45.5377 46.9424 45.4119C46.7803 45.2936 46.6624 45.1234 46.6109 44.9311C46.5814 44.8128 46.574 44.6871 46.6035 44.5613C46.6403 44.3764 46.7287 44.2211 46.8761 44.0805C47.0235 43.9474 47.2372 43.8291 47.5025 43.7625L47.5393 43.7551C47.893 43.6737 48.2688 43.7403 48.5267 43.9326C48.8804 44.1915 49.1088 44.5465 49.2119 44.9459C49.3372 45.4489 49.2562 45.9962 48.9393 46.4474C48.593 46.9356 48.0993 47.2832 47.5319 47.4237C47.473 47.4385 47.4066 47.4533 47.3403 47.4681C46.6845 47.579 46.0361 47.4385 45.4982 47.0539L45.4909 47.0465L45.4245 47.0095L45.4172 47.0021H45.4098C45.3214 46.9503 43.1772 45.7521 42.3445 42.4607C42.1235 41.5806 41.9908 40.5451 42.0203 39.3395C42.0498 37.6309 41.8582 35.9224 41.4971 34.4949C41.3719 33.9993 41.2245 33.5333 41.055 33.1191L40.9813 32.9194C40.1045 30.5674 38.115 28.8366 35.6613 28.2893C34.5339 28.0378 33.4139 28.0526 32.3676 28.3189C31.2181 28.6147 30.1644 29.1991 29.2949 30.057Z" fill="#E0E0E0"/>
<path d="M23.0028 49.6352C23.187 49.5983 23.3713 49.5465 23.5555 49.4947C25.3018 48.9991 26.7681 47.727 27.586 46.0184C27.7481 45.6782 27.8881 45.338 27.9986 44.9903C28.6765 42.8972 28.3597 40.7892 27.0629 39.2359C26.3923 38.4371 25.5228 37.8676 24.5723 37.5569C23.5481 37.2241 22.4281 37.1946 21.3523 37.5052C20.166 37.8454 19.1712 38.7034 18.6038 39.8498C18.4786 40.1013 18.3828 40.3528 18.2944 40.6043C17.8302 42.0392 18.0438 43.5036 18.9428 44.5835C19.4144 45.153 20.026 45.5525 20.6965 45.7744C21.4112 46.011 22.1997 46.0332 22.9512 45.8113C24.0344 45.5007 24.8302 44.6723 25.1544 43.6738C25.346 43.082 25.3681 42.4164 25.1839 41.7729C25.0954 41.4696 24.867 41.2404 24.587 41.1516C24.4175 41.0998 24.2334 41.0924 24.0565 41.1442C23.7544 41.233 23.526 41.4623 23.4375 41.7433C23.386 41.9134 23.3786 42.0983 23.4302 42.2758C23.5113 42.5569 23.5039 42.8454 23.4155 43.1042C23.2755 43.5406 22.9218 43.9104 22.4428 44.0436C22.0449 44.1545 21.6323 44.1472 21.2565 44.0214C20.9028 43.9031 20.586 43.696 20.3354 43.4001C19.8565 42.8158 19.7312 42.0539 20.0186 41.1738C20.0702 41.0037 20.1439 40.8335 20.2323 40.656C20.5712 39.9608 21.1681 39.4579 21.846 39.2655C22.5681 39.0584 23.3123 39.0806 23.9976 39.3025C24.6312 39.5096 25.2134 39.8942 25.6628 40.4194C26.5471 41.4697 26.7607 42.8601 26.2671 44.3986C26.1786 44.6649 26.0681 44.9386 25.9355 45.2196C25.3239 46.4918 24.307 47.3719 23.047 47.7344C22.907 47.7787 22.7597 47.8083 22.6197 47.8379C21.6765 48.0376 20.7407 47.9859 19.8639 47.6974C19.0533 47.4311 18.2944 46.9652 17.6386 46.3143C16.2017 44.872 15.5901 42.838 16.0028 40.8631L16.0544 40.6265V40.6191C16.1207 40.2418 16.2312 39.8202 16.3712 39.3765C16.7986 38.0673 17.5281 36.551 18.4123 35.2049C19.2081 34.0067 19.7459 32.8603 20.0849 31.8026C21.367 27.8455 20.0039 25.0349 19.7828 24.6133C19.746 24.5171 19.7017 24.4284 19.6575 24.3396C19.1786 23.4003 18.3901 22.668 17.4101 22.2612C17.2996 22.2169 17.1965 22.1799 17.0859 22.1429C16.0838 21.8175 15.0007 21.8544 14.0207 22.2686C12.9743 22.705 12.2228 23.5704 11.8985 24.5837C11.6406 25.3899 11.648 26.2849 11.987 27.1281C12.3185 27.9417 13.0112 28.5925 13.8659 28.8884H13.8733L13.9396 28.9106C15.1112 29.2952 16.3049 29.0511 17.0859 28.2227C17.3659 27.9269 17.5723 27.5719 17.6901 27.1946C17.8891 26.5881 17.867 25.9224 17.6165 25.3159C17.506 25.0571 17.2996 24.8721 17.0565 24.7982C16.8575 24.7316 16.6291 24.739 16.4228 24.8278C16.1649 24.9313 15.9807 25.1458 15.907 25.3899C15.8407 25.5896 15.848 25.8115 15.9291 26.026C16.0101 26.2257 16.0175 26.4402 15.9512 26.6399C15.9144 26.7657 15.848 26.8766 15.7522 26.9801C15.6196 27.1281 15.4501 27.2168 15.2364 27.2538C15.0301 27.2908 14.7796 27.276 14.4996 27.1798L14.4628 27.165C14.1017 27.0393 13.807 26.7657 13.6817 26.455C13.5122 26.026 13.5049 25.5748 13.6375 25.168C13.807 24.6503 14.1901 24.2065 14.7207 23.9846C15.3028 23.7405 15.9364 23.7183 16.5259 23.9107C16.5922 23.9328 16.6586 23.955 16.7175 23.9846C17.3659 24.2509 17.8596 24.7464 18.1249 25.3899L18.1323 25.3973L18.1691 25.4713V25.4787V25.4861C18.2133 25.5748 19.4512 27.8603 18.3533 31.2627C18.0586 32.1724 17.5943 33.1635 16.8943 34.2212C15.9143 35.7227 15.1185 37.3499 14.647 38.8291C14.4775 39.3395 14.3522 39.835 14.2712 40.301L14.227 40.5229C13.6891 43.1042 14.4922 45.7743 16.3638 47.6456C17.2259 48.5036 18.2281 49.1249 19.3112 49.4799C20.4828 49.8276 21.7428 49.9015 23.0028 49.6352Z" fill="#E0E0E0"/>
<path d="M0.0709743 28.1192C0.100449 27.9343 0.129934 27.742 0.174145 27.5571C0.549936 25.7745 1.71412 24.2213 3.35728 23.2893C3.68887 23.1044 4.02047 22.9417 4.35205 22.8086C6.38575 21.9876 8.50784 22.1651 10.1289 23.3633C10.9689 23.9846 11.5952 24.813 11.971 25.7449C12.3689 26.7434 12.4794 27.8677 12.2437 28.9623C11.9858 30.1753 11.1974 31.2257 10.0995 31.8692C9.85629 32.0097 9.61314 32.128 9.36998 32.2242C7.97734 32.7863 6.50365 32.6679 5.36891 31.8395C4.77206 31.4032 4.32994 30.8188 4.06467 30.1606C3.78467 29.4579 3.71098 28.6739 3.87309 27.9047C4.10888 26.8026 4.88257 25.9446 5.85521 25.56C6.43731 25.3307 7.08574 25.2568 7.74153 25.3973C8.05101 25.4639 8.28681 25.6784 8.39734 25.9521C8.46365 26.1148 8.47839 26.2997 8.44155 26.4846C8.37523 26.7952 8.16154 27.0319 7.88891 27.1429C7.7268 27.2094 7.54261 27.2242 7.3584 27.1872C7.07103 27.1281 6.79099 27.1576 6.53309 27.2538C6.10572 27.4239 5.76678 27.8011 5.66362 28.2893C5.5752 28.6961 5.61942 29.1029 5.76679 29.4727C5.90679 29.8203 6.1352 30.1236 6.44467 30.3529C7.05626 30.7966 7.82261 30.8632 8.68472 30.523C8.84682 30.4564 9.01629 30.3751 9.18577 30.2789C9.84893 29.8943 10.3131 29.2656 10.4605 28.5704C10.6226 27.8381 10.5489 27.0911 10.2763 26.418C10.0258 25.7967 9.61315 25.242 9.05314 24.8278C7.94787 24.0142 6.55523 23.8884 5.05207 24.4875C4.7868 24.5911 4.5289 24.7242 4.26364 24.8722C3.04047 25.5674 2.23731 26.6547 1.96468 27.9343C1.9352 28.0822 1.9057 28.2227 1.89096 28.3706C1.75833 29.3248 1.86886 30.2641 2.21518 31.1147C2.53202 31.9061 3.04782 32.6384 3.74046 33.2449C5.26573 34.591 7.33627 35.0644 9.26681 34.517L9.50261 34.4505H9.50998C9.88577 34.3543 10.291 34.2212 10.7258 34.0437C12.0005 33.5333 13.4595 32.6975 14.7416 31.7212C15.8763 30.8411 16.9816 30.2345 18.0132 29.8129C21.8595 28.2671 24.748 29.4357 25.1754 29.6354C25.2711 29.665 25.3669 29.702 25.4554 29.7464C26.4206 30.1606 27.2017 30.9002 27.6732 31.8618C27.7248 31.9653 27.769 32.0762 27.8132 32.1798C28.2038 33.1635 28.2333 34.2434 27.8943 35.2567C27.5333 36.3365 26.7153 37.1428 25.7353 37.5348C24.9543 37.8528 24.0627 37.9046 23.2006 37.6235C22.368 37.3499 21.6753 36.6916 21.329 35.8632V35.8558L21.3069 35.7966C20.8427 34.6502 21.0048 33.4372 21.7785 32.6014C22.0585 32.2981 22.3901 32.0762 22.7585 31.9283C23.348 31.6916 24.0111 31.662 24.6301 31.8765C24.8879 31.9653 25.0943 32.165 25.1827 32.4017C25.2637 32.594 25.2711 32.8233 25.1974 33.0378C25.109 33.304 24.9101 33.4963 24.6743 33.5925C24.4827 33.6738 24.2543 33.6813 24.0406 33.6073C23.8416 33.5407 23.6206 33.5481 23.429 33.6221C23.3111 33.6739 23.2006 33.7478 23.1048 33.844C22.9722 33.9919 22.8911 34.162 22.869 34.3765C22.8469 34.5836 22.8837 34.8351 22.9869 35.1087L23.0016 35.1458C23.149 35.5008 23.4437 35.7744 23.7606 35.878C24.1953 36.0185 24.6448 35.9963 25.0427 35.8336C25.5438 35.6339 25.9638 35.2197 26.148 34.665C26.3469 34.0659 26.3322 33.4298 26.1037 32.8528C26.0816 32.7863 26.0522 32.7271 26.0227 32.6605C25.7132 32.0318 25.1827 31.5659 24.5269 31.344H24.5196L24.4458 31.3144H24.4385H24.4311C24.3353 31.2701 21.9848 30.1902 18.6764 31.5215C17.7921 31.8765 16.8343 32.4091 15.8321 33.1783C14.4027 34.2656 12.8405 35.1679 11.4037 35.7375C10.9026 35.9372 10.4237 36.0999 9.96682 36.2108L9.74578 36.27C7.21103 36.98 4.5068 36.3587 2.51731 34.6058C1.60362 33.807 0.918316 32.8381 0.498314 31.773C0.0488377 30.6488 -0.105869 29.3914 0.0709743 28.1192Z" fill="#E0E0E0"/>
<path d="M22.774 27.165C22.4866 27.3277 22.1845 27.4757 21.8824 27.594C21.9929 27.3129 22.1256 27.0171 22.2877 26.736C22.5456 26.2701 22.8772 25.8484 23.2382 25.6044C23.3487 25.5304 23.4372 25.5082 23.5182 25.5082C23.6361 25.5082 23.7466 25.5674 23.8277 25.6413C23.9087 25.7227 23.9677 25.8337 23.9603 25.952C23.9603 26.0334 23.9382 26.1221 23.8645 26.233C23.6435 26.5807 23.2308 26.8987 22.774 27.165Z" fill="#E0E0E0"/>
<path d="M24.86 24.6059L24.6831 24.7834L24.86 24.6059C24.4915 24.236 24.0125 24.0363 23.5262 24.0437C23.1504 24.0437 22.7673 24.162 22.4283 24.3913C21.5515 24.983 20.9768 26.0038 20.601 26.8766C20.2252 27.7567 20.0631 28.4963 20.0409 28.5703C20.0336 28.6221 20.0262 28.6665 20.0262 28.7182C20.0262 28.9253 20.1147 29.1028 20.2473 29.236C20.3799 29.3691 20.5567 29.4579 20.763 29.4579C20.8073 29.4579 20.8588 29.4505 20.9104 29.4431C20.9915 29.4283 21.7284 29.2582 22.5978 28.8883C23.4673 28.5111 24.4841 27.9342 25.0736 27.0541C25.302 26.7138 25.4199 26.3292 25.4199 25.952C25.4199 25.4565 25.2284 24.9757 24.86 24.6059ZM23.9684 25.952C23.9684 26.0334 23.9462 26.1221 23.8726 26.233C23.6441 26.5807 23.2389 26.8987 22.7747 27.165C22.4873 27.3277 22.1852 27.4756 21.8831 27.594C21.9936 27.3129 22.1262 27.0171 22.2883 26.736C22.5462 26.2701 22.8778 25.8484 23.2389 25.6044C23.3494 25.5304 23.4378 25.5082 23.5189 25.5082C23.6368 25.5082 23.7473 25.5674 23.8284 25.6413C23.9094 25.7227 23.9684 25.8337 23.9684 25.952Z" fill="#E0E0E0"/>
<path d="M29.0381 19.9461C29.3255 19.7834 29.6276 19.6355 29.9297 19.5171C29.8192 19.7982 29.6865 20.094 29.5244 20.3751C29.2665 20.8411 28.935 21.2627 28.5739 21.5067C28.4634 21.5807 28.375 21.6029 28.2939 21.6029C28.176 21.6029 28.0655 21.5437 27.9844 21.4697C27.9034 21.3884 27.8444 21.2774 27.8518 21.1591C27.8518 21.0777 27.8739 20.989 27.9476 20.878C28.176 20.5378 28.5813 20.2123 29.0381 19.9461Z" fill="#E0E0E0"/>
<path d="M26.9593 22.5054L27.1361 22.3279L26.9593 22.5054C27.3277 22.8752 27.8066 23.0749 28.2929 23.0676C28.6687 23.0676 29.0519 22.9492 29.3908 22.7199C30.2677 22.1282 30.8424 21.1075 31.2182 20.2347C31.594 19.3546 31.7561 18.6149 31.7782 18.541C31.7856 18.4892 31.793 18.4448 31.793 18.393C31.793 18.1859 31.7046 18.0084 31.5719 17.8753C31.4393 17.7421 31.2624 17.6534 31.0561 17.6534C31.0119 17.6534 30.9603 17.6608 30.9087 17.6682C30.8277 17.683 30.0909 17.8531 29.2214 18.2229C28.3519 18.6001 27.3351 19.177 26.7456 20.0572C26.5172 20.3975 26.3992 20.7821 26.3992 21.1593C26.3919 21.6548 26.5835 22.1356 26.9593 22.5054ZM27.8509 21.1593C27.8509 21.0779 27.8729 20.9892 27.9466 20.8782C28.175 20.5306 28.5803 20.2125 29.0445 19.9463C29.3319 19.7835 29.634 19.6356 29.9361 19.5173C29.8256 19.7984 29.6929 20.0942 29.5308 20.3753C29.2729 20.8412 28.9414 21.2628 28.5803 21.5069C28.4698 21.5809 28.3814 21.6031 28.3003 21.6031C28.1824 21.6031 28.0719 21.5439 27.9909 21.4699C27.9024 21.3885 27.8509 21.2776 27.8509 21.1593Z" fill="#E0E0E0"/>
<path d="M11.9785 39.7462C11.9785 38.7403 11.168 37.9267 10.1659 37.9267C9.16379 37.9267 8.35324 38.7403 8.35324 39.7462C8.35324 40.7521 9.16379 41.5657 10.1659 41.5657C11.168 41.5731 11.9785 40.7521 11.9785 39.7462Z" fill="#E0E0E0"/>
<path d="M20.1797 49.2656C20.1797 49.7093 19.8113 50.0718 19.3692 50.0718C14.3807 50.0422 9.60592 48.0674 6.07643 44.5763C2.54693 41.0852 0.5427 36.3515 0.498487 31.4033C0.491119 30.9595 0.852188 30.5897 1.2943 30.5897C1.7364 30.5897 2.10485 30.9447 2.10485 31.3885C2.1417 35.9003 3.96906 40.2272 7.20382 43.4224C10.4312 46.6177 14.8081 48.4224 19.3765 48.452C19.8187 48.4594 20.1797 48.8218 20.1797 49.2656Z" fill="#E0E0E0"/>
<path d="M36.3253 29.6946C35.9348 29.6946 35.6179 29.3839 35.6179 28.9919C35.5884 25.0422 33.9821 21.2553 31.16 18.4668C28.3379 15.671 24.5063 14.0882 20.5125 14.066C20.122 14.066 19.8125 13.748 19.8125 13.356C19.8125 12.9639 20.1294 12.6533 20.5199 12.6533C24.8821 12.6829 29.06 14.4062 32.1473 17.4609C35.2347 20.5156 36.9884 24.6576 37.0253 28.9845C37.0326 29.3765 36.7158 29.6946 36.3253 29.6946Z" fill="#E0E0E0"/>
</svg>
