<svg width="213" height="213" viewBox="0 0 213 213" fill="none" xmlns="http://www.w3.org/2000/svg">
<path d="M211.68 213H0.460022V1.78003C0.460022 1.05003 1.05003 0.460022 1.78003 0.460022C2.51003 0.460022 3.10004 1.05003 3.10004 1.78003V210.37H211.68C212.41 210.37 213 210.96 213 211.69C212.99 212.41 212.4 213 211.68 213Z" fill="url(#paint0_linear_105_434)"/>
<path d="M191.82 201.84H37.9901C37.2601 201.84 36.6702 201.25 36.6702 200.52C36.6702 199.79 37.2601 199.2 37.9901 199.2H191.82C192.55 199.2 193.14 199.79 193.14 200.52C193.13 201.25 192.55 201.84 191.82 201.84Z" fill="url(#paint1_linear_105_434)"/>
<path d="M12.6398 177.88C12.0298 177.88 11.5398 177.39 11.5398 176.78V22.95C11.5398 22.34 12.0298 21.85 12.6398 21.85C13.2498 21.85 13.7397 22.34 13.7397 22.95V176.78C13.7397 177.39 13.2398 177.88 12.6398 177.88Z" fill="url(#paint2_linear_105_434)"/>
<path d="M28.2303 174.08C28.0603 174.26 27.8903 174.43 27.7103 174.6C26.0003 176.19 23.6203 176.97 21.2003 176.74C20.7203 176.69 20.2503 176.62 19.8003 176.51C17.0403 175.87 14.9303 174.12 14.1003 171.66C13.6703 170.39 13.6203 169.05 13.9103 167.79C14.2203 166.44 14.9403 165.18 16.0003 164.2C17.1703 163.12 18.7703 162.59 20.4103 162.72C20.7703 162.75 21.1103 162.8 21.4403 162.88C23.3303 163.32 24.8003 164.53 25.3803 166.24C25.6903 167.14 25.7303 168.08 25.5203 168.97C25.3003 169.92 24.8003 170.8 24.0603 171.48C23.0003 172.47 21.5503 172.8 20.2403 172.49C19.4603 172.31 18.7203 171.9 18.1303 171.27C17.8503 170.97 17.7603 170.57 17.8503 170.2C17.9003 169.98 18.0203 169.77 18.1903 169.61C18.4903 169.33 18.8903 169.24 19.2603 169.33C19.4803 169.38 19.6903 169.5 19.8503 169.67C20.1103 169.95 20.4303 170.13 20.7703 170.21C21.3503 170.34 21.9803 170.2 22.4503 169.76C22.8403 169.4 23.1003 168.94 23.2203 168.44C23.3303 167.97 23.3103 167.48 23.1503 167.01C22.8303 166.1 22.0703 165.45 20.9103 165.18C20.6903 165.13 20.4503 165.09 20.2003 165.07C19.2103 164.99 18.2603 165.3 17.5903 165.93C16.8803 166.59 16.4103 167.43 16.2003 168.33C16.0003 169.17 16.0403 170.06 16.3203 170.91C16.8903 172.58 18.2703 173.74 20.2903 174.22C20.6403 174.3 21.0203 174.36 21.4103 174.4C23.2103 174.57 24.8603 174.03 26.1003 172.88C26.2403 172.75 26.3703 172.62 26.5003 172.48C27.3503 171.57 27.9103 170.5 28.1803 169.35C28.4303 168.28 28.4203 167.13 28.1403 165.98C27.5103 163.44 25.6803 161.41 23.2403 160.55L22.9403 160.45H22.9303C22.4703 160.27 21.9303 160.11 21.3503 159.98C19.6203 159.58 17.4703 159.38 15.4003 159.46C13.5503 159.54 11.9403 159.37 10.5403 159.05C5.3403 157.84 3.15029 154.47 2.84029 153.94C2.76029 153.84 2.69026 153.73 2.62026 153.62C1.90026 152.47 1.63028 151.11 1.83028 149.76C1.85028 149.61 1.88029 149.46 1.9103 149.32C2.22029 148 2.98029 146.83 4.09029 146.02C5.27029 145.15 6.72031 144.9 8.05031 145.21C9.11031 145.46 10.0903 146.06 10.7903 146.99C11.4703 147.9 11.7203 149.09 11.4703 150.23V150.24L11.4503 150.32C11.0903 151.87 10.0303 153.03 8.6003 153.33C8.0803 153.44 7.56027 153.43 7.07027 153.32C6.28027 153.13 5.55031 152.67 5.05031 151.99C4.84031 151.7 4.7803 151.35 4.8503 151.02C4.9103 150.76 5.07031 150.51 5.30031 150.34C5.59031 150.13 5.94028 150.07 6.27028 150.14C6.53028 150.2 6.78027 150.35 6.95027 150.59C7.11027 150.81 7.35031 150.96 7.61031 151.02C7.77031 151.06 7.94031 151.06 8.11031 151.02C8.36031 150.97 8.57026 150.84 8.75026 150.64C8.93026 150.44 9.0803 150.15 9.1603 149.78L9.17031 149.73C9.27031 149.25 9.1703 148.74 8.9103 148.4C8.55029 147.93 8.06028 147.62 7.52028 147.5C6.84028 147.34 6.10025 147.47 5.49025 147.91C4.83025 148.39 4.39028 149.07 4.21028 149.85C4.19028 149.94 4.1703 150.02 4.1603 150.11C4.0203 151 4.24028 151.88 4.77028 152.6L4.78029 152.61L4.84029 152.7L4.8503 152.71V152.72C4.9203 152.83 6.60028 155.71 11.0803 156.76C12.2803 157.04 13.6803 157.19 15.3103 157.11C17.6203 157.02 19.9403 157.23 21.8703 157.68C22.5503 157.84 23.1703 158.03 23.7403 158.24L24.0203 158.34C27.2203 159.46 29.6203 162.12 30.4303 165.43C30.8003 166.95 30.8103 168.47 30.4803 169.9C30.1203 171.43 29.3603 172.87 28.2303 174.08Z" fill="url(#paint3_linear_105_434)"/>
<path d="M40.5702 185.72C40.3902 185.89 40.2202 186.07 40.0602 186.25C38.5002 187.99 37.7802 190.38 38.0502 192.8C38.1102 193.28 38.1902 193.75 38.3102 194.2C39.0102 196.94 40.8002 199.02 43.2802 199.8C44.5602 200.21 45.9002 200.23 47.1502 199.91C48.4902 199.57 49.7402 198.83 50.7002 197.75C51.7602 196.56 52.2602 194.95 52.0902 193.31C52.0502 192.96 51.9902 192.61 51.9102 192.28C51.4302 190.4 50.1902 188.96 48.4702 188.41C47.5702 188.12 46.6202 188.1 45.7402 188.33C44.8002 188.57 43.9302 189.09 43.2602 189.84C42.3002 190.92 42.0002 192.37 42.3302 193.68C42.5302 194.46 42.9502 195.19 43.6002 195.76C43.9002 196.03 44.3102 196.12 44.6802 196.02C44.9002 195.96 45.1102 195.84 45.2702 195.66C45.5402 195.36 45.6302 194.95 45.5302 194.58C45.4702 194.36 45.3502 194.15 45.1702 193.99C44.8902 193.74 44.7002 193.42 44.6102 193.08C44.4602 192.5 44.6002 191.87 45.0202 191.39C45.3702 190.99 45.8302 190.72 46.3202 190.6C46.7802 190.48 47.2802 190.49 47.7502 190.64C48.6702 190.94 49.3302 191.69 49.6302 192.84C49.6902 193.06 49.7302 193.3 49.7602 193.55C49.8602 194.54 49.5702 195.49 48.9602 196.18C48.3202 196.9 47.4902 197.39 46.5902 197.62C45.7502 197.83 44.8602 197.82 44.0102 197.55C42.3302 197.02 41.1402 195.66 40.6202 193.64C40.5302 193.29 40.4602 192.91 40.4202 192.52C40.2102 190.72 40.7202 189.06 41.8402 187.8C41.9702 187.66 42.1002 187.52 42.2302 187.39C43.1202 186.52 44.1802 185.94 45.3302 185.64C46.4002 185.37 47.5402 185.35 48.7002 185.61C51.2602 186.18 53.3202 187.97 54.2302 190.4L54.3402 190.69V190.7C54.5302 191.16 54.7002 191.69 54.8402 192.27C55.2802 193.99 55.5202 196.13 55.4802 198.21C55.4302 200.06 55.6402 201.67 55.9902 203.06C57.3102 208.24 60.7202 210.36 61.2502 210.66C61.3602 210.73 61.4602 210.8 61.5702 210.87C62.7302 211.56 64.1002 211.81 65.4502 211.58C65.6002 211.55 65.7402 211.52 65.8902 211.49C67.2102 211.15 68.3602 210.37 69.1502 209.24C69.9902 208.04 70.2102 206.59 69.8802 205.27C69.6102 204.22 68.9902 203.25 68.0402 202.57C67.1202 201.91 65.9202 201.69 64.7902 201.95H64.7802L64.7002 201.97C63.1602 202.36 62.0202 203.44 61.7502 204.88C61.6502 205.4 61.6702 205.92 61.7902 206.41C61.9902 207.2 62.4702 207.91 63.1602 208.4C63.4502 208.6 63.8102 208.66 64.1302 208.58C64.3902 208.51 64.6302 208.35 64.8002 208.12C65.0102 207.83 65.0602 207.47 64.9802 207.15C64.9102 206.89 64.7602 206.65 64.5202 206.48C64.3002 206.32 64.1402 206.09 64.0702 205.83C64.0302 205.67 64.0202 205.5 64.0602 205.33C64.1102 205.08 64.2302 204.87 64.4302 204.68C64.6302 204.5 64.9202 204.34 65.2802 204.25L65.3302 204.24C65.8102 204.13 66.3202 204.22 66.6702 204.48C67.1502 204.83 67.4602 205.31 67.6002 205.85C67.7702 206.53 67.6602 207.27 67.2302 207.88C66.7602 208.54 66.0902 209.01 65.3202 209.2C65.2402 209.22 65.1502 209.24 65.0602 209.26C64.1702 209.41 63.2902 209.22 62.5602 208.7L62.5502 208.69L62.4602 208.64L62.4502 208.63H62.4402C62.3202 208.56 59.4102 206.94 58.2802 202.49C57.9802 201.3 57.8002 199.9 57.8402 198.27C57.8802 195.96 57.6202 193.65 57.1302 191.72C56.9602 191.05 56.7602 190.42 56.5302 189.86L56.4302 189.59C55.2402 186.41 52.5402 184.07 49.2102 183.33C47.6802 182.99 46.1602 183.01 44.7402 183.37C43.1802 183.77 41.7502 184.56 40.5702 185.72Z" fill="url(#paint4_linear_105_434)"/>
<path d="M32.0298 212.19C32.2798 212.14 32.5298 212.07 32.7798 212C35.1498 211.33 37.1397 209.61 38.2497 207.3C38.4697 206.84 38.6597 206.38 38.8097 205.91C39.7297 203.08 39.2998 200.23 37.5398 198.13C36.6298 197.05 35.4498 196.28 34.1598 195.86C32.7698 195.41 31.2498 195.37 29.7898 195.79C28.1798 196.25 26.8297 197.41 26.0597 198.96C25.8897 199.3 25.7598 199.64 25.6398 199.98C25.0098 201.92 25.2998 203.9 26.5198 205.36C27.1598 206.13 27.9898 206.67 28.8998 206.97C29.8698 207.29 30.9398 207.32 31.9598 207.02C33.4298 206.6 34.5097 205.48 34.9497 204.13C35.2097 203.33 35.2397 202.43 34.9897 201.56C34.8697 201.15 34.5597 200.84 34.1797 200.72C33.9497 200.65 33.6998 200.64 33.4598 200.71C33.0498 200.83 32.7397 201.14 32.6197 201.52C32.5497 201.75 32.5398 202 32.6098 202.24C32.7198 202.62 32.7098 203.01 32.5898 203.36C32.3998 203.95 31.9198 204.45 31.2698 204.63C30.7298 204.78 30.1698 204.77 29.6598 204.6C29.1798 204.44 28.7498 204.16 28.4098 203.76C27.7598 202.97 27.5898 201.94 27.9798 200.75C28.0498 200.52 28.1498 200.29 28.2698 200.05C28.7298 199.11 29.5398 198.43 30.4598 198.17C31.4398 197.89 32.4497 197.92 33.3797 198.22C34.2397 198.5 35.0298 199.02 35.6398 199.73C36.8398 201.15 37.1298 203.03 36.4598 205.11C36.3398 205.47 36.1897 205.84 36.0097 206.22C35.1797 207.94 33.7998 209.13 32.0898 209.62C31.8998 209.68 31.6997 209.72 31.5097 209.76C30.2297 210.03 28.9598 209.96 27.7698 209.57C26.6698 209.21 25.6397 208.58 24.7497 207.7C22.7997 205.75 21.9698 203 22.5298 200.33L22.5998 200.01V200C22.6898 199.49 22.8398 198.92 23.0298 198.32C23.6098 196.55 24.5998 194.5 25.7998 192.68C26.8798 191.06 27.6097 189.51 28.0697 188.08C29.8097 182.73 27.9598 178.93 27.6598 178.36C27.6098 178.23 27.5497 178.11 27.4897 177.99C26.8397 176.72 25.7697 175.73 24.4397 175.18C24.2897 175.12 24.1497 175.07 23.9997 175.02C22.6397 174.58 21.1698 174.63 19.8398 175.19C18.4198 175.78 17.3998 176.95 16.9598 178.32C16.6098 179.41 16.6198 180.62 17.0798 181.76C17.5298 182.86 18.4697 183.74 19.6297 184.14H19.6398L19.7298 184.17C21.3198 184.69 22.9397 184.36 23.9997 183.24C24.3797 182.84 24.6597 182.36 24.8197 181.85C25.0897 181.03 25.0598 180.13 24.7198 179.31C24.5698 178.96 24.2898 178.71 23.9598 178.61C23.6898 178.52 23.3798 178.53 23.0998 178.65C22.7498 178.79 22.4998 179.08 22.3998 179.41C22.3098 179.68 22.3197 179.98 22.4297 180.27C22.5397 180.54 22.5498 180.83 22.4598 181.1C22.4098 181.27 22.3197 181.42 22.1897 181.56C22.0097 181.76 21.7797 181.88 21.4897 181.93C21.2097 181.98 20.8697 181.96 20.4897 181.83L20.4397 181.81C19.9497 181.64 19.5497 181.27 19.3797 180.85C19.1497 180.27 19.1397 179.66 19.3197 179.11C19.5497 178.41 20.0698 177.81 20.7898 177.51C21.5798 177.18 22.4397 177.15 23.2397 177.41C23.3297 177.44 23.4197 177.47 23.4997 177.51C24.3797 177.87 25.0498 178.54 25.4098 179.41L25.4198 179.42L25.4698 179.52V179.53V179.54C25.5298 179.66 27.2098 182.75 25.7198 187.35C25.3198 188.58 24.6897 189.92 23.7397 191.35C22.4097 193.38 21.3297 195.58 20.6897 197.58C20.4597 198.27 20.2897 198.94 20.1797 199.57L20.1197 199.87C19.3897 203.36 20.4798 206.97 23.0198 209.5C24.1898 210.66 25.5498 211.5 27.0198 211.98C28.6098 212.45 30.3198 212.55 32.0298 212.19Z" fill="url(#paint5_linear_105_434)"/>
<path d="M0.909912 183.1C0.949913 182.85 0.989925 182.59 1.04993 182.34C1.55993 179.93 3.13987 177.83 5.36987 176.57C5.81987 176.32 6.26991 176.1 6.71991 175.92C9.47991 174.81 12.3599 175.05 14.5599 176.67C15.6999 177.51 16.5499 178.63 17.0599 179.89C17.5999 181.24 17.7499 182.76 17.4299 184.24C17.0799 185.88 16.0099 187.3 14.5199 188.17C14.1899 188.36 13.8599 188.52 13.5299 188.65C11.6399 189.41 9.63992 189.25 8.09991 188.13C7.28992 187.54 6.6899 186.75 6.3299 185.86C5.94989 184.91 5.84988 183.85 6.06989 182.81C6.38988 181.32 7.43989 180.16 8.75989 179.64C9.54989 179.33 10.4299 179.23 11.3199 179.42C11.7399 179.51 12.0599 179.8 12.2099 180.17C12.2999 180.39 12.3199 180.64 12.2699 180.89C12.1799 181.31 11.8899 181.63 11.5199 181.78C11.2999 181.87 11.0499 181.89 10.7999 181.84C10.4099 181.76 10.0299 181.8 9.67987 181.93C9.09987 182.16 8.63988 182.67 8.49988 183.33C8.37988 183.88 8.43989 184.43 8.63989 184.93C8.82989 185.4 9.13988 185.81 9.55988 186.12C10.3899 186.72 11.4299 186.81 12.5999 186.35C12.8199 186.26 13.0499 186.15 13.2799 186.02C14.1799 185.5 14.8099 184.65 15.0099 183.71C15.2299 182.72 15.1299 181.71 14.7599 180.8C14.4199 179.96 13.8599 179.21 13.0999 178.65C11.5999 177.55 9.70992 177.38 7.66992 178.19C7.30992 178.33 6.95992 178.51 6.59991 178.71C4.93991 179.65 3.84992 181.12 3.47992 182.85C3.43992 183.05 3.39988 183.24 3.37988 183.44C3.19988 184.73 3.34988 186 3.81989 187.15C4.24989 188.22 4.94989 189.21 5.88989 190.03C7.95989 191.85 10.7699 192.49 13.3899 191.75L13.7099 191.66H13.7199C14.2299 191.53 14.7799 191.35 15.3699 191.11C17.0999 190.42 19.0799 189.29 20.8199 187.97C22.3599 186.78 23.8599 185.96 25.2599 185.39C30.4799 183.3 34.3999 184.88 34.9799 185.15C35.1099 185.19 35.2399 185.24 35.3599 185.3C36.6699 185.86 37.7299 186.86 38.3699 188.16C38.4399 188.3 38.4999 188.45 38.5599 188.59C39.0899 189.92 39.1299 191.38 38.6699 192.75C38.1799 194.21 37.0699 195.3 35.7399 195.83C34.6799 196.26 33.4699 196.33 32.2999 195.95C31.1699 195.58 30.2299 194.69 29.7599 193.57V193.56L29.7299 193.48C29.0999 191.93 29.3199 190.29 30.3699 189.16C30.7499 188.75 31.1999 188.45 31.6999 188.25C32.4999 187.93 33.3999 187.89 34.2399 188.18C34.5899 188.3 34.8699 188.57 34.9899 188.89C35.0999 189.15 35.1099 189.46 35.0099 189.75C34.8899 190.11 34.6199 190.37 34.2999 190.5C34.0399 190.61 33.7299 190.62 33.4399 190.52C33.1699 190.43 32.8699 190.44 32.6099 190.54C32.4499 190.61 32.2999 190.71 32.1699 190.84C31.9899 191.04 31.8799 191.27 31.8499 191.56C31.8199 191.84 31.8699 192.18 32.0099 192.55L32.0299 192.6C32.2299 193.08 32.6299 193.45 33.0599 193.59C33.6499 193.78 34.2599 193.75 34.7999 193.53C35.4799 193.26 36.0499 192.7 36.2999 191.95C36.5699 191.14 36.5499 190.28 36.2399 189.5C36.2099 189.41 36.1699 189.33 36.1299 189.24C35.7099 188.39 34.9899 187.76 34.0999 187.46H34.0899L33.9899 187.42H33.9799H33.9699C33.8399 187.36 30.6499 185.9 26.1599 187.7C24.9599 188.18 23.6599 188.9 22.2999 189.94C20.3599 191.41 18.2399 192.63 16.2899 193.4C15.6099 193.67 14.9599 193.89 14.3399 194.04L14.0399 194.12C10.5999 195.08 6.92992 194.24 4.22992 191.87C2.98992 190.79 2.05987 189.48 1.48987 188.04C0.879868 186.52 0.66991 184.82 0.909912 183.1Z" fill="url(#paint6_linear_105_434)"/>
<path d="M31.7202 181.81C31.3302 182.03 30.9202 182.23 30.5102 182.39C30.6602 182.01 30.8402 181.61 31.0602 181.23C31.4102 180.6 31.8602 180.03 32.3502 179.7C32.5002 179.6 32.6202 179.57 32.7302 179.57C32.8902 179.57 33.0402 179.65 33.1502 179.75C33.2602 179.86 33.3402 180.01 33.3302 180.17C33.3302 180.28 33.3002 180.4 33.2002 180.55C32.9002 181.02 32.3402 181.45 31.7202 181.81Z" fill="url(#paint7_linear_105_434)"/>
<path d="M34.5501 178.35L34.3101 178.59L34.5501 178.35C34.0501 177.85 33.4001 177.58 32.7401 177.59C32.2301 177.59 31.7101 177.75 31.2501 178.06C30.0601 178.86 29.2801 180.24 28.7701 181.42C28.2601 182.61 28.0401 183.61 28.0101 183.71C28.0001 183.78 27.9901 183.84 27.9901 183.91C27.9901 184.19 28.1101 184.43 28.2901 184.61C28.4701 184.79 28.7101 184.91 28.9901 184.91C29.0501 184.91 29.1201 184.9 29.1901 184.89C29.3001 184.87 30.3001 184.64 31.4801 184.14C32.6601 183.63 34.0401 182.85 34.8401 181.66C35.1501 181.2 35.3101 180.68 35.3101 180.17C35.3101 179.5 35.0501 178.85 34.5501 178.35ZM33.3401 180.17C33.3401 180.28 33.3101 180.4 33.2101 180.55C32.9001 181.02 32.3501 181.45 31.7201 181.81C31.3301 182.03 30.9201 182.23 30.5101 182.39C30.6601 182.01 30.8401 181.61 31.0601 181.23C31.4101 180.6 31.8601 180.03 32.3501 179.7C32.5001 179.6 32.6201 179.57 32.7301 179.57C32.8901 179.57 33.0401 179.65 33.1501 179.75C33.2601 179.86 33.3401 180.01 33.3401 180.17Z" fill="url(#paint8_linear_105_434)"/>
<path d="M40.2202 172.05C40.6102 171.83 41.0202 171.63 41.4302 171.47C41.2802 171.85 41.1002 172.25 40.8802 172.63C40.5302 173.26 40.0802 173.83 39.5902 174.16C39.4402 174.26 39.3202 174.29 39.2102 174.29C39.0502 174.29 38.9002 174.21 38.7902 174.11C38.6802 174 38.6002 173.85 38.6102 173.69C38.6102 173.58 38.6402 173.46 38.7402 173.31C39.0502 172.85 39.6002 172.41 40.2202 172.05Z" fill="url(#paint9_linear_105_434)"/>
<path d="M37.4 175.51L37.64 175.27L37.4 175.51C37.9 176.01 38.55 176.28 39.21 176.27C39.72 176.27 40.24 176.11 40.7 175.8C41.89 175 42.6699 173.62 43.1799 172.44C43.6899 171.25 43.9099 170.25 43.9399 170.15C43.9499 170.08 43.96 170.02 43.96 169.95C43.96 169.67 43.84 169.43 43.66 169.25C43.48 169.07 43.24 168.95 42.96 168.95C42.9 168.95 42.8299 168.96 42.7599 168.97C42.6499 168.99 41.65 169.22 40.47 169.72C39.29 170.23 37.91 171.01 37.11 172.2C36.8 172.66 36.64 173.18 36.64 173.69C36.63 174.36 36.89 175.01 37.4 175.51ZM38.61 173.69C38.61 173.58 38.6399 173.46 38.7399 173.31C39.0499 172.84 39.6 172.41 40.23 172.05C40.62 171.83 41.0299 171.63 41.4399 171.47C41.2899 171.85 41.11 172.25 40.89 172.63C40.54 173.26 40.09 173.83 39.6 174.16C39.45 174.26 39.33 174.29 39.22 174.29C39.06 174.29 38.91 174.21 38.8 174.11C38.68 174 38.61 173.85 38.61 173.69Z" fill="url(#paint10_linear_105_434)"/>
<path d="M17.0698 198.82C17.0698 197.46 15.9699 196.36 14.6099 196.36C13.2499 196.36 12.1498 197.46 12.1498 198.82C12.1498 200.18 13.2499 201.28 14.6099 201.28C15.9699 201.29 17.0698 200.18 17.0698 198.82Z" fill="url(#paint11_linear_105_434)"/>
<path d="M28.1997 211.69C28.1997 212.29 27.6997 212.78 27.0997 212.78C20.3297 212.74 13.8497 210.07 9.05969 205.35C4.26969 200.63 1.54968 194.23 1.48969 187.54C1.47968 186.94 1.9697 186.44 2.5697 186.44C3.1697 186.44 3.66974 186.92 3.66974 187.52C3.71974 193.62 6.19972 199.47 10.5897 203.79C14.9697 208.11 20.9097 210.55 27.1097 210.59C27.7097 210.6 28.1997 211.09 28.1997 211.69Z" fill="url(#paint12_linear_105_434)"/>
<path d="M50.1099 185.23C49.5799 185.23 49.1499 184.81 49.1499 184.28C49.1099 178.94 46.9299 173.82 43.0999 170.05C39.2699 166.27 34.0699 164.13 28.6499 164.1C28.1199 164.1 27.6999 163.67 27.6999 163.14C27.6999 162.61 28.1299 162.19 28.6599 162.19C34.5799 162.23 40.2499 164.56 44.4399 168.69C48.6299 172.82 51.0099 178.42 51.0599 184.27C51.0699 184.8 50.6399 185.23 50.1099 185.23Z" fill="url(#paint13_linear_105_434)"/>
<path d="M202.16 199.81C202.43 199.98 202.59 200.28 202.59 200.59C202.59 200.9 202.43 201.2 202.16 201.37C201.96 201.5 197.19 204.53 193.46 203.79C191.87 203.48 190.8 202.19 190.8 200.59C190.8 198.99 191.87 197.7 193.46 197.39C193.87 197.31 194.28 197.27 194.71 197.27C198.18 197.27 201.98 199.69 202.16 199.81ZM193.82 201.96C195.76 202.34 198.22 201.35 199.75 200.58C198.1 199.76 195.65 198.85 193.82 199.21C192.97 199.38 192.66 200.03 192.66 200.58C192.66 201.14 192.97 201.79 193.82 201.96Z" fill="url(#paint14_linear_105_434)"/>
<path d="M189.19 200.53C189.93 201.17 190.38 202.06 190.46 203.03C190.59 204.73 189.32 206.24 187.63 206.39C186.91 206.46 186.13 206.18 185.58 205.65C184.79 204.89 184.52 203.88 184.85 202.96C185.09 202.28 185.64 201.76 186.3 201.53C185.5 201.6 183.02 202.09 181.18 205.37C180.23 207.03 178.98 208.54 177.86 209.4L177.72 209.51C176.07 210.84 173.87 211.24 171.84 210.58C169.89 209.95 168.48 208.47 167.96 206.54C167.92 206.39 167.88 206.24 167.85 206.09C167.57 204.65 167.94 203.12 168.87 201.9C170.2 200.15 172.1 199.36 173.96 199.8C175.68 200.2 177.01 201.58 177.34 203.32C177.53 204.32 177.28 205.38 176.65 206.22C175.72 207.47 174.37 208.03 173.03 207.73C171.79 207.45 170.84 206.46 170.6 205.21C170.31 203.72 171.29 202.27 172.77 201.98C173.27 201.88 173.76 202.21 173.86 202.72C173.96 203.23 173.63 203.71 173.12 203.81C172.64 203.9 172.33 204.37 172.42 204.86C172.52 205.38 172.92 205.8 173.44 205.92C174.04 206.06 174.66 205.76 175.15 205.11C175.47 204.68 175.6 204.16 175.5 203.67C175.3 202.65 174.53 201.84 173.52 201.61C172.38 201.35 171.22 201.86 170.33 203.03C169.71 203.84 169.47 204.8 169.66 205.74C169.68 205.85 169.71 205.95 169.74 206.06C170.09 207.38 171.06 208.38 172.4 208.82C173.83 209.29 175.38 209.01 176.54 208.07L176.7 207.95C177.64 207.24 178.73 205.9 179.55 204.48C182.16 199.83 186.02 199.69 186.56 199.69C186.64 199.68 186.72 199.68 186.81 199.68C187.69 199.65 188.53 199.95 189.19 200.53ZM187.47 204.53C188.15 204.47 188.66 203.86 188.61 203.17C188.57 202.69 188.35 202.25 187.98 201.93C187.86 201.83 187.73 201.74 187.6 201.68C187.75 201.83 187.85 202.03 187.86 202.26C187.9 202.77 187.52 203.22 187.01 203.26C186.83 203.27 186.67 203.4 186.61 203.57C186.53 203.79 186.63 204.05 186.88 204.3C187.03 204.44 187.23 204.53 187.42 204.53C187.44 204.54 187.45 204.54 187.47 204.53Z" fill="url(#paint15_linear_105_434)"/>
<path d="M177.73 191.66L177.85 191.75C179 192.62 180.25 194.13 181.19 195.8C183.03 199.09 185.51 199.56 186.31 199.63C185.64 199.41 185.1 198.89 184.86 198.2C184.53 197.27 184.8 196.27 185.59 195.51C186.14 194.98 186.9 194.7 187.64 194.77C189.34 194.92 190.61 196.43 190.47 198.13C190.39 199.11 189.94 200 189.2 200.63C188.47 201.26 187.53 201.57 186.58 201.5C186.02 201.52 182.18 201.35 179.58 196.71C178.76 195.28 177.67 193.95 176.71 193.22L176.57 193.11C175.41 192.18 173.86 191.9 172.43 192.36C171.09 192.8 170.12 193.8 169.77 195.12C169.74 195.22 169.72 195.33 169.7 195.44C169.52 196.38 169.76 197.34 170.37 198.15C171.26 199.32 172.42 199.83 173.56 199.57C174.57 199.34 175.34 198.53 175.54 197.51C175.63 197.02 175.51 196.5 175.19 196.07C174.7 195.42 174.08 195.13 173.48 195.26C172.96 195.38 172.56 195.79 172.46 196.32C172.37 196.8 172.68 197.27 173.16 197.37C173.66 197.47 173.99 197.96 173.9 198.46C173.8 198.97 173.31 199.3 172.81 199.2C171.32 198.91 170.35 197.46 170.64 195.97C170.88 194.72 171.84 193.73 173.07 193.45C174.4 193.14 175.75 193.71 176.69 194.96C177.32 195.81 177.57 196.86 177.38 197.86C177.04 199.6 175.72 200.98 174 201.38C172.14 201.81 170.24 201.03 168.91 199.28C167.98 198.06 167.61 196.53 167.89 195.09C167.92 194.94 167.96 194.79 167.99 194.64C168.51 192.7 169.93 191.23 171.87 190.59C172.52 190.38 173.18 190.28 173.84 190.28C175.22 190.28 176.6 190.76 177.73 191.66ZM187.98 199.22C188.35 198.91 188.57 198.47 188.61 197.98C188.66 197.29 188.15 196.68 187.47 196.62C187.25 196.6 187.04 196.69 186.88 196.85C186.63 197.09 186.53 197.35 186.61 197.58C186.67 197.75 186.83 197.88 187.01 197.89C187.52 197.93 187.91 198.38 187.86 198.89C187.84 199.12 187.74 199.32 187.6 199.47C187.74 199.41 187.86 199.32 187.98 199.22Z" fill="url(#paint16_linear_105_434)"/>
<path d="M11.8603 7.91003C12.0303 7.64003 12.3303 7.48004 12.6403 7.48004C12.9503 7.48004 13.2503 7.64003 13.4203 7.91003C13.5503 8.11003 16.5803 12.88 15.8403 16.61C15.5303 18.2 14.2403 19.27 12.6403 19.27C11.0403 19.27 9.75027 18.2 9.44027 16.61C9.36027 16.2 9.32028 15.79 9.32028 15.36C9.32028 11.9 11.7403 8.09003 11.8603 7.91003ZM14.0203 16.25C14.4003 14.31 13.4103 11.85 12.6403 10.32C11.8203 11.97 10.9103 14.42 11.2703 16.25C11.4403 17.1 12.0903 17.41 12.6403 17.41C13.2003 17.41 13.8503 17.11 14.0203 16.25Z" fill="url(#paint17_linear_105_434)"/>
<path d="M12.5801 20.88C13.2201 20.14 14.1101 19.69 15.0801 19.61C16.7801 19.48 18.2901 20.75 18.4401 22.44C18.5101 23.16 18.2301 23.94 17.7001 24.49C16.9401 25.28 15.9301 25.55 15.0101 25.22C14.3301 24.98 13.8101 24.43 13.5801 23.77C13.6501 24.57 14.1402 27.05 17.4202 28.89C19.0802 29.84 20.5901 31.09 21.4501 32.21L21.5601 32.35C22.8901 34 23.2901 36.2 22.6301 38.23C22.0001 40.18 20.5202 41.59 18.5902 42.11C18.4402 42.15 18.2901 42.19 18.1401 42.22C16.7001 42.5 15.1701 42.13 13.9501 41.2C12.2001 39.87 11.4102 37.97 11.8502 36.11C12.2502 34.39 13.6301 33.06 15.3701 32.73C16.3701 32.54 17.4302 32.79 18.2702 33.42C19.5202 34.35 20.0802 35.7 19.7802 37.04C19.5002 38.28 18.5101 39.23 17.2601 39.47C15.7701 39.76 14.3202 38.78 14.0302 37.3C13.9302 36.8 14.2602 36.31 14.7702 36.21C15.2802 36.11 15.7602 36.44 15.8602 36.95C15.9502 37.43 16.4202 37.74 16.9102 37.65C17.4302 37.55 17.8502 37.15 17.9702 36.63C18.1102 36.03 17.8102 35.41 17.1602 34.92C16.7302 34.6 16.2102 34.47 15.7202 34.57C14.7002 34.77 13.8902 35.54 13.6602 36.55C13.4002 37.69 13.9101 38.85 15.0801 39.74C15.8901 40.36 16.8502 40.6 17.7902 40.41C17.9002 40.39 18.0002 40.36 18.1102 40.33C19.4302 39.98 20.4301 39.01 20.8701 37.67C21.3401 36.24 21.0601 34.69 20.1201 33.53L20.0001 33.37C19.2901 32.43 17.9502 31.34 16.5302 30.52C11.8802 27.91 11.7401 24.05 11.7401 23.51C11.7301 23.43 11.7302 23.35 11.7302 23.26C11.7002 22.38 12.0101 21.55 12.5801 20.88ZM16.5902 22.6C16.5302 21.92 15.9202 21.41 15.2302 21.46C14.7502 21.5 14.3101 21.72 13.9901 22.09C13.8901 22.21 13.8001 22.34 13.7401 22.47C13.8901 22.32 14.0901 22.22 14.3201 22.21C14.8301 22.17 15.2801 22.55 15.3201 23.06C15.3301 23.24 15.4601 23.4 15.6301 23.46C15.8501 23.54 16.1102 23.44 16.3602 23.19C16.5002 23.04 16.5902 22.84 16.5902 22.65C16.5902 22.64 16.5902 22.62 16.5902 22.6Z" fill="url(#paint18_linear_105_434)"/>
<path d="M3.72014 32.34L3.81011 32.22C4.68011 31.07 6.19015 29.82 7.86015 28.88C11.1502 27.04 11.6201 24.56 11.6901 23.76C11.4701 24.43 10.9501 24.97 10.2601 25.21C9.33012 25.54 8.33012 25.27 7.57012 24.48C7.04012 23.93 6.76013 23.17 6.83013 22.43C6.98013 20.73 8.49011 19.46 10.1901 19.6C11.1701 19.68 12.0601 20.13 12.6901 20.87C13.3201 21.6 13.6301 22.54 13.5601 23.49C13.5801 24.05 13.4101 27.89 8.77013 30.49C7.34013 31.31 6.01014 32.4 5.28014 33.36L5.17015 33.5C4.24015 34.66 3.96015 36.21 4.42015 37.64C4.86015 38.98 5.8601 39.95 7.1801 40.3C7.2801 40.33 7.39011 40.35 7.50011 40.37C8.44011 40.55 9.40013 40.31 10.2101 39.7C11.3801 38.81 11.8901 37.65 11.6301 36.51C11.3901 35.5 10.5901 34.73 9.57012 34.53C9.08012 34.44 8.56011 34.56 8.13011 34.88C7.48011 35.37 7.19012 35.99 7.32012 36.59C7.44012 37.11 7.85011 37.51 8.38011 37.61C8.86011 37.7 9.3301 37.39 9.4301 36.91C9.5301 36.41 10.0201 36.08 10.5201 36.17C11.0301 36.27 11.3601 36.76 11.2601 37.26C10.9701 38.75 9.52014 39.72 8.03014 39.43C6.78014 39.19 5.79012 38.23 5.51012 37C5.20012 35.67 5.77013 34.32 7.02013 33.38C7.87013 32.75 8.92015 32.5 9.92015 32.69C11.6602 33.03 13.0401 34.35 13.4401 36.07C13.8701 37.93 13.0901 39.83 11.3401 41.16C10.1201 42.09 8.59013 42.46 7.15013 42.18C7.00013 42.15 6.85012 42.11 6.70012 42.08C4.76012 41.56 3.29013 40.14 2.65013 38.2C2.44013 37.55 2.34013 36.89 2.34013 36.23C2.34013 34.85 2.81014 33.47 3.72014 32.34ZM11.2801 22.09C10.9701 21.72 10.5301 21.5 10.0401 21.46C9.35015 21.41 8.7401 21.92 8.6801 22.6C8.6601 22.82 8.75014 23.03 8.91014 23.19C9.15014 23.44 9.41012 23.54 9.64012 23.46C9.81012 23.4 9.94012 23.24 9.95012 23.06C9.99012 22.55 10.4401 22.16 10.9501 22.21C11.1801 22.23 11.3801 22.33 11.5301 22.47C11.4601 22.34 11.3801 22.21 11.2801 22.09Z" fill="url(#paint19_linear_105_434)"/>
<defs>
<linearGradient id="paint0_linear_105_434" x1="-739.316" y1="-312.744" x2="314.301" y2="284.025" gradientUnits="userSpaceOnUse">
<stop stop-color="#EEDEBC"/>
<stop offset="0.059" stop-color="#DDC6A3"/>
<stop offset="0.1398" stop-color="#C9A885"/>
<stop offset="0.2581" stop-color="#9A7A5F"/>
<stop offset="0.3602" stop-color="#C9A885"/>
<stop offset="0.4892" stop-color="#EEDEBC"/>
<stop offset="0.5415" stop-color="#DDC6A3"/>
<stop offset="0.6129" stop-color="#C9A885"/>
<stop offset="0.7204" stop-color="#9A7A5F"/>
<stop offset="0.8387" stop-color="#C9A885"/>
<stop offset="1" stop-color="#EEDEBC"/>
</linearGradient>
<linearGradient id="paint1_linear_105_434" x1="-751.94" y1="-290.456" x2="301.678" y2="306.309" gradientUnits="userSpaceOnUse">
<stop stop-color="#EEDEBC"/>
<stop offset="0.059" stop-color="#DDC6A3"/>
<stop offset="0.1398" stop-color="#C9A885"/>
<stop offset="0.2581" stop-color="#9A7A5F"/>
<stop offset="0.3602" stop-color="#C9A885"/>
<stop offset="0.4892" stop-color="#EEDEBC"/>
<stop offset="0.5415" stop-color="#DDC6A3"/>
<stop offset="0.6129" stop-color="#C9A885"/>
<stop offset="0.7204" stop-color="#9A7A5F"/>
<stop offset="0.8387" stop-color="#C9A885"/>
<stop offset="1" stop-color="#EEDEBC"/>
</linearGradient>
<linearGradient id="paint2_linear_105_434" x1="-733.596" y1="-322.807" x2="320.007" y2="273.939" gradientUnits="userSpaceOnUse">
<stop stop-color="#EEDEBC"/>
<stop offset="0.059" stop-color="#DDC6A3"/>
<stop offset="0.1398" stop-color="#C9A885"/>
<stop offset="0.2581" stop-color="#9A7A5F"/>
<stop offset="0.3602" stop-color="#C9A885"/>
<stop offset="0.4892" stop-color="#EEDEBC"/>
<stop offset="0.5415" stop-color="#DDC6A3"/>
<stop offset="0.6129" stop-color="#C9A885"/>
<stop offset="0.7204" stop-color="#9A7A5F"/>
<stop offset="0.8387" stop-color="#C9A885"/>
<stop offset="1" stop-color="#EEDEBC"/>
</linearGradient>
<linearGradient id="paint3_linear_105_434" x1="-759.5" y1="-277.111" x2="294.117" y2="319.658" gradientUnits="userSpaceOnUse">
<stop stop-color="#EEDEBC"/>
<stop offset="0.059" stop-color="#DDC6A3"/>
<stop offset="0.1398" stop-color="#C9A885"/>
<stop offset="0.2581" stop-color="#9A7A5F"/>
<stop offset="0.3602" stop-color="#C9A885"/>
<stop offset="0.4892" stop-color="#EEDEBC"/>
<stop offset="0.5415" stop-color="#DDC6A3"/>
<stop offset="0.6129" stop-color="#C9A885"/>
<stop offset="0.7204" stop-color="#9A7A5F"/>
<stop offset="0.8387" stop-color="#C9A885"/>
<stop offset="1" stop-color="#EEDEBC"/>
</linearGradient>
<linearGradient id="paint4_linear_105_434" x1="-764.828" y1="-267.702" x2="288.788" y2="329.065" gradientUnits="userSpaceOnUse">
<stop stop-color="#EEDEBC"/>
<stop offset="0.059" stop-color="#DDC6A3"/>
<stop offset="0.1398" stop-color="#C9A885"/>
<stop offset="0.2581" stop-color="#9A7A5F"/>
<stop offset="0.3602" stop-color="#C9A885"/>
<stop offset="0.4892" stop-color="#EEDEBC"/>
<stop offset="0.5415" stop-color="#DDC6A3"/>
<stop offset="0.6129" stop-color="#C9A885"/>
<stop offset="0.7204" stop-color="#9A7A5F"/>
<stop offset="0.8387" stop-color="#C9A885"/>
<stop offset="1" stop-color="#EEDEBC"/>
</linearGradient>
<linearGradient id="paint5_linear_105_434" x1="-770.648" y1="-257.428" x2="282.968" y2="339.34" gradientUnits="userSpaceOnUse">
<stop stop-color="#EEDEBC"/>
<stop offset="0.059" stop-color="#DDC6A3"/>
<stop offset="0.1398" stop-color="#C9A885"/>
<stop offset="0.2581" stop-color="#9A7A5F"/>
<stop offset="0.3602" stop-color="#C9A885"/>
<stop offset="0.4892" stop-color="#EEDEBC"/>
<stop offset="0.5415" stop-color="#DDC6A3"/>
<stop offset="0.6129" stop-color="#C9A885"/>
<stop offset="0.7204" stop-color="#9A7A5F"/>
<stop offset="0.8387" stop-color="#C9A885"/>
<stop offset="1" stop-color="#EEDEBC"/>
</linearGradient>
<linearGradient id="paint6_linear_105_434" x1="-769.979" y1="-258.61" x2="283.639" y2="338.159" gradientUnits="userSpaceOnUse">
<stop stop-color="#EEDEBC"/>
<stop offset="0.059" stop-color="#DDC6A3"/>
<stop offset="0.1398" stop-color="#C9A885"/>
<stop offset="0.2581" stop-color="#9A7A5F"/>
<stop offset="0.3602" stop-color="#C9A885"/>
<stop offset="0.4892" stop-color="#EEDEBC"/>
<stop offset="0.5415" stop-color="#DDC6A3"/>
<stop offset="0.6129" stop-color="#C9A885"/>
<stop offset="0.7204" stop-color="#9A7A5F"/>
<stop offset="0.8387" stop-color="#C9A885"/>
<stop offset="1" stop-color="#EEDEBC"/>
</linearGradient>
<linearGradient id="paint7_linear_105_434" x1="-763.77" y1="-269.575" x2="289.85" y2="327.195" gradientUnits="userSpaceOnUse">
<stop stop-color="#EEDEBC"/>
<stop offset="0.059" stop-color="#DDC6A3"/>
<stop offset="0.1398" stop-color="#C9A885"/>
<stop offset="0.2581" stop-color="#9A7A5F"/>
<stop offset="0.3602" stop-color="#C9A885"/>
<stop offset="0.4892" stop-color="#EEDEBC"/>
<stop offset="0.5415" stop-color="#DDC6A3"/>
<stop offset="0.6129" stop-color="#C9A885"/>
<stop offset="0.7204" stop-color="#9A7A5F"/>
<stop offset="0.8387" stop-color="#C9A885"/>
<stop offset="1" stop-color="#EEDEBC"/>
</linearGradient>
<linearGradient id="paint8_linear_105_434" x1="-764.034" y1="-269.105" x2="289.584" y2="327.664" gradientUnits="userSpaceOnUse">
<stop stop-color="#EEDEBC"/>
<stop offset="0.059" stop-color="#DDC6A3"/>
<stop offset="0.1398" stop-color="#C9A885"/>
<stop offset="0.2581" stop-color="#9A7A5F"/>
<stop offset="0.3602" stop-color="#C9A885"/>
<stop offset="0.4892" stop-color="#EEDEBC"/>
<stop offset="0.5415" stop-color="#DDC6A3"/>
<stop offset="0.6129" stop-color="#C9A885"/>
<stop offset="0.7204" stop-color="#9A7A5F"/>
<stop offset="0.8387" stop-color="#C9A885"/>
<stop offset="1" stop-color="#EEDEBC"/>
</linearGradient>
<linearGradient id="paint9_linear_105_434" x1="-758.204" y1="-279.37" x2="295.403" y2="317.38" gradientUnits="userSpaceOnUse">
<stop stop-color="#EEDEBC"/>
<stop offset="0.059" stop-color="#DDC6A3"/>
<stop offset="0.1398" stop-color="#C9A885"/>
<stop offset="0.2581" stop-color="#9A7A5F"/>
<stop offset="0.3602" stop-color="#C9A885"/>
<stop offset="0.4892" stop-color="#EEDEBC"/>
<stop offset="0.5415" stop-color="#DDC6A3"/>
<stop offset="0.6129" stop-color="#C9A885"/>
<stop offset="0.7204" stop-color="#9A7A5F"/>
<stop offset="0.8387" stop-color="#C9A885"/>
<stop offset="1" stop-color="#EEDEBC"/>
</linearGradient>
<linearGradient id="paint10_linear_105_434" x1="-757.955" y1="-279.838" x2="295.663" y2="316.931" gradientUnits="userSpaceOnUse">
<stop stop-color="#EEDEBC"/>
<stop offset="0.059" stop-color="#DDC6A3"/>
<stop offset="0.1398" stop-color="#C9A885"/>
<stop offset="0.2581" stop-color="#9A7A5F"/>
<stop offset="0.3602" stop-color="#C9A885"/>
<stop offset="0.4892" stop-color="#EEDEBC"/>
<stop offset="0.5415" stop-color="#DDC6A3"/>
<stop offset="0.6129" stop-color="#C9A885"/>
<stop offset="0.7204" stop-color="#9A7A5F"/>
<stop offset="0.8387" stop-color="#C9A885"/>
<stop offset="1" stop-color="#EEDEBC"/>
</linearGradient>
<linearGradient id="paint11_linear_105_434" x1="-775.563" y1="-248.739" x2="278.051" y2="348.021" gradientUnits="userSpaceOnUse">
<stop stop-color="#EEDEBC"/>
<stop offset="0.059" stop-color="#DDC6A3"/>
<stop offset="0.1398" stop-color="#C9A885"/>
<stop offset="0.2581" stop-color="#9A7A5F"/>
<stop offset="0.3602" stop-color="#C9A885"/>
<stop offset="0.4892" stop-color="#EEDEBC"/>
<stop offset="0.5415" stop-color="#DDC6A3"/>
<stop offset="0.6129" stop-color="#C9A885"/>
<stop offset="0.7204" stop-color="#9A7A5F"/>
<stop offset="0.8387" stop-color="#C9A885"/>
<stop offset="1" stop-color="#EEDEBC"/>
</linearGradient>
<linearGradient id="paint12_linear_105_434" x1="-776.632" y1="-246.861" x2="276.986" y2="349.907" gradientUnits="userSpaceOnUse">
<stop stop-color="#EEDEBC"/>
<stop offset="0.059" stop-color="#DDC6A3"/>
<stop offset="0.1398" stop-color="#C9A885"/>
<stop offset="0.2581" stop-color="#9A7A5F"/>
<stop offset="0.3602" stop-color="#C9A885"/>
<stop offset="0.4892" stop-color="#EEDEBC"/>
<stop offset="0.5415" stop-color="#DDC6A3"/>
<stop offset="0.6129" stop-color="#C9A885"/>
<stop offset="0.7204" stop-color="#9A7A5F"/>
<stop offset="0.8387" stop-color="#C9A885"/>
<stop offset="1" stop-color="#EEDEBC"/>
</linearGradient>
<linearGradient id="paint13_linear_105_434" x1="-758.103" y1="-279.577" x2="295.513" y2="317.19" gradientUnits="userSpaceOnUse">
<stop stop-color="#EEDEBC"/>
<stop offset="0.059" stop-color="#DDC6A3"/>
<stop offset="0.1398" stop-color="#C9A885"/>
<stop offset="0.2581" stop-color="#9A7A5F"/>
<stop offset="0.3602" stop-color="#C9A885"/>
<stop offset="0.4892" stop-color="#EEDEBC"/>
<stop offset="0.5415" stop-color="#DDC6A3"/>
<stop offset="0.6129" stop-color="#C9A885"/>
<stop offset="0.7204" stop-color="#9A7A5F"/>
<stop offset="0.8387" stop-color="#C9A885"/>
<stop offset="1" stop-color="#EEDEBC"/>
</linearGradient>
<linearGradient id="paint14_linear_105_434" x1="-732.388" y1="-324.973" x2="321.229" y2="271.793" gradientUnits="userSpaceOnUse">
<stop stop-color="#EEDEBC"/>
<stop offset="0.059" stop-color="#DDC6A3"/>
<stop offset="0.1398" stop-color="#C9A885"/>
<stop offset="0.2581" stop-color="#9A7A5F"/>
<stop offset="0.3602" stop-color="#C9A885"/>
<stop offset="0.4892" stop-color="#EEDEBC"/>
<stop offset="0.5415" stop-color="#DDC6A3"/>
<stop offset="0.6129" stop-color="#C9A885"/>
<stop offset="0.7204" stop-color="#9A7A5F"/>
<stop offset="0.8387" stop-color="#C9A885"/>
<stop offset="1" stop-color="#EEDEBC"/>
</linearGradient>
<linearGradient id="paint15_linear_105_434" x1="-738.169" y1="-314.769" x2="315.448" y2="281.998" gradientUnits="userSpaceOnUse">
<stop stop-color="#EEDEBC"/>
<stop offset="0.059" stop-color="#DDC6A3"/>
<stop offset="0.1398" stop-color="#C9A885"/>
<stop offset="0.2581" stop-color="#9A7A5F"/>
<stop offset="0.3602" stop-color="#C9A885"/>
<stop offset="0.4892" stop-color="#EEDEBC"/>
<stop offset="0.5415" stop-color="#DDC6A3"/>
<stop offset="0.6129" stop-color="#C9A885"/>
<stop offset="0.7204" stop-color="#9A7A5F"/>
<stop offset="0.8387" stop-color="#C9A885"/>
<stop offset="1" stop-color="#EEDEBC"/>
</linearGradient>
<linearGradient id="paint16_linear_105_434" x1="-735.111" y1="-320.169" x2="318.504" y2="276.6" gradientUnits="userSpaceOnUse">
<stop stop-color="#EEDEBC"/>
<stop offset="0.059" stop-color="#DDC6A3"/>
<stop offset="0.1398" stop-color="#C9A885"/>
<stop offset="0.2581" stop-color="#9A7A5F"/>
<stop offset="0.3602" stop-color="#C9A885"/>
<stop offset="0.4892" stop-color="#EEDEBC"/>
<stop offset="0.5415" stop-color="#DDC6A3"/>
<stop offset="0.6129" stop-color="#C9A885"/>
<stop offset="0.7204" stop-color="#9A7A5F"/>
<stop offset="0.8387" stop-color="#C9A885"/>
<stop offset="1" stop-color="#EEDEBC"/>
</linearGradient>
<linearGradient id="paint17_linear_105_434" x1="-696.607" y1="-388.154" x2="357.012" y2="208.618" gradientUnits="userSpaceOnUse">
<stop stop-color="#EEDEBC"/>
<stop offset="0.059" stop-color="#DDC6A3"/>
<stop offset="0.1398" stop-color="#C9A885"/>
<stop offset="0.2581" stop-color="#9A7A5F"/>
<stop offset="0.3602" stop-color="#C9A885"/>
<stop offset="0.4892" stop-color="#EEDEBC"/>
<stop offset="0.5415" stop-color="#DDC6A3"/>
<stop offset="0.6129" stop-color="#C9A885"/>
<stop offset="0.7204" stop-color="#9A7A5F"/>
<stop offset="0.8387" stop-color="#C9A885"/>
<stop offset="1" stop-color="#EEDEBC"/>
</linearGradient>
<linearGradient id="paint18_linear_105_434" x1="-703.249" y1="-376.418" x2="350.368" y2="220.347" gradientUnits="userSpaceOnUse">
<stop stop-color="#EEDEBC"/>
<stop offset="0.059" stop-color="#DDC6A3"/>
<stop offset="0.1398" stop-color="#C9A885"/>
<stop offset="0.2581" stop-color="#9A7A5F"/>
<stop offset="0.3602" stop-color="#C9A885"/>
<stop offset="0.4892" stop-color="#EEDEBC"/>
<stop offset="0.5415" stop-color="#DDC6A3"/>
<stop offset="0.6129" stop-color="#C9A885"/>
<stop offset="0.7204" stop-color="#9A7A5F"/>
<stop offset="0.8387" stop-color="#C9A885"/>
<stop offset="1" stop-color="#EEDEBC"/>
</linearGradient>
<linearGradient id="paint19_linear_105_434" x1="-705" y1="-373.329" x2="348.615" y2="223.438" gradientUnits="userSpaceOnUse">
<stop stop-color="#EEDEBC"/>
<stop offset="0.059" stop-color="#DDC6A3"/>
<stop offset="0.1398" stop-color="#C9A885"/>
<stop offset="0.2581" stop-color="#9A7A5F"/>
<stop offset="0.3602" stop-color="#C9A885"/>
<stop offset="0.4892" stop-color="#EEDEBC"/>
<stop offset="0.5415" stop-color="#DDC6A3"/>
<stop offset="0.6129" stop-color="#C9A885"/>
<stop offset="0.7204" stop-color="#9A7A5F"/>
<stop offset="0.8387" stop-color="#C9A885"/>
<stop offset="1" stop-color="#EEDEBC"/>
</linearGradient>
</defs>
</svg>
