<svg width="100" height="100" viewBox="0 0 100 100" fill="none" xmlns="http://www.w3.org/2000/svg">
<path d="M84.2795 27.2397C84.4 27.0229 84.5605 26.8208 84.7563 26.6484C85.208 26.2492 85.8305 26.0029 86.4428 25.993C87.005 25.9881 87.7027 26.2049 87.9486 26.6681C88.0892 26.9292 88.1343 27.3333 87.9938 27.6191C87.8984 27.8113 87.7328 27.9739 87.527 28.0823C87.1405 28.2794 86.8293 28.1168 86.4478 28.2005C85.1428 28.4765 85.8304 29.3536 86.2671 29.5803C86.5582 29.738 86.9147 29.7774 87.261 29.7626C90.7193 29.6246 89.6853 25.8747 88.9374 24.1255C88.1695 22.3368 86.9146 20.7008 86.4127 18.8185C86.1517 17.8379 86.2119 16.5025 87.0552 15.7092C87.1506 15.8176 87.2409 15.926 87.3312 16.0393C87.3814 16.1674 87.4417 16.2906 87.5019 16.4138C87.2861 17.084 87.3313 17.8872 87.3865 18.439C87.532 19.8533 88.1996 21.1443 88.827 22.4057C89.3641 23.4799 89.871 24.564 90.1772 25.7269C90.4432 26.7272 90.7594 27.9443 90.378 28.9939C89.7957 30.6003 87.7278 31.5513 86.0363 31.0043C84.415 30.4722 83.4312 28.7722 84.2795 27.2397Z" fill="#E0E0E0"/>
<path d="M89.1583 23.8691C89.1181 23.7804 89.0779 23.6917 89.0328 23.603C89.0779 23.6868 89.1181 23.7804 89.1583 23.8691Z" fill="#E0E0E0"/>
<path d="M98.8657 14.2359C99.1418 15.2707 98.9762 16.4779 98.168 17.3353C97.3599 18.1927 95.834 18.5524 94.8904 17.9365C93.9468 17.3205 94.0672 15.7191 95.2016 15.246C95.824 14.9849 96.597 15.0785 97.1391 14.6941C97.6008 14.3689 97.7414 13.7677 97.5757 13.2947C97.4151 12.8217 97.0085 12.457 96.5568 12.1762C93.1386 10.0672 88.4556 12.6295 87.7379 16.1872C87.0854 19.4246 89.4294 22.0017 91.8286 24.2388C93.0935 25.4215 95.9796 25.9881 96.9533 23.9284C97.0487 23.7313 97.1792 23.4751 97.4151 23.4898C97.5005 23.4948 97.5757 23.544 97.641 23.5933C98.1329 23.9727 98.3638 24.5788 98.3487 25.18C98.3287 25.9536 97.9422 26.7913 97.3298 27.3777C97.0587 27.6389 96.0951 27.9444 95.9646 28.2104C95.819 28.5061 96.5267 29.5507 96.6622 29.8365C97.9873 32.5221 99.8194 35.3899 98.8858 38.5583C98.685 39.2433 98.0375 38.9082 97.7564 38.5189C97.1842 37.7305 96.3058 37.1244 95.8139 36.2917C95.4827 36.4198 95.1966 36.7154 94.8352 36.8534C94.4186 37.0111 93.9719 37.0751 93.5352 37.0505C91.8939 36.9618 90.9402 35.8432 90.7193 34.636C90.6792 34.429 90.9552 34.2763 91.166 34.4044C92.456 35.1682 93.2892 33.478 93.3494 32.7389C93.4147 31.8913 93.2992 31.0438 93.1637 30.211C92.8877 28.5652 92.0495 27.1855 90.9954 25.8994C88.8321 23.8397 86.9498 21.4498 86.2371 18.646C85.7101 16.5715 86.0966 14.1324 87.8182 12.4964C88.4807 11.8657 89.3039 11.3877 90.1923 11.0625C90.624 10.9048 91.0707 10.7817 91.5225 10.6979C94.6445 10.1115 98.143 11.5553 98.8657 14.2359Z" fill="#E0E0E0"/>
<path d="M72.0624 14.6989C72.2833 14.5807 72.4891 14.423 72.6647 14.2308C73.0713 13.7873 73.3223 13.1763 73.3324 12.5752C73.3374 12.0233 73.1165 11.3383 72.6446 11.0969C72.3786 10.9589 71.9671 10.9146 71.6759 11.0525C71.4802 11.1462 71.3145 11.3088 71.2041 11.5108C71.0033 11.8902 71.169 12.1957 71.0836 12.5702C70.8026 13.8514 69.9092 13.1763 69.6783 12.7476C69.5176 12.4618 69.4775 12.112 69.4926 11.772C69.6331 8.37687 73.4528 9.39195 75.2346 10.1262C77.0567 10.8801 78.7231 12.112 80.6405 12.6047C81.6393 12.861 82.9996 12.8018 83.8077 11.974C83.6973 11.8804 83.5868 11.7917 83.4714 11.703C83.3409 11.6537 83.2154 11.5946 83.0899 11.5354C82.4073 11.7473 81.5891 11.703 81.027 11.6488C79.5864 11.5059 78.2713 10.8505 76.9864 10.2346C75.8922 9.70732 74.7879 9.20963 73.6034 8.90905C72.5844 8.64789 71.3447 8.33746 70.2755 8.71195C68.6392 9.28355 67.6705 11.3137 68.2277 12.9743C68.7698 14.5659 70.5014 15.5317 72.0624 14.6989Z" fill="#E0E0E0"/>
<path d="M75.4958 9.90918C75.5861 9.9486 75.6765 9.98802 75.7668 10.0324C75.6765 9.98802 75.5861 9.9486 75.4958 9.90918Z" fill="#E0E0E0"/>
<path d="M85.3085 0.379259C84.2545 0.108243 83.0247 0.270852 82.1514 1.06419C81.273 1.85753 80.9116 3.35551 81.539 4.2819C82.1664 5.20828 83.7977 5.09 84.2795 3.97637C84.5456 3.36536 84.4502 2.60652 84.8417 2.07434C85.178 1.62101 85.7853 1.48303 86.2672 1.64564C86.749 1.80332 87.1205 2.20246 87.4066 2.64594C89.5548 6.00161 86.9448 10.599 83.3208 11.3037C80.0231 11.9443 77.398 9.64307 75.1193 7.2877C73.9146 6.04595 73.3374 3.21261 75.4355 2.25666C75.6363 2.16304 75.8973 2.03492 75.8822 1.80332C75.8772 1.71956 75.827 1.64564 75.7768 1.58159C75.3903 1.09868 74.7729 0.872014 74.1606 0.886797C73.3725 0.906507 72.5193 1.28593 71.922 1.88709C71.6559 2.15318 71.3448 3.09927 71.0737 3.22739C70.7726 3.37029 69.7085 2.6755 69.4224 2.54245C66.6868 1.24157 63.7655 -0.556983 60.5381 0.359544C59.8404 0.556647 60.1818 1.1923 60.5783 1.46825C61.3814 2.02999 61.9988 2.89231 62.847 3.37521C62.7165 3.70043 62.4154 3.98131 62.2748 4.33609C62.1142 4.74508 62.049 5.18363 62.0741 5.61233C62.1644 7.22364 63.3038 8.15989 64.5335 8.3767C64.7443 8.41612 64.8999 8.1451 64.7694 7.93814C63.9914 6.67176 65.7131 5.85378 66.466 5.79465C67.3293 5.73059 68.1926 5.84392 69.0409 5.97696C70.7173 6.24798 72.1227 7.07089 73.4328 8.10568C75.5309 10.2295 77.9652 12.0773 80.8212 12.777C82.9344 13.2944 85.4189 12.915 87.0853 11.2248C87.7278 10.5744 88.2147 9.76627 88.546 8.89409C88.7066 8.47032 88.8321 8.03177 88.9174 7.58829C89.5047 4.52827 88.039 1.08883 85.3085 0.379259Z" fill="#E0E0E0"/>
<path d="M31.2254 3.90248L33.1126 1.06421L34.9999 3.90248C35.3964 4.49872 35.3212 5.30191 34.8142 5.80945L33.1076 7.5341L31.4011 5.80945C30.9042 5.29698 30.8238 4.49872 31.2254 3.90248Z" fill="#E0E0E0"/>
<path d="M35 11.1609L33.1127 13.9992L31.2254 11.1609C30.8289 10.5647 30.9042 9.76148 31.4111 9.25394L33.1177 7.5293L34.8243 9.25394C35.3212 9.76148 35.4015 10.5647 35 11.1609Z" fill="#E0E0E0"/>
<path d="M39.9238 4.46431L42.6192 7.18432L44.0196 5.76518C44.3408 5.43996 44.7876 5.48431 45.0737 5.86374C45.5907 6.5536 45.0938 7.53417 44.2304 7.53417C45.0938 7.53417 45.5856 8.51477 45.0737 9.20463C44.7876 9.58405 44.3408 9.62346 44.0196 9.30317L42.6192 7.88404L39.9238 10.6041C39.2312 11.3038 38.137 11.3777 37.359 10.7814L33.1126 7.53417L37.359 4.28691C38.137 3.68575 39.2312 3.7646 39.9238 4.46431Z" fill="#E0E0E0"/>
<path d="M21.9848 7.52935C21.0612 7.52935 20.5944 6.42064 21.2419 5.76528C21.5632 5.44006 22.0099 5.48441 22.296 5.86383L23.4203 7.37167L26.2964 4.46441C26.989 3.76469 28.0833 3.69077 28.8613 4.28701L33.1076 7.53427L28.8613 10.7815C28.0833 11.3778 26.984 11.3039 26.2964 10.6041L23.4203 7.69689L22.296 9.20472C22.0099 9.58415 21.5632 9.62356 21.2419 9.30326C20.5944 8.64297 21.0612 7.52935 21.9848 7.52935Z" fill="#E0E0E0"/>
<path d="M88.4707 0.443485C88.4707 3.34582 89.6854 5.99192 91.6479 7.91367C93.6055 9.83543 96.3008 11.0328 99.2572 11.0328H99.3224C99.5734 11.0328 99.7742 11.2299 99.7742 11.4714C99.7742 11.7178 99.5734 11.9149 99.3275 11.9149H99.2622C92.8475 11.9099 87.5772 6.74091 87.5772 0.443485C87.5772 0.197107 87.778 0 88.029 0C88.2649 0.00492756 88.4707 0.202035 88.4707 0.443485Z" fill="#E0E0E0"/>
<path d="M92.0896 0.295654H99.2822L99.4328 0.443483L99.478 7.50468L99.3274 7.65251H99.2822C95.2517 7.65251 91.939 4.40032 91.939 0.443483L92.0896 0.295654Z" fill="#E0E0E0"/>
<path d="M1.89729 9.39192C2.94514 9.39192 3.79461 8.558 3.79461 7.52931C3.79461 6.50061 2.94514 5.66669 1.89729 5.66669C0.849437 5.66669 0 6.50061 0 7.52931C0 8.558 0.849437 9.39192 1.89729 9.39192Z" fill="#E0E0E0"/>
<path d="M84.1891 22.3957C82.4825 21.4052 82.7536 18.4733 83.2305 16.3348C83.2907 16.0785 83.3509 15.8321 83.4112 15.6055C83.1903 15.6942 82.9544 15.7829 82.7034 15.8666C80.6003 16.5861 77.659 17.2119 76.4544 15.6695C76.0227 18.3994 78.6076 19.0351 82.1262 17.0345C80.53 20.7006 81.4837 23.1446 84.1891 22.3957Z" fill="#E0E0E0"/>
<path d="M89.7156 68.1432L86.8244 66.2905L89.7156 64.4377C90.3229 64.0484 91.1411 64.1223 91.658 64.62L93.4148 66.2954L91.658 67.9708C91.136 68.4586 90.3229 68.5374 89.7156 68.1432Z" fill="#E0E0E0"/>
<path d="M97.109 64.4377L100 66.2905L97.109 68.1433C96.5017 68.5325 95.6835 68.4586 95.1665 67.9609L93.4098 66.2856L95.1665 64.6102C95.6835 64.1224 96.5017 64.0435 97.109 64.4377Z" fill="#E0E0E0"/>
<path d="M90.2826 59.6037L93.0533 56.9576L91.6078 55.5828C91.2765 55.2674 91.3217 54.8288 91.7082 54.548C92.4109 54.0404 93.4097 54.5283 93.4097 55.3758C93.4097 54.5283 94.4085 54.0454 95.1112 54.548C95.4977 54.8288 95.5379 55.2674 95.2117 55.5828L93.7661 56.9576L96.5368 59.6037C97.2495 60.2837 97.3248 61.3579 96.7175 62.1216L93.4097 66.2904L90.102 62.1216C89.4946 61.3579 89.5749 60.2837 90.2826 59.6037Z" fill="#E0E0E0"/>
<path d="M93.4099 77.2149C93.4099 78.1216 92.2805 78.5798 91.6129 77.9442C91.2816 77.6288 91.3269 77.1903 91.7133 76.9094L93.2492 75.8056L90.2878 72.9821C89.5751 72.3021 89.4998 71.2279 90.1071 70.4641L93.4148 66.2954L96.7226 70.4641C97.33 71.2279 97.2547 72.307 96.5419 72.9821L93.5805 75.8056L95.1164 76.9094C95.5029 77.1903 95.5431 77.6288 95.2168 77.9442C94.5442 78.5798 93.4099 78.1216 93.4099 77.2149Z" fill="#E0E0E0"/>
<path d="M93.4097 99.9999C94.4587 99.9999 95.307 99.1671 95.307 98.1373C95.307 97.1074 94.4587 96.2747 93.4097 96.2747C92.3607 96.2747 91.5124 97.1074 91.5124 98.1373C91.5124 99.1622 92.3607 99.9999 93.4097 99.9999Z" fill="#E0E0E0"/>
<path d="M9.88805 6.71606H56.3369C56.7936 6.71606 57.1651 7.08072 57.1651 7.52912C57.1651 7.97753 56.7936 8.34217 56.3369 8.34217H9.88805C9.43129 8.34217 9.05988 7.97753 9.05988 7.52912C9.05988 7.08072 9.43129 6.71606 9.88805 6.71606Z" fill="#E0E0E0"/>
<path d="M93.4097 42.6777C93.8664 42.6777 94.2378 43.0424 94.2378 43.4908V89.0905C94.2378 89.5389 93.8664 89.9035 93.4097 89.9035C92.9529 89.9035 92.5815 89.5389 92.5815 89.0905V43.4908C92.5815 43.0424 92.9529 42.6777 93.4097 42.6777Z" fill="#E0E0E0"/>
</svg>
