<svg width="117" height="118" viewBox="0 0 117 118" fill="none" xmlns="http://www.w3.org/2000/svg">
<path d="M71.9801 82.2982C72.3401 81.6382 72.8201 81.0282 73.4001 80.4982C74.7401 79.2782 76.6001 78.5382 78.4301 78.5182C80.1001 78.4982 82.1801 79.1582 82.9201 80.5582C83.3401 81.3482 83.4701 82.5682 83.0501 83.4382C82.7701 84.0182 82.2801 84.5182 81.6601 84.8382C80.5101 85.4382 79.5701 84.9482 78.4401 85.1882C74.5501 86.0182 76.6101 88.6782 77.9001 89.3782C78.7701 89.8482 79.8201 89.9682 80.8601 89.9282C91.1601 89.5082 88.0901 78.1282 85.8501 72.8182C83.5701 67.3982 79.8301 62.4282 78.3301 56.7082C77.5501 53.7282 77.7401 49.6882 80.2401 47.2682C80.5201 47.5982 80.7901 47.9282 81.0701 48.2682C81.2301 48.6482 81.4001 49.0282 81.5701 49.4082C80.9301 51.4382 81.0601 53.8782 81.2301 55.5582C81.6601 59.8582 83.6501 63.7682 85.5201 67.5882C87.1201 70.8582 88.6301 74.1382 89.5501 77.6582C90.3401 80.6882 91.2901 84.3882 90.1501 87.5782C88.4201 92.4582 82.2501 95.3282 77.2101 93.6782C72.3901 92.1082 69.4701 86.9482 71.9801 82.2982Z" fill="white"/>
<path d="M86.146 72.0682C86.1459 71.7982 86.1458 71.5282 86.1458 71.2582C86.1458 71.5282 86.1459 71.7982 86.146 72.0682Z" fill="white"/>
<path d="M115.436 42.8382C116.266 45.9682 115.766 49.6382 113.346 52.2482C110.936 54.8582 106.396 55.9482 103.586 54.0782C100.766 52.2082 101.136 47.3482 104.506 45.9182C106.366 45.1282 108.656 45.4182 110.276 44.2482C111.656 43.2582 112.066 41.4382 111.576 39.9982C111.096 38.5582 109.876 37.4482 108.536 36.6082C98.3459 30.2082 84.3959 37.9882 82.2659 48.7782C80.3159 58.5982 87.3059 66.4182 94.4459 73.2182C98.2159 76.8082 106.816 78.5282 109.706 72.2782C109.986 71.6782 110.386 70.8982 111.076 70.9482C111.336 70.9682 111.556 71.1082 111.746 71.2582C113.206 72.4182 113.906 74.2482 113.856 76.0782C113.796 78.4182 112.656 80.9682 110.826 82.7582C110.016 83.5482 107.146 84.4782 106.756 85.2882C106.326 86.1882 108.426 89.3582 108.846 90.2182C112.786 98.3582 118.256 107.068 115.476 116.688C114.876 118.768 112.946 117.738 112.116 116.578C110.416 114.178 107.786 112.348 106.326 109.828C105.346 110.218 104.486 111.118 103.406 111.528C102.166 111.998 100.826 112.198 99.5359 112.118C94.6359 111.848 91.8059 108.458 91.1459 104.788C91.0359 104.148 91.8459 103.698 92.4759 104.088C96.3259 106.408 98.8059 101.268 98.9759 99.0382C99.1759 96.4582 98.8359 93.8882 98.4159 91.3782C97.5959 86.3882 95.0959 82.1882 91.9559 78.2982C85.5059 72.0482 79.9059 64.7882 77.7759 56.2782C76.2059 49.9882 77.3559 42.5882 82.4959 37.6082C84.4659 35.6982 86.9259 34.2482 89.5759 33.2582C90.8659 32.7782 92.1959 32.4082 93.5459 32.1482C102.856 30.3282 113.276 34.6982 115.436 42.8382Z" fill="white"/>
<path d="M35.5858 44.2482C36.2458 43.8882 36.8558 43.4082 37.3858 42.8282C38.6058 41.4882 39.3459 39.6282 39.3659 37.7982C39.3859 36.1282 38.7258 34.0482 37.3258 33.3082C36.5358 32.8882 35.3158 32.7582 34.4458 33.1782C33.8658 33.4582 33.3659 33.9482 33.0459 34.5682C32.4459 35.7182 32.9358 36.6482 32.6958 37.7882C31.8658 41.6782 29.2059 39.6182 28.5059 38.3282C28.0359 37.4582 27.9158 36.4082 27.9558 35.3682C28.3758 25.0682 39.7559 28.1382 45.0659 30.3782C50.4859 32.6582 55.4559 36.3982 61.1759 37.8982C64.1559 38.6782 68.1959 38.4882 70.6159 35.9882C70.2859 35.7082 69.9559 35.4382 69.6159 35.1582C69.2359 34.9982 68.8559 34.8282 68.4759 34.6582C66.4459 35.2982 64.0058 35.1682 62.3258 34.9982C58.0258 34.5682 54.1159 32.5782 50.2959 30.7082C47.0259 29.1082 43.7459 27.5982 40.2259 26.6782C37.1959 25.8882 33.4959 24.9382 30.3059 26.0782C25.4259 27.8082 22.5558 33.9782 24.2058 39.0182C25.7658 43.8482 30.9258 46.7682 35.5858 44.2482Z" fill="white"/>
<path d="M45.8159 29.7182C46.0859 29.8382 46.3559 29.9582 46.6259 30.0882C46.3559 29.9582 46.0859 29.8382 45.8159 29.7182Z" fill="white"/>
<path d="M75.0509 0.798208C71.9209 -0.0317923 68.2509 0.468204 65.6409 2.8882C63.0309 5.2982 61.9409 9.83821 63.8109 12.6482C65.6809 15.4582 70.5409 15.0982 71.9709 11.7282C72.7609 9.86821 72.4709 7.5782 73.6409 5.9582C74.6309 4.5782 76.4509 4.16821 77.8909 4.65821C79.3309 5.13821 80.4409 6.35821 81.2809 7.69821C87.6809 17.8882 79.9009 31.8382 69.1109 33.9682C59.2909 35.9182 51.4709 28.9282 44.6709 21.7882C41.0809 18.0182 39.3609 9.4182 45.6109 6.5282C46.2109 6.2482 46.9909 5.84821 46.9409 5.15821C46.9209 4.89821 46.781 4.6782 46.631 4.4882C45.471 3.0282 43.6409 2.32821 41.8109 2.37821C39.4709 2.43821 36.921 3.57821 35.131 5.40821C34.341 6.21821 33.4109 9.08821 32.6009 9.47821C31.7009 9.90821 28.5309 7.8082 27.6709 7.3882C19.5309 3.4482 10.8209 -2.02179 1.2009 0.758207C-0.879102 1.35821 0.150944 3.28821 1.31094 4.11821C3.71094 5.81821 5.54094 8.44821 8.06094 9.90821C7.67094 10.8882 6.77093 11.7482 6.36093 12.8282C5.89093 14.0682 5.69091 15.4082 5.77091 16.6982C6.0409 21.5982 9.43092 24.4282 13.1009 25.0882C13.7409 25.1982 14.1909 24.3882 13.8009 23.7582C11.4809 19.9082 16.6209 17.4282 18.8509 17.2582C21.4309 17.0582 24.001 17.3982 26.511 17.8182C31.501 18.6382 35.7009 21.1382 39.5909 24.2782C45.8409 30.7282 53.1009 36.3282 61.6109 38.4582C67.9009 40.0282 75.3009 38.8782 80.2809 33.7382C82.1909 31.7682 83.641 29.3082 84.631 26.6582C85.111 25.3682 85.4809 24.0382 85.7409 22.6882C87.5609 13.3782 83.1809 2.94821 75.0509 0.798208Z" fill="white"/>
<path d="M71.7202 67.5982C66.6302 64.5882 67.4503 55.6882 68.8703 49.1982C69.0403 48.4182 69.2302 47.6682 69.4002 46.9882C68.7502 47.2582 68.0303 47.5282 67.2903 47.7782C61.0203 49.9682 52.2703 51.8582 48.6703 47.1782C47.3803 55.4682 55.0803 57.3882 65.5703 51.3182C60.8103 62.4582 63.6502 69.8782 71.7202 67.5982Z" fill="white"/>
<path d="M5.34998 32.8882L36.48 32.8882C37.36 32.8882 38.08 33.5982 38.08 34.4882C38.08 35.3682 37.37 36.0882 36.48 36.0882H5.34998C4.46998 36.0882 3.75 35.3682 3.75 34.4882C3.75 33.5982 4.46998 32.8882 5.34998 32.8882Z" fill="white"/>
<path d="M81.5841 80.7682C82.4641 80.7682 83.1841 81.4782 83.1841 82.3682V113.498C83.1841 114.378 82.4741 115.098 81.5841 115.098C80.7041 115.098 79.9841 114.378 79.9841 113.498V82.3682C79.9941 81.4782 80.7041 80.7682 81.5841 80.7682Z" fill="white"/>
<path d="M67.8051 5.0882C70.3651 5.0882 72.445 7.1682 72.445 9.7282C72.445 19.5782 76.4851 28.5482 83.0351 35.0982C89.5851 41.6382 98.5551 45.6882 108.405 45.6882H108.675C111.245 45.6782 113.325 47.7582 113.335 50.3182C113.345 52.8782 111.265 54.9682 108.705 54.9782H108.425H108.415C95.9951 54.9782 84.6651 49.8582 76.4851 41.6682C68.2951 33.4882 63.1751 22.1582 63.1751 9.73819C63.1651 7.16819 65.2451 5.0882 67.8051 5.0882Z" fill="white"/>
</svg>
