<svg width="51" height="51" viewBox="0 0 51 51" fill="none" xmlns="http://www.w3.org/2000/svg">
<path d="M20.2019 29.5524C20.0766 29.4192 19.9514 29.2935 19.8187 29.1677C18.5587 27.9917 16.805 27.4148 15.0219 27.5849C14.6682 27.6219 14.3219 27.6737 13.9903 27.755C11.9566 28.2284 10.4018 29.5228 9.79026 31.3423C9.47342 32.2816 9.43657 33.2727 9.65026 34.2047C9.87868 35.2032 10.4092 36.1351 11.1902 36.86C12.0524 37.6588 13.2313 38.0508 14.4398 37.9546C14.705 37.9324 14.9555 37.8955 15.1987 37.8363C16.5913 37.5109 17.6745 36.6159 18.1019 35.3511C18.3303 34.6855 18.3598 33.9902 18.205 33.3319C18.0429 32.6292 17.6745 31.9784 17.1292 31.4754C16.3482 30.7432 15.2797 30.4991 14.3145 30.7284C13.7397 30.8615 13.1945 31.1648 12.7597 31.6307C12.5534 31.8526 12.4871 32.1485 12.5534 32.4222C12.5903 32.5849 12.6787 32.7402 12.8039 32.8586C13.025 33.0657 13.3197 33.1322 13.5924 33.0656C13.7545 33.0287 13.9092 32.9399 14.0271 32.8141C14.2187 32.607 14.4545 32.4739 14.705 32.4148C15.1324 32.3186 15.5966 32.4222 15.9429 32.7476C16.2303 33.0139 16.4219 33.3541 16.5103 33.7239C16.5914 34.0716 16.5766 34.434 16.4587 34.7816C16.2229 35.4547 15.6629 35.9355 14.8082 36.1352C14.6461 36.1721 14.4692 36.2017 14.285 36.2165C13.5555 36.2757 12.8555 36.0464 12.3618 35.5804C11.8387 35.0923 11.4924 34.471 11.3376 33.8053C11.1903 33.184 11.2197 32.5257 11.426 31.897C11.846 30.6618 12.8629 29.8038 14.3513 29.4488C14.6092 29.3896 14.8892 29.3453 15.1766 29.3157C16.5029 29.1899 17.7187 29.5894 18.6324 30.4399C18.7356 30.5361 18.8313 30.6322 18.9271 30.7358C19.5535 31.4088 19.9661 32.2002 20.165 33.0508C20.3492 33.8422 20.3419 34.6928 20.1356 35.5434C19.6714 37.4221 18.3229 38.9236 16.525 39.5597L16.304 39.6336H16.2966C15.9576 39.7668 15.5598 39.8851 15.1324 39.9812C13.8577 40.2771 12.2734 40.425 10.7482 40.3659C9.38498 40.3067 8.19867 40.4325 7.16709 40.6691C3.33548 41.5641 1.72178 44.0567 1.49335 44.4487C1.43441 44.5226 1.3828 44.604 1.33123 44.6854C0.800695 45.536 0.601763 46.5419 0.749132 47.5404C0.76387 47.6513 0.785988 47.7623 0.808094 47.8658C1.03652 48.8421 1.59651 49.7075 2.41441 50.3066C3.28389 50.9501 4.35234 51.135 5.33234 50.9057C6.1134 50.7208 6.83551 50.277 7.3513 49.5892C7.85235 48.9161 8.03656 48.0359 7.85235 47.1927V47.1854L7.8376 47.1262C7.57233 45.9797 6.79129 45.1217 5.7376 44.8998C5.35444 44.8185 4.97126 44.8259 4.6102 44.9073C4.0281 45.0478 3.49023 45.388 3.1218 45.891C2.96707 46.1055 2.92285 46.3643 2.97442 46.6084C3.01864 46.8007 3.13654 46.9856 3.30602 47.1114C3.5197 47.2667 3.77758 47.3111 4.02073 47.2593C4.21231 47.2149 4.39652 47.104 4.52179 46.9265C4.63968 46.7637 4.81655 46.6528 5.00813 46.6084C5.12603 46.5788 5.25129 46.5788 5.37655 46.6084C5.56077 46.6454 5.71547 46.7416 5.8481 46.8895C5.98073 47.0374 6.09129 47.2519 6.15023 47.5256L6.15761 47.5625C6.23129 47.9176 6.1576 48.2948 5.96602 48.5463C5.70076 48.8939 5.33969 49.1232 4.94179 49.212C4.44074 49.3303 3.89545 49.2341 3.44597 48.9087C2.95965 48.5536 2.63547 48.0507 2.50283 47.4738C2.4881 47.4072 2.47337 47.3481 2.466 47.2815C2.36284 46.6232 2.52494 45.9723 2.91546 45.4398L2.92284 45.4324L2.96705 45.3658L2.97442 45.3584V45.351C3.026 45.2697 4.26389 43.1395 7.56497 42.3629C8.44918 42.1558 9.48075 42.0449 10.6818 42.104C12.3839 42.1706 14.0934 42.0153 15.5155 41.6824C16.0166 41.5641 16.4734 41.4236 16.8934 41.2682L17.0998 41.1943C19.4577 40.3659 21.2261 38.3984 21.8229 35.9502C22.0956 34.826 22.103 33.7017 21.8598 32.644C21.5946 31.5124 21.0345 30.4473 20.2019 29.5524Z" fill="#E0E0E0"/>
<path d="M29.2949 20.943C29.1623 20.8173 29.037 20.6842 28.9191 20.551C27.7697 19.2641 27.2392 17.4964 27.4381 15.7064C27.4823 15.3514 27.5412 15.0038 27.6297 14.6709C28.1455 12.6443 29.4644 11.1059 31.2918 10.529C32.235 10.2257 33.2224 10.2109 34.1434 10.4476C35.1308 10.699 36.0518 11.2464 36.7592 12.0452C37.5403 12.9254 37.9087 14.1162 37.7834 15.3292C37.754 15.5881 37.7098 15.8469 37.6508 16.091C37.2971 17.4815 36.3834 18.5466 35.1161 18.9534C34.4529 19.1679 33.7529 19.1827 33.1044 19.0126C32.4118 18.8351 31.7708 18.4505 31.2771 17.8957C30.5697 17.0969 30.3486 16.0245 30.5918 15.0555C30.7392 14.4786 31.0487 13.9387 31.5276 13.5171C31.7487 13.3174 32.0507 13.2508 32.3234 13.3248C32.4855 13.3691 32.6402 13.4579 32.7581 13.591C32.9571 13.8129 33.0234 14.1162 32.9497 14.3898C32.9055 14.5526 32.8171 14.7079 32.6845 14.8263C32.4782 15.0112 32.3382 15.2478 32.2718 15.4993C32.1613 15.9283 32.2645 16.3943 32.5739 16.7493C32.8318 17.0452 33.1708 17.2448 33.5318 17.3336C33.8708 17.4223 34.2392 17.415 34.5855 17.304C35.2634 17.0821 35.7497 16.5274 35.9708 15.6768C36.015 15.5141 36.0445 15.3366 36.0666 15.1517C36.1403 14.4195 35.9266 13.7168 35.4771 13.2064C35.0055 12.6739 34.3939 12.3115 33.7308 12.1414C33.1118 11.986 32.456 11.9934 31.8297 12.1931C30.5918 12.5852 29.7149 13.591 29.3318 15.0851C29.2655 15.344 29.2139 15.625 29.1844 15.9135C29.0297 17.2449 29.4055 18.4727 30.2308 19.4046C30.3265 19.5082 30.4223 19.6117 30.5181 19.7078C31.1739 20.3513 31.955 20.7803 32.8023 21.0022C33.5908 21.2019 34.4308 21.2167 35.2855 21.0244C37.1718 20.6028 38.6898 19.2789 39.3603 17.4815L39.4413 17.2671V17.2596C39.5813 16.9194 39.7066 16.5274 39.8098 16.0984C40.134 14.8262 40.3108 13.2434 40.2814 11.705C40.2445 10.3366 40.3992 9.14583 40.6571 8.11773C41.6298 4.28641 44.1424 2.71835 44.5329 2.49646C44.614 2.44468 44.6877 2.39294 44.7687 2.34116C45.6235 1.83081 46.633 1.64589 47.6277 1.816C47.7382 1.83819 47.8414 1.8604 47.9519 1.88259C48.9246 2.13407 49.7719 2.71098 50.354 3.54677C50.973 4.43434 51.1351 5.50679 50.8919 6.48312C50.693 7.25974 50.2362 7.97719 49.5362 8.48015C48.8583 8.96831 47.974 9.13103 47.1414 8.93872H47.134L47.0751 8.92391C45.9403 8.63545 45.1003 7.83666 44.9014 6.77159C44.8277 6.38697 44.8424 6.00234 44.9309 5.63992C45.0782 5.0556 45.4319 4.53047 45.9403 4.16805C46.154 4.02012 46.4193 3.97574 46.6551 4.03492C46.8466 4.08669 47.0235 4.20505 47.1488 4.37517C47.3035 4.58966 47.3404 4.85591 47.2814 5.09259C47.2298 5.2849 47.1193 5.4624 46.9424 5.58814C46.7803 5.70648 46.6624 5.87661 46.6109 6.06892C46.5814 6.18726 46.574 6.313 46.6035 6.43874C46.6403 6.62365 46.7287 6.77899 46.8761 6.91952C47.0235 7.05266 47.2372 7.17099 47.5025 7.23756L47.5393 7.24497C47.893 7.32632 48.2688 7.25972 48.5267 7.06741C48.8804 6.80854 49.1088 6.45352 49.2119 6.05411C49.3372 5.55116 49.2562 5.00385 48.9393 4.55267C48.593 4.06451 48.0993 3.71688 47.5319 3.57634C47.473 3.56155 47.4066 3.54676 47.3403 3.53197C46.6845 3.42102 46.0361 3.56155 45.4982 3.94616L45.4909 3.95357L45.4245 3.99054L45.4172 3.99794H45.4098C45.3214 4.04972 43.1772 5.24794 42.3445 8.53933C42.1235 9.4195 41.9908 10.455 42.0203 11.6606C42.0498 13.3691 41.8582 15.0777 41.4971 16.5052C41.3719 17.0008 41.2245 17.4668 41.055 17.881L40.9813 18.0806C40.1045 20.4327 38.115 22.1634 35.6613 22.7108C34.5339 22.9623 33.4139 22.9475 32.3676 22.6812C31.2181 22.3854 30.1644 21.801 29.2949 20.943Z" fill="#E0E0E0"/>
<path d="M23.0028 1.36476C23.187 1.40174 23.3713 1.45352 23.5555 1.50529C25.3018 2.00085 26.7681 3.27304 27.586 4.9816C27.7481 5.32183 27.8881 5.66203 27.9986 6.00966C28.6765 8.10284 28.3597 10.2108 27.0629 11.7641C26.3923 12.5629 25.5228 13.1324 24.5723 13.4431C23.5481 13.7759 22.4281 13.8054 21.3523 13.4948C20.166 13.1546 19.1712 12.2966 18.6038 11.1502C18.4786 10.8987 18.3828 10.6472 18.2944 10.3957C17.8302 8.96081 18.0438 7.49637 18.9428 6.4165C19.4144 5.84698 20.026 5.44754 20.6965 5.22565C21.4112 4.98896 22.1997 4.96678 22.9512 5.18868C24.0344 5.49932 24.8302 6.32773 25.1544 7.32624C25.346 7.91795 25.3681 8.58363 25.1839 9.22712C25.0954 9.53037 24.867 9.75963 24.587 9.84839C24.4175 9.90016 24.2334 9.90756 24.0565 9.85579C23.7544 9.76703 23.526 9.53775 23.4375 9.25669C23.386 9.08657 23.3786 8.90168 23.4302 8.72417C23.5113 8.4431 23.5039 8.15465 23.4155 7.89578C23.2755 7.45939 22.9218 7.08956 22.4428 6.95642C22.0449 6.84548 21.6323 6.85285 21.2565 6.97859C20.9028 7.09693 20.586 7.30405 20.3354 7.5999C19.8565 8.18422 19.7312 8.94605 20.0186 9.82622C20.0702 9.99634 20.1439 10.1665 20.2323 10.344C20.5712 11.0392 21.1681 11.5421 21.846 11.7345C22.5681 11.9416 23.3123 11.9194 23.9976 11.6975C24.6312 11.4904 25.2134 11.1058 25.6628 10.5806C26.5471 9.53033 26.7607 8.13986 26.2671 6.60141C26.1786 6.33514 26.0681 6.06144 25.9355 5.78038C25.3239 4.5082 24.307 3.62806 23.047 3.26563C22.907 3.22126 22.7597 3.19166 22.6197 3.16207C21.6765 2.96237 20.7407 3.01415 19.8639 3.30261C19.0533 3.56888 18.2944 4.03485 17.6386 4.68573C16.2017 6.12802 15.5901 8.16202 16.0028 10.1369L16.0544 10.3735V10.3809C16.1207 10.7582 16.2312 11.1798 16.3712 11.6235C16.7986 12.9327 17.5281 14.449 18.4123 15.7951C19.2081 16.9933 19.7459 18.1397 20.0849 19.1974C21.367 23.1545 20.0039 25.9651 19.7828 26.3867C19.746 26.4829 19.7017 26.5716 19.6575 26.6604C19.1786 27.5997 18.3901 28.332 17.4101 28.7388C17.2996 28.7831 17.1965 28.8201 17.0859 28.8571C16.0838 29.1825 15.0007 29.1456 14.0207 28.7314C12.9743 28.295 12.2228 27.4296 11.8985 26.4163C11.6406 25.6101 11.648 24.7151 11.987 23.8719C12.3185 23.0583 13.0112 22.4075 13.8659 22.1116H13.8733L13.9396 22.0894C15.1112 21.7048 16.3049 21.9489 17.0859 22.7773C17.3659 23.0731 17.5723 23.4281 17.6901 23.8054C17.8891 24.4119 17.867 25.0776 17.6165 25.6841C17.506 25.9429 17.2996 26.1279 17.0565 26.2018C16.8575 26.2684 16.6291 26.261 16.4228 26.1722C16.1649 26.0687 15.9807 25.8542 15.907 25.6101C15.8407 25.4104 15.848 25.1885 15.9291 24.974C16.0101 24.7743 16.0175 24.5598 15.9512 24.3601C15.9144 24.2343 15.848 24.1234 15.7522 24.0199C15.6196 23.8719 15.4501 23.7832 15.2364 23.7462C15.0301 23.7092 14.7796 23.724 14.4996 23.8202L14.4628 23.835C14.1017 23.9607 13.807 24.2343 13.6817 24.545C13.5122 24.974 13.5049 25.4252 13.6375 25.832C13.807 26.3497 14.1901 26.7935 14.7207 27.0154C15.3028 27.2595 15.9364 27.2817 16.5259 27.0893C16.5922 27.0672 16.6586 27.045 16.7175 27.0154C17.3659 26.7491 17.8596 26.2536 18.1249 25.6101L18.1323 25.6027L18.1691 25.5287V25.5213V25.5139C18.2133 25.4252 19.4512 23.1397 18.3533 19.7373C18.0586 18.8276 17.5943 17.8365 16.8943 16.7788C15.9143 15.2773 15.1185 13.6501 14.647 12.1709C14.4775 11.6605 14.3522 11.165 14.2712 10.699L14.227 10.4771C13.6891 7.89577 14.4922 5.22567 16.3638 3.35439C17.2259 2.49641 18.2281 1.87508 19.3112 1.52005C20.4828 1.17242 21.7428 1.09849 23.0028 1.36476Z" fill="#E0E0E0"/>
<path d="M0.0709743 22.8809C0.100449 23.0658 0.129934 23.2581 0.174145 23.443C0.549936 25.2255 1.71412 26.7788 3.35728 27.7107C3.68887 27.8956 4.02047 28.0583 4.35205 28.1915C6.38575 29.0125 8.50784 28.835 10.1289 27.6367C10.9689 27.0154 11.5952 26.1871 11.971 25.2551C12.3689 24.2566 12.4794 23.1324 12.2437 22.0377C11.9858 20.8247 11.1974 19.7744 10.0995 19.1309C9.85629 18.9904 9.61314 18.872 9.36998 18.7759C7.97734 18.2138 6.50365 18.3321 5.36891 19.1605C4.77206 19.5969 4.32994 20.1812 4.06467 20.8395C3.78467 21.5422 3.71098 22.3262 3.87309 23.0954C4.10888 24.1975 4.88257 25.0554 5.85521 25.44C6.43731 25.6693 7.08574 25.7433 7.74153 25.6027C8.05101 25.5362 8.28681 25.3217 8.39734 25.048C8.46365 24.8853 8.47839 24.7004 8.44155 24.5155C8.37523 24.2048 8.16154 23.9681 7.88891 23.8572C7.7268 23.7906 7.54261 23.7758 7.3584 23.8128C7.07103 23.872 6.79099 23.8424 6.53309 23.7463C6.10572 23.5762 5.76678 23.1989 5.66362 22.7108C5.5752 22.304 5.61942 21.8972 5.76679 21.5274C5.90679 21.1797 6.1352 20.8765 6.44467 20.6472C7.05626 20.2034 7.82261 20.1368 8.68472 20.477C8.84682 20.5436 9.01629 20.625 9.18577 20.7211C9.84893 21.1058 10.3131 21.7344 10.4605 22.4297C10.6226 23.1619 10.5489 23.909 10.2763 24.5821C10.0258 25.2034 9.61315 25.7581 9.05314 26.1723C7.94787 26.9859 6.55523 27.1116 5.05207 26.5125C4.7868 26.409 4.5289 26.2758 4.26364 26.1279C3.04047 25.4326 2.23731 24.3454 1.96468 23.0658C1.9352 22.9179 1.9057 22.7773 1.89096 22.6294C1.75833 21.6753 1.86886 20.7359 2.21518 19.8853C2.53202 19.0939 3.04782 18.3617 3.74046 17.7552C5.26573 16.409 7.33627 15.9357 9.26681 16.483L9.50261 16.5496H9.50998C9.88577 16.6457 10.291 16.7789 10.7258 16.9564C12.0005 17.4668 13.4595 18.3025 14.7416 19.2788C15.8763 20.159 16.9816 20.7655 18.0132 21.1871C21.8595 22.733 24.748 21.5643 25.1754 21.3646C25.2711 21.335 25.3669 21.2981 25.4554 21.2537C26.4206 20.8395 27.2017 20.0998 27.6732 19.1383C27.7248 19.0348 27.769 18.9238 27.8132 18.8203C28.2038 17.8365 28.2333 16.7567 27.8943 15.7434C27.5333 14.6635 26.7153 13.8573 25.7353 13.4653C24.9543 13.1473 24.0627 13.0955 23.2006 13.3765C22.368 13.6502 21.6753 14.3085 21.329 15.1369V15.1443L21.3069 15.2034C20.8427 16.3499 21.0048 17.5629 21.7785 18.3987C22.0585 18.7019 22.3901 18.9238 22.7585 19.0718C23.348 19.3084 24.0111 19.338 24.6301 19.1235C24.8879 19.0348 25.0943 18.8351 25.1827 18.5984C25.2637 18.4061 25.2711 18.1768 25.1974 17.9623C25.109 17.696 24.9101 17.5037 24.6743 17.4076C24.4827 17.3262 24.2543 17.3188 24.0406 17.3928C23.8416 17.4593 23.6206 17.4519 23.429 17.378C23.3111 17.3262 23.2006 17.2522 23.1048 17.1561C22.9722 17.0082 22.8911 16.8381 22.869 16.6236C22.8469 16.4165 22.8837 16.165 22.9869 15.8913L23.0016 15.8543C23.149 15.4993 23.4437 15.2256 23.7606 15.1221C24.1953 14.9815 24.6448 15.0037 25.0427 15.1665C25.5438 15.3662 25.9638 15.7804 26.148 16.3351C26.3469 16.9342 26.3322 17.5703 26.1037 18.1472C26.0816 18.2138 26.0522 18.273 26.0227 18.3395C25.7132 18.9682 25.1827 19.4342 24.5269 19.6561H24.5196L24.4458 19.6856H24.4385H24.4311C24.3353 19.73 21.9848 20.8099 18.6764 19.4786C17.7921 19.1235 16.8343 18.591 15.8321 17.8218C14.4027 16.7345 12.8405 15.8321 11.4037 15.2626C10.9026 15.0629 10.4237 14.9002 9.96682 14.7892L9.74578 14.7301C7.21103 14.02 4.5068 14.6413 2.51731 16.3943C1.60362 17.1931 0.918316 18.162 0.498314 19.2271C0.0488377 20.3513 -0.105869 21.6087 0.0709743 22.8809Z" fill="#E0E0E0"/>
<path d="M22.774 23.835C22.4866 23.6723 22.1845 23.5243 21.8824 23.406C21.9929 23.6871 22.1256 23.9829 22.2877 24.264C22.5456 24.7299 22.8772 25.1516 23.2382 25.3956C23.3487 25.4696 23.4372 25.4918 23.5182 25.4918C23.6361 25.4918 23.7466 25.4326 23.8277 25.3587C23.9087 25.2773 23.9677 25.1663 23.9603 25.048C23.9603 24.9666 23.9382 24.8779 23.8645 24.767C23.6435 24.4193 23.2308 24.1013 22.774 23.835Z" fill="#E0E0E0"/>
<path d="M24.86 26.3941L24.6831 26.2166L24.86 26.3941C24.4915 26.764 24.0125 26.9637 23.5262 26.9563C23.1504 26.9563 22.7673 26.838 22.4283 26.6087C21.5515 26.017 20.9768 24.9962 20.601 24.1234C20.2252 23.2433 20.0631 22.5037 20.0409 22.4297C20.0336 22.3779 20.0262 22.3335 20.0262 22.2818C20.0262 22.0747 20.1147 21.8972 20.2473 21.764C20.3799 21.6309 20.5567 21.5421 20.763 21.5421C20.8073 21.5421 20.8588 21.5495 20.9104 21.5569C20.9915 21.5717 21.7284 21.7418 22.5978 22.1117C23.4673 22.4889 24.4841 23.0658 25.0736 23.9459C25.302 24.2862 25.4199 24.6708 25.4199 25.048C25.4199 25.5435 25.2284 26.0243 24.86 26.3941ZM23.9684 25.048C23.9684 24.9666 23.9462 24.8779 23.8726 24.767C23.6441 24.4193 23.2389 24.1013 22.7747 23.835C22.4873 23.6723 22.1852 23.5244 21.8831 23.406C21.9936 23.6871 22.1262 23.9829 22.2883 24.264C22.5462 24.7299 22.8778 25.1516 23.2389 25.3956C23.3494 25.4696 23.4378 25.4918 23.5189 25.4918C23.6368 25.4918 23.7473 25.4326 23.8284 25.3587C23.9094 25.2773 23.9684 25.1663 23.9684 25.048Z" fill="#E0E0E0"/>
<path d="M29.0381 31.0539C29.3255 31.2166 29.6276 31.3645 29.9297 31.4829C29.8192 31.2018 29.6865 30.906 29.5244 30.6249C29.2665 30.1589 28.935 29.7373 28.5739 29.4933C28.4634 29.4193 28.375 29.3971 28.2939 29.3971C28.176 29.3971 28.0655 29.4563 27.9844 29.5303C27.9034 29.6116 27.8444 29.7226 27.8518 29.8409C27.8518 29.9223 27.8739 30.011 27.9476 30.122C28.176 30.4622 28.5813 30.7877 29.0381 31.0539Z" fill="#E0E0E0"/>
<path d="M26.9593 28.4946L27.1361 28.6721L26.9593 28.4946C27.3277 28.1248 27.8066 27.9251 28.2929 27.9324C28.6687 27.9324 29.0519 28.0508 29.3908 28.2801C30.2677 28.8718 30.8424 29.8925 31.2182 30.7653C31.594 31.6454 31.7561 32.3851 31.7782 32.459C31.7856 32.5108 31.793 32.5552 31.793 32.607C31.793 32.8141 31.7046 32.9916 31.5719 33.1247C31.4393 33.2579 31.2624 33.3466 31.0561 33.3466C31.0119 33.3466 30.9603 33.3392 30.9087 33.3318C30.8277 33.317 30.0909 33.1469 29.2214 32.7771C28.3519 32.3999 27.3351 31.823 26.7456 30.9428C26.5172 30.6025 26.3992 30.2179 26.3992 29.8407C26.3919 29.3452 26.5835 28.8644 26.9593 28.4946ZM27.8509 29.8407C27.8509 29.9221 27.8729 30.0108 27.9466 30.1218C28.175 30.4694 28.5803 30.7875 29.0445 31.0537C29.3319 31.2165 29.634 31.3644 29.9361 31.4827C29.8256 31.2016 29.6929 30.9058 29.5308 30.6247C29.2729 30.1588 28.9414 29.7372 28.5803 29.4931C28.4698 29.4191 28.3814 29.3969 28.3003 29.3969C28.1824 29.3969 28.0719 29.4561 27.9909 29.5301C27.9024 29.6115 27.8509 29.7224 27.8509 29.8407Z" fill="#E0E0E0"/>
<path d="M11.9785 11.2537C11.9785 12.2596 11.168 13.0732 10.1659 13.0732C9.16379 13.0732 8.35324 12.2596 8.35324 11.2537C8.35324 10.2478 9.16379 9.43419 10.1659 9.43419C11.168 9.4268 11.9785 10.2478 11.9785 11.2537Z" fill="#E0E0E0"/>
<path d="M20.1797 1.73445C20.1797 1.29067 19.8113 0.928223 19.3692 0.928223C14.3807 0.957808 9.60592 2.93264 6.07643 6.42373C2.54693 9.91482 0.5427 14.6485 0.498487 19.5967C0.491119 20.0405 0.852188 20.4103 1.2943 20.4103C1.7364 20.4103 2.10485 20.0553 2.10485 19.6115C2.1417 15.0997 3.96906 10.7728 7.20382 7.57756C10.4312 4.38232 14.8081 2.57762 19.3765 2.54803C19.8187 2.54064 20.1797 2.17823 20.1797 1.73445Z" fill="#E0E0E0"/>
<path d="M36.3253 21.3054C35.9348 21.3054 35.6179 21.616 35.6179 22.008C35.5884 25.9577 33.9821 29.7447 31.16 32.5331C28.3379 35.3289 24.5063 36.9117 20.5125 36.9339C20.122 36.9339 19.8125 37.252 19.8125 37.644C19.8125 38.036 20.1294 38.3466 20.5199 38.3466C24.8821 38.3171 29.06 36.5937 32.1473 33.539C35.2347 30.4843 36.9884 26.3423 37.0253 22.0154C37.0326 21.6234 36.7158 21.3054 36.3253 21.3054Z" fill="#E0E0E0"/>
</svg>
