<svg width="153" height="154" viewBox="0 0 153 154" fill="none" xmlns="http://www.w3.org/2000/svg">
<path d="M152.826 21.4364L152.392 21.5888L152.826 21.4364C152.579 20.7342 152.052 19.5418 151.038 18.2964C150.024 17.0576 148.523 15.7724 146.342 14.9179L146.301 14.9047H146.295C144.474 14.2025 142.405 13.8646 140.111 13.8977C136.902 13.9441 133.246 14.6927 129.163 16.1302C126.601 17.0311 123.833 18.2301 120.917 19.6942C107.361 26.5041 91.784 29.048 81.5837 29.1871C77.8145 29.2401 74.7791 28.9552 72.8844 28.465C71.1499 28.0145 69.8023 27.531 68.895 27.16C68.4413 26.9745 68.0945 26.8155 67.861 26.7029C67.7476 26.6499 67.6542 26.6035 67.6008 26.5704L67.5341 26.5373L67.5208 26.5307H67.5141C67.394 26.4644 67.2672 26.4379 67.1338 26.4379C66.8736 26.4379 66.6134 26.5837 66.48 26.8288C66.4133 26.948 66.3799 27.0739 66.3866 27.2064C66.3866 27.4647 66.5334 27.7231 66.7803 27.8556C66.887 27.9152 68.8617 28.9883 72.5042 29.929C74.5656 30.4656 77.701 30.7438 81.5837 30.6908C86.7206 30.6246 93.1517 29.9622 100.01 28.4849C107.081 26.9613 114.606 24.5632 121.618 21.0455C124.48 19.608 127.195 18.4355 129.69 17.5611C133.646 16.1633 137.142 15.4545 140.151 15.4147C142.252 15.3882 144.113 15.6863 145.721 16.3024C146.021 16.5012 146.335 16.8986 146.602 17.4153C147.029 18.2169 147.356 19.2901 147.589 20.2705C147.823 21.2509 147.969 22.1518 148.036 22.6288C148.109 23.172 148.363 23.6755 148.75 24.0597C149.23 24.5433 149.884 24.8083 150.551 24.8017C150.684 24.8017 150.818 24.7818 150.951 24.7553H150.998L151.045 24.7487C151.872 24.5698 152.552 23.9736 152.846 23.1654C152.953 22.8739 153.006 22.5626 152.999 22.2578C152.973 21.973 152.919 21.7014 152.826 21.4364Z" fill="url(#paint0_linear_191_8603)"/>
<path d="M69.6957 37.3347C69.8825 37.0631 70.0293 36.7517 70.116 36.4205C70.3228 35.6521 70.2428 34.7776 69.8826 34.0555C69.549 33.3997 68.8752 32.7174 68.168 32.7108C67.7677 32.7042 67.2607 32.8963 67.0072 33.2341C66.8338 33.4593 66.7403 33.7574 66.7337 34.0555C66.727 34.6253 67.1073 34.8969 67.2407 35.3871C67.6943 37.0763 66.2334 36.8047 65.6997 36.4338C65.3394 36.1887 65.0792 35.7978 64.8857 35.3871C62.9711 31.2733 68.0746 30.1935 70.6164 30.008C73.2115 29.8159 75.92 30.2796 78.4818 29.7231C79.8093 29.4317 81.3704 28.5506 81.8174 27.08C81.6306 27.0402 81.4438 26.9938 81.257 26.9541C81.0769 26.9674 80.8901 26.9806 80.7099 26.9872C80.0428 27.643 79.0488 28.0803 78.355 28.3519C76.5738 29.0408 74.6324 29.054 72.7511 29.0872C71.1434 29.1137 69.5422 29.1799 67.9678 29.531C66.6136 29.8291 64.9658 30.2001 63.9385 31.2865C62.364 32.9426 62.4774 35.9303 64.1452 37.5732C65.7463 39.1432 68.3682 39.2558 69.6957 37.3347Z" fill="url(#paint1_linear_191_8603)"/>
<path d="M70.7881 29.5975C70.9215 29.5909 71.0482 29.5843 71.1816 29.5776C71.0482 29.5843 70.9215 29.5909 70.7881 29.5975Z" fill="url(#paint2_linear_191_8603)"/>
<path d="M76.4656 12.4268C75.0646 12.7315 73.7237 13.6589 73.1767 15.1296C72.6363 16.5936 73.1233 18.5876 74.4242 19.3163C75.7251 20.045 77.573 18.9254 77.4529 17.3223C77.3862 16.4346 76.8125 15.5999 76.946 14.7321C77.0594 13.9968 77.6931 13.4668 78.3536 13.3675C79.0207 13.2681 79.7012 13.5198 80.3016 13.8775C84.8781 16.5803 84.6312 23.5957 80.8086 26.5966C77.3329 29.3259 72.8431 28.16 68.7203 26.7291C66.5454 25.9739 64.1305 22.9531 66.0118 20.5683C66.1919 20.3364 66.4187 20.0251 66.2586 19.7667C66.1986 19.6674 66.0985 19.6144 65.9984 19.568C65.2446 19.2301 64.384 19.3229 63.6768 19.7071C62.7696 20.204 61.9957 21.1579 61.6621 22.2311C61.5153 22.708 61.7288 24.013 61.4887 24.331C61.2218 24.6821 59.5473 24.49 59.127 24.5033C55.1243 24.596 50.5879 24.1985 47.359 27.2193C46.6652 27.8685 47.4524 28.425 48.0795 28.5111C49.367 28.6966 50.6212 29.3524 51.9088 29.4253C51.9555 29.889 51.7753 30.399 51.8287 30.9091C51.8954 31.4855 52.0888 32.0486 52.3757 32.5454C53.4698 34.4069 55.3778 34.8375 56.9523 34.3605C57.2258 34.2744 57.239 33.8703 56.9589 33.6981C55.2644 32.658 56.7921 30.6574 57.6393 30.1407C58.6133 29.5445 59.6941 29.1669 60.7682 28.8224C62.903 28.1467 65.0578 28.2792 67.2259 28.7231C70.9885 29.995 74.9779 30.7303 78.7605 29.8559C81.5558 29.2067 84.2376 27.2723 85.1649 24.2714C85.5185 23.1187 85.5919 21.8667 85.4518 20.6345C85.3784 20.0317 85.2583 19.4355 85.0915 18.8592C83.9307 14.8381 80.1081 11.6384 76.4656 12.4268Z" fill="url(#paint3_linear_191_8603)"/>
<path d="M36.1861 71.0335C35.9126 71.219 35.599 71.3647 35.2655 71.4509C34.4916 71.6562 33.6109 71.5767 32.8838 71.219C32.2233 70.8877 31.5362 70.2187 31.5295 69.5165C31.5228 69.1257 31.7163 68.6155 32.0565 68.3638C32.2834 68.1916 32.5836 68.0989 32.8838 68.0922C33.4575 68.0856 33.731 68.4632 34.2247 68.5957C35.9259 69.0462 35.6523 67.5954 35.2787 67.0654C35.0319 66.7077 34.6383 66.4493 34.2247 66.2572C30.0819 64.356 28.9944 69.4238 28.8077 71.9477C28.6142 74.5246 29.0812 77.2142 28.5208 79.758C28.2273 81.0762 27.3399 82.6264 25.8589 83.0702C25.8189 82.8847 25.7722 82.6993 25.7322 82.5138C25.7456 82.3349 25.7589 82.1494 25.7656 81.9706C26.4261 81.3081 26.8663 80.321 27.1398 79.6321C27.8336 77.8634 27.847 75.9356 27.8803 74.0675C27.907 72.471 27.9738 70.8811 28.3273 69.3177C28.6275 67.973 29.0012 66.3367 30.0952 65.3166C31.763 63.7532 34.7718 63.8658 36.4262 65.5219C38.0073 67.1118 38.1208 69.7152 36.1861 71.0335Z" fill="url(#paint4_linear_191_8603)"/>
<path d="M28.3945 72.1196C28.3879 72.2521 28.3813 72.378 28.3746 72.5105C28.3813 72.378 28.3879 72.2455 28.3945 72.1196Z" fill="url(#paint5_linear_191_8603)"/>
<path d="M11.1008 77.7573C11.4077 76.3661 12.3418 75.0346 13.8228 74.4914C15.3038 73.9481 17.3051 74.4384 18.039 75.7302C18.7728 77.022 17.6454 78.8569 16.0309 78.7377C15.137 78.6714 14.2964 78.1017 13.4225 78.2342C12.682 78.3468 12.1483 78.9761 12.0482 79.632C11.9481 80.2878 12.2016 80.9702 12.5619 81.5664C15.2838 86.1108 22.3486 85.8656 25.3707 82.0698C28.1192 78.6184 26.9451 74.1601 25.5041 70.0662C24.7436 67.9066 21.7015 65.5085 19.2998 67.3766C19.0663 67.5555 18.7528 67.7807 18.4926 67.6218C18.3926 67.5621 18.3392 67.4628 18.2925 67.3634C17.9522 66.6149 18.0456 65.7603 18.4325 65.0581C18.9329 64.1571 19.8936 63.3887 20.9743 63.0575C21.4547 62.9118 22.7689 63.1237 23.0891 62.8853C23.4427 62.6203 23.2493 60.9575 23.2626 60.5402C23.356 56.5655 22.9557 52.0608 25.9978 48.8546C26.6516 48.1656 27.2119 48.9473 27.2987 49.57C27.4854 50.8485 28.1459 52.094 28.2193 53.3725C28.6863 53.4189 29.2 53.24 29.7136 53.293C30.294 53.3592 30.8611 53.5513 31.3614 53.8362C33.236 54.9226 33.6697 56.8172 33.1894 58.3806C33.1027 58.6522 32.6957 58.6654 32.5223 58.3872C31.4749 56.7112 29.4601 58.2216 28.9398 59.0629C28.3393 60.0301 27.9591 61.1099 27.6122 62.1698C26.9317 64.2896 27.0652 66.4293 27.5122 68.5823C28.7931 72.3185 29.5335 76.28 28.6529 80.0361C27.9992 82.8118 26.0511 85.4748 23.029 86.3956C21.8682 86.7467 20.6074 86.8196 19.3665 86.6805C18.7594 86.6076 18.1591 86.4884 17.5787 86.3227C13.5359 85.1701 10.307 81.3676 11.1008 77.7573Z" fill="url(#paint6_linear_191_8603)"/>
<path d="M0.000267029 71.9281C6.35796 71.2392 8.37928 64.4954 9.01972 59.9842C9.68685 55.2675 11.6749 50.9284 14.9038 47.6626C26.4584 35.9571 40.7549 48.1064 40.7549 48.1064C40.7549 48.1064 20.8945 42.5882 16.1046 55.559C16.1046 55.559 12.4154 64.2371 19.14 73.4451C19.14 73.4451 13.4561 71.471 12.3687 65.4692C11.0945 68.7152 8.29929 73.306 0.000267029 71.9281Z" fill="url(#paint7_linear_191_8603)"/>
<path d="M67.5059 0.681641C67.2657 7.02791 60.6345 9.51211 56.1514 10.466C51.4615 11.4597 47.2454 13.7452 44.1899 17.17C33.2558 29.4452 46.4781 42.7406 46.4781 42.7406C46.4781 42.7406 39.52 23.4633 52.2087 17.7927C52.2087 17.7927 60.6612 13.5199 70.3945 19.5284C70.3945 19.5284 68.0062 14.0366 61.8954 13.3874C65.0709 11.9035 69.4806 8.80328 67.5059 0.681641Z" fill="url(#paint8_linear_191_8603)"/>
<path d="M39.5557 19.5022C34.5589 22.682 35.6931 31.5256 37.3542 37.9381C37.5543 38.7132 37.7678 39.4486 37.9679 40.1243C37.3075 39.8792 36.5736 39.6407 35.8265 39.4154C29.4488 37.4546 20.6027 35.8779 17.1537 40.6807C15.5592 32.4663 23.2245 30.2736 33.9652 35.9574C28.7816 25.0138 31.37 17.5148 39.5557 19.5022Z" fill="url(#paint9_linear_191_8603)"/>
<path d="M23.6027 21.5488C26.518 23.6289 27.6855 29.061 27.6855 29.061C27.6855 29.061 22.2751 27.6434 20.3271 24.6425C18.8728 22.4166 21.4278 19.9987 23.6027 21.5488Z" fill="url(#paint10_linear_191_8603)"/>
<path d="M37.7677 37.1559C36.1133 37.2155 34.8257 38.5934 34.8857 40.2297C34.9458 41.8725 36.3334 43.1511 37.9812 43.0915C39.6357 43.0318 40.9233 41.6539 40.8632 40.0177C40.8032 38.3814 39.4155 37.1029 37.7677 37.1559Z" fill="url(#paint11_linear_191_8603)"/>
<path d="M20.334 153.522L20.4874 153.091L20.334 153.522C19.6269 153.277 18.426 152.754 17.1718 151.747C15.9243 150.74 14.63 149.249 13.7694 147.083L13.7562 147.043V147.03C13.049 145.221 12.7088 143.168 12.7421 140.896C12.7888 137.709 13.5427 134.079 14.9903 130.025C15.8976 127.481 17.1051 124.732 18.5795 121.837C25.4375 108.376 27.9992 92.9078 28.1393 82.7789C28.1927 79.0361 27.9059 76.0219 27.4122 74.1406C26.9585 72.4182 26.4716 71.0801 26.098 70.1792C25.9112 69.7287 25.751 69.3842 25.6376 69.1523C25.5842 69.0397 25.5376 68.947 25.5109 68.894L25.4775 68.8277L25.4708 68.8145V68.8079C25.4041 68.6886 25.3774 68.5628 25.3774 68.4303C25.3774 68.1719 25.5242 67.9136 25.771 67.7811C25.8911 67.7148 26.0179 67.6817 26.1446 67.6883C26.4048 67.6883 26.665 67.834 26.7984 68.0792C26.8584 68.1851 27.9392 70.1526 28.8865 73.763C29.4269 75.81 29.7071 78.9235 29.6537 82.7789C29.5803 87.8798 28.9199 94.2658 27.4322 101.076C25.8978 108.098 23.4828 115.57 19.9403 122.533C18.4927 125.374 17.3119 128.071 16.4313 130.548C15.0236 134.477 14.3098 137.948 14.2698 140.935C14.2431 143.022 14.5434 144.87 15.1638 146.467C15.3639 146.765 15.7642 147.076 16.2845 147.341C17.0917 147.765 18.1725 148.09 19.1599 148.322C20.1472 148.554 21.0544 148.699 21.5348 148.759C22.0818 148.832 22.5889 149.084 22.9758 149.468C23.4628 149.945 23.7296 150.594 23.723 151.256C23.723 151.389 23.703 151.521 23.6763 151.647V151.694L23.6696 151.74C23.4895 152.561 22.8891 153.237 22.0752 153.529C21.7817 153.635 21.4681 153.688 21.1612 153.681C20.8744 153.661 20.6009 153.615 20.334 153.522Z" fill="url(#paint12_linear_191_8603)"/>
<path d="M44.1777 37.1365C42.7167 37.057 41.2623 37.0238 39.8013 36.9907C38.3403 36.9576 36.886 36.951 35.425 36.9443H34.5444V37.8188C34.551 39.2695 34.5577 40.7137 34.5911 42.1644C34.6245 43.6152 34.6645 45.0594 34.7378 46.5101C34.7979 47.9609 34.8913 49.405 34.9914 50.8558C35.1114 52.3066 35.2249 53.7507 35.4183 55.2015C35.6118 53.7507 35.7252 52.3066 35.8453 50.8558C35.9454 49.405 36.0388 47.9609 36.0988 46.5101C36.1722 45.0594 36.2122 43.6152 36.2456 42.1644C36.2722 41.0052 36.2789 39.8459 36.2855 38.6866C37.453 38.68 38.6205 38.6733 39.7879 38.6468C41.2489 38.6137 42.7033 38.574 44.1643 38.5011C45.6253 38.4415 47.0796 38.3488 48.5406 38.2494C50.0016 38.1301 51.456 38.0175 52.917 37.8188C51.456 37.6267 50.0016 37.5074 48.5406 37.3882C47.0996 37.2888 45.6387 37.1961 44.1777 37.1365Z" fill="url(#paint13_linear_191_8603)"/>
<path d="M142.791 21.0986H88.8076C88.3206 21.0986 87.9269 21.4895 87.9269 21.9731C87.9269 22.4567 88.3206 22.8475 88.8076 22.8475H142.791C143.278 22.8475 143.672 22.4567 143.672 21.9731C143.672 21.4895 143.278 21.0986 142.791 21.0986Z" fill="url(#paint14_linear_191_8603)"/>
<path d="M20.8742 90.9536C20.3872 90.9536 19.9937 91.3445 19.9937 91.8281V145.433C19.9937 145.917 20.3872 146.308 20.8742 146.308C21.3612 146.308 21.7549 145.917 21.7549 145.433V91.8281C21.7482 91.3445 21.3546 90.9536 20.8742 90.9536Z" fill="url(#paint15_linear_191_8603)"/>
<defs>
<linearGradient id="paint0_linear_191_8603" x1="-330.915" y1="273.058" x2="369.567" y2="-126.495" gradientUnits="userSpaceOnUse">
<stop stop-color="#EEDEBC"/>
<stop offset="0.059" stop-color="#DDC6A3"/>
<stop offset="0.1398" stop-color="#C9A885"/>
<stop offset="0.2581" stop-color="#9A7A5F"/>
<stop offset="0.3602" stop-color="#C9A885"/>
<stop offset="0.4892" stop-color="#EEDEBC"/>
<stop offset="0.5415" stop-color="#DDC6A3"/>
<stop offset="0.6129" stop-color="#C9A885"/>
<stop offset="0.7204" stop-color="#9A7A5F"/>
<stop offset="0.8387" stop-color="#C9A885"/>
<stop offset="1" stop-color="#EEDEBC"/>
</linearGradient>
<linearGradient id="paint1_linear_191_8603" x1="-337.374" y1="261.735" x2="363.111" y2="-137.82" gradientUnits="userSpaceOnUse">
<stop stop-color="#EEDEBC"/>
<stop offset="0.059" stop-color="#DDC6A3"/>
<stop offset="0.1398" stop-color="#C9A885"/>
<stop offset="0.2581" stop-color="#9A7A5F"/>
<stop offset="0.3602" stop-color="#C9A885"/>
<stop offset="0.4892" stop-color="#EEDEBC"/>
<stop offset="0.5415" stop-color="#DDC6A3"/>
<stop offset="0.6129" stop-color="#C9A885"/>
<stop offset="0.7204" stop-color="#9A7A5F"/>
<stop offset="0.8387" stop-color="#C9A885"/>
<stop offset="1" stop-color="#EEDEBC"/>
</linearGradient>
<linearGradient id="paint2_linear_191_8603" x1="-338.403" y1="260.08" x2="362.369" y2="-139.225" gradientUnits="userSpaceOnUse">
<stop stop-color="#EEDEBC"/>
<stop offset="0.059" stop-color="#DDC6A3"/>
<stop offset="0.1398" stop-color="#C9A885"/>
<stop offset="0.2581" stop-color="#9A7A5F"/>
<stop offset="0.3602" stop-color="#C9A885"/>
<stop offset="0.4892" stop-color="#EEDEBC"/>
<stop offset="0.5415" stop-color="#DDC6A3"/>
<stop offset="0.6129" stop-color="#C9A885"/>
<stop offset="0.7204" stop-color="#9A7A5F"/>
<stop offset="0.8387" stop-color="#C9A885"/>
<stop offset="1" stop-color="#EEDEBC"/>
</linearGradient>
<linearGradient id="paint3_linear_191_8603" x1="-340.782" y1="255.762" x2="359.703" y2="-143.791" gradientUnits="userSpaceOnUse">
<stop stop-color="#EEDEBC"/>
<stop offset="0.059" stop-color="#DDC6A3"/>
<stop offset="0.1398" stop-color="#C9A885"/>
<stop offset="0.2581" stop-color="#9A7A5F"/>
<stop offset="0.3602" stop-color="#C9A885"/>
<stop offset="0.4892" stop-color="#EEDEBC"/>
<stop offset="0.5415" stop-color="#DDC6A3"/>
<stop offset="0.6129" stop-color="#C9A885"/>
<stop offset="0.7204" stop-color="#9A7A5F"/>
<stop offset="0.8387" stop-color="#C9A885"/>
<stop offset="1" stop-color="#EEDEBC"/>
</linearGradient>
<linearGradient id="paint4_linear_191_8603" x1="-329.635" y1="275.3" x2="370.849" y2="-124.254" gradientUnits="userSpaceOnUse">
<stop stop-color="#EEDEBC"/>
<stop offset="0.059" stop-color="#DDC6A3"/>
<stop offset="0.1398" stop-color="#C9A885"/>
<stop offset="0.2581" stop-color="#9A7A5F"/>
<stop offset="0.3602" stop-color="#C9A885"/>
<stop offset="0.4892" stop-color="#EEDEBC"/>
<stop offset="0.5415" stop-color="#DDC6A3"/>
<stop offset="0.6129" stop-color="#C9A885"/>
<stop offset="0.7204" stop-color="#9A7A5F"/>
<stop offset="0.8387" stop-color="#C9A885"/>
<stop offset="1" stop-color="#EEDEBC"/>
</linearGradient>
<linearGradient id="paint5_linear_191_8603" x1="-328.124" y1="274.033" x2="370.086" y2="-121.839" gradientUnits="userSpaceOnUse">
<stop stop-color="#EEDEBC"/>
<stop offset="0.059" stop-color="#DDC6A3"/>
<stop offset="0.1398" stop-color="#C9A885"/>
<stop offset="0.2581" stop-color="#9A7A5F"/>
<stop offset="0.3602" stop-color="#C9A885"/>
<stop offset="0.4892" stop-color="#EEDEBC"/>
<stop offset="0.5415" stop-color="#DDC6A3"/>
<stop offset="0.6129" stop-color="#C9A885"/>
<stop offset="0.7204" stop-color="#9A7A5F"/>
<stop offset="0.8387" stop-color="#C9A885"/>
<stop offset="1" stop-color="#EEDEBC"/>
</linearGradient>
<linearGradient id="paint6_linear_191_8603" x1="-333.268" y1="268.934" x2="367.219" y2="-130.622" gradientUnits="userSpaceOnUse">
<stop stop-color="#EEDEBC"/>
<stop offset="0.059" stop-color="#DDC6A3"/>
<stop offset="0.1398" stop-color="#C9A885"/>
<stop offset="0.2581" stop-color="#9A7A5F"/>
<stop offset="0.3602" stop-color="#C9A885"/>
<stop offset="0.4892" stop-color="#EEDEBC"/>
<stop offset="0.5415" stop-color="#DDC6A3"/>
<stop offset="0.6129" stop-color="#C9A885"/>
<stop offset="0.7204" stop-color="#9A7A5F"/>
<stop offset="0.8387" stop-color="#C9A885"/>
<stop offset="1" stop-color="#EEDEBC"/>
</linearGradient>
<linearGradient id="paint7_linear_191_8603" x1="-338.363" y1="260" x2="362.119" y2="-139.552" gradientUnits="userSpaceOnUse">
<stop stop-color="#EEDEBC"/>
<stop offset="0.059" stop-color="#DDC6A3"/>
<stop offset="0.1398" stop-color="#C9A885"/>
<stop offset="0.2581" stop-color="#9A7A5F"/>
<stop offset="0.3602" stop-color="#C9A885"/>
<stop offset="0.4892" stop-color="#EEDEBC"/>
<stop offset="0.5415" stop-color="#DDC6A3"/>
<stop offset="0.6129" stop-color="#C9A885"/>
<stop offset="0.7204" stop-color="#9A7A5F"/>
<stop offset="0.8387" stop-color="#C9A885"/>
<stop offset="1" stop-color="#EEDEBC"/>
</linearGradient>
<linearGradient id="paint8_linear_191_8603" x1="-345.242" y1="247.937" x2="355.242" y2="-151.616" gradientUnits="userSpaceOnUse">
<stop stop-color="#EEDEBC"/>
<stop offset="0.059" stop-color="#DDC6A3"/>
<stop offset="0.1398" stop-color="#C9A885"/>
<stop offset="0.2581" stop-color="#9A7A5F"/>
<stop offset="0.3602" stop-color="#C9A885"/>
<stop offset="0.4892" stop-color="#EEDEBC"/>
<stop offset="0.5415" stop-color="#DDC6A3"/>
<stop offset="0.6129" stop-color="#C9A885"/>
<stop offset="0.7204" stop-color="#9A7A5F"/>
<stop offset="0.8387" stop-color="#C9A885"/>
<stop offset="1" stop-color="#EEDEBC"/>
</linearGradient>
<linearGradient id="paint9_linear_191_8603" x1="-346.748" y1="245.299" x2="353.734" y2="-154.254" gradientUnits="userSpaceOnUse">
<stop stop-color="#EEDEBC"/>
<stop offset="0.059" stop-color="#DDC6A3"/>
<stop offset="0.1398" stop-color="#C9A885"/>
<stop offset="0.2581" stop-color="#9A7A5F"/>
<stop offset="0.3602" stop-color="#C9A885"/>
<stop offset="0.4892" stop-color="#EEDEBC"/>
<stop offset="0.5415" stop-color="#DDC6A3"/>
<stop offset="0.6129" stop-color="#C9A885"/>
<stop offset="0.7204" stop-color="#9A7A5F"/>
<stop offset="0.8387" stop-color="#C9A885"/>
<stop offset="1" stop-color="#EEDEBC"/>
</linearGradient>
<linearGradient id="paint10_linear_191_8603" x1="-351.663" y1="236.695" x2="348.829" y2="-162.863" gradientUnits="userSpaceOnUse">
<stop stop-color="#EEDEBC"/>
<stop offset="0.059" stop-color="#DDC6A3"/>
<stop offset="0.1398" stop-color="#C9A885"/>
<stop offset="0.2581" stop-color="#9A7A5F"/>
<stop offset="0.3602" stop-color="#C9A885"/>
<stop offset="0.4892" stop-color="#EEDEBC"/>
<stop offset="0.5415" stop-color="#DDC6A3"/>
<stop offset="0.6129" stop-color="#C9A885"/>
<stop offset="0.7204" stop-color="#9A7A5F"/>
<stop offset="0.8387" stop-color="#C9A885"/>
<stop offset="1" stop-color="#EEDEBC"/>
</linearGradient>
<linearGradient id="paint11_linear_191_8603" x1="-341.934" y1="253.743" x2="358.553" y2="-145.816" gradientUnits="userSpaceOnUse">
<stop stop-color="#EEDEBC"/>
<stop offset="0.059" stop-color="#DDC6A3"/>
<stop offset="0.1398" stop-color="#C9A885"/>
<stop offset="0.2581" stop-color="#9A7A5F"/>
<stop offset="0.3602" stop-color="#C9A885"/>
<stop offset="0.4892" stop-color="#EEDEBC"/>
<stop offset="0.5415" stop-color="#DDC6A3"/>
<stop offset="0.6129" stop-color="#C9A885"/>
<stop offset="0.7204" stop-color="#9A7A5F"/>
<stop offset="0.8387" stop-color="#C9A885"/>
<stop offset="1" stop-color="#EEDEBC"/>
</linearGradient>
<linearGradient id="paint12_linear_191_8603" x1="-314.863" y1="301.201" x2="385.621" y2="-98.3523" gradientUnits="userSpaceOnUse">
<stop stop-color="#EEDEBC"/>
<stop offset="0.059" stop-color="#DDC6A3"/>
<stop offset="0.1398" stop-color="#C9A885"/>
<stop offset="0.2581" stop-color="#9A7A5F"/>
<stop offset="0.3602" stop-color="#C9A885"/>
<stop offset="0.4892" stop-color="#EEDEBC"/>
<stop offset="0.5415" stop-color="#DDC6A3"/>
<stop offset="0.6129" stop-color="#C9A885"/>
<stop offset="0.7204" stop-color="#9A7A5F"/>
<stop offset="0.8387" stop-color="#C9A885"/>
<stop offset="1" stop-color="#EEDEBC"/>
</linearGradient>
<linearGradient id="paint13_linear_191_8603" x1="-340.067" y1="257.015" x2="360.417" y2="-142.54" gradientUnits="userSpaceOnUse">
<stop stop-color="#EEDEBC"/>
<stop offset="0.059" stop-color="#DDC6A3"/>
<stop offset="0.1398" stop-color="#C9A885"/>
<stop offset="0.2581" stop-color="#9A7A5F"/>
<stop offset="0.3602" stop-color="#C9A885"/>
<stop offset="0.4892" stop-color="#EEDEBC"/>
<stop offset="0.5415" stop-color="#DDC6A3"/>
<stop offset="0.6129" stop-color="#C9A885"/>
<stop offset="0.7204" stop-color="#9A7A5F"/>
<stop offset="0.8387" stop-color="#C9A885"/>
<stop offset="1" stop-color="#EEDEBC"/>
</linearGradient>
<linearGradient id="paint14_linear_191_8603" x1="-330.848" y1="273.181" x2="369.639" y2="-126.373" gradientUnits="userSpaceOnUse">
<stop stop-color="#EEDEBC"/>
<stop offset="0.059" stop-color="#DDC6A3"/>
<stop offset="0.1398" stop-color="#C9A885"/>
<stop offset="0.2581" stop-color="#9A7A5F"/>
<stop offset="0.3602" stop-color="#C9A885"/>
<stop offset="0.4892" stop-color="#EEDEBC"/>
<stop offset="0.5415" stop-color="#DDC6A3"/>
<stop offset="0.6129" stop-color="#C9A885"/>
<stop offset="0.7204" stop-color="#9A7A5F"/>
<stop offset="0.8387" stop-color="#C9A885"/>
<stop offset="1" stop-color="#EEDEBC"/>
</linearGradient>
<linearGradient id="paint15_linear_191_8603" x1="-312.163" y1="305.935" x2="388.323" y2="-93.6221" gradientUnits="userSpaceOnUse">
<stop stop-color="#EEDEBC"/>
<stop offset="0.059" stop-color="#DDC6A3"/>
<stop offset="0.1398" stop-color="#C9A885"/>
<stop offset="0.2581" stop-color="#9A7A5F"/>
<stop offset="0.3602" stop-color="#C9A885"/>
<stop offset="0.4892" stop-color="#EEDEBC"/>
<stop offset="0.5415" stop-color="#DDC6A3"/>
<stop offset="0.6129" stop-color="#C9A885"/>
<stop offset="0.7204" stop-color="#9A7A5F"/>
<stop offset="0.8387" stop-color="#C9A885"/>
<stop offset="1" stop-color="#EEDEBC"/>
</linearGradient>
</defs>
</svg>
