<svg width="142" height="151" viewBox="0 0 142 151" fill="none" xmlns="http://www.w3.org/2000/svg">
<path d="M1.49915 151H142.001V1.28546C142.001 0.768036 141.608 0.349838 141.123 0.349838C140.637 0.349838 140.244 0.768036 140.244 1.28546V149.136H1.49915C1.01356 149.136 0.621094 149.554 0.621094 150.071C0.627746 150.582 1.02021 151 1.49915 151Z" fill="url(#paint0_linear_400_4245)"/>
<path d="M14.6437 143.09H116.97C117.456 143.09 117.848 142.671 117.848 142.154C117.848 141.637 117.456 141.218 116.97 141.218H14.6437C14.1581 141.218 13.7656 141.637 13.7656 142.154C13.7723 142.671 14.1581 143.09 14.6437 143.09Z" fill="url(#paint1_linear_400_4245)"/>
<path d="M133.838 126.107C134.26 126.107 134.6 125.759 134.6 125.327V16.2909C134.6 15.8586 134.26 15.5113 133.838 15.5113C133.416 15.5113 133.076 15.8586 133.076 16.2909V125.327C133.076 125.759 133.422 126.107 133.838 126.107Z" fill="url(#paint2_linear_400_4245)"/>
<path d="M123.497 123.414C123.61 123.541 123.723 123.662 123.843 123.782C124.98 124.909 126.563 125.462 128.173 125.299C128.492 125.264 128.805 125.214 129.104 125.136C130.94 124.682 132.344 123.442 132.896 121.698C133.182 120.798 133.215 119.848 133.022 118.955C132.816 117.998 132.337 117.105 131.632 116.411C130.854 115.645 129.789 115.269 128.699 115.362C128.459 115.383 128.233 115.418 128.013 115.475C126.756 115.787 125.778 116.645 125.393 117.857C125.186 118.495 125.16 119.161 125.299 119.792C125.446 120.465 125.778 121.089 126.271 121.571C126.976 122.273 127.94 122.506 128.812 122.287C129.331 122.159 129.823 121.868 130.215 121.422C130.401 121.209 130.461 120.926 130.401 120.663C130.368 120.508 130.288 120.359 130.175 120.245C129.976 120.047 129.71 119.983 129.464 120.047C129.317 120.082 129.177 120.167 129.071 120.288C128.898 120.486 128.685 120.614 128.459 120.671C128.073 120.763 127.654 120.663 127.342 120.352C127.082 120.096 126.909 119.77 126.829 119.416C126.756 119.083 126.77 118.736 126.876 118.402C127.089 117.757 127.594 117.297 128.366 117.105C128.512 117.07 128.672 117.041 128.838 117.027C129.497 116.971 130.129 117.19 130.574 117.637C131.047 118.105 131.359 118.7 131.499 119.338C131.632 119.933 131.605 120.564 131.419 121.167C131.04 122.35 130.122 123.173 128.778 123.513C128.546 123.57 128.293 123.612 128.033 123.641C126.836 123.761 125.738 123.378 124.914 122.563C124.82 122.471 124.734 122.379 124.648 122.28C124.082 121.635 123.71 120.876 123.53 120.061C123.364 119.303 123.37 118.487 123.557 117.672C123.976 115.872 125.193 114.433 126.816 113.823L127.016 113.753H127.022C127.328 113.625 127.687 113.512 128.073 113.419C129.224 113.136 130.654 112.994 132.031 113.051C133.262 113.108 134.333 112.987 135.264 112.76C138.723 111.903 140.18 109.514 140.386 109.138C140.439 109.067 140.486 108.989 140.532 108.911C141.011 108.096 141.191 107.132 141.058 106.175C141.044 106.069 141.025 105.963 141.005 105.864C140.798 104.928 140.293 104.099 139.554 103.525C138.77 102.908 137.805 102.731 136.92 102.95C136.215 103.128 135.563 103.553 135.098 104.212C134.645 104.857 134.479 105.701 134.645 106.509V106.516L134.659 106.572C134.898 107.671 135.603 108.493 136.554 108.706C136.9 108.784 137.246 108.777 137.572 108.699C138.098 108.564 138.583 108.238 138.916 107.756C139.056 107.551 139.095 107.302 139.049 107.069C139.009 106.884 138.903 106.707 138.75 106.587C138.557 106.438 138.324 106.395 138.104 106.445C137.931 106.487 137.765 106.594 137.652 106.764C137.546 106.92 137.386 107.026 137.213 107.069C137.107 107.097 136.993 107.097 136.88 107.069C136.714 107.033 136.574 106.941 136.455 106.799C136.335 106.657 136.235 106.452 136.182 106.19L136.175 106.154C136.109 105.814 136.175 105.452 136.348 105.211C136.588 104.878 136.914 104.659 137.273 104.574C137.725 104.46 138.217 104.552 138.623 104.864C139.062 105.204 139.355 105.686 139.475 106.239C139.488 106.303 139.501 106.36 139.508 106.424C139.601 107.054 139.455 107.678 139.102 108.188L139.095 108.196L139.056 108.259L139.049 108.266V108.274C139.002 108.352 137.885 110.393 134.905 111.137C134.107 111.336 133.175 111.442 132.091 111.385C130.554 111.321 129.011 111.47 127.727 111.789C127.275 111.903 126.863 112.037 126.483 112.186L126.297 112.257C124.169 113.051 122.572 114.936 122.033 117.282C121.787 118.36 121.781 119.437 122 120.451C122.24 121.535 122.745 122.556 123.497 123.414Z" fill="url(#paint3_linear_400_4245)"/>
<path d="M115.211 131.664C115.331 131.784 115.444 131.912 115.551 132.04C116.588 133.273 117.067 134.967 116.888 136.682C116.848 137.023 116.795 137.356 116.715 137.675C116.249 139.617 115.058 141.091 113.409 141.644C112.557 141.935 111.666 141.949 110.835 141.722C109.943 141.481 109.112 140.956 108.473 140.191C107.768 139.347 107.435 138.206 107.548 137.044C107.575 136.796 107.615 136.548 107.668 136.314C107.987 134.981 108.812 133.961 109.956 133.571C110.555 133.365 111.187 133.351 111.772 133.514C112.398 133.684 112.976 134.053 113.422 134.584C114.061 135.35 114.26 136.378 114.041 137.306C113.908 137.859 113.628 138.376 113.196 138.78C112.996 138.972 112.724 139.036 112.478 138.965C112.331 138.922 112.192 138.837 112.085 138.71C111.905 138.497 111.846 138.206 111.912 137.944C111.952 137.788 112.032 137.639 112.152 137.526C112.338 137.349 112.464 137.122 112.524 136.881C112.624 136.47 112.531 136.023 112.251 135.683C112.019 135.399 111.713 135.208 111.387 135.123C111.081 135.038 110.748 135.045 110.435 135.151C109.823 135.364 109.384 135.896 109.185 136.711C109.145 136.867 109.118 137.037 109.098 137.214C109.032 137.916 109.225 138.589 109.631 139.078C110.056 139.588 110.608 139.936 111.207 140.099C111.766 140.248 112.358 140.241 112.923 140.049C114.041 139.673 114.832 138.71 115.178 137.278C115.238 137.03 115.285 136.76 115.311 136.484C115.451 135.208 115.112 134.031 114.367 133.138C114.28 133.039 114.194 132.94 114.107 132.848C113.515 132.231 112.81 131.82 112.045 131.607C111.333 131.416 110.575 131.402 109.803 131.586C108.101 131.99 106.73 133.259 106.125 134.981L106.052 135.187V135.194C105.925 135.52 105.812 135.896 105.719 136.307C105.427 137.526 105.267 139.043 105.293 140.517C105.327 141.828 105.187 142.969 104.954 143.955C104.076 147.626 101.808 149.129 101.455 149.342C101.382 149.391 101.316 149.441 101.242 149.49C100.471 149.98 99.5595 150.157 98.6615 149.994C98.5618 149.972 98.4686 149.951 98.3689 149.93C97.4908 149.689 96.7258 149.136 96.2003 148.335C95.6416 147.485 95.4952 146.457 95.7147 145.521C95.8943 144.777 96.3067 144.089 96.9387 143.607C97.5507 143.14 98.3489 142.984 99.1005 143.168H99.1072L99.1604 143.182C100.185 143.459 100.943 144.224 101.123 145.245C101.189 145.613 101.176 145.982 101.096 146.329C100.963 146.889 100.644 147.392 100.185 147.74C99.9919 147.882 99.7525 147.924 99.5396 147.867C99.3666 147.818 99.207 147.704 99.0939 147.541C98.9542 147.336 98.9209 147.081 98.9742 146.854C99.0207 146.669 99.1205 146.499 99.2802 146.379C99.4265 146.265 99.5329 146.102 99.5795 145.918C99.6061 145.805 99.6128 145.684 99.5862 145.564C99.5529 145.386 99.4731 145.238 99.34 145.103C99.207 144.975 99.0141 144.862 98.7746 144.798L98.7414 144.791C98.4221 144.713 98.0828 144.777 97.85 144.961C97.5307 145.209 97.3245 145.55 97.2314 145.932C97.1183 146.414 97.1914 146.939 97.4775 147.371C97.7901 147.839 98.2358 148.172 98.748 148.307C98.8012 148.321 98.8611 148.335 98.921 148.349C99.513 148.456 100.098 148.321 100.584 147.952L100.591 147.945L100.65 147.91L100.657 147.903H100.664C100.744 147.853 102.679 146.705 103.431 143.551C103.63 142.707 103.75 141.715 103.724 140.56C103.697 138.922 103.87 137.285 104.196 135.917C104.309 135.442 104.442 134.995 104.595 134.598L104.662 134.407C105.453 132.153 107.249 130.494 109.464 129.97C110.482 129.729 111.493 129.743 112.438 129.998C113.475 130.282 114.427 130.842 115.211 131.664Z" fill="url(#paint4_linear_400_4245)"/>
<path d="M120.995 150.426C120.829 150.391 120.663 150.341 120.496 150.292C118.92 149.817 117.596 148.597 116.858 146.96C116.711 146.634 116.585 146.308 116.485 145.975C115.873 143.969 116.159 141.949 117.33 140.46C117.935 139.695 118.72 139.149 119.578 138.851C120.503 138.532 121.514 138.504 122.485 138.802C123.556 139.128 124.454 139.95 124.966 141.049C125.079 141.29 125.166 141.531 125.246 141.772C125.665 143.147 125.472 144.55 124.66 145.585C124.235 146.131 123.683 146.514 123.077 146.726C122.432 146.953 121.72 146.974 121.042 146.762C120.064 146.464 119.346 145.67 119.053 144.713C118.88 144.146 118.86 143.508 119.026 142.892C119.106 142.601 119.312 142.381 119.565 142.296C119.718 142.247 119.884 142.24 120.044 142.289C120.317 142.374 120.523 142.594 120.603 142.863C120.649 143.026 120.656 143.203 120.609 143.374C120.536 143.643 120.543 143.919 120.623 144.167C120.749 144.586 121.068 144.94 121.501 145.068C121.86 145.174 122.232 145.167 122.572 145.046C122.891 144.933 123.177 144.735 123.403 144.451C123.836 143.891 123.949 143.161 123.689 142.317C123.643 142.154 123.576 141.991 123.496 141.821C123.19 141.155 122.651 140.673 122.04 140.489C121.388 140.29 120.716 140.312 120.097 140.524C119.525 140.723 119 141.091 118.594 141.595C117.796 142.601 117.603 143.934 118.048 145.408C118.128 145.663 118.228 145.925 118.348 146.195C118.9 147.414 119.818 148.257 120.955 148.605C121.082 148.647 121.215 148.675 121.341 148.704C122.193 148.895 123.037 148.846 123.829 148.569C124.561 148.314 125.246 147.867 125.838 147.244C127.135 145.862 127.687 143.912 127.314 142.02L127.268 141.793V141.786C127.208 141.424 127.108 141.02 126.982 140.595C126.596 139.34 125.938 137.887 125.139 136.597C124.421 135.449 123.935 134.35 123.629 133.337C122.472 129.545 123.702 126.851 123.902 126.447C123.935 126.355 123.975 126.27 124.015 126.185C124.448 125.285 125.159 124.583 126.044 124.193C126.144 124.151 126.237 124.115 126.337 124.08C127.241 123.768 128.219 123.803 129.104 124.2C130.048 124.619 130.727 125.448 131.02 126.419C131.252 127.191 131.246 128.049 130.94 128.857C130.64 129.637 130.015 130.261 129.244 130.544H129.237L129.177 130.565C128.119 130.934 127.042 130.7 126.337 129.906C126.084 129.623 125.898 129.282 125.791 128.921C125.612 128.34 125.632 127.702 125.858 127.121C125.957 126.873 126.144 126.695 126.363 126.624C126.543 126.561 126.749 126.568 126.935 126.653C127.168 126.752 127.334 126.958 127.401 127.192C127.461 127.383 127.454 127.596 127.381 127.801C127.308 127.992 127.301 128.198 127.361 128.389C127.394 128.51 127.454 128.616 127.541 128.715C127.66 128.857 127.813 128.942 128.006 128.978C128.193 129.013 128.419 128.999 128.671 128.907L128.705 128.893C129.031 128.772 129.297 128.51 129.41 128.212C129.563 127.801 129.569 127.369 129.45 126.979C129.297 126.483 128.951 126.057 128.472 125.845C127.946 125.611 127.374 125.59 126.842 125.774C126.782 125.795 126.722 125.816 126.669 125.845C126.084 126.1 125.638 126.575 125.399 127.192L125.392 127.199L125.359 127.269V127.277V127.284C125.319 127.369 124.201 129.559 125.193 132.819C125.459 133.691 125.878 134.641 126.51 135.655C127.394 137.094 128.113 138.653 128.538 140.071C128.691 140.56 128.805 141.035 128.878 141.481L128.918 141.694C129.403 144.167 128.678 146.726 126.989 148.52C126.21 149.342 125.306 149.937 124.328 150.277C123.27 150.611 122.133 150.681 120.995 150.426Z" fill="url(#paint5_linear_400_4245)"/>
<path d="M141.677 129.807C141.65 129.63 141.624 129.445 141.584 129.268C141.245 127.56 140.194 126.071 138.71 125.178C138.411 125.001 138.112 124.845 137.812 124.718C135.976 123.931 134.061 124.101 132.597 125.249C131.839 125.845 131.273 126.639 130.934 127.532C130.575 128.489 130.475 129.566 130.688 130.615C130.921 131.777 131.633 132.784 132.624 133.401C132.843 133.535 133.063 133.649 133.282 133.741C134.54 134.279 135.87 134.166 136.894 133.372C137.433 132.954 137.832 132.394 138.072 131.763C138.324 131.09 138.391 130.339 138.245 129.601C138.032 128.545 137.333 127.723 136.455 127.354C135.93 127.135 135.344 127.064 134.752 127.199C134.473 127.262 134.26 127.468 134.16 127.73C134.101 127.886 134.087 128.063 134.12 128.24C134.18 128.538 134.373 128.765 134.619 128.871C134.766 128.935 134.932 128.949 135.098 128.914C135.358 128.857 135.611 128.885 135.843 128.978C136.229 129.141 136.535 129.502 136.628 129.97C136.708 130.36 136.668 130.75 136.535 131.104C136.409 131.437 136.203 131.728 135.923 131.947C135.371 132.373 134.679 132.437 133.901 132.111C133.755 132.047 133.602 131.969 133.449 131.877C132.85 131.508 132.431 130.906 132.298 130.239C132.152 129.538 132.218 128.822 132.464 128.177C132.69 127.581 133.063 127.05 133.568 126.653C134.566 125.873 135.823 125.753 137.18 126.327C137.42 126.426 137.653 126.553 137.892 126.695C138.996 127.362 139.721 128.403 139.967 129.63C139.994 129.771 140.021 129.906 140.034 130.048C140.154 130.962 140.054 131.862 139.741 132.678C139.455 133.436 138.99 134.138 138.364 134.719C136.987 136.009 135.118 136.463 133.375 135.938L133.163 135.874H133.156C132.817 135.782 132.451 135.655 132.058 135.484C130.908 134.995 129.591 134.194 128.433 133.259C127.409 132.415 126.411 131.834 125.48 131.43C122.007 129.949 119.4 131.069 119.014 131.26C118.928 131.288 118.841 131.324 118.761 131.366C117.89 131.763 117.185 132.472 116.759 133.393C116.712 133.493 116.673 133.599 116.633 133.698C116.28 134.641 116.253 135.676 116.559 136.647C116.885 137.682 117.624 138.454 118.508 138.83C119.214 139.135 120.018 139.184 120.797 138.915C121.548 138.653 122.174 138.022 122.486 137.228V137.221L122.506 137.164C122.925 136.066 122.779 134.903 122.081 134.102C121.828 133.812 121.528 133.599 121.196 133.457C120.664 133.23 120.065 133.202 119.506 133.408C119.273 133.493 119.087 133.684 119.007 133.911C118.934 134.095 118.928 134.315 118.994 134.52C119.074 134.776 119.253 134.96 119.466 135.052C119.639 135.13 119.845 135.137 120.038 135.066C120.218 135.002 120.418 135.01 120.59 135.08C120.697 135.13 120.797 135.201 120.883 135.293C121.003 135.435 121.076 135.598 121.096 135.803C121.116 136.002 121.083 136.243 120.99 136.505L120.976 136.541C120.843 136.881 120.577 137.143 120.291 137.242C119.899 137.377 119.493 137.356 119.134 137.2C118.681 137.008 118.302 136.611 118.136 136.08C117.956 135.506 117.97 134.896 118.176 134.343C118.196 134.279 118.222 134.223 118.249 134.159C118.528 133.556 119.007 133.11 119.599 132.897H119.606L119.673 132.869H119.679H119.686C119.772 132.826 121.894 131.792 124.881 133.067C125.679 133.408 126.544 133.918 127.449 134.655C128.739 135.697 130.149 136.562 131.446 137.108C131.899 137.299 132.331 137.455 132.744 137.561L132.943 137.618C135.231 138.298 137.673 137.703 139.469 136.023C140.293 135.258 140.912 134.329 141.291 133.308C141.697 132.231 141.837 131.026 141.677 129.807Z" fill="url(#paint6_linear_400_4245)"/>
<path d="M121.099 128.893C121.358 129.049 121.631 129.19 121.904 129.304C121.804 129.034 121.684 128.751 121.538 128.482C121.305 128.035 121.006 127.631 120.68 127.397C120.58 127.326 120.5 127.305 120.427 127.305C120.321 127.305 120.221 127.362 120.148 127.432C120.074 127.51 120.021 127.617 120.028 127.73C120.028 127.808 120.048 127.893 120.114 127.999C120.314 128.333 120.686 128.637 121.099 128.893Z" fill="url(#paint7_linear_400_4245)"/>
<path d="M119.293 126.44L119.452 126.61L119.293 126.44C119.625 126.086 120.058 125.894 120.497 125.901C120.836 125.901 121.182 126.015 121.488 126.234C122.279 126.802 122.798 127.78 123.137 128.616C123.477 129.46 123.623 130.168 123.643 130.239C123.65 130.289 123.656 130.331 123.656 130.381C123.656 130.58 123.576 130.75 123.457 130.877C123.337 131.005 123.177 131.09 122.991 131.09C122.951 131.09 122.905 131.083 122.858 131.076C122.785 131.061 122.12 130.898 121.335 130.544C120.55 130.183 119.632 129.63 119.1 128.786C118.894 128.46 118.787 128.092 118.787 127.73C118.787 127.255 118.96 126.794 119.293 126.44ZM120.098 127.73C120.098 127.808 120.117 127.893 120.184 127.999C120.39 128.333 120.756 128.637 121.175 128.893C121.435 129.048 121.707 129.19 121.98 129.304C121.88 129.034 121.761 128.751 121.614 128.481C121.381 128.035 121.082 127.631 120.756 127.397C120.656 127.326 120.576 127.305 120.503 127.305C120.397 127.305 120.297 127.361 120.224 127.432C120.151 127.51 120.098 127.617 120.098 127.73Z" fill="url(#paint8_linear_400_4245)"/>
<path d="M115.479 121.975C115.219 121.819 114.947 121.677 114.674 121.564C114.774 121.833 114.893 122.117 115.04 122.386C115.272 122.832 115.572 123.236 115.898 123.47C115.998 123.541 116.077 123.562 116.151 123.562C116.257 123.562 116.357 123.506 116.43 123.435C116.503 123.357 116.556 123.251 116.55 123.137C116.55 123.059 116.53 122.974 116.463 122.868C116.257 122.542 115.891 122.23 115.479 121.975Z" fill="url(#paint9_linear_400_4245)"/>
<path d="M117.416 124.427L117.257 124.257L117.416 124.427C117.084 124.781 116.651 124.973 116.212 124.965C115.873 124.965 115.527 124.852 115.221 124.632C114.43 124.065 113.911 123.087 113.572 122.251C113.232 121.407 113.086 120.698 113.066 120.628C113.059 120.578 113.053 120.535 113.053 120.486C113.053 120.287 113.133 120.117 113.252 119.99C113.372 119.862 113.532 119.777 113.718 119.777C113.758 119.777 113.804 119.784 113.851 119.791C113.924 119.805 114.589 119.968 115.374 120.323C116.159 120.684 117.077 121.237 117.609 122.081C117.815 122.407 117.922 122.775 117.922 123.137C117.929 123.612 117.756 124.072 117.416 124.427ZM116.611 123.137C116.611 123.059 116.592 122.974 116.525 122.867C116.319 122.534 115.953 122.229 115.534 121.974C115.274 121.818 115.002 121.677 114.729 121.563C114.829 121.833 114.949 122.116 115.095 122.385C115.328 122.832 115.627 123.236 115.953 123.47C116.053 123.541 116.133 123.562 116.206 123.562C116.312 123.562 116.412 123.505 116.485 123.434C116.565 123.356 116.611 123.25 116.611 123.137Z" fill="url(#paint10_linear_400_4245)"/>
<path d="M130.914 140.949C130.914 139.985 131.646 139.205 132.55 139.205C133.455 139.205 134.187 139.985 134.187 140.949C134.187 141.913 133.455 142.692 132.55 142.692C131.646 142.699 130.914 141.913 130.914 140.949Z" fill="url(#paint11_linear_400_4245)"/>
<path d="M123.463 150.071C123.463 150.496 123.795 150.844 124.195 150.844C128.698 150.815 133.008 148.923 136.195 145.577C139.381 142.232 141.19 137.695 141.23 132.953C141.237 132.528 140.911 132.174 140.512 132.174C140.113 132.174 139.78 132.514 139.78 132.939C139.747 137.263 138.097 141.41 135.177 144.472C132.263 147.534 128.312 149.263 124.188 149.291C123.789 149.299 123.463 149.646 123.463 150.071Z" fill="url(#paint12_linear_400_4245)"/>
<path d="M108.894 131.316C109.246 131.316 109.532 131.019 109.532 130.643C109.559 126.858 111.009 123.229 113.557 120.557C116.104 117.877 119.563 116.361 123.169 116.339C123.521 116.339 123.801 116.035 123.801 115.659C123.801 115.283 123.515 114.985 123.162 114.985C119.224 115.014 115.453 116.665 112.665 119.593C109.878 122.52 108.295 126.489 108.262 130.636C108.255 131.012 108.541 131.316 108.894 131.316Z" fill="url(#paint13_linear_400_4245)"/>
<path d="M7.75282 141.651C7.57322 141.772 7.4668 141.984 7.4668 142.204C7.4668 142.424 7.57322 142.636 7.75282 142.757C7.88586 142.849 11.0588 144.997 13.54 144.472C14.5976 144.253 15.3094 143.338 15.3094 142.204C15.3094 141.07 14.5976 140.156 13.54 139.936C13.2672 139.879 12.9945 139.851 12.7085 139.851C10.4003 139.851 7.87256 141.566 7.75282 141.651ZM13.3005 143.175C12.0101 143.445 10.3737 142.743 9.35595 142.197C10.4535 141.616 12.0832 140.971 13.3005 141.226C13.8659 141.346 14.0721 141.807 14.0721 142.197C14.0721 142.594 13.8659 143.055 13.3005 143.175Z" fill="url(#paint14_linear_400_4245)"/>
<path d="M16.4407 142.161C15.9485 142.615 15.6491 143.246 15.5959 143.933C15.5095 145.138 16.3543 146.208 17.4784 146.315C17.9574 146.364 18.4762 146.166 18.8421 145.79C19.3676 145.252 19.5472 144.536 19.3276 143.884C19.168 143.402 18.8021 143.033 18.3631 142.87C18.8953 142.92 20.545 143.267 21.7689 145.592C22.4008 146.768 23.2323 147.839 23.9773 148.448L24.0704 148.526C25.168 149.469 26.6314 149.752 27.9818 149.285C29.2789 148.838 30.2168 147.789 30.5627 146.421C30.5893 146.315 30.6159 146.208 30.6359 146.102C30.8221 145.081 30.576 143.997 29.9574 143.132C29.0727 141.892 27.8088 141.332 26.5716 141.644C25.4274 141.927 24.5427 142.905 24.3232 144.139C24.1968 144.848 24.3631 145.599 24.7822 146.194C25.4008 147.08 26.2988 147.477 27.1902 147.265C28.015 147.066 28.647 146.364 28.8066 145.478C28.9995 144.422 28.3476 143.394 27.3631 143.189C27.0306 143.118 26.7046 143.352 26.6381 143.713C26.5716 144.075 26.7911 144.415 27.1303 144.486C27.4496 144.55 27.6558 144.883 27.5959 145.23C27.5294 145.599 27.2634 145.897 26.9175 145.982C26.5184 146.081 26.1059 145.868 25.78 145.407C25.5671 145.103 25.4807 144.734 25.5472 144.387C25.6802 143.664 26.1924 143.09 26.8643 142.927C27.6226 142.742 28.3942 143.104 28.9862 143.933C29.3986 144.507 29.5583 145.188 29.4319 145.854C29.4186 145.932 29.3987 146.003 29.3787 146.081C29.1459 147.016 28.5006 147.725 27.6093 148.037C26.658 148.37 25.627 148.172 24.8554 147.506L24.749 147.42C24.1237 146.917 23.3986 145.967 22.8531 144.961C21.117 141.665 18.5494 141.566 18.1902 141.566C18.137 141.559 18.0838 141.559 18.0239 141.559C17.4385 141.537 16.8798 141.75 16.4407 142.161ZM17.5848 144.996C17.1325 144.954 16.7933 144.521 16.8265 144.032C16.8531 143.692 16.9995 143.38 17.2456 143.153C17.3254 143.083 17.4119 143.019 17.4984 142.976C17.3986 143.083 17.3321 143.224 17.3254 143.387C17.2988 143.749 17.5516 144.068 17.8908 144.096C18.0106 144.103 18.117 144.195 18.1569 144.316C18.2101 144.472 18.1436 144.656 17.9773 144.833C17.8775 144.933 17.7445 144.996 17.6181 144.996C17.6048 145.003 17.5981 145.003 17.5848 144.996Z" fill="url(#paint15_linear_400_4245)"/>
<path d="M24.0636 135.874L23.9838 135.938C23.2188 136.554 22.3873 137.625 21.762 138.808C20.5381 141.14 18.8884 141.474 18.3563 141.523C18.8019 141.367 19.1611 140.999 19.3208 140.51C19.5403 139.85 19.3607 139.142 18.8352 138.603C18.4693 138.227 17.9638 138.029 17.4715 138.078C16.3407 138.185 15.4959 139.255 15.589 140.46C15.6423 141.155 15.9416 141.785 16.4339 142.232C16.9194 142.679 17.5447 142.898 18.1766 142.849C18.5492 142.863 21.1035 142.742 22.833 139.453C23.3784 138.44 24.1035 137.497 24.7421 136.98L24.8352 136.902C25.6068 136.243 26.6379 136.044 27.5891 136.37C28.4805 136.682 29.1257 137.391 29.3585 138.326C29.3785 138.397 29.3918 138.475 29.4051 138.553C29.5248 139.22 29.3652 139.9 28.9594 140.474C28.3674 141.303 27.5958 141.665 26.8374 141.481C26.1656 141.318 25.6534 140.743 25.5203 140.021C25.4605 139.673 25.5403 139.305 25.7532 139C26.0791 138.539 26.4915 138.334 26.8906 138.426C27.2365 138.511 27.5026 138.801 27.5691 139.177C27.629 139.517 27.4228 139.85 27.1035 139.921C26.7709 139.992 26.5514 140.339 26.6113 140.694C26.6778 141.055 27.0037 141.289 27.3363 141.218C28.3275 141.013 28.9727 139.985 28.7798 138.929C28.6201 138.043 27.9816 137.341 27.1634 137.143C26.2787 136.923 25.3807 137.327 24.7554 138.213C24.3363 138.816 24.17 139.56 24.2964 140.269C24.5226 141.502 25.4006 142.48 26.5448 142.764C27.782 143.068 29.0459 142.516 29.9306 141.275C30.5492 140.41 30.7953 139.326 30.6091 138.305C30.5891 138.199 30.5625 138.093 30.5426 137.986C30.1967 136.611 29.2521 135.569 27.9616 135.116C27.5292 134.967 27.0902 134.896 26.6512 134.896C25.7332 134.896 24.8152 135.236 24.0636 135.874ZM17.2454 141.233C16.9992 141.013 16.8529 140.701 16.8263 140.354C16.793 139.865 17.1323 139.432 17.5846 139.39C17.731 139.375 17.8707 139.439 17.9771 139.553C18.1434 139.723 18.2099 139.907 18.1567 140.07C18.1168 140.191 18.0104 140.283 17.8906 140.29C17.5514 140.318 17.2919 140.637 17.3252 140.999C17.3385 141.162 17.405 141.303 17.4981 141.41C17.405 141.367 17.3252 141.303 17.2454 141.233Z" fill="url(#paint16_linear_400_4245)"/>
<path d="M134.393 5.63047C134.28 5.43909 134.08 5.32569 133.874 5.32569C133.668 5.32569 133.468 5.43909 133.355 5.63047C133.269 5.77223 131.253 9.15321 131.745 11.7971C131.952 12.9241 132.81 13.6825 133.874 13.6825C134.938 13.6825 135.796 12.9241 136.003 11.7971C136.056 11.5065 136.082 11.2158 136.082 10.9111C136.082 8.45858 134.473 5.75806 134.393 5.63047ZM132.956 11.5419C132.703 10.1668 133.362 8.42316 133.874 7.33868C134.419 8.50821 135.025 10.2448 134.785 11.5419C134.672 12.1444 134.24 12.3642 133.874 12.3642C133.501 12.3642 133.069 12.1515 132.956 11.5419Z" fill="url(#paint17_linear_400_4245)"/>
<path d="M133.85 14.8237C133.424 14.2992 132.832 13.9802 132.187 13.9235C131.056 13.8314 130.052 14.7316 129.952 15.9294C129.905 16.4398 130.092 16.9926 130.444 17.3825C130.95 17.9424 131.622 18.1339 132.233 17.8999C132.686 17.7298 133.032 17.34 133.185 16.8722C133.138 17.4392 132.812 19.1971 130.63 20.5013C129.526 21.1746 128.522 22.0606 127.95 22.8545L127.876 22.9538C126.992 24.1233 126.726 25.6827 127.165 27.1216C127.584 28.5037 128.568 29.5031 129.852 29.8717C129.952 29.9 130.052 29.9284 130.151 29.9497C131.109 30.1482 132.127 29.8859 132.939 29.2267C134.103 28.284 134.628 26.9372 134.335 25.6188C134.069 24.3997 133.151 23.457 131.994 23.2231C131.329 23.0884 130.624 23.2656 130.065 23.7122C129.233 24.3714 128.861 25.3283 129.061 26.2781C129.247 27.157 129.905 27.8304 130.737 28.0005C131.728 28.206 132.692 27.5114 132.885 26.4623C132.952 26.1079 132.732 25.7606 132.393 25.6897C132.054 25.6189 131.735 25.8528 131.668 26.2143C131.608 26.5545 131.296 26.7742 130.97 26.7104C130.624 26.6396 130.344 26.356 130.265 25.9874C130.171 25.5622 130.371 25.1227 130.803 24.7754C131.089 24.5486 131.435 24.4564 131.761 24.5273C132.44 24.6691 132.978 25.2148 133.131 25.9307C133.304 26.7388 132.965 27.561 132.187 28.1918C131.648 28.6313 131.01 28.8014 130.384 28.6668C130.311 28.6526 130.245 28.6313 130.171 28.61C129.293 28.362 128.628 27.6744 128.335 26.7246C128.023 25.711 128.209 24.6124 128.834 23.7901L128.914 23.6767C129.386 23.0104 130.278 22.2378 131.222 21.6566C134.316 19.8066 134.409 17.0706 134.409 16.6879C134.415 16.6312 134.415 16.5745 134.415 16.5107C134.435 15.8869 134.229 15.2986 133.85 14.8237ZM131.182 16.0429C131.222 15.5609 131.628 15.1994 132.087 15.2348C132.406 15.2632 132.699 15.4191 132.912 15.6814C132.979 15.7664 133.038 15.8586 133.078 15.9507C132.979 15.8444 132.845 15.7735 132.692 15.7664C132.353 15.7381 132.054 16.0074 132.027 16.3689C132.021 16.4965 131.934 16.6099 131.821 16.6524C131.675 16.7091 131.502 16.6382 131.335 16.461C131.242 16.3547 131.182 16.213 131.182 16.0783C131.182 16.0712 131.182 16.057 131.182 16.0429Z" fill="url(#paint18_linear_400_4245)"/>
<path d="M139.749 22.9469L139.689 22.8618C139.111 22.0467 138.106 21.1607 136.995 20.4944C134.807 19.1902 134.494 17.4324 134.448 16.8653C134.594 17.3402 134.94 17.723 135.399 17.8931C136.017 18.127 136.683 17.9356 137.188 17.3757C137.541 16.9858 137.727 16.4471 137.68 15.9226C137.581 14.7176 136.576 13.8175 135.445 13.9167C134.794 13.9734 134.202 14.2923 133.782 14.8168C133.363 15.3343 133.157 16.0005 133.204 16.6739C133.19 17.0709 133.303 19.7927 136.39 21.6356C137.341 22.2168 138.226 22.9894 138.711 23.6699L138.785 23.7691C139.403 24.5913 139.59 25.69 139.284 26.7036C138.991 27.6534 138.326 28.3409 137.448 28.589C137.381 28.6103 137.308 28.6244 137.235 28.6386C136.61 28.7662 135.971 28.5961 135.432 28.1637C134.654 27.5329 134.315 26.7107 134.488 25.9026C134.647 25.1867 135.179 24.641 135.858 24.4992C136.184 24.4354 136.53 24.5204 136.816 24.7473C137.248 25.0946 137.441 25.5341 137.355 25.9593C137.275 26.3279 137.002 26.6114 136.649 26.6823C136.33 26.7461 136.017 26.5264 135.951 26.1862C135.884 25.8318 135.558 25.5979 135.226 25.6616C134.887 25.7325 134.667 26.0798 134.734 26.4342C134.927 27.4904 135.891 28.1779 136.882 27.9723C137.714 27.8022 138.372 27.1218 138.559 26.2499C138.765 25.3072 138.386 24.3503 137.554 23.684C136.989 23.2375 136.29 23.0603 135.625 23.195C134.468 23.436 133.55 24.3716 133.284 25.5907C132.998 26.9091 133.516 28.2559 134.68 29.1986C135.492 29.8578 136.51 30.12 137.468 29.9216C137.567 29.9003 137.667 29.872 137.767 29.8507C139.057 29.4821 140.035 28.4756 140.461 27.1005C140.601 26.6398 140.667 26.172 140.667 25.7042C140.667 24.726 140.355 23.7479 139.749 22.9469ZM134.72 15.6816C134.927 15.4194 135.219 15.2634 135.545 15.2351C136.004 15.1996 136.41 15.5611 136.45 16.0431C136.463 16.199 136.403 16.3479 136.297 16.4613C136.137 16.6385 135.964 16.7094 135.811 16.6527C135.698 16.6101 135.612 16.4967 135.605 16.3691C135.578 16.0076 135.279 15.7312 134.94 15.7667C134.787 15.7808 134.654 15.8517 134.554 15.951C134.601 15.8588 134.654 15.7667 134.72 15.6816Z" fill="url(#paint19_linear_400_4245)"/>
<defs>
<linearGradient id="paint0_linear_400_4245" x1="634.093" y1="-221.652" x2="-87.6754" y2="162" gradientUnits="userSpaceOnUse">
<stop stop-color="#EEDEBC"/>
<stop offset="0.059" stop-color="#DDC6A3"/>
<stop offset="0.1398" stop-color="#C9A885"/>
<stop offset="0.2581" stop-color="#9A7A5F"/>
<stop offset="0.3602" stop-color="#C9A885"/>
<stop offset="0.4892" stop-color="#EEDEBC"/>
<stop offset="0.5415" stop-color="#DDC6A3"/>
<stop offset="0.6129" stop-color="#C9A885"/>
<stop offset="0.7204" stop-color="#9A7A5F"/>
<stop offset="0.8387" stop-color="#C9A885"/>
<stop offset="1" stop-color="#EEDEBC"/>
</linearGradient>
<linearGradient id="paint1_linear_400_4245" x1="642.424" y1="-205.854" x2="-79.3449" y2="177.796" gradientUnits="userSpaceOnUse">
<stop stop-color="#EEDEBC"/>
<stop offset="0.059" stop-color="#DDC6A3"/>
<stop offset="0.1398" stop-color="#C9A885"/>
<stop offset="0.2581" stop-color="#9A7A5F"/>
<stop offset="0.3602" stop-color="#C9A885"/>
<stop offset="0.4892" stop-color="#EEDEBC"/>
<stop offset="0.5415" stop-color="#DDC6A3"/>
<stop offset="0.6129" stop-color="#C9A885"/>
<stop offset="0.7204" stop-color="#9A7A5F"/>
<stop offset="0.8387" stop-color="#C9A885"/>
<stop offset="1" stop-color="#EEDEBC"/>
</linearGradient>
<linearGradient id="paint2_linear_400_4245" x1="650.658" y1="-228.785" x2="-87.1521" y2="179.528" gradientUnits="userSpaceOnUse">
<stop stop-color="#EEDEBC"/>
<stop offset="0.059" stop-color="#DDC6A3"/>
<stop offset="0.1398" stop-color="#C9A885"/>
<stop offset="0.2581" stop-color="#9A7A5F"/>
<stop offset="0.3602" stop-color="#C9A885"/>
<stop offset="0.4892" stop-color="#EEDEBC"/>
<stop offset="0.5415" stop-color="#DDC6A3"/>
<stop offset="0.6129" stop-color="#C9A885"/>
<stop offset="0.7204" stop-color="#9A7A5F"/>
<stop offset="0.8387" stop-color="#C9A885"/>
<stop offset="1" stop-color="#EEDEBC"/>
</linearGradient>
<linearGradient id="paint3_linear_400_4245" x1="647.487" y1="-196.395" x2="-74.2811" y2="187.258" gradientUnits="userSpaceOnUse">
<stop stop-color="#EEDEBC"/>
<stop offset="0.059" stop-color="#DDC6A3"/>
<stop offset="0.1398" stop-color="#C9A885"/>
<stop offset="0.2581" stop-color="#9A7A5F"/>
<stop offset="0.3602" stop-color="#C9A885"/>
<stop offset="0.4892" stop-color="#EEDEBC"/>
<stop offset="0.5415" stop-color="#DDC6A3"/>
<stop offset="0.6129" stop-color="#C9A885"/>
<stop offset="0.7204" stop-color="#9A7A5F"/>
<stop offset="0.8387" stop-color="#C9A885"/>
<stop offset="1" stop-color="#EEDEBC"/>
</linearGradient>
<linearGradient id="paint4_linear_400_4245" x1="650.955" y1="-189.725" x2="-70.8129" y2="193.926" gradientUnits="userSpaceOnUse">
<stop stop-color="#EEDEBC"/>
<stop offset="0.059" stop-color="#DDC6A3"/>
<stop offset="0.1398" stop-color="#C9A885"/>
<stop offset="0.2581" stop-color="#9A7A5F"/>
<stop offset="0.3602" stop-color="#C9A885"/>
<stop offset="0.4892" stop-color="#EEDEBC"/>
<stop offset="0.5415" stop-color="#DDC6A3"/>
<stop offset="0.6129" stop-color="#C9A885"/>
<stop offset="0.7204" stop-color="#9A7A5F"/>
<stop offset="0.8387" stop-color="#C9A885"/>
<stop offset="1" stop-color="#EEDEBC"/>
</linearGradient>
<linearGradient id="paint5_linear_400_4245" x1="654.928" y1="-182.443" x2="-66.8389" y2="201.208" gradientUnits="userSpaceOnUse">
<stop stop-color="#EEDEBC"/>
<stop offset="0.059" stop-color="#DDC6A3"/>
<stop offset="0.1398" stop-color="#C9A885"/>
<stop offset="0.2581" stop-color="#9A7A5F"/>
<stop offset="0.3602" stop-color="#C9A885"/>
<stop offset="0.4892" stop-color="#EEDEBC"/>
<stop offset="0.5415" stop-color="#DDC6A3"/>
<stop offset="0.6129" stop-color="#C9A885"/>
<stop offset="0.7204" stop-color="#9A7A5F"/>
<stop offset="0.8387" stop-color="#C9A885"/>
<stop offset="1" stop-color="#EEDEBC"/>
</linearGradient>
<linearGradient id="paint6_linear_400_4245" x1="654.464" y1="-183.281" x2="-67.3039" y2="200.371" gradientUnits="userSpaceOnUse">
<stop stop-color="#EEDEBC"/>
<stop offset="0.059" stop-color="#DDC6A3"/>
<stop offset="0.1398" stop-color="#C9A885"/>
<stop offset="0.2581" stop-color="#9A7A5F"/>
<stop offset="0.3602" stop-color="#C9A885"/>
<stop offset="0.4892" stop-color="#EEDEBC"/>
<stop offset="0.5415" stop-color="#DDC6A3"/>
<stop offset="0.6129" stop-color="#C9A885"/>
<stop offset="0.7204" stop-color="#9A7A5F"/>
<stop offset="0.8387" stop-color="#C9A885"/>
<stop offset="1" stop-color="#EEDEBC"/>
</linearGradient>
<linearGradient id="paint7_linear_400_4245" x1="650.251" y1="-191.053" x2="-71.5189" y2="192.6" gradientUnits="userSpaceOnUse">
<stop stop-color="#EEDEBC"/>
<stop offset="0.059" stop-color="#DDC6A3"/>
<stop offset="0.1398" stop-color="#C9A885"/>
<stop offset="0.2581" stop-color="#9A7A5F"/>
<stop offset="0.3602" stop-color="#C9A885"/>
<stop offset="0.4892" stop-color="#EEDEBC"/>
<stop offset="0.5415" stop-color="#DDC6A3"/>
<stop offset="0.6129" stop-color="#C9A885"/>
<stop offset="0.7204" stop-color="#9A7A5F"/>
<stop offset="0.8387" stop-color="#C9A885"/>
<stop offset="1" stop-color="#EEDEBC"/>
</linearGradient>
<linearGradient id="paint8_linear_400_4245" x1="650.503" y1="-190.72" x2="-71.2655" y2="192.932" gradientUnits="userSpaceOnUse">
<stop stop-color="#EEDEBC"/>
<stop offset="0.059" stop-color="#DDC6A3"/>
<stop offset="0.1398" stop-color="#C9A885"/>
<stop offset="0.2581" stop-color="#9A7A5F"/>
<stop offset="0.3602" stop-color="#C9A885"/>
<stop offset="0.4892" stop-color="#EEDEBC"/>
<stop offset="0.5415" stop-color="#DDC6A3"/>
<stop offset="0.6129" stop-color="#C9A885"/>
<stop offset="0.7204" stop-color="#9A7A5F"/>
<stop offset="0.8387" stop-color="#C9A885"/>
<stop offset="1" stop-color="#EEDEBC"/>
</linearGradient>
<linearGradient id="paint9_linear_400_4245" x1="646.582" y1="-197.996" x2="-75.1782" y2="185.643" gradientUnits="userSpaceOnUse">
<stop stop-color="#EEDEBC"/>
<stop offset="0.059" stop-color="#DDC6A3"/>
<stop offset="0.1398" stop-color="#C9A885"/>
<stop offset="0.2581" stop-color="#9A7A5F"/>
<stop offset="0.3602" stop-color="#C9A885"/>
<stop offset="0.4892" stop-color="#EEDEBC"/>
<stop offset="0.5415" stop-color="#DDC6A3"/>
<stop offset="0.6129" stop-color="#C9A885"/>
<stop offset="0.7204" stop-color="#9A7A5F"/>
<stop offset="0.8387" stop-color="#C9A885"/>
<stop offset="1" stop-color="#EEDEBC"/>
</linearGradient>
<linearGradient id="paint10_linear_400_4245" x1="646.478" y1="-198.328" x2="-75.2903" y2="185.324" gradientUnits="userSpaceOnUse">
<stop stop-color="#EEDEBC"/>
<stop offset="0.059" stop-color="#DDC6A3"/>
<stop offset="0.1398" stop-color="#C9A885"/>
<stop offset="0.2581" stop-color="#9A7A5F"/>
<stop offset="0.3602" stop-color="#C9A885"/>
<stop offset="0.4892" stop-color="#EEDEBC"/>
<stop offset="0.5415" stop-color="#DDC6A3"/>
<stop offset="0.6129" stop-color="#C9A885"/>
<stop offset="0.7204" stop-color="#9A7A5F"/>
<stop offset="0.8387" stop-color="#C9A885"/>
<stop offset="1" stop-color="#EEDEBC"/>
</linearGradient>
<linearGradient id="paint11_linear_400_4245" x1="658.166" y1="-176.285" x2="-63.5997" y2="207.361" gradientUnits="userSpaceOnUse">
<stop stop-color="#EEDEBC"/>
<stop offset="0.059" stop-color="#DDC6A3"/>
<stop offset="0.1398" stop-color="#C9A885"/>
<stop offset="0.2581" stop-color="#9A7A5F"/>
<stop offset="0.3602" stop-color="#C9A885"/>
<stop offset="0.4892" stop-color="#EEDEBC"/>
<stop offset="0.5415" stop-color="#DDC6A3"/>
<stop offset="0.6129" stop-color="#C9A885"/>
<stop offset="0.7204" stop-color="#9A7A5F"/>
<stop offset="0.8387" stop-color="#C9A885"/>
<stop offset="1" stop-color="#EEDEBC"/>
</linearGradient>
<linearGradient id="paint12_linear_400_4245" x1="658.828" y1="-174.954" x2="-62.9396" y2="208.697" gradientUnits="userSpaceOnUse">
<stop stop-color="#EEDEBC"/>
<stop offset="0.059" stop-color="#DDC6A3"/>
<stop offset="0.1398" stop-color="#C9A885"/>
<stop offset="0.2581" stop-color="#9A7A5F"/>
<stop offset="0.3602" stop-color="#C9A885"/>
<stop offset="0.4892" stop-color="#EEDEBC"/>
<stop offset="0.5415" stop-color="#DDC6A3"/>
<stop offset="0.6129" stop-color="#C9A885"/>
<stop offset="0.7204" stop-color="#9A7A5F"/>
<stop offset="0.8387" stop-color="#C9A885"/>
<stop offset="1" stop-color="#EEDEBC"/>
</linearGradient>
<linearGradient id="paint13_linear_400_4245" x1="646.508" y1="-198.143" x2="-75.2584" y2="185.507" gradientUnits="userSpaceOnUse">
<stop stop-color="#EEDEBC"/>
<stop offset="0.059" stop-color="#DDC6A3"/>
<stop offset="0.1398" stop-color="#C9A885"/>
<stop offset="0.2581" stop-color="#9A7A5F"/>
<stop offset="0.3602" stop-color="#C9A885"/>
<stop offset="0.4892" stop-color="#EEDEBC"/>
<stop offset="0.5415" stop-color="#DDC6A3"/>
<stop offset="0.6129" stop-color="#C9A885"/>
<stop offset="0.7204" stop-color="#9A7A5F"/>
<stop offset="0.8387" stop-color="#C9A885"/>
<stop offset="1" stop-color="#EEDEBC"/>
</linearGradient>
<linearGradient id="paint14_linear_400_4245" x1="629.404" y1="-230.32" x2="-92.3636" y2="153.33" gradientUnits="userSpaceOnUse">
<stop stop-color="#EEDEBC"/>
<stop offset="0.059" stop-color="#DDC6A3"/>
<stop offset="0.1398" stop-color="#C9A885"/>
<stop offset="0.2581" stop-color="#9A7A5F"/>
<stop offset="0.3602" stop-color="#C9A885"/>
<stop offset="0.4892" stop-color="#EEDEBC"/>
<stop offset="0.5415" stop-color="#DDC6A3"/>
<stop offset="0.6129" stop-color="#C9A885"/>
<stop offset="0.7204" stop-color="#9A7A5F"/>
<stop offset="0.8387" stop-color="#C9A885"/>
<stop offset="1" stop-color="#EEDEBC"/>
</linearGradient>
<linearGradient id="paint15_linear_400_4245" x1="633.311" y1="-223.087" x2="-88.4573" y2="160.564" gradientUnits="userSpaceOnUse">
<stop stop-color="#EEDEBC"/>
<stop offset="0.059" stop-color="#DDC6A3"/>
<stop offset="0.1398" stop-color="#C9A885"/>
<stop offset="0.2581" stop-color="#9A7A5F"/>
<stop offset="0.3602" stop-color="#C9A885"/>
<stop offset="0.4892" stop-color="#EEDEBC"/>
<stop offset="0.5415" stop-color="#DDC6A3"/>
<stop offset="0.6129" stop-color="#C9A885"/>
<stop offset="0.7204" stop-color="#9A7A5F"/>
<stop offset="0.8387" stop-color="#C9A885"/>
<stop offset="1" stop-color="#EEDEBC"/>
</linearGradient>
<linearGradient id="paint16_linear_400_4245" x1="631.277" y1="-226.915" x2="-90.4903" y2="156.738" gradientUnits="userSpaceOnUse">
<stop stop-color="#EEDEBC"/>
<stop offset="0.059" stop-color="#DDC6A3"/>
<stop offset="0.1398" stop-color="#C9A885"/>
<stop offset="0.2581" stop-color="#9A7A5F"/>
<stop offset="0.3602" stop-color="#C9A885"/>
<stop offset="0.4892" stop-color="#EEDEBC"/>
<stop offset="0.5415" stop-color="#DDC6A3"/>
<stop offset="0.6129" stop-color="#C9A885"/>
<stop offset="0.7204" stop-color="#9A7A5F"/>
<stop offset="0.8387" stop-color="#C9A885"/>
<stop offset="1" stop-color="#EEDEBC"/>
</linearGradient>
<linearGradient id="paint17_linear_400_4245" x1="605.658" y1="-275.103" x2="-116.111" y2="108.551" gradientUnits="userSpaceOnUse">
<stop stop-color="#EEDEBC"/>
<stop offset="0.059" stop-color="#DDC6A3"/>
<stop offset="0.1398" stop-color="#C9A885"/>
<stop offset="0.2581" stop-color="#9A7A5F"/>
<stop offset="0.3602" stop-color="#C9A885"/>
<stop offset="0.4892" stop-color="#EEDEBC"/>
<stop offset="0.5415" stop-color="#DDC6A3"/>
<stop offset="0.6129" stop-color="#C9A885"/>
<stop offset="0.7204" stop-color="#9A7A5F"/>
<stop offset="0.8387" stop-color="#C9A885"/>
<stop offset="1" stop-color="#EEDEBC"/>
</linearGradient>
<linearGradient id="paint18_linear_400_4245" x1="610.013" y1="-266.784" x2="-111.755" y2="116.866" gradientUnits="userSpaceOnUse">
<stop stop-color="#EEDEBC"/>
<stop offset="0.059" stop-color="#DDC6A3"/>
<stop offset="0.1398" stop-color="#C9A885"/>
<stop offset="0.2581" stop-color="#9A7A5F"/>
<stop offset="0.3602" stop-color="#C9A885"/>
<stop offset="0.4892" stop-color="#EEDEBC"/>
<stop offset="0.5415" stop-color="#DDC6A3"/>
<stop offset="0.6129" stop-color="#C9A885"/>
<stop offset="0.7204" stop-color="#9A7A5F"/>
<stop offset="0.8387" stop-color="#C9A885"/>
<stop offset="1" stop-color="#EEDEBC"/>
</linearGradient>
<linearGradient id="paint19_linear_400_4245" x1="611.183" y1="-264.594" x2="-110.584" y2="119.057" gradientUnits="userSpaceOnUse">
<stop stop-color="#EEDEBC"/>
<stop offset="0.059" stop-color="#DDC6A3"/>
<stop offset="0.1398" stop-color="#C9A885"/>
<stop offset="0.2581" stop-color="#9A7A5F"/>
<stop offset="0.3602" stop-color="#C9A885"/>
<stop offset="0.4892" stop-color="#EEDEBC"/>
<stop offset="0.5415" stop-color="#DDC6A3"/>
<stop offset="0.6129" stop-color="#C9A885"/>
<stop offset="0.7204" stop-color="#9A7A5F"/>
<stop offset="0.8387" stop-color="#C9A885"/>
<stop offset="1" stop-color="#EEDEBC"/>
</linearGradient>
</defs>
</svg>
