<svg width="51" height="51" viewBox="0 0 51 51" fill="none" xmlns="http://www.w3.org/2000/svg">
<path d="M20.2019 21.4486C20.0766 21.5818 19.9514 21.7075 19.8187 21.8332C18.5587 23.0093 16.805 23.5862 15.0219 23.416C14.6682 23.3791 14.3219 23.3273 13.9903 23.2459C11.9566 22.7726 10.4018 21.4782 9.79026 19.6587C9.47342 18.7194 9.43657 17.7283 9.65026 16.7963C9.87868 15.7978 10.4092 14.8658 11.1902 14.141C12.0524 13.3422 13.2313 12.9502 14.4398 13.0463C14.705 13.0685 14.9555 13.1055 15.1987 13.1647C16.5913 13.4901 17.6745 14.3851 18.1019 15.6498C18.3303 16.3155 18.3598 17.0108 18.205 17.6691C18.0429 18.3717 17.6745 19.0226 17.1292 19.5256C16.3482 20.2578 15.2797 20.5019 14.3145 20.2726C13.7397 20.1394 13.1945 19.8362 12.7597 19.3702C12.5534 19.1483 12.4871 18.8525 12.5534 18.5788C12.5903 18.4161 12.6787 18.2608 12.8039 18.1424C13.025 17.9353 13.3197 17.8688 13.5924 17.9353C13.7545 17.9723 13.9092 18.0611 14.0271 18.1868C14.2187 18.3939 14.4545 18.5271 14.705 18.5862C15.1324 18.6824 15.5966 18.5788 15.9429 18.2534C16.2303 17.9871 16.4219 17.6469 16.5103 17.277C16.5914 16.9294 16.5766 16.567 16.4587 16.2194C16.2229 15.5463 15.6629 15.0655 14.8082 14.8658C14.6461 14.8288 14.4692 14.7993 14.285 14.7845C13.5555 14.7253 12.8555 14.9546 12.3618 15.4205C11.8387 15.9087 11.4924 16.53 11.3376 17.1957C11.1903 17.817 11.2197 18.4753 11.426 19.104C11.846 20.3392 12.8629 21.1972 14.3513 21.5522C14.6092 21.6113 14.8892 21.6557 15.1766 21.6853C16.5029 21.811 17.7187 21.4116 18.6324 20.561C18.7356 20.4649 18.8313 20.3688 18.9271 20.2652C19.5535 19.5921 19.9661 18.8007 20.165 17.9501C20.3492 17.1587 20.3419 16.3082 20.1356 15.4576C19.6714 13.5789 18.3229 12.0774 16.525 11.4413L16.304 11.3673H16.2966C15.9576 11.2342 15.5598 11.1159 15.1324 11.0197C13.8577 10.7239 12.2734 10.5759 10.7482 10.6351C9.38498 10.6943 8.19867 10.5685 7.16709 10.3318C3.33548 9.43687 1.72178 6.9443 1.49335 6.5523C1.43441 6.47833 1.3828 6.39697 1.33123 6.31561C0.800695 5.46502 0.601763 4.45913 0.749132 3.46062C0.76387 3.34967 0.785988 3.23872 0.808094 3.13517C1.03652 2.15885 1.59651 1.29348 2.41441 0.694376C3.28389 0.05089 4.35234 -0.134018 5.33234 0.0952702C6.1134 0.28018 6.83551 0.72394 7.3513 1.4118C7.85235 2.08487 8.03656 2.96508 7.85235 3.80827V3.81563L7.8376 3.87481C7.57233 5.02125 6.79129 5.87924 5.7376 6.10113C5.35444 6.18249 4.97126 6.17508 4.6102 6.09372C4.0281 5.95319 3.49023 5.61295 3.1218 5.10999C2.96707 4.8955 2.92285 4.63665 2.97442 4.39256C3.01864 4.20026 3.13654 4.01536 3.30602 3.88962C3.5197 3.73429 3.77758 3.68991 4.02073 3.74168C4.21231 3.78606 4.39652 3.89701 4.52179 4.07453C4.63968 4.23725 4.81655 4.34819 5.00813 4.39256C5.12603 4.42215 5.25129 4.42215 5.37655 4.39256C5.56077 4.35558 5.71547 4.25943 5.8481 4.1115C5.98073 3.96357 6.09129 3.74909 6.15023 3.47542L6.15761 3.43845C6.23129 3.08342 6.1576 2.70619 5.96602 2.45472C5.70076 2.10709 5.33969 1.87778 4.94179 1.78902C4.44074 1.67068 3.89545 1.76686 3.44597 2.0923C2.95965 2.44733 2.63547 2.95028 2.50283 3.5272C2.4881 3.59377 2.47337 3.6529 2.466 3.71947C2.36284 4.37775 2.52494 5.02867 2.91546 5.56121L2.92284 5.56857L2.96705 5.63515L2.97442 5.64256V5.64996C3.026 5.73132 4.26389 7.86146 7.56497 8.63808C8.44918 8.84518 9.48075 8.95611 10.6818 8.89694C12.3839 8.83037 14.0934 8.9857 15.5155 9.31853C16.0166 9.43688 16.4734 9.57741 16.8934 9.73273L17.0998 9.80672C19.4577 10.6351 21.2261 12.6025 21.8229 15.0507C22.0956 16.175 22.103 17.2993 21.8598 18.3569C21.5946 19.4886 21.0345 20.5537 20.2019 21.4486Z" fill="#E0E0E0"/>
<path d="M29.2949 30.0575C29.1623 30.1832 29.037 30.3163 28.9191 30.4494C27.7697 31.7364 27.2392 33.5041 27.4381 35.2941C27.4823 35.6491 27.5412 35.9967 27.6297 36.3296C28.1455 38.3562 29.4644 39.8946 31.2918 40.4715C32.235 40.7748 33.2224 40.7896 34.1434 40.5529C35.1308 40.3014 36.0518 39.7541 36.7592 38.9553C37.5403 38.0751 37.9087 36.8843 37.7834 35.6713C37.754 35.4124 37.7098 35.1536 37.6508 34.9095C37.2971 33.519 36.3834 32.4539 35.1161 32.0471C34.4529 31.8326 33.7529 31.8178 33.1044 31.9879C32.4118 32.1654 31.7708 32.55 31.2771 33.1048C30.5697 33.9036 30.3486 34.976 30.5918 35.9449C30.7392 36.5219 31.0487 37.0618 31.5276 37.4834C31.7487 37.6831 32.0507 37.7497 32.3234 37.6757C32.4855 37.6313 32.6402 37.5426 32.7581 37.4095C32.9571 37.1876 33.0234 36.8843 32.9497 36.6106C32.9055 36.4479 32.8171 36.2926 32.6845 36.1742C32.4782 35.9893 32.3382 35.7527 32.2718 35.5012C32.1613 35.0722 32.2645 34.6062 32.5739 34.2512C32.8318 33.9553 33.1708 33.7557 33.5318 33.6669C33.8708 33.5781 34.2392 33.5855 34.5855 33.6965C35.2634 33.9184 35.7497 34.4731 35.9708 35.3237C36.015 35.4864 36.0445 35.6639 36.0666 35.8488C36.1403 36.581 35.9266 37.2837 35.4771 37.794C35.0055 38.3266 34.3939 38.689 33.7308 38.8591C33.1118 39.0144 32.456 39.007 31.8297 38.8073C30.5918 38.4153 29.7149 37.4094 29.3318 35.9154C29.2655 35.6565 29.2139 35.3754 29.1844 35.087C29.0297 33.7556 29.4055 32.5278 30.2308 31.5959C30.3265 31.4923 30.4223 31.3888 30.5181 31.2926C31.1739 30.6492 31.955 30.2202 32.8023 29.9983C33.5908 29.7986 34.4308 29.7838 35.2855 29.9761C37.1718 30.3977 38.6898 31.7216 39.3603 33.519L39.4413 33.7334V33.7408C39.5813 34.0811 39.7066 34.4731 39.8098 34.9021C40.134 36.1743 40.3108 37.7571 40.2814 39.2955C40.2445 40.6639 40.3992 41.8547 40.6571 42.8828C41.6298 46.7141 44.1424 48.2821 44.5329 48.504C44.614 48.5558 44.6877 48.6076 44.7687 48.6593C45.6235 49.1697 46.633 49.3546 47.6277 49.1845C47.7382 49.1623 47.8414 49.1401 47.9519 49.1179C48.9246 48.8664 49.7719 48.2895 50.354 47.4537C50.973 46.5661 51.1351 45.4937 50.8919 44.5174C50.693 43.7408 50.2362 43.0233 49.5362 42.5203C48.8583 42.0322 47.974 41.8695 47.1414 42.0618H47.134L47.0751 42.0766C45.9403 42.365 45.1003 43.1638 44.9014 44.2289C44.8277 44.6135 44.8424 44.9981 44.9309 45.3606C45.0782 45.9449 45.4319 46.47 45.9403 46.8324C46.154 46.9804 46.4193 47.0247 46.6551 46.9656C46.8466 46.9138 47.0235 46.7954 47.1488 46.6253C47.3035 46.4108 47.3404 46.1446 47.2814 45.9079C47.2298 45.7156 47.1193 45.5381 46.9424 45.4124C46.7803 45.294 46.6624 45.1239 46.6109 44.9316C46.5814 44.8132 46.574 44.6875 46.6035 44.5617C46.6403 44.3768 46.7287 44.2215 46.8761 44.081C47.0235 43.9478 47.2372 43.8295 47.5025 43.7629L47.5393 43.7555C47.893 43.6742 48.2688 43.7408 48.5267 43.9331C48.8804 44.1919 49.1088 44.547 49.2119 44.9464C49.3372 45.4493 49.2562 45.9966 48.9393 46.4478C48.593 46.936 48.0993 47.2836 47.5319 47.4241C47.473 47.4389 47.4066 47.4537 47.3403 47.4685C46.6845 47.5795 46.0361 47.4389 45.4982 47.0543L45.4909 47.0469L45.4245 47.0099L45.4172 47.0025H45.4098C45.3214 46.9508 43.1772 45.7525 42.3445 42.4612C42.1235 41.581 41.9908 40.5455 42.0203 39.3399C42.0498 37.6313 41.8582 35.9228 41.4971 34.4953C41.3719 33.9997 41.2245 33.5337 41.055 33.1195L40.9813 32.9199C40.1045 30.5678 38.115 28.837 35.6613 28.2897C34.5339 28.0382 33.4139 28.053 32.3676 28.3193C31.2181 28.6151 30.1644 29.1995 29.2949 30.0575Z" fill="#E0E0E0"/>
<path d="M23.0009 49.6354C23.1851 49.5984 23.3693 49.5466 23.5535 49.4948C25.2998 48.9993 26.7661 47.7271 27.584 46.0185C27.7461 45.6783 27.8861 45.3381 27.9967 44.9905C28.6746 42.8973 28.3578 40.7893 27.0609 39.2361C26.3904 38.4372 25.5209 37.8677 24.5704 37.5571C23.5461 37.2242 22.4261 37.1947 21.3503 37.5053C20.164 37.8456 19.1692 38.7035 18.6019 39.85C18.4766 40.1014 18.3808 40.3529 18.2924 40.6044C17.8282 42.0393 18.0419 43.5038 18.9408 44.5836C19.4124 45.1531 20.024 45.5526 20.6945 45.7745C21.4093 46.0112 22.1977 46.0333 22.9493 45.8114C24.0325 45.5008 24.8282 44.6724 25.1525 43.6739C25.344 43.0822 25.3661 42.4165 25.1819 41.773C25.0935 41.4698 24.8651 41.2405 24.5851 41.1517C24.4156 41.1 24.2314 41.0926 24.0546 41.1443C23.7525 41.2331 23.524 41.4624 23.4356 41.7434C23.384 41.9136 23.3767 42.0984 23.4283 42.276C23.5093 42.557 23.5019 42.8455 23.4135 43.1043C23.2735 43.5407 22.9198 43.9106 22.4409 44.0437C22.043 44.1546 21.6303 44.1473 21.2546 44.0215C20.9009 43.9032 20.584 43.6961 20.3335 43.4002C19.8545 42.8159 19.7293 42.0541 20.0167 41.1739C20.0682 41.0038 20.1419 40.8337 20.2303 40.6561C20.5693 39.9609 21.1661 39.458 21.844 39.2657C22.5661 39.0586 23.3103 39.0807 23.9956 39.3026C24.6293 39.5097 25.2114 39.8944 25.6609 40.4195C26.5451 41.4698 26.7588 42.8603 26.2651 44.3987C26.1767 44.665 26.0661 44.9387 25.9335 45.2197C25.3219 46.4919 24.3051 47.3721 23.0451 47.7345C22.9051 47.7789 22.7577 47.8085 22.6177 47.838C21.6745 48.0377 20.7387 47.986 19.8619 47.6975C19.0514 47.4312 18.2924 46.9653 17.6366 46.3144C16.1998 44.8721 15.5882 42.8381 16.0008 40.8633L16.0524 40.6266V40.6192C16.1187 40.242 16.2293 39.8204 16.3693 39.3766C16.7966 38.0674 17.5261 36.5512 18.4103 35.205C19.2061 34.0068 19.744 32.8604 20.0829 31.8027C21.3651 27.8456 20.0019 25.035 19.7809 24.6134C19.744 24.5172 19.6998 24.4285 19.6556 24.3397C19.1766 23.4004 18.3882 22.6682 17.4082 22.2614C17.2977 22.217 17.1945 22.18 17.084 22.143C16.0819 21.8176 14.9987 21.8546 14.0187 22.2688C12.9724 22.7051 12.2208 23.5705 11.8966 24.5838C11.6387 25.39 11.6461 26.285 11.985 27.1282C12.3166 27.9418 13.0092 28.5927 13.864 28.8885H13.8713L13.9377 28.9107C15.1093 29.2953 16.3029 29.0512 17.084 28.2228C17.364 27.927 17.5703 27.572 17.6882 27.1948C17.8871 26.5883 17.8651 25.9226 17.6145 25.3161C17.504 25.0572 17.2977 24.8723 17.0545 24.7983C16.8556 24.7317 16.6272 24.7392 16.4208 24.8279C16.1629 24.9315 15.9787 25.146 15.905 25.3901C15.8387 25.5898 15.8461 25.8116 15.9271 26.0261C16.0082 26.2258 16.0156 26.4403 15.9492 26.64C15.9124 26.7658 15.8461 26.8767 15.7503 26.9802C15.6176 27.1282 15.4482 27.2169 15.2345 27.2539C15.0282 27.2909 14.7776 27.2761 14.4976 27.18L14.4608 27.1652C14.0997 27.0394 13.805 26.7658 13.6797 26.4551C13.5103 26.0261 13.5029 25.5749 13.6355 25.1681C13.805 24.6504 14.1882 24.2066 14.7187 23.9847C15.3008 23.7406 15.9345 23.7185 16.524 23.9108C16.5903 23.933 16.6566 23.9551 16.7155 23.9847C17.364 24.251 17.8577 24.7466 18.123 25.3901L18.1303 25.3975L18.1672 25.4714V25.4788V25.4862C18.2114 25.575 19.4493 27.8604 18.3514 31.2628C18.0566 32.1725 17.5924 33.1636 16.8924 34.2213C15.9124 35.7228 15.1166 37.35 14.645 38.8293C14.4755 39.3396 14.3503 39.8352 14.2692 40.3011L14.225 40.523C13.6871 43.1044 14.4903 45.7745 16.3619 47.6457C17.224 48.5037 18.2261 49.125 19.3093 49.4801C20.4809 49.8277 21.7409 49.9016 23.0009 49.6354Z" fill="#E0E0E0"/>
<path d="M0.0709743 28.1199C0.100449 27.935 0.129934 27.7427 0.174145 27.5578C0.549936 25.7753 1.71412 24.222 3.35728 23.2901C3.68887 23.1052 4.02047 22.9425 4.35205 22.8093C6.38575 21.9883 8.50784 22.1658 10.1289 23.3641C10.9689 23.9853 11.5952 24.8137 11.971 25.7457C12.3689 26.7442 12.4794 27.8684 12.2437 28.9631C11.9858 30.1761 11.1974 31.2264 10.0995 31.8699C9.85629 32.0104 9.61314 32.1287 9.36998 32.2249C7.97734 32.787 6.50365 32.6687 5.36891 31.8403C4.77206 31.4039 4.32994 30.8196 4.06467 30.1613C3.78467 29.4586 3.71098 28.6746 3.87309 27.9054C4.10888 26.8033 4.88257 25.9454 5.85521 25.5608C6.43731 25.3315 7.08574 25.2575 7.74153 25.3981C8.05101 25.4646 8.28681 25.6791 8.39734 25.9528C8.46365 26.1155 8.47839 26.3004 8.44155 26.4853C8.37523 26.796 8.16154 27.0326 7.88891 27.1436C7.7268 27.2102 7.54261 27.225 7.3584 27.188C7.07103 27.1288 6.79099 27.1584 6.53309 27.2545C6.10572 27.4246 5.76678 27.8019 5.66362 28.29C5.5752 28.6968 5.61942 29.1036 5.76679 29.4734C5.90679 29.8211 6.1352 30.1243 6.44467 30.3536C7.05626 30.7974 7.82261 30.864 8.68472 30.5237C8.84682 30.4572 9.01629 30.3758 9.18577 30.2797C9.84893 29.895 10.3131 29.2663 10.4605 28.5711C10.6226 27.8388 10.5489 27.0918 10.2763 26.4187C10.0258 25.7974 9.61315 25.2427 9.05314 24.8285C7.94787 24.0149 6.55523 23.8892 5.05207 24.4883C4.7868 24.5918 4.5289 24.725 4.26364 24.8729C3.04047 25.5682 2.23731 26.6554 1.96468 27.935C1.9352 28.0829 1.9057 28.2234 1.89096 28.3714C1.75833 29.3255 1.86886 30.2649 2.21518 31.1154C2.53202 31.9069 3.04782 32.6391 3.74046 33.2456C5.26573 34.5917 7.33627 35.0651 9.26681 34.5178L9.50261 34.4512H9.50998C9.88577 34.3551 10.291 34.2219 10.7258 34.0444C12.0005 33.534 13.4595 32.6983 14.7416 31.722C15.8763 30.8418 16.9816 30.2353 18.0132 29.8137C21.8595 28.2678 24.748 29.4365 25.1754 29.6362C25.2711 29.6658 25.3669 29.7027 25.4554 29.7471C26.4206 30.1613 27.2017 30.901 27.6732 31.8625C27.7248 31.966 27.769 32.077 27.8132 32.1805C28.2038 33.1642 28.2333 34.2441 27.8943 35.2574C27.5333 36.3373 26.7153 37.1435 25.7353 37.5355C24.9543 37.8535 24.0627 37.9053 23.2006 37.6243C22.368 37.3506 21.6753 36.6923 21.329 35.8639V35.8565L21.3069 35.7974C20.8427 34.6509 21.0048 33.4379 21.7785 32.6021C22.0585 32.2989 22.3901 32.077 22.7585 31.929C23.348 31.6923 24.0111 31.6628 24.6301 31.8772C24.8879 31.966 25.0943 32.1657 25.1827 32.4024C25.2637 32.5947 25.2711 32.824 25.1974 33.0385C25.109 33.3048 24.9101 33.4971 24.6743 33.5932C24.4827 33.6746 24.2543 33.682 24.0406 33.608C23.8416 33.5415 23.6206 33.5489 23.429 33.6228C23.3111 33.6746 23.2006 33.7486 23.1048 33.8447C22.9722 33.9926 22.8911 34.1627 22.869 34.3772C22.8469 34.5843 22.8837 34.8358 22.9869 35.1095L23.0016 35.1465C23.149 35.5015 23.4437 35.7752 23.7606 35.8787C24.1953 36.0192 24.6448 35.9971 25.0427 35.8343C25.5438 35.6346 25.9638 35.2204 26.148 34.6657C26.3469 34.0666 26.3322 33.4305 26.1037 32.8536C26.0816 32.787 26.0522 32.7278 26.0227 32.6613C25.7132 32.0326 25.1827 31.5666 24.5269 31.3447H24.5196L24.4458 31.3152H24.4385H24.4311C24.3353 31.2708 21.9848 30.1909 18.6764 31.5222C17.7921 31.8773 16.8343 32.4098 15.8321 33.179C14.4027 34.2663 12.8405 35.1687 11.4037 35.7382C10.9026 35.9379 10.4237 36.1006 9.96682 36.2116L9.74578 36.2707C7.21103 36.9808 4.5068 36.3595 2.51731 34.6065C1.60362 33.8077 0.918316 32.8388 0.498314 31.7737C0.0488377 30.6495 -0.105869 29.3921 0.0709743 28.1199Z" fill="#E0E0E0"/>
<path d="M22.774 27.1657C22.4866 27.3284 22.1845 27.4764 21.8824 27.5947C21.9929 27.3137 22.1256 27.0178 22.2877 26.7368C22.5456 26.2708 22.8772 25.8492 23.2382 25.6051C23.3487 25.5311 23.4372 25.5089 23.5182 25.5089C23.6361 25.5089 23.7466 25.5681 23.8277 25.6421C23.9087 25.7234 23.9677 25.8344 23.9603 25.9528C23.9603 26.0341 23.9382 26.1228 23.8645 26.2338C23.6435 26.5814 23.2308 26.8995 22.774 27.1657Z" fill="#E0E0E0"/>
<path d="M24.8619 24.606L24.685 24.7835L24.8619 24.606C24.4935 24.2362 24.0145 24.0365 23.5282 24.0439C23.1524 24.0439 22.7692 24.1622 22.4303 24.3915C21.5534 24.9832 20.9787 26.0039 20.6029 26.8767C20.2271 27.7568 20.065 28.4965 20.0429 28.5704C20.0355 28.6222 20.0282 28.6666 20.0282 28.7184C20.0282 28.9255 20.1166 29.1029 20.2492 29.2361C20.3819 29.3692 20.5587 29.458 20.765 29.458C20.8092 29.458 20.8608 29.4506 20.9124 29.4432C20.9934 29.4284 21.7303 29.2583 22.5998 28.8885C23.4693 28.5113 24.4861 27.9344 25.0756 27.0542C25.304 26.714 25.4219 26.3293 25.4219 25.9521C25.4219 25.4566 25.2303 24.9758 24.8619 24.606ZM23.9703 25.9521C23.9703 26.0335 23.9482 26.1222 23.8745 26.2332C23.6461 26.5808 23.2408 26.8988 22.7766 27.1651C22.4892 27.3278 22.1871 27.4758 21.885 27.5941C21.9955 27.313 22.1282 27.0172 22.2903 26.7361C22.5482 26.2702 22.8798 25.8486 23.2408 25.6045C23.3514 25.5305 23.4398 25.5083 23.5208 25.5083C23.6387 25.5083 23.7493 25.5675 23.8303 25.6414C23.9114 25.7228 23.9703 25.8338 23.9703 25.9521Z" fill="#E0E0E0"/>
<path d="M29.0381 19.9466C29.3255 19.7838 29.6276 19.636 29.9297 19.5176C29.8192 19.7987 29.6865 20.0945 29.5244 20.3756C29.2665 20.8415 28.935 21.2632 28.5739 21.5072C28.4634 21.5812 28.375 21.6034 28.2939 21.6034C28.176 21.6034 28.0655 21.5442 27.9844 21.4702C27.9034 21.3889 27.8444 21.2779 27.8518 21.1596C27.8518 21.0782 27.8739 20.9895 27.9476 20.8785C28.176 20.5383 28.5813 20.2128 29.0381 19.9466Z" fill="#E0E0E0"/>
<path d="M26.9593 22.5059L27.1361 22.3284L26.9593 22.5059C27.3277 22.8757 27.8066 23.0754 28.2929 23.068C28.6687 23.068 29.0519 22.9497 29.3908 22.7204C30.2677 22.1287 30.8424 21.108 31.2182 20.2352C31.594 19.355 31.7561 18.6154 31.7782 18.5415C31.7856 18.4897 31.793 18.4453 31.793 18.3935C31.793 18.1864 31.7046 18.0089 31.5719 17.8758C31.4393 17.7426 31.2624 17.6539 31.0561 17.6539C31.0119 17.6539 30.9603 17.6613 30.9087 17.6687C30.8277 17.6835 30.0909 17.8536 29.2214 18.2234C28.3519 18.6006 27.3351 19.1775 26.7456 20.0577C26.5172 20.3979 26.3992 20.7825 26.3992 21.1598C26.3919 21.6553 26.5835 22.1361 26.9593 22.5059ZM27.8509 21.1598C27.8509 21.0784 27.8729 20.9896 27.9466 20.8787C28.175 20.5311 28.5803 20.213 29.0445 19.9467C29.3319 19.784 29.634 19.6361 29.9361 19.5178C29.8256 19.7988 29.6929 20.0947 29.5308 20.3757C29.2729 20.8417 28.9414 21.2633 28.5803 21.5074C28.4698 21.5814 28.3814 21.6036 28.3003 21.6036C28.1824 21.6036 28.0719 21.5444 27.9909 21.4704C27.9024 21.389 27.8509 21.2781 27.8509 21.1598Z" fill="#E0E0E0"/>
<path d="M11.9805 39.7468C11.9805 38.7409 11.17 37.9272 10.1679 37.9272C9.16574 37.9272 8.35519 38.7409 8.35519 39.7468C8.35519 40.7527 9.16574 41.5663 10.1679 41.5663C11.17 41.5737 11.9805 40.7527 11.9805 39.7468Z" fill="#E0E0E0"/>
<path d="M20.1797 49.266C20.1797 49.7098 19.8113 50.0723 19.3692 50.0723C14.3807 50.0427 9.60592 48.0679 6.07643 44.5768C2.54693 41.0857 0.5427 36.352 0.498487 31.4038C0.491119 30.96 0.852188 30.5902 1.2943 30.5902C1.7364 30.5902 2.10485 30.9452 2.10485 31.389C2.1417 35.9008 3.96906 40.2277 7.20382 43.4229C10.4312 46.6182 14.8081 48.4229 19.3765 48.4525C19.8187 48.4599 20.1797 48.8223 20.1797 49.266Z" fill="#E0E0E0"/>
<path d="M36.3233 29.6951C35.9328 29.6951 35.616 29.3845 35.616 28.9925C35.5865 25.0428 33.9802 21.2558 31.158 18.4674C28.3359 15.6716 24.5043 14.0888 20.5106 14.0666C20.1201 14.0666 19.8106 13.7485 19.8106 13.3565C19.8106 12.9645 20.1274 12.6538 20.518 12.6538C24.8801 12.6834 29.058 14.4068 32.1454 17.4615C35.2328 20.5162 36.9865 24.6582 37.0233 28.9851C37.0307 29.3771 36.7139 29.6951 36.3233 29.6951Z" fill="#E0E0E0"/>
</svg>
