<svg width="100" height="100" viewBox="0 0 100 100" fill="none" xmlns="http://www.w3.org/2000/svg">
<path d="M15.7206 27.2397C15.6001 27.0229 15.4395 26.8208 15.2438 26.6484C14.7921 26.2492 14.1696 26.0029 13.5572 25.993C12.9951 25.9881 12.2974 26.2049 12.0514 26.6681C11.9109 26.9292 11.8657 27.3333 12.0063 27.6191C12.1017 27.8113 12.2673 27.9739 12.4731 28.0823C12.8596 28.2794 13.1708 28.1168 13.5523 28.2005C14.8573 28.4765 14.1697 29.3536 13.733 29.5803C13.4418 29.738 13.0854 29.7774 12.7391 29.7626C9.28078 29.6246 10.3148 25.8747 11.0627 24.1255C11.8306 22.3368 13.0855 20.7008 13.5874 18.8185C13.8484 17.8379 13.7881 16.5025 12.9449 15.7092C12.8495 15.8176 12.7592 15.926 12.6689 16.0393C12.6187 16.1674 12.5584 16.2906 12.4982 16.4138C12.714 17.084 12.6688 17.8872 12.6136 18.439C12.468 19.8533 11.8005 21.1443 11.1731 22.4057C10.636 23.4799 10.1291 24.564 9.8229 25.7269C9.55687 26.7272 9.24064 27.9443 9.62211 28.9939C10.2044 30.6003 12.2723 31.5513 13.9638 31.0043C15.5851 30.4722 16.5689 28.7722 15.7206 27.2397Z" fill="#E0E0E0"/>
<path d="M10.8418 23.8691C10.882 23.7804 10.9221 23.6917 10.9673 23.603C10.9221 23.6868 10.882 23.7804 10.8418 23.8691Z" fill="#E0E0E0"/>
<path d="M1.13448 14.2359C0.858416 15.2707 1.02406 16.4779 1.83217 17.3353C2.64028 18.1927 4.16617 18.5524 5.10981 17.9365C6.05344 17.3205 5.93298 15.7191 4.79861 15.246C4.17621 14.9849 3.40325 15.0785 2.86116 14.6941C2.39938 14.3689 2.25884 13.7677 2.42448 13.2947C2.5851 12.8217 2.99168 12.457 3.44342 12.1762C6.86158 10.0672 11.5446 12.6295 12.2623 16.1872C12.9149 19.4246 10.5708 22.0017 8.17158 24.2388C6.90671 25.4215 4.02062 25.9881 3.04687 23.9284C2.9515 23.7313 2.82098 23.4751 2.58507 23.4898C2.49974 23.4948 2.42448 23.544 2.35923 23.5933C1.86733 23.9727 1.63643 24.5788 1.65148 25.18C1.67156 25.9536 2.05806 26.7913 2.67042 27.3777C2.94147 27.6389 3.90516 27.9444 4.03566 28.2104C4.18122 28.5061 3.47349 29.5507 3.33797 29.8365C2.01287 32.5221 0.180848 35.3899 1.11444 38.5583C1.31522 39.2433 1.96271 38.9082 2.24379 38.5189C2.81599 37.7305 3.69437 37.1244 4.18627 36.2917C4.51754 36.4198 4.80362 36.7154 5.16501 36.8534C5.58162 37.0111 6.02832 37.0751 6.465 37.0505C8.10632 36.9618 9.06005 35.8432 9.2809 34.636C9.32105 34.429 9.04498 34.2763 8.83417 34.4044C7.5442 35.1682 6.71101 33.478 6.65077 32.7389C6.58552 31.8913 6.70097 31.0438 6.83649 30.211C7.11255 28.5652 7.95075 27.1855 9.00481 25.8994C11.1681 23.8397 13.0504 21.4498 13.7631 18.646C14.2901 16.5715 13.9036 14.1324 12.182 12.4964C11.5195 11.8657 10.6963 11.3877 9.80789 11.0625C9.37623 10.9048 8.92949 10.7817 8.47776 10.6979C5.35573 10.1115 1.85726 11.5553 1.13448 14.2359Z" fill="#E0E0E0"/>
<path d="M27.9376 14.6989C27.7168 14.5807 27.511 14.423 27.3353 14.2308C26.9288 13.7873 26.6778 13.1763 26.6677 12.5752C26.6627 12.0233 26.8836 11.3383 27.3554 11.0969C27.6215 10.9589 28.033 10.9146 28.3241 11.0525C28.5199 11.1462 28.6856 11.3088 28.796 11.5108C28.9968 11.8902 28.8311 12.1957 28.9164 12.5702C29.1975 13.8514 30.0909 13.1763 30.3218 12.7476C30.4824 12.4618 30.5226 12.112 30.5075 11.772C30.367 8.37687 26.5473 9.39195 24.7655 10.1262C22.9434 10.8801 21.277 12.112 19.3596 12.6047C18.3608 12.861 17.0005 12.8018 16.1924 11.974C16.3028 11.8804 16.4133 11.7917 16.5287 11.703C16.6592 11.6537 16.7847 11.5946 16.9102 11.5354C17.5928 11.7473 18.411 11.703 18.9731 11.6488C20.4137 11.5059 21.7288 10.8505 23.0137 10.2346C24.1079 9.70732 25.2122 9.20963 26.3967 8.90905C27.4157 8.64789 28.6554 8.33746 29.7246 8.71195C31.3609 9.28355 32.3296 11.3137 31.7724 12.9743C31.2303 14.5659 29.4987 15.5317 27.9376 14.6989Z" fill="#E0E0E0"/>
<path d="M24.5044 9.90918C24.414 9.9486 24.3237 9.98802 24.2333 10.0324C24.3237 9.98802 24.414 9.9486 24.5044 9.90918Z" fill="#E0E0E0"/>
<path d="M14.6915 0.379259C15.7455 0.108243 16.9753 0.270852 17.8486 1.06419C18.727 1.85753 19.0884 3.35551 18.461 4.2819C17.8336 5.20828 16.2023 5.09 15.7205 3.97637C15.4544 3.36536 15.5498 2.60652 15.1583 2.07434C14.822 1.62101 14.2147 1.48303 13.7328 1.64564C13.251 1.80332 12.8795 2.20246 12.5934 2.64594C10.4452 6.00161 13.0552 10.599 16.6792 11.3037C19.9769 11.9443 22.602 9.64307 24.8807 7.2877C26.0854 6.04595 26.6626 3.21261 24.5645 2.25666C24.3637 2.16304 24.1027 2.03492 24.1178 1.80332C24.1228 1.71956 24.173 1.64564 24.2232 1.58159C24.6097 1.09868 25.2271 0.872014 25.8394 0.886797C26.6275 0.906507 27.4807 1.28593 28.078 1.88709C28.3441 2.15318 28.6552 3.09927 28.9263 3.22739C29.2274 3.37029 30.2915 2.6755 30.5776 2.54245C33.3132 1.24157 36.2345 -0.556983 39.4619 0.359544C40.1596 0.556647 39.8182 1.1923 39.4217 1.46825C38.6186 2.02999 38.0012 2.89231 37.153 3.37521C37.2835 3.70043 37.5846 3.98131 37.7252 4.33609C37.8858 4.74508 37.951 5.18363 37.9259 5.61233C37.8356 7.22364 36.6962 8.15989 35.4665 8.3767C35.2557 8.41612 35.1001 8.1451 35.2306 7.93814C36.0086 6.67176 34.2869 5.85378 33.534 5.79465C32.6707 5.73059 31.8074 5.84392 30.9591 5.97696C29.2827 6.24798 27.8773 7.07089 26.5672 8.10568C24.4691 10.2295 22.0348 12.0773 19.1788 12.777C17.0656 13.2944 14.5811 12.915 12.9147 11.2248C12.2722 10.5744 11.7853 9.76627 11.454 8.89409C11.2934 8.47032 11.1679 8.03177 11.0826 7.58829C10.4953 4.52827 11.961 1.08883 14.6915 0.379259Z" fill="#E0E0E0"/>
<path d="M68.7749 3.90248L66.8876 1.06421L65.0003 3.90248C64.6038 4.49872 64.6791 5.30191 65.186 5.80945L66.8926 7.5341L68.5992 5.80945C69.0961 5.29698 69.1764 4.49872 68.7749 3.90248Z" fill="#E0E0E0"/>
<path d="M65.0003 11.1609L66.8876 13.9992L68.7748 11.1609C69.1714 10.5647 69.0961 9.76148 68.5891 9.25394L66.8825 7.5293L65.176 9.25394C64.679 9.76148 64.5987 10.5647 65.0003 11.1609Z" fill="#E0E0E0"/>
<path d="M60.0765 4.46431L57.3811 7.18432L55.9807 5.76518C55.6595 5.43996 55.2127 5.48431 54.9266 5.86374C54.4096 6.5536 54.9066 7.53417 55.7699 7.53417C54.9066 7.53417 54.4147 8.51477 54.9266 9.20463C55.2127 9.58405 55.6595 9.62346 55.9807 9.30317L57.3811 7.88404L60.0765 10.6041C60.7691 11.3038 61.8633 11.3777 62.6413 10.7814L66.8877 7.53417L62.6413 4.28691C61.8633 3.68575 60.7691 3.7646 60.0765 4.46431Z" fill="#E0E0E0"/>
<path d="M78.0154 7.52935C78.939 7.52935 79.4057 6.42064 78.7582 5.76528C78.437 5.44006 77.9903 5.48441 77.7042 5.86383L76.5799 7.37167L73.7038 4.46441C73.0111 3.76469 71.9169 3.69077 71.1389 4.28701L66.8926 7.53427L71.1389 10.7815C71.9169 11.3778 73.0162 11.3039 73.7038 10.6041L76.5799 7.69689L77.7042 9.20472C77.9903 9.58415 78.437 9.62356 78.7582 9.30326C79.4057 8.64297 78.939 7.52935 78.0154 7.52935Z" fill="#E0E0E0"/>
<path d="M11.5294 0.443485C11.5294 3.34582 10.3147 5.99192 8.35212 7.91367C6.39459 9.83543 3.69925 11.0328 0.742869 11.0328H0.677616C0.42665 11.0328 0.225864 11.2299 0.225864 11.4714C0.225864 11.7178 0.426644 11.9149 0.672592 11.9149H0.737845C7.15254 11.9099 12.4229 6.74091 12.4229 0.443485C12.4229 0.197107 12.2221 0 11.9711 0C11.7352 0.00492756 11.5294 0.202035 11.5294 0.443485Z" fill="#E0E0E0"/>
<path d="M7.91043 0.295654H0.717759L0.567154 0.443483L0.521997 7.50468L0.672602 7.65251H0.717759C4.74828 7.65251 8.06104 4.40032 8.06104 0.443483L7.91043 0.295654Z" fill="#E0E0E0"/>
<path d="M98.1027 9.39192C97.0549 9.39192 96.2054 8.558 96.2054 7.52931C96.2054 6.50061 97.0549 5.66669 98.1027 5.66669C99.1506 5.66669 100 6.50061 100 7.52931C100 8.558 99.1506 9.39192 98.1027 9.39192Z" fill="#E0E0E0"/>
<path d="M15.8109 22.3957C17.5175 21.4052 17.2464 18.4733 16.7696 16.3348C16.7093 16.0785 16.6491 15.8321 16.5889 15.6055C16.8097 15.6942 17.0457 15.7829 17.2966 15.8666C19.3997 16.5861 22.341 17.2119 23.5457 15.6695C23.9773 18.3994 21.3924 19.0351 17.8739 17.0345C19.47 20.7006 18.5163 23.1446 15.8109 22.3957Z" fill="#E0E0E0"/>
<path d="M10.2846 68.1432L13.1758 66.2905L10.2846 64.4377C9.67731 64.0484 8.85916 64.1223 8.34217 64.62L6.5854 66.2954L8.34217 67.9708C8.86418 68.4586 9.67731 68.5374 10.2846 68.1432Z" fill="#E0E0E0"/>
<path d="M2.89109 64.4377L1.57356e-05 66.2905L2.89109 68.1433C3.49843 68.5325 4.31658 68.4586 4.83357 67.9609L6.59033 66.2856L4.83357 64.6102C4.31658 64.1224 3.49843 64.0435 2.89109 64.4377Z" fill="#E0E0E0"/>
<path d="M9.71757 59.6037L6.94689 56.9576L8.39246 55.5828C8.72373 55.2674 8.67852 54.8288 8.29203 54.548C7.58933 54.0404 6.59047 54.5283 6.59047 55.3758C6.59047 54.5283 5.59168 54.0454 4.88898 54.548C4.50249 54.8288 4.4623 55.2674 4.78855 55.5828L6.23412 56.9576L3.46344 59.6037C2.7507 60.2837 2.67542 61.3579 3.28276 62.1216L6.59047 66.2904L9.89825 62.1216C10.5056 61.3579 10.4253 60.2837 9.71757 59.6037Z" fill="#E0E0E0"/>
<path d="M6.5904 77.2149C6.5904 78.1216 7.71979 78.5798 8.38736 77.9442C8.71863 77.6288 8.67342 77.1903 8.28693 76.9094L6.75105 75.8056L9.71247 72.9821C10.4252 72.3021 10.5005 71.2279 9.89316 70.4641L6.58544 66.2954L3.27766 70.4641C2.67032 71.2279 2.7456 72.307 3.45834 72.9821L6.41976 75.8056L4.88388 76.9094C4.49739 77.1903 4.4572 77.6288 4.78345 77.9442C5.45604 78.5798 6.5904 78.1216 6.5904 77.2149Z" fill="#E0E0E0"/>
<path d="M6.59023 99.9999C5.54119 99.9999 4.69297 99.1671 4.69297 98.1373C4.69297 97.1074 5.54119 96.2747 6.59023 96.2747C7.63927 96.2747 8.48755 97.1074 8.48755 98.1373C8.48755 99.1622 7.63927 99.9999 6.59023 99.9999Z" fill="#E0E0E0"/>
<path d="M90.112 6.71606H43.6632C43.2064 6.71606 42.835 7.08072 42.835 7.52912C42.835 7.97753 43.2064 8.34217 43.6632 8.34217H90.112C90.5688 8.34217 90.9402 7.97753 90.9402 7.52912C90.9402 7.08072 90.5688 6.71606 90.112 6.71606Z" fill="#E0E0E0"/>
<path d="M6.59026 42.6777C6.1335 42.6777 5.76212 43.0424 5.76212 43.4908V89.0905C5.76212 89.5389 6.1335 89.9035 6.59026 89.9035C7.04701 89.9035 7.41846 89.5389 7.41846 89.0905V43.4908C7.41846 43.0424 7.04701 42.6777 6.59026 42.6777Z" fill="#E0E0E0"/>
</svg>
