<svg width="51" height="51" viewBox="0 0 51 51" fill="none" xmlns="http://www.w3.org/2000/svg">
<path d="M20.2019 29.5514C20.0766 29.4182 19.9514 29.2925 19.8187 29.1668C18.5587 27.9907 16.805 27.4138 15.0219 27.584C14.6682 27.6209 14.3219 27.6727 13.9903 27.7541C11.9566 28.2274 10.4018 29.5218 9.79026 31.3413C9.47342 32.2806 9.43657 33.2717 9.65026 34.2037C9.87868 35.2022 10.4092 36.1342 11.1902 36.859C12.0524 37.6578 13.2313 38.0498 14.4398 37.9537C14.705 37.9315 14.9555 37.8945 15.1987 37.8353C16.5913 37.5099 17.6745 36.6149 18.1019 35.3502C18.3303 34.6845 18.3598 33.9892 18.205 33.3309C18.0429 32.6283 17.6745 31.9774 17.1292 31.4744C16.3482 30.7422 15.2797 30.4981 14.3145 30.7274C13.7397 30.8606 13.1945 31.1638 12.7597 31.6298C12.5534 31.8517 12.4871 32.1475 12.5534 32.4212C12.5903 32.5839 12.6787 32.7392 12.8039 32.8576C13.025 33.0647 13.3197 33.1312 13.5924 33.0647C13.7545 33.0277 13.9092 32.9389 14.0271 32.8132C14.2187 32.6061 14.4545 32.4729 14.705 32.4138C15.1324 32.3176 15.5966 32.4212 15.9429 32.7466C16.2303 33.0129 16.4219 33.3531 16.5103 33.723C16.5914 34.0706 16.5766 34.433 16.4587 34.7806C16.2229 35.4537 15.6629 35.9345 14.8082 36.1342C14.6461 36.1712 14.4692 36.2007 14.285 36.2155C13.5555 36.2747 12.8555 36.0454 12.3618 35.5795C11.8387 35.0913 11.4924 34.47 11.3376 33.8043C11.1903 33.183 11.2197 32.5247 11.426 31.896C11.846 30.6608 12.8629 29.8028 14.3513 29.4478C14.6092 29.3887 14.8892 29.3443 15.1766 29.3147C16.5029 29.189 17.7187 29.5884 18.6324 30.439C18.7356 30.5351 18.8313 30.6312 18.9271 30.7348C19.5535 31.4079 19.9661 32.1993 20.165 33.0499C20.3492 33.8413 20.3419 34.6918 20.1356 35.5424C19.6714 37.4211 18.3229 38.9226 16.525 39.5587L16.304 39.6327H16.2966C15.9576 39.7658 15.5598 39.8841 15.1324 39.9803C13.8577 40.2761 12.2734 40.4241 10.7482 40.3649C9.38498 40.3057 8.19867 40.4315 7.16709 40.6682C3.33548 41.5631 1.72178 44.0557 1.49335 44.4477C1.43441 44.5217 1.3828 44.603 1.33123 44.6844C0.800695 45.535 0.601763 46.5409 0.749132 47.5394C0.76387 47.6503 0.785988 47.7613 0.808094 47.8648C1.03652 48.8412 1.59651 49.7065 2.41441 50.3056C3.28389 50.9491 4.35234 51.134 5.33234 50.9047C6.1134 50.7198 6.83551 50.2761 7.3513 49.5882C7.85235 48.9151 8.03656 48.0349 7.85235 47.1917V47.1844L7.8376 47.1252C7.57233 45.9788 6.79129 45.1208 5.7376 44.8989C5.35444 44.8175 4.97126 44.8249 4.6102 44.9063C4.0281 45.0468 3.49023 45.3871 3.1218 45.89C2.96707 46.1045 2.92285 46.3634 2.97442 46.6074C3.01864 46.7997 3.13654 46.9846 3.30602 47.1104C3.5197 47.2657 3.77758 47.3101 4.02073 47.2583C4.21231 47.2139 4.39652 47.103 4.52179 46.9255C4.63968 46.7628 4.81655 46.6518 5.00813 46.6074C5.12603 46.5778 5.25129 46.5778 5.37655 46.6074C5.56077 46.6444 5.71547 46.7406 5.8481 46.8885C5.98073 47.0364 6.09129 47.2509 6.15023 47.5246L6.15761 47.5616C6.23129 47.9166 6.1576 48.2938 5.96602 48.5453C5.70076 48.8929 5.33969 49.1222 4.94179 49.211C4.44074 49.3293 3.89545 49.2331 3.44597 48.9077C2.95965 48.5527 2.63547 48.0497 2.50283 47.4728C2.4881 47.4062 2.47337 47.3471 2.466 47.2805C2.36284 46.6223 2.52494 45.9713 2.91546 45.4388L2.92284 45.4314L2.96705 45.3648L2.97442 45.3574V45.35C3.026 45.2687 4.26389 43.1385 7.56497 42.3619C8.44918 42.1548 9.48075 42.0439 10.6818 42.1031C12.3839 42.1696 14.0934 42.0143 15.5155 41.6815C16.0166 41.5631 16.4734 41.4226 16.8934 41.2673L17.0998 41.1933C19.4577 40.3649 21.2261 38.3975 21.8229 35.9493C22.0956 34.825 22.103 33.7007 21.8598 32.6431C21.5946 31.5114 21.0345 30.4463 20.2019 29.5514Z" fill="#E0E0E0"/>
<path d="M29.2949 20.9425C29.1623 20.8168 29.037 20.6837 28.9191 20.5506C27.7697 19.2636 27.2392 17.4959 27.4381 15.7059C27.4823 15.3509 27.5412 15.0033 27.6297 14.6704C28.1455 12.6438 29.4644 11.1054 31.2918 10.5285C32.235 10.2252 33.2224 10.2104 34.1434 10.4471C35.1308 10.6986 36.0518 11.2459 36.7592 12.0447C37.5403 12.9249 37.9087 14.1157 37.7834 15.3287C37.754 15.5876 37.7098 15.8464 37.6508 16.0905C37.2971 17.481 36.3834 18.5461 35.1161 18.9529C34.4529 19.1674 33.7529 19.1822 33.1044 19.0121C32.4118 18.8346 31.7708 18.45 31.2771 17.8952C30.5697 17.0964 30.3486 16.024 30.5918 15.0551C30.7392 14.4781 31.0487 13.9382 31.5276 13.5166C31.7487 13.3169 32.0507 13.2503 32.3234 13.3243C32.4855 13.3687 32.6402 13.4574 32.7581 13.5905C32.9571 13.8124 33.0234 14.1157 32.9497 14.3894C32.9055 14.5521 32.8171 14.7074 32.6845 14.8258C32.4782 15.0107 32.3382 15.2473 32.2718 15.4988C32.1613 15.9278 32.2645 16.3938 32.5739 16.7488C32.8318 17.0447 33.1708 17.2443 33.5318 17.3331C33.8708 17.4219 34.2392 17.4145 34.5855 17.3035C35.2634 17.0816 35.7497 16.5269 35.9708 15.6763C36.015 15.5136 36.0445 15.3361 36.0666 15.1512C36.1403 14.419 35.9266 13.7163 35.4771 13.206C35.0055 12.6734 34.3939 12.311 33.7308 12.1409C33.1118 11.9856 32.456 11.993 31.8297 12.1927C30.5918 12.5847 29.7149 13.5906 29.3318 15.0846C29.2655 15.3435 29.2139 15.6246 29.1844 15.913C29.0297 17.2444 29.4055 18.4722 30.2308 19.4041C30.3265 19.5077 30.4223 19.6112 30.5181 19.7074C31.1739 20.3508 31.955 20.7798 32.8023 21.0017C33.5908 21.2014 34.4308 21.2162 35.2855 21.0239C37.1718 20.6023 38.6898 19.2784 39.3603 17.481L39.4413 17.2666V17.2592C39.5813 16.9189 39.7066 16.5269 39.8098 16.0979C40.134 14.8257 40.3108 13.2429 40.2814 11.7045C40.2445 10.3361 40.3992 9.14534 40.6571 8.11724C41.6298 4.28592 44.1424 2.71786 44.5329 2.49597C44.614 2.44419 44.6877 2.39245 44.7687 2.34067C45.6235 1.83032 46.633 1.6454 47.6277 1.81551C47.7382 1.8377 47.8414 1.85991 47.9519 1.8821C48.9246 2.13358 49.7719 2.7105 50.354 3.54629C50.973 4.43385 51.1351 5.50631 50.8919 6.48263C50.693 7.25925 50.2362 7.97671 49.5362 8.47966C48.8583 8.96782 47.974 9.13054 47.1414 8.93823H47.134L47.0751 8.92342C45.9403 8.63497 45.1003 7.83618 44.9014 6.7711C44.8277 6.38649 44.8424 6.00185 44.9309 5.63943C45.0782 5.05512 45.4319 4.52998 45.9403 4.16756C46.154 4.01963 46.4193 3.97526 46.6551 4.03443C46.8466 4.0862 47.0235 4.20456 47.1488 4.37468C47.3035 4.58917 47.3404 4.85542 47.2814 5.0921C47.2298 5.28441 47.1193 5.46191 46.9424 5.58765C46.7803 5.70599 46.6624 5.87613 46.6109 6.06843C46.5814 6.18677 46.574 6.31251 46.6035 6.43825C46.6403 6.62316 46.7287 6.7785 46.8761 6.91903C47.0235 7.05217 47.2372 7.17051 47.5025 7.23707L47.5393 7.24448C47.893 7.32584 48.2688 7.25923 48.5267 7.06693C48.8804 6.80805 49.1088 6.45303 49.2119 6.05363C49.3372 5.55067 49.2562 5.00336 48.9393 4.55218C48.593 4.06402 48.0993 3.71639 47.5319 3.57586C47.473 3.56106 47.4066 3.54627 47.3403 3.53148C46.6845 3.42053 46.0361 3.56106 45.4982 3.94567L45.4909 3.95308L45.4245 3.99005L45.4172 3.99745H45.4098C45.3214 4.04923 43.1772 5.24745 42.3445 8.53884C42.1235 9.41901 41.9908 10.4545 42.0203 11.6601C42.0498 13.3687 41.8582 15.0772 41.4971 16.5047C41.3719 17.0003 41.2245 17.4663 41.055 17.8805L40.9813 18.0801C40.1045 20.4322 38.115 22.163 35.6613 22.7103C34.5339 22.9618 33.4139 22.947 32.3676 22.6807C31.2181 22.3849 30.1644 21.8005 29.2949 20.9425Z" fill="#E0E0E0"/>
<path d="M23.0009 1.36464C23.1851 1.40162 23.3693 1.4534 23.5535 1.50517C25.2998 2.00073 26.7661 3.27291 27.584 4.98148C27.7461 5.32171 27.8861 5.66191 27.9967 6.00954C28.6746 8.10272 28.3578 10.2107 27.0609 11.7639C26.3904 12.5628 25.5209 13.1323 24.5704 13.4429C23.5461 13.7758 22.4261 13.8053 21.3503 13.4947C20.164 13.1544 19.1692 12.2965 18.6019 11.15C18.4766 10.8986 18.3808 10.6471 18.2924 10.3956C17.8282 8.96069 18.0419 7.49625 18.9408 6.41638C19.4124 5.84686 20.024 5.44742 20.6945 5.22553C21.4093 4.98884 22.1977 4.96666 22.9493 5.18855C24.0325 5.4992 24.8282 6.32761 25.1525 7.32612C25.344 7.91783 25.3661 8.58351 25.1819 9.22699C25.0935 9.53024 24.8651 9.75951 24.5851 9.84826C24.4156 9.90004 24.2314 9.90744 24.0546 9.85567C23.7525 9.76691 23.524 9.53763 23.4356 9.25656C23.384 9.08645 23.3767 8.90156 23.4283 8.72404C23.5093 8.44298 23.5019 8.15453 23.4135 7.89565C23.2735 7.45927 22.9198 7.08943 22.4409 6.9563C22.043 6.84535 21.6303 6.85273 21.2546 6.97847C20.9009 7.09681 20.584 7.30393 20.3335 7.59978C19.8545 8.18409 19.7293 8.94593 20.0167 9.8261C20.0682 9.99621 20.1419 10.1663 20.2303 10.3439C20.5693 11.0391 21.1661 11.542 21.844 11.7343C22.5661 11.9414 23.3103 11.9193 23.9956 11.6974C24.6293 11.4903 25.2114 11.1056 25.6609 10.5805C26.5451 9.53021 26.7588 8.13973 26.2651 6.60129C26.1767 6.33502 26.0661 6.06132 25.9335 5.78025C25.3219 4.50808 24.3051 3.62794 23.0451 3.26551C22.9051 3.22113 22.7577 3.19154 22.6177 3.16195C21.6745 2.96225 20.7387 3.01403 19.8619 3.30249C19.0514 3.56876 18.2924 4.03472 17.6366 4.68561C16.1998 6.1279 15.5882 8.1619 16.0008 10.1367L16.0524 10.3734V10.3808C16.1187 10.758 16.2293 11.1796 16.3693 11.6234C16.7966 12.9326 17.5261 14.4488 18.4103 15.795C19.2061 16.9932 19.744 18.1396 20.0829 19.1973C21.3651 23.1544 20.0019 25.965 19.7809 26.3866C19.744 26.4828 19.6998 26.5715 19.6556 26.6603C19.1766 27.5996 18.3882 28.3318 17.4082 28.7386C17.2977 28.783 17.1945 28.82 17.084 28.857C16.0819 29.1824 14.9987 29.1454 14.0187 28.7312C12.9724 28.2949 12.2208 27.4295 11.8966 26.4162C11.6387 25.61 11.6461 24.715 11.985 23.8718C12.3166 23.0582 13.0092 22.4073 13.864 22.1115H13.8713L13.9377 22.0893C15.1093 21.7047 16.3029 21.9488 17.084 22.7772C17.364 23.073 17.5703 23.428 17.6882 23.8052C17.8871 24.4117 17.8651 25.0774 17.6145 25.6839C17.504 25.9428 17.2977 26.1277 17.0545 26.2017C16.8556 26.2683 16.6272 26.2608 16.4208 26.1721C16.1629 26.0685 15.9787 25.854 15.905 25.6099C15.8387 25.4102 15.8461 25.1884 15.9271 24.9739C16.0082 24.7742 16.0156 24.5597 15.9492 24.36C15.9124 24.2342 15.8461 24.1233 15.7503 24.0198C15.6176 23.8718 15.4482 23.7831 15.2345 23.7461C15.0282 23.7091 14.7776 23.7239 14.4976 23.82L14.4608 23.8348C14.0997 23.9606 13.805 24.2342 13.6797 24.5449C13.5103 24.9739 13.5029 25.4251 13.6355 25.8319C13.805 26.3496 14.1882 26.7934 14.7187 27.0153C15.3008 27.2594 15.9345 27.2815 16.524 27.0892C16.5903 27.067 16.6566 27.0449 16.7155 27.0153C17.364 26.749 17.8577 26.2534 18.123 25.6099L18.1303 25.6025L18.1672 25.5286V25.5212V25.5138C18.2114 25.425 19.4493 23.1396 18.3514 19.7372C18.0566 18.8275 17.5924 17.8364 16.8924 16.7787C15.9124 15.2772 15.1166 13.65 14.645 12.1707C14.4755 11.6604 14.3503 11.1648 14.2692 10.6989L14.225 10.477C13.6871 7.89565 14.4903 5.22555 16.3619 3.35427C17.224 2.49629 18.2261 1.87496 19.3093 1.51993C20.4809 1.1723 21.7409 1.09837 23.0009 1.36464Z" fill="#E0E0E0"/>
<path d="M0.0709743 22.8801C0.100449 23.065 0.129934 23.2573 0.174145 23.4422C0.549936 25.2247 1.71412 26.778 3.35728 27.7099C3.68887 27.8948 4.02047 28.0575 4.35205 28.1907C6.38575 29.0117 8.50784 28.8342 10.1289 27.6359C10.9689 27.0147 11.5952 26.1863 11.971 25.2543C12.3689 24.2558 12.4794 23.1316 12.2437 22.0369C11.9858 20.8239 11.1974 19.7736 10.0995 19.1301C9.85629 18.9896 9.61314 18.8713 9.36998 18.7751C7.97734 18.213 6.50365 18.3313 5.36891 19.1597C4.77206 19.5961 4.32994 20.1804 4.06467 20.8387C3.78467 21.5414 3.71098 22.3254 3.87309 23.0946C4.10888 24.1967 4.88257 25.0546 5.85521 25.4392C6.43731 25.6685 7.08574 25.7425 7.74153 25.6019C8.05101 25.5354 8.28681 25.3209 8.39734 25.0472C8.46365 24.8845 8.47839 24.6996 8.44155 24.5147C8.37523 24.204 8.16154 23.9674 7.88891 23.8564C7.7268 23.7898 7.54261 23.775 7.3584 23.812C7.07103 23.8712 6.79099 23.8416 6.53309 23.7455C6.10572 23.5754 5.76678 23.1981 5.66362 22.71C5.5752 22.3032 5.61942 21.8964 5.76679 21.5266C5.90679 21.1789 6.1352 20.8757 6.44467 20.6464C7.05626 20.2026 7.82261 20.136 8.68472 20.4763C8.84682 20.5428 9.01629 20.6242 9.18577 20.7203C9.84893 21.105 10.3131 21.7337 10.4605 22.4289C10.6226 23.1612 10.5489 23.9082 10.2763 24.5813C10.0258 25.2026 9.61315 25.7573 9.05314 26.1715C7.94787 26.9851 6.55523 27.1108 5.05207 26.5117C4.7868 26.4082 4.5289 26.275 4.26364 26.1271C3.04047 25.4318 2.23731 24.3446 1.96468 23.065C1.9352 22.9171 1.9057 22.7766 1.89096 22.6286C1.75833 21.6745 1.86886 20.7351 2.21518 19.8846C2.53202 19.0931 3.04782 18.3609 3.74046 17.7544C5.26573 16.4083 7.33627 15.9349 9.26681 16.4822L9.50261 16.5488H9.50998C9.88577 16.6449 10.291 16.7781 10.7258 16.9556C12.0005 17.466 13.4595 18.3017 14.7416 19.278C15.8763 20.1582 16.9816 20.7647 18.0132 21.1863C21.8595 22.7322 24.748 21.5635 25.1754 21.3638C25.2711 21.3342 25.3669 21.2973 25.4554 21.2529C26.4206 20.8387 27.2017 20.099 27.6732 19.1375C27.7248 19.034 27.769 18.923 27.8132 18.8195C28.2038 17.8358 28.2333 16.7559 27.8943 15.7426C27.5333 14.6627 26.7153 13.8565 25.7353 13.4645C24.9543 13.1465 24.0627 13.0947 23.2006 13.3757C22.368 13.6494 21.6753 14.3077 21.329 15.1361V15.1435L21.3069 15.2026C20.8427 16.3491 21.0048 17.5621 21.7785 18.3979C22.0585 18.7011 22.3901 18.923 22.7585 19.071C23.348 19.3077 24.0111 19.3372 24.6301 19.1228C24.8879 19.034 25.0943 18.8343 25.1827 18.5976C25.2637 18.4053 25.2711 18.176 25.1974 17.9615C25.109 17.6952 24.9101 17.5029 24.6743 17.4068C24.4827 17.3254 24.2543 17.318 24.0406 17.392C23.8416 17.4585 23.6206 17.4511 23.429 17.3772C23.3111 17.3254 23.2006 17.2514 23.1048 17.1553C22.9722 17.0074 22.8911 16.8373 22.869 16.6228C22.8469 16.4157 22.8837 16.1642 22.9869 15.8905L23.0016 15.8535C23.149 15.4985 23.4437 15.2248 23.7606 15.1213C24.1953 14.9808 24.6448 15.0029 25.0427 15.1657C25.5438 15.3654 25.9638 15.7796 26.148 16.3343C26.3469 16.9334 26.3322 17.5695 26.1037 18.1464C26.0816 18.213 26.0522 18.2722 26.0227 18.3387C25.7132 18.9674 25.1827 19.4334 24.5269 19.6553H24.5196L24.4458 19.6848H24.4385H24.4311C24.3353 19.7292 21.9848 20.8091 18.6764 19.4778C17.7921 19.1227 16.8343 18.5902 15.8321 17.821C14.4027 16.7337 12.8405 15.8313 11.4037 15.2618C10.9026 15.0621 10.4237 14.8994 9.96682 14.7884L9.74578 14.7293C7.21103 14.0192 4.5068 14.6405 2.51731 16.3935C1.60362 17.1923 0.918316 18.1612 0.498314 19.2263C0.0488377 20.3505 -0.105869 21.6079 0.0709743 22.8801Z" fill="#E0E0E0"/>
<path d="M22.774 23.8343C22.4866 23.6716 22.1845 23.5236 21.8824 23.4053C21.9929 23.6863 22.1256 23.9822 22.2877 24.2632C22.5456 24.7292 22.8772 25.1508 23.2382 25.3949C23.3487 25.4689 23.4372 25.4911 23.5182 25.4911C23.6361 25.4911 23.7466 25.4319 23.8277 25.3579C23.9087 25.2766 23.9677 25.1656 23.9603 25.0472C23.9603 24.9659 23.9382 24.8772 23.8645 24.7662C23.6435 24.4186 23.2308 24.1005 22.774 23.8343Z" fill="#E0E0E0"/>
<path d="M24.8619 26.394L24.685 26.2165L24.8619 26.394C24.4935 26.7638 24.0145 26.9635 23.5282 26.9561C23.1524 26.9561 22.7692 26.8378 22.4303 26.6085C21.5534 26.0168 20.9787 24.9961 20.6029 24.1233C20.2271 23.2432 20.065 22.5035 20.0429 22.4296C20.0355 22.3778 20.0282 22.3334 20.0282 22.2816C20.0282 22.0745 20.1166 21.8971 20.2492 21.7639C20.3819 21.6308 20.5587 21.542 20.765 21.542C20.8092 21.542 20.8608 21.5494 20.9124 21.5568C20.9934 21.5716 21.7303 21.7417 22.5998 22.1115C23.4693 22.4887 24.4861 23.0656 25.0756 23.9458C25.304 24.286 25.4219 24.6707 25.4219 25.0479C25.4219 25.5434 25.2303 26.0242 24.8619 26.394ZM23.9703 25.0479C23.9703 24.9665 23.9482 24.8778 23.8745 24.7668C23.6461 24.4192 23.2408 24.1012 22.7766 23.8349C22.4892 23.6722 22.1871 23.5242 21.885 23.4059C21.9955 23.687 22.1282 23.9828 22.2903 24.2639C22.5482 24.7298 22.8798 25.1514 23.2408 25.3955C23.3514 25.4695 23.4398 25.4917 23.5208 25.4917C23.6387 25.4917 23.7493 25.4325 23.8303 25.3586C23.9114 25.2772 23.9703 25.1662 23.9703 25.0479Z" fill="#E0E0E0"/>
<path d="M29.0381 31.0534C29.3255 31.2162 29.6276 31.364 29.9297 31.4824C29.8192 31.2013 29.6865 30.9055 29.5244 30.6244C29.2665 30.1585 28.935 29.7368 28.5739 29.4928C28.4634 29.4188 28.375 29.3966 28.2939 29.3966C28.176 29.3966 28.0655 29.4558 27.9844 29.5298C27.9034 29.6111 27.8444 29.7221 27.8518 29.8404C27.8518 29.9218 27.8739 30.0105 27.9476 30.1215C28.176 30.4617 28.5813 30.7872 29.0381 31.0534Z" fill="#E0E0E0"/>
<path d="M26.9593 28.4941L27.1361 28.6716L26.9593 28.4941C27.3277 28.1243 27.8066 27.9246 28.2929 27.932C28.6687 27.932 29.0519 28.0503 29.3908 28.2796C30.2677 28.8713 30.8424 29.892 31.2182 30.7648C31.594 31.645 31.7561 32.3846 31.7782 32.4585C31.7856 32.5103 31.793 32.5547 31.793 32.6065C31.793 32.8136 31.7046 32.9911 31.5719 33.1242C31.4393 33.2574 31.2624 33.3461 31.0561 33.3461C31.0119 33.3461 30.9603 33.3387 30.9087 33.3313C30.8277 33.3165 30.0909 33.1464 29.2214 32.7766C28.3519 32.3994 27.3351 31.8225 26.7456 30.9423C26.5172 30.6021 26.3992 30.2175 26.3992 29.8402C26.3919 29.3447 26.5835 28.8639 26.9593 28.4941ZM27.8509 29.8402C27.8509 29.9216 27.8729 30.0104 27.9466 30.1213C28.175 30.4689 28.5803 30.787 29.0445 31.0533C29.3319 31.216 29.634 31.3639 29.9361 31.4822C29.8256 31.2012 29.6929 30.9053 29.5308 30.6243C29.2729 30.1583 28.9414 29.7367 28.5803 29.4926C28.4698 29.4186 28.3814 29.3964 28.3003 29.3964C28.1824 29.3964 28.0719 29.4556 27.9909 29.5296C27.9024 29.611 27.8509 29.7219 27.8509 29.8402Z" fill="#E0E0E0"/>
<path d="M11.9805 11.2532C11.9805 12.2591 11.17 13.0728 10.1679 13.0728C9.16574 13.0728 8.35519 12.2591 8.35519 11.2532C8.35519 10.2473 9.16574 9.4337 10.1679 9.4337C11.17 9.42631 11.9805 10.2473 11.9805 11.2532Z" fill="#E0E0E0"/>
<path d="M20.1797 1.73396C20.1797 1.29018 19.8113 0.927734 19.3692 0.927734C14.3807 0.95732 9.60592 2.93215 6.07643 6.42324C2.54693 9.91433 0.5427 14.648 0.498487 19.5962C0.491119 20.04 0.852188 20.4098 1.2943 20.4098C1.7364 20.4098 2.10485 20.0548 2.10485 19.611C2.1417 15.0992 3.96906 10.7723 7.20382 7.57707C10.4312 4.38184 14.8081 2.57713 19.3765 2.54754C19.8187 2.54015 20.1797 2.17774 20.1797 1.73396Z" fill="#E0E0E0"/>
<path d="M36.3233 21.3049C35.9328 21.3049 35.616 21.6155 35.616 22.0075C35.5865 25.9572 33.9802 29.7442 31.158 32.5326C28.3359 35.3284 24.5043 36.9112 20.5106 36.9334C20.1201 36.9334 19.8106 37.2515 19.8106 37.6435C19.8106 38.0355 20.1274 38.3462 20.518 38.3462C24.8801 38.3166 29.058 36.5932 32.1454 33.5385C35.2328 30.4838 36.9865 26.3418 37.0233 22.0149C37.0307 21.6229 36.7139 21.3049 36.3233 21.3049Z" fill="#E0E0E0"/>
</svg>
