<svg width="100" height="100" viewBox="0 0 100 100" fill="none" xmlns="http://www.w3.org/2000/svg">
<path d="M57.3377 90.3244C55.8344 90.1732 54.3228 90.0388 52.8196 89.8625C49.284 89.451 45.8996 88.5272 42.6999 86.9232C42.1877 86.6628 41.5662 86.5201 40.9868 86.5033C36.5106 86.3941 32.0261 86.2429 27.6339 85.2771C25.5512 84.8237 23.5021 84.1434 21.5202 83.3624C20.5628 82.9845 19.6894 82.2287 18.9756 81.4644C18.035 80.4651 17.951 79.2138 18.6145 77.9709C20.5796 74.2925 22.9226 70.8578 25.5008 67.5825C25.9795 66.9695 26.6849 66.8519 27.2224 67.255C27.7767 67.6749 27.8187 68.372 27.3316 69.0606C25.8535 71.1517 24.3671 73.2428 22.889 75.3423C22.7295 75.569 22.6119 75.821 22.4523 76.0981C28.3393 76.2577 33.2522 78.9366 38.165 81.624C40.4577 82.8753 42.6916 84.261 45.043 85.3863C48.4946 87.0323 52.2233 87.6706 56.0108 87.7798C59.8235 87.8889 63.653 87.763 67.4657 87.721C68.2887 87.7126 68.8682 88.1241 68.9101 88.8295C68.9521 89.4846 68.4734 89.9716 67.6672 90.064C66.7351 90.1648 65.8029 90.2404 64.8707 90.3244C62.3681 90.3244 59.8487 90.3244 57.3377 90.3244ZM37.3252 83.9503C33.7141 81.7836 30.0022 79.8772 25.9123 78.8527C24.4343 78.4832 22.9226 78.2984 21.411 78.6847C20.462 78.9283 20.2605 79.5833 21.0079 80.2131C21.7133 80.801 22.5363 81.3301 23.4013 81.6576C27.8691 83.396 32.5887 83.7151 37.3252 83.9503Z" fill="#C2A180" stroke="#C2A180" stroke-width="0.5"/>
<path d="M55.6497 41.7251C54.4068 43.1107 53.3403 44.2948 52.2821 45.4706C52.1814 45.395 52.0722 45.311 51.9714 45.2354C52.4585 45.521 52.9708 45.7813 53.4411 46.092C54.9947 47.1166 55.6078 48.7122 55.0787 50.291C54.5412 51.9035 53.0632 52.802 51.1736 52.6341C50.3926 52.5669 49.5948 52.5081 48.8474 52.2898C47.9404 52.021 47.1929 52.231 46.3951 52.6425C40.8021 55.5062 36.0404 59.4449 31.7322 63.9714C31.4971 64.2149 31.2703 64.4753 31.0268 64.7104C30.4473 65.2731 29.7923 65.3235 29.2884 64.8532C28.7761 64.3745 28.7509 63.6859 29.322 63.1148C30.9428 61.4772 32.5468 59.8144 34.2432 58.2607C37.3253 55.4474 40.7013 53.012 44.388 51.0385C44.4804 50.9881 44.556 50.9209 44.6735 50.8453C44.6148 50.7781 44.5812 50.7193 44.5308 50.6857C41.1716 48.4855 40.6425 45.4958 42.2381 41.767C42.4985 41.1624 42.4817 40.7005 42.3305 40.079C41.9946 38.6346 41.6923 37.1565 41.6335 35.6869C41.5243 33.0499 41.5999 30.3961 41.5999 27.7508C40.8776 27.44 40.1638 27.1965 39.5004 26.8438C36.2167 25.097 35.4609 21.0911 37.9551 18.6053C39.282 17.2868 40.8776 16.8501 42.7168 17.27C42.9604 17.3288 43.3383 17.3372 43.4726 17.1945C45.127 15.4813 47.1846 14.9354 49.4772 14.9774C49.6032 14.9774 49.7291 14.9606 49.8803 14.9522C50.7873 11.6602 53.2479 10.4089 56.3468 9.98057C58.3791 9.70344 60.3778 9.8378 62.2842 10.644C64.1149 11.425 65.2991 12.7267 65.6938 14.7422C66.0969 16.8166 66.5924 18.8825 67.0626 20.94C67.3902 22.3676 68.188 23.4678 69.5065 24.1396C71.396 25.1054 73.2436 26.1467 75.1919 26.953C77.0479 27.7256 78.316 28.9517 78.8786 30.8496C79.9284 34.402 81.0453 37.9544 81.9019 41.5571C82.6074 44.5468 79.3825 47.2342 76.3676 46.3608C76.0653 46.2768 75.7798 46.1592 75.3935 46.0248C75.3767 46.3356 75.3515 46.6043 75.3431 46.8814C75.2171 50.4926 75.0827 54.1037 74.9652 57.7149C74.9484 58.2943 74.7636 58.8066 74.1842 58.9326C73.823 59.0082 73.252 58.9494 73.0588 58.7142C72.7817 58.3783 72.6305 57.824 72.6389 57.3706C72.7397 53.1799 72.8657 48.9893 73.0252 44.8071C73.0504 44.1941 72.8405 43.7994 72.4206 43.3795C71.6983 42.6572 71.0601 41.8594 70.3883 41.0952C68.02 43.2703 66.8695 46.4867 63.3003 46.7471C63.3591 46.8982 63.3843 46.9906 63.4347 47.0662C68.5575 54.784 72.3954 63.1484 75.5446 71.8151C77.1739 76.2829 78.5007 80.8598 79.9452 85.3863C80.2979 86.4949 80.0124 87.1499 78.9626 87.7294C77.1906 88.7035 75.2339 89.0731 73.2688 89.3754C72.5885 89.4846 72.0595 89.0227 71.9671 88.4096C71.8747 87.763 72.2694 87.2339 72.9916 87.0575C74.1842 86.772 75.3851 86.5033 76.5776 86.2093C76.9219 86.1254 77.2494 85.9574 77.7281 85.781C76.5272 82.0859 75.4271 78.4328 74.159 74.8468C71.0769 66.1213 67.365 57.6729 62.4017 49.8375C61.3016 48.0908 60.0839 46.4028 58.7822 44.8071C57.8416 43.665 56.6743 42.716 55.6497 41.7251ZM43.9933 28.1035C43.9933 30.9504 43.9093 33.705 44.0101 36.4511C44.1277 39.6591 45.379 42.2121 48.5198 43.5726C49.1329 43.8414 49.5696 43.8414 50.0987 43.5138C51.6691 42.5481 52.8784 41.2212 53.9533 39.7599C54.684 38.7774 55.1795 38.6766 56.1704 39.424C58.0768 40.8517 59.9831 42.2793 61.8727 43.7322C62.8972 44.5132 63.779 44.5552 64.7868 43.749C65.1311 43.4718 65.4418 43.1443 65.7274 42.8084C67.0123 41.2884 68.3055 39.7683 69.5317 38.2147C70.2707 37.2741 70.9593 36.2831 71.5808 35.2586C71.8747 34.7715 72.0007 34.1333 71.3708 33.7134C70.783 33.327 70.2539 33.4866 69.75 33.9569C67.978 35.5861 66.1809 37.1985 64.4005 38.8109C63.3591 39.7515 63.0736 39.7767 61.9651 38.9537C60.3442 37.7528 58.715 36.5687 57.111 35.351C56.0948 34.5867 54.9695 34.15 53.7182 34.0493C52.912 33.9821 52.0974 33.9317 51.2912 33.9065C50.233 33.8729 49.6788 33.4782 49.6872 32.714C49.6956 31.975 50.2246 31.639 51.224 31.5131C52.173 31.3955 53.1555 31.2359 54.0121 30.8496C54.5328 30.6145 55.1543 29.951 55.1963 29.4388C55.339 27.5828 55.255 25.7016 55.255 23.7113C52.2318 27.2049 48.3519 28.2211 43.9933 28.1035ZM57.6485 26.7934C57.8584 26.7346 57.9844 26.7178 58.102 26.6674C60.6886 25.6177 62.6789 23.7617 64.5684 21.7882C64.686 21.6706 64.7196 21.4019 64.686 21.2255C64.2493 19.1512 63.7706 17.0937 63.3423 15.0194C63.1576 14.1292 62.6789 13.4573 61.8895 13.0794C59.1853 11.8113 56.4644 11.8533 53.8106 13.2054C53.0044 13.6169 52.4753 14.3391 52.3073 15.3049C52.5845 15.4057 52.828 15.4981 53.0716 15.5904C56.0445 16.7074 57.6569 19.0252 57.6569 22.1997C57.6569 23.6945 57.6485 25.1894 57.6485 26.7934ZM44.0773 25.71C46.9746 25.9116 49.6872 25.3741 52.0554 23.577C53.1723 22.7288 53.9114 21.6202 54.2725 20.2429C54.4656 19.5039 54.2809 19.0084 53.6594 18.5717C52.1226 17.48 50.3926 17.2449 48.5786 17.3624C46.1264 17.5136 44.472 18.8657 44.1109 21.3095C43.9093 22.712 44.0773 24.1648 44.0773 25.71ZM63.082 36.8206C64.896 35.183 66.6427 33.5958 68.4063 32.0421C69.834 30.7824 71.7655 30.816 73.1848 32.0925C73.6131 32.4788 74.0078 32.8987 74.4277 33.2935C75.6706 34.4356 76.9135 35.5777 78.1648 36.7198C77.6777 34.4188 77.1235 32.1933 75.9309 30.1946C75.8218 30.0014 75.6118 29.8419 75.4103 29.7411C73.0252 28.5738 70.6234 27.4232 68.188 26.2475C66.6175 29.7663 64.56 33.0247 61.8559 35.9304C62.2842 36.2328 62.6537 36.5099 63.082 36.8206ZM74.0246 41.6999C74.7552 42.3297 75.5698 43.0939 76.4516 43.791C77.2074 44.3956 78.358 44.2277 79.0886 43.4886C79.7017 42.8672 79.8696 41.9686 79.3573 41.3639C78.5427 40.3982 77.6441 39.4996 76.8883 38.6934C75.8974 39.7347 74.9988 40.6753 74.0246 41.6999ZM61.7467 32.3949C62.0658 31.9918 62.2674 31.7902 62.4017 31.5551C63.6195 29.4556 64.812 27.3477 66.0297 25.2566C66.3404 24.7275 66.2648 24.3412 65.8197 24.064C64.5432 25.1222 63.2835 26.1467 62.0574 27.1965C61.8895 27.3393 61.7551 27.6164 61.7551 27.8431C61.7299 29.2708 61.7467 30.7069 61.7467 32.3949ZM41.877 19.5459C40.5753 19.2352 39.1728 20.1674 38.9125 21.6118C38.6102 23.241 39.8027 24.8031 41.5075 25.055C41.6251 23.241 41.7426 21.4355 41.877 19.5459ZM44.1193 43.497C43.1451 45.8989 44.0017 47.9564 46.4371 48.9306C46.8066 47.864 47.1678 46.7975 47.5121 45.7897C46.3867 45.0339 45.2698 44.2781 44.1193 43.497ZM48.6626 49.9635C49.8215 50.0979 50.7537 50.291 51.6775 50.2742C52.0722 50.2658 52.6265 49.8795 52.786 49.5268C52.9204 49.2161 52.7188 48.5358 52.4333 48.3259C51.6355 47.738 50.7117 47.3097 49.6704 46.7219C49.3092 47.864 49.0153 48.813 48.6626 49.9635ZM59.3533 28.7585C58.8662 28.9013 58.4127 29.0189 57.976 29.1868C57.8416 29.2372 57.7073 29.3884 57.6485 29.5311C57.279 30.4297 56.9346 31.3283 56.5819 32.2353C57.3965 32.7476 58.3455 33.3438 59.3533 33.9653C59.3533 32.2101 59.3533 30.5053 59.3533 28.7585ZM73.949 36.1236C73.2016 37.2321 72.4626 38.3155 71.7151 39.424C72.7817 39.634 73.8734 38.9453 74.4109 37.8116C74.73 37.1229 74.7972 36.5099 73.949 36.1236Z" fill="#C2A180" stroke="#C2A180" stroke-width="0.5"/>
</svg>
