<svg width="100" height="100" viewBox="0 0 100 100" fill="none" xmlns="http://www.w3.org/2000/svg">
<path d="M92.0001 71.2C91.6001 72.12 90.8901 72.47 89.9101 72.43C89.1001 72.39 88.2901 72.42 87.4101 72.42C87.4101 73.03 87.4301 73.55 87.4101 74.06C87.3601 75.05 86.6501 75.75 85.7501 75.74C84.8501 75.72 84.1801 75.01 84.1501 74.02C84.1401 73.53 84.1501 73.04 84.1501 72.49C71.7601 72.49 59.4101 72.49 46.9801 72.49C46.9801 73.02 47.0001 73.53 46.9801 74.04C46.9401 75.03 46.2601 75.74 45.3501 75.75C44.4501 75.76 43.7501 75.04 43.7101 74.06C43.6901 73.55 43.7101 73.04 43.7101 72.43C42.6301 72.43 41.6201 72.44 40.6201 72.43C39.2001 72.41 38.6301 71.84 38.6301 70.43C38.6301 64.13 38.6301 57.82 38.6301 51.52C38.6301 49.66 39.4501 48.26 41.0901 47.4C41.5401 47.16 41.6301 46.89 41.6301 46.44C41.6201 42.48 41.6101 38.53 41.6301 34.57C41.6501 31.5 43.5201 29.16 46.4001 28.56C46.8001 28.48 47.2101 28.45 47.6201 28.45C50.9801 28.44 54.3301 28.45 57.6901 28.44C58.5401 28.44 59.1801 28.72 59.4901 29.56C59.8901 30.66 59.0701 31.7 57.7701 31.71C54.8801 31.73 51.9901 31.72 49.0901 31.72C48.5701 31.72 48.0501 31.71 47.5301 31.73C46.1401 31.77 44.9701 32.7 44.9501 34.08C44.8801 38.28 44.9401 42.48 44.9401 46.68C44.9401 46.7 44.9701 46.72 45.0201 46.8C46.1701 46.8 47.3601 46.8 48.6501 46.8C48.6701 46.52 48.6901 46.23 48.7001 45.95C48.7101 44.67 48.6801 43.38 48.7101 42.1C48.7701 39.31 50.6201 37.43 53.4101 37.38C56.3601 37.33 59.3101 37.3 62.2501 37.4C63.2901 37.44 64.3201 37.89 65.6101 38.21C66.5301 37.44 67.9501 37.34 69.4201 37.35C71.9301 37.38 74.4401 37.35 76.9501 37.36C80.0701 37.37 81.9301 39.24 81.9601 42.36C81.9701 43.83 81.9601 45.3 81.9601 46.8C83.2501 46.8 84.4401 46.8 85.7301 46.8C85.7401 46.52 85.7701 46.26 85.7701 46C85.7701 42.26 85.7701 38.52 85.7701 34.78C85.7701 32.71 84.7701 31.71 82.7201 31.71C79.4201 31.71 76.1201 31.7 72.8101 31.71C72.0801 31.71 71.4501 31.55 71.0601 30.88C70.4001 29.75 71.1801 28.46 72.5601 28.44C74.8501 28.41 77.1401 28.43 79.4401 28.43C80.5601 28.43 81.6801 28.43 82.8001 28.43C86.5701 28.45 89.0401 30.92 89.0501 34.7C89.0601 38.55 89.0601 42.4 89.0401 46.24C89.0401 46.82 89.1401 47.18 89.7201 47.45C91.0201 48.06 91.6101 49.27 92.0501 50.55C92.0001 57.44 92.0001 64.32 92.0001 71.2ZM41.8901 60.36C57.5501 60.36 73.1201 60.36 88.7301 60.36C88.7301 57.57 88.7301 54.84 88.7301 52.12C88.7301 50.44 88.4101 50.12 86.7201 50.12C72.4501 50.12 58.1701 50.12 43.9001 50.12C43.6001 50.12 43.2901 50.11 43.0001 50.16C42.3301 50.28 41.9101 50.69 41.9001 51.39C41.8801 54.35 41.8901 57.32 41.8901 60.36ZM88.6901 63.76C73.0601 63.76 57.5001 63.76 41.9501 63.76C41.9501 65.58 41.9501 67.34 41.9501 69.09C57.5601 69.09 73.1001 69.09 88.6901 69.09C88.6901 67.3 88.6901 65.56 88.6901 63.76ZM63.6701 46.8C63.6701 45.33 63.6701 43.89 63.6701 42.45C63.6701 41.06 63.2601 40.63 61.8801 40.63C59.4601 40.62 57.0301 40.63 54.6101 40.63C52.0501 40.63 51.9601 40.73 51.9601 43.31C51.9601 44.47 51.9601 45.63 51.9601 46.8C55.9201 46.8 59.7501 46.8 63.6701 46.8ZM78.6501 46.79C78.6501 45.31 78.6601 43.87 78.6501 42.43C78.6401 41.04 78.2301 40.63 76.8401 40.63C74.4201 40.62 71.9901 40.63 69.5701 40.63C67.0601 40.63 66.9401 40.74 66.9401 43.25C66.9401 44.44 66.9401 45.62 66.9401 46.79C70.9001 46.79 74.7301 46.79 78.6501 46.79Z" fill="#C2A180"/>
<path d="M22.6501 42.06C22.6501 44.55 22.6501 46.94 22.6501 49.43C22.9501 49.45 23.2401 49.48 23.5301 49.49C25.8201 49.49 28.1101 49.49 30.4101 49.49C32.9401 49.5 34.3501 50.92 34.3501 53.46C34.3501 58.51 34.3401 63.56 34.3601 68.6C34.3701 70.3 33.7001 71.53 32.1301 72.26C31.9301 72.35 31.7601 72.68 31.7201 72.91C31.6401 73.42 31.7101 73.95 31.6101 74.45C31.4601 75.25 30.7201 75.77 29.9401 75.71C29.1401 75.65 28.5101 75.05 28.4501 74.23C28.4101 73.69 28.4401 73.15 28.4401 72.54C23.6301 72.54 18.9101 72.54 14.0801 72.54C14.0801 73.06 14.1001 73.57 14.0801 74.08C14.0401 74.99 13.4101 75.65 12.5601 75.7C11.7001 75.76 10.9401 75.11 10.8501 74.18C10.8001 73.61 10.8401 73.04 10.8401 72.42C10.6301 72.32 10.4301 72.24 10.2401 72.15C8.89011 71.48 8.18011 70.4 8.18011 68.89C8.17011 63.62 8.17011 58.36 8.18011 53.09C8.18011 50.95 9.62011 49.5 11.7701 49.46C13.9201 49.43 16.0801 49.45 18.2401 49.45C18.5701 49.45 18.8901 49.45 19.2901 49.45C19.2901 46.99 19.2901 44.58 19.2901 42.03C19.0201 42.03 18.7401 42.03 18.4601 42.03C15.7301 42.03 13.0001 42.03 10.2801 42.03C8.49011 42.03 7.79011 40.99 8.49011 39.36C10.4501 34.81 12.4301 30.26 14.3701 25.7C14.7601 24.78 15.3701 24.35 16.3701 24.35C19.4501 24.37 22.5401 24.37 25.6201 24.35C26.6201 24.34 27.2501 24.74 27.6501 25.67C29.6101 30.25 31.5901 34.83 33.5601 39.41C34.2301 40.97 33.5101 42.03 31.7801 42.03C28.7501 42.07 25.7501 42.06 22.6501 42.06ZM11.4801 52.83C11.4601 53.01 11.4301 53.14 11.4301 53.27C11.4301 58.37 11.4401 63.47 11.4101 68.57C11.4101 69.24 11.7501 69.23 12.2301 69.23C18.2301 69.22 24.2301 69.21 30.2301 69.24C30.9301 69.24 31.0901 69.01 31.0801 68.35C31.0601 63.44 31.0701 58.53 31.0701 53.62C31.0701 53.38 31.0501 53.14 31.0401 52.82C24.4901 52.83 18.0001 52.83 11.4801 52.83ZM29.5701 38.75C29.5601 38.63 29.5801 38.54 29.5501 38.47C28.0601 35.02 26.5801 31.57 25.0601 28.13C24.9601 27.9 24.5301 27.69 24.2601 27.68C22.1101 27.64 19.9501 27.68 17.8001 27.65C17.2401 27.64 17.0001 27.84 16.7801 28.34C15.4101 31.57 14.0001 34.79 12.6101 38.02C12.5201 38.24 12.4501 38.47 12.3501 38.75C18.1301 38.75 23.8401 38.75 29.5701 38.75Z" fill="#C2A180"/>
<path d="M65.3301 31.67C64.4401 31.69 63.7001 30.98 63.6801 30.1C63.6601 29.21 64.3601 28.46 65.2301 28.44C66.1401 28.41 66.9301 29.16 66.9401 30.05C66.9401 30.92 66.2201 31.65 65.3301 31.67Z" fill="#C2A180"/>
<path d="M16.16 59.38C17.07 59.37 17.79 60.06 17.81 60.95C17.83 61.83 17.11 62.6 16.25 62.62C15.35 62.64 14.55 61.87 14.55 60.99C14.55 60.1 15.26 59.39 16.16 59.38Z" fill="#C2A180"/>
</svg>
