<svg width="100" height="100" viewBox="0 0 100 100" fill="none" xmlns="http://www.w3.org/2000/svg">
<path d="M47.4831 85.6824C46.3056 85.4612 45.1139 85.2828 43.9435 85.0045C41.3745 84.3908 39.0981 83.2061 37.1213 81.4292C30.0494 75.0566 22.956 68.7054 15.8698 62.3471C14.6994 61.298 14.6709 60.7414 15.7485 59.5639C16.983 58.2081 18.1962 56.8308 19.4735 55.5106C19.7875 55.1895 20.2728 54.9468 20.7152 54.8612C21.7143 54.6685 22.7419 54.6186 23.7553 54.4758C23.9836 54.4402 24.2548 54.326 24.4047 54.1619C27.2877 50.9791 30.1564 47.7821 33.0252 44.5851C33.068 44.5351 33.0965 44.4709 33.1679 44.3353C32.2402 43.4147 31.2768 42.5084 30.3634 41.5593C29.1359 40.2748 28.7577 38.7405 29.3072 37.0564C29.8567 35.3723 31.0699 34.3589 32.8111 34.0449C33.2821 33.9593 33.7887 33.9664 34.2597 34.0449C36.7146 34.4802 38.8626 37.0136 38.9268 39.5041C38.9339 39.6468 38.9054 39.7896 38.9339 39.918C38.9768 40.1036 39.0624 40.282 39.1338 40.4604C39.2979 40.3676 39.4763 40.2891 39.6119 40.1678C39.7475 40.0465 39.8402 39.8752 39.9473 39.7253C45.9131 31.6115 51.879 23.4905 57.8591 15.3838C58.1517 14.9913 58.5585 14.6773 58.9153 14.3205C59.1936 14.3205 59.4719 14.3205 59.7502 14.3205C60.9134 15.1055 61.0276 15.7691 60.1927 16.9038C54.1412 25.1318 48.0968 33.3599 42.031 41.5807C41.7099 42.0161 41.5815 42.33 41.9026 42.851C42.3807 43.636 42.3664 44.528 42.1167 45.4129C41.7884 46.5975 41.4602 47.7821 41.1533 48.9738C40.7109 50.7079 41.1604 52.1851 42.502 53.3769C43.3156 54.1048 44.1719 54.7827 44.964 55.532C46.5554 57.0235 49.4884 56.9164 51.1083 55.3679C55.2116 51.4572 59.3791 47.6251 63.5253 43.7573C63.6751 43.6146 63.825 43.4647 63.9962 43.3434C64.5957 42.9081 65.3378 42.9723 65.8302 43.4932C66.3012 43.9856 66.3298 44.792 65.8802 45.3344C65.7018 45.5485 65.4948 45.734 65.2879 45.9267C61.9268 49.0666 58.5727 52.2065 55.2045 55.3393C54.8976 55.6248 54.7834 55.8531 54.9404 56.2813C55.39 57.5444 55.6612 58.886 56.2107 60.1063C57.9662 63.967 61.0276 66.1507 65.2023 66.8785C68.0139 67.3709 70.797 67.9775 73.5944 68.5413C76.1849 69.0622 77.9047 70.5751 78.7396 73.087C79.0393 73.9862 79.3605 74.8853 79.6602 75.7845C80.7306 78.9458 79.6031 81.6219 76.5988 83.1491C75.4498 83.7342 74.2153 83.8841 72.9593 83.9769C67.0791 84.4122 61.1989 84.8403 55.3186 85.2899C53.8629 85.397 52.4142 85.554 50.9656 85.6895C49.8095 85.6824 48.6463 85.6824 47.4831 85.6824ZM26.831 55.639C26.9237 55.7461 26.9594 55.8103 27.0094 55.8531C33.5747 61.7476 40.14 67.6421 46.7195 73.5223C48.1539 74.7997 49.8523 75.5276 51.7862 75.5347C58.587 75.5562 65.3949 75.549 72.1957 75.549C73.5231 75.549 74.672 75.0281 75.7281 74.2574C76.035 74.029 76.0778 73.8435 75.928 73.5081C75.3927 72.3591 74.5507 71.5884 73.3018 71.3244C70.9826 70.8391 68.6705 70.3753 66.3441 69.9328C63.8749 69.4618 61.4344 68.9623 59.2507 67.6064C56.2892 65.7653 53.977 63.446 53.1492 59.9208C53.0208 59.3641 52.7996 58.8289 52.614 58.2652C51.6364 58.572 50.7372 58.8789 49.8238 59.1286C47.4189 59.7923 45.2281 59.3356 43.2942 57.7442C42.4307 57.0377 41.5957 56.2956 40.7679 55.5534C38.4844 53.5267 37.7279 51.0291 38.5058 48.0747C38.8055 46.9329 39.1123 45.7911 39.4263 44.6493C39.6333 43.9 39.0553 43.5932 38.6199 43.2649C38.1846 42.9366 37.9135 43.3791 37.6494 43.6645C36.9786 44.3995 36.3078 45.1417 35.637 45.8839C32.7183 49.1308 29.7853 52.3707 26.831 55.639ZM18.3603 60.8342C18.6529 61.0982 18.9098 61.3337 19.1667 61.5621C25.6963 67.4209 32.2473 73.2654 38.7555 79.1599C40.8607 81.0724 43.3084 82.1357 46.063 82.6281C48.475 83.0634 50.8728 82.8279 53.2777 82.6424C60.0785 82.1143 66.8864 81.6148 73.6872 81.101C75.0502 81.0011 76.1064 80.3659 76.9056 79.2812C77.4979 78.482 77.4694 77.6613 76.9912 76.7622C75.1002 78.1252 72.9736 78.3749 70.7471 78.3607C64.6385 78.3179 58.5299 78.325 52.4285 78.3535C49.4027 78.3678 46.8123 77.3759 44.5644 75.3563C38.4915 69.89 32.3472 64.4951 26.3528 58.9431C24.9113 57.6086 23.5483 57.0021 21.6929 57.5373C21.4859 57.5944 21.2505 57.6871 21.1077 57.837C20.2014 58.8004 19.3165 59.7852 18.3603 60.8342ZM35.1161 42.3158C35.4657 41.8376 35.9938 41.4023 36.108 40.8885C36.422 39.3899 35.9439 38.1268 34.6594 37.192C33.9172 36.6496 33.0109 36.6282 32.3758 37.2277C31.7264 37.8414 31.655 38.8547 32.3044 39.5398C33.1679 40.4675 34.1099 41.331 35.1161 42.3158Z" fill="#C2A180" stroke="#C2A180" stroke-width="0.6"/>
<path d="M73.6444 37.6772C73.2447 37.3775 72.7309 37.1706 72.5525 36.8066C72.367 36.4355 72.4812 35.8932 72.5454 35.4365C72.5668 35.2652 72.788 35.1082 72.9379 34.9655C76.1206 31.9826 79.3176 28.9996 82.5004 26.0167C83.0285 25.5243 83.5994 25.3031 84.2702 25.667C84.8125 25.9596 85.098 26.452 84.9695 27.0586C84.8981 27.394 84.6983 27.7651 84.4414 28.0006C81.2301 31.0263 78.0117 34.0378 74.7719 37.035C74.4936 37.2919 74.1082 37.4203 73.6444 37.6772Z" fill="#C2A180" stroke="#C2A180" stroke-width="0.6"/>
<path d="M69.2484 41.6592C68.4706 41.6592 67.864 41.0741 67.8569 40.3176C67.8497 39.5755 68.4777 38.9332 69.2127 38.9189C69.9835 38.9047 70.6328 39.5541 70.6328 40.3248C70.6257 41.0883 70.0334 41.6592 69.2484 41.6592Z" fill="#C2A180" stroke="#C2A180" stroke-width="0.6"/>
</svg>
