<svg width="100" height="100" viewBox="0 0 100 100" fill="none" xmlns="http://www.w3.org/2000/svg">
<path d="M14.1372 86.0014C14.1372 85.23 14.1372 84.4672 14.1372 83.6186C18.1229 83.6186 22.0572 83.6186 26.0343 83.6186C26.0343 77.61 26.0343 71.6786 26.0343 65.67C22.1001 65.67 18.1658 65.67 14.1801 65.67C14.1801 64.8386 14.1801 64.0843 14.1801 63.2529C14.4286 63.2529 14.6515 63.2529 14.8829 63.2529C18.8601 63.2529 22.8372 63.2529 26.8058 63.2614C27.1315 63.2614 27.4486 63.3557 27.7743 63.3729C27.9372 63.3814 28.1515 63.3643 28.2715 63.27C29.1972 62.5243 30.0972 61.7614 31.1258 60.9043C30.7572 60.8872 30.5343 60.8614 30.3201 60.8614C27.8172 60.8614 25.3143 60.87 22.8115 60.8614C18.2858 60.8443 14.9172 57.9557 14.2143 53.5072C14.1715 53.25 14.1544 52.9929 14.1458 52.7443C14.1286 51.7757 14.5572 51.3129 15.5258 51.2872C16.6229 51.2614 17.7201 51.2786 18.9029 51.2786C19.0658 42.9472 21.8858 35.7043 27.6543 29.7129C33.4058 23.7386 40.5029 20.6186 48.8172 20.1386C48.8172 18.9643 48.8172 17.8072 48.8172 16.5643C48.0715 16.5643 47.3172 16.5643 46.5201 16.5643C46.5201 15.7243 46.5201 14.9615 46.5201 14.1729C48.8943 14.1729 51.2258 14.1729 53.6172 14.1729C53.6172 14.9272 53.6172 15.6815 53.6172 16.53C52.8629 16.53 52.1001 16.53 51.3115 16.53C51.3115 17.7729 51.3115 18.93 51.3115 20.1386C59.6258 20.6186 66.7401 23.7386 72.5086 29.7386C78.26 35.7214 81.0715 42.9386 81.2343 51.2786C82.3315 51.2786 83.3772 51.2957 84.4229 51.27C85.1429 51.2529 85.7 51.4757 86 52.1786C86 52.5986 86 53.0186 86 53.4386C85.9572 53.5672 85.8972 53.6957 85.8715 53.8329C85.2372 57.33 82.7343 59.9357 79.2972 60.6729C78.92 60.7586 78.5343 60.8014 78.1143 60.8614C78.1829 61.0157 78.2086 61.11 78.2515 61.1872C79.34 63.5786 78.9115 65.5843 76.8972 67.2557C72.1486 71.1986 67.3829 75.1157 62.6343 79.0586C60.8515 80.5414 58.8029 81.21 56.4886 81.21C47.4372 81.1929 38.3858 81.2014 29.3429 81.2014C29.0686 81.2014 28.8029 81.2014 28.4772 81.2014C28.4772 82.3243 28.4429 83.3443 28.4858 84.3729C28.5201 85.11 28.2629 85.6414 27.6201 85.9843C23.1201 86.0014 18.6286 86.0014 14.1372 86.0014ZM78.8857 51.1929C78.3372 40.0843 73.58 31.4615 63.86 26.1472C53.6429 20.5672 43.3315 21.1586 33.7143 27.7243C25.5801 33.2872 21.6372 41.3186 21.2858 51.1929C40.5201 51.1929 59.6172 51.1929 78.8857 51.1929ZM28.5286 78.8272C28.9315 78.8272 29.2058 78.8272 29.4886 78.8272C38.4458 78.8272 47.4029 78.81 56.3601 78.8357C58.2715 78.8443 59.9086 78.2614 61.3743 77.0272C64.2286 74.61 67.1343 72.2529 70.0143 69.87C71.8743 68.3357 73.7343 66.81 75.5772 65.2586C76.34 64.6157 76.6486 63.7929 76.3486 62.8072C76.0572 61.8557 75.38 61.2472 74.42 61.2472C73.7943 61.2472 73.0829 61.5043 72.56 61.8643C68.2143 64.9157 63.92 68.0272 59.5829 71.07C59.12 71.3957 58.4772 71.6014 57.9115 71.6014C53.4886 71.6443 49.0743 71.6272 44.6515 71.6186C44.3258 71.6186 44.0001 71.5929 43.6743 71.5586C41.8572 71.3443 40.5286 69.8529 40.5286 68.0272C40.5286 66.21 41.8486 64.6672 43.6572 64.4957C44.5829 64.4014 45.5258 64.4272 46.4601 64.4186C48.2858 64.41 50.1115 64.4186 51.9286 64.4014C52.7515 64.3929 53.2915 63.9214 53.5658 63.1929C53.8229 62.5157 53.6686 61.8214 53.1115 61.41C52.6743 61.0929 52.0572 60.8786 51.5172 60.8786C46.5372 60.8357 41.5572 60.87 36.5772 60.8443C35.4286 60.8357 34.4943 61.1957 33.6372 61.9243C32.1458 63.2014 30.6372 64.4529 29.1029 65.6872C28.7001 66.0129 28.5286 66.3386 28.5286 66.8614C28.5543 70.5814 28.5372 74.3014 28.5372 78.0129C28.5286 78.27 28.5286 78.5014 28.5286 78.8272ZM83.42 53.7043C61.16 53.7043 38.9601 53.7043 16.7515 53.7043C17.0686 56.01 19.2801 58.1272 21.6543 58.35C22.6743 58.4443 23.7115 58.4529 24.7315 58.4529C33.6372 58.4529 42.5515 58.4272 51.4572 58.4272C60.0886 58.4272 68.7115 58.4614 77.3429 58.4529C80.4458 58.4529 82.8458 56.5672 83.42 53.7043ZM55.9058 60.8957C55.9058 61.89 56.0686 62.8414 55.8715 63.7157C55.4343 65.6957 53.78 66.8186 51.5258 66.8357C49.1172 66.8529 46.7086 66.8272 44.3001 66.8443C43.4001 66.8529 42.8858 67.3329 42.9029 68.07C42.9201 68.7814 43.4172 69.1929 44.2915 69.2357C44.4115 69.2443 44.5229 69.2357 44.6429 69.2357C48.8943 69.2357 53.1543 69.2443 57.4058 69.2186C57.7915 69.2186 58.2458 69.0814 58.5543 68.8586C62.0858 66.3643 65.6 63.8443 69.1143 61.3329C69.2772 61.2214 69.4229 61.0929 69.68 60.8872C64.9486 60.8957 60.3543 60.8957 55.9058 60.8957Z" fill="#C2A180" stroke="#C2A180" stroke-width="0.5"/>
<path d="M23.7032 77.6187C23.7032 79.5816 22.1002 81.1931 20.1459 81.2103C18.2172 81.2274 16.5629 79.5902 16.5372 77.653C16.5114 75.6729 18.1572 74.0357 20.1459 74.0443C22.126 74.0529 23.7032 75.6386 23.7032 77.6187ZM20.1459 78.8102C20.7973 78.8016 21.3288 78.2273 21.3031 77.5673C21.2774 76.933 20.7545 76.4358 20.1116 76.4444C19.4601 76.4529 18.903 77.0273 18.9373 77.6701C18.9715 78.2787 19.5373 78.8188 20.1459 78.8102Z" fill="#C2A180" stroke="#C2A180" stroke-width="0.5"/>
<path d="M33.6886 33.819C33.1486 33.2446 32.6257 32.6875 32.0514 32.0875C37.1602 27.4073 43.1175 25.05 50.0778 24.9386C50.0778 25.3843 50.0778 25.7786 50.0778 26.1644C50.0778 26.5329 50.0778 26.9015 50.0778 27.3216C43.769 27.4158 38.3345 29.5759 33.6886 33.819Z" fill="#C2A180" stroke="#C2A180" stroke-width="0.5"/>
<path d="M32.1373 35.3615C31.4259 36.2872 30.7487 37.1616 30.0287 38.0873C29.3772 37.6587 28.7515 37.2387 28.04 36.7673C28.8201 35.7558 29.5487 34.7958 30.3373 33.7672C30.9716 34.3243 31.5545 34.8386 32.1373 35.3615Z" fill="#C2A180" stroke="#C2A180" stroke-width="0.5"/>
</svg>
