<svg width="100" height="100" viewBox="0 0 100 100" fill="none" xmlns="http://www.w3.org/2000/svg">
<path d="M90 63.75C89.77 64.06 89.6 64.44 89.32 64.68C85.37 67.98 81.07 70.67 76.11 72.17C69.72 74.11 63.47 73.61 57.37 70.97C57.23 70.91 57.09 70.85 56.9 70.77C56.36 71.76 55.89 72.78 55.28 73.7C54.04 75.56 52.76 77.39 51.43 79.19C50.6 80.31 49.45 80.27 48.56 79.17C46.56 76.73 44.81 74.12 43.42 71.27C43.34 71.11 43.25 70.96 43.22 70.92C41.07 71.56 39.02 72.32 36.9 72.77C30.85 74.07 25.06 73.08 19.52 70.44C16.43 68.96 13.6 67.07 10.96 64.89C10.61 64.6 10.33 64.23 10.01 63.89C10.01 63.53 10.01 63.16 10.01 62.8C11.08 61.87 12.1 60.87 13.24 60.04C17.14 57.18 21.37 55.02 26.13 53.98C26.27 53.95 26.41 53.89 26.4 53.89C25.26 51.81 24.02 49.79 23.03 47.66C21.23 43.75 20.43 39.56 20.02 35.29C19.91 34.11 20.69 33.24 21.81 33.34C27.22 33.84 32.43 35.07 37.2 37.78C38.19 38.34 39.13 38.98 40.01 39.53C40.5 37.47 40.9 35.37 41.52 33.34C42.96 28.62 45.51 24.49 48.63 20.71C49.41 19.76 50.6 19.76 51.39 20.71C55.58 25.8 58.59 31.45 59.64 38.04C59.72 38.55 59.78 39.06 59.86 39.63C60.81 39.02 61.69 38.42 62.61 37.89C66.77 35.48 71.3 34.21 76.03 33.58C76.67 33.49 77.32 33.43 77.97 33.36C79.26 33.22 80.12 34 79.99 35.29C79.34 41.91 77.65 48.18 73.56 53.6C73.52 53.66 73.49 53.73 73.46 53.8C74.93 54.25 76.41 54.64 77.84 55.16C82.09 56.71 85.84 59.12 89.31 62C89.58 62.22 89.78 62.53 90.01 62.8C90 63.12 90 63.44 90 63.75ZM50 60.57C59.56 48.38 58.18 34.49 49.96 24.48C41.04 35.9 41.2 49.31 50 60.57ZM23.56 36.89C24.4 42.92 26.19 48.44 30.28 52.99C34.51 57.69 39.99 59.95 46.19 61.11C45.98 60.78 45.85 60.56 45.71 60.34C42.85 55.94 40.77 51.21 40.3 45.95C40.14 44.18 39.37 43.14 38.02 42.28C38 42.27 37.98 42.25 37.96 42.23C33.71 39.13 28.85 37.65 23.56 36.89ZM53.88 61.1C60.62 59.85 66.51 57.23 70.78 51.73C74.16 47.38 75.7 42.33 76.44 36.86C75.19 37.09 74.08 37.27 72.99 37.51C68.35 38.54 64.07 40.33 60.48 43.54C60.19 43.8 59.93 44.26 59.9 44.64C59.57 49.04 58.28 53.16 56.22 57.04C55.51 58.39 54.69 59.69 53.88 61.1ZM47.06 64.64C46.46 64.53 46.01 64.45 45.55 64.37C39.69 63.3 34.31 61.19 29.76 57.22C29.49 56.98 28.96 56.9 28.57 56.95C25.68 57.32 22.93 58.2 20.37 59.57C18.3 60.68 16.33 61.97 14.25 63.22C25.58 72.11 36.89 71.87 47.06 64.64ZM53.05 64.73C63.29 71.96 74.58 72.01 85.63 63.33C84.96 62.85 84.32 62.37 83.66 61.93C79.93 59.42 75.92 57.57 71.42 56.96C71.06 56.91 70.55 56.97 70.29 57.19C66.96 60.1 63.14 62.1 58.91 63.31C56.99 63.85 55.04 64.25 53.05 64.73ZM49.82 75.6C49.94 75.59 50.07 75.59 50.19 75.58C51.44 73.51 52.7 71.43 53.96 69.35C52.63 68.47 51.46 67.69 50.28 66.93C50.15 66.85 49.87 66.84 49.74 66.92C48.54 67.69 47.36 68.48 46.03 69.36C47.3 71.45 48.56 73.53 49.82 75.6Z" fill="#C2A180"/>
</svg>
