<svg width="100" height="100" viewBox="0 0 100 100" fill="none" xmlns="http://www.w3.org/2000/svg">
<path d="M88.9999 22.32C88.5699 22.78 88.1999 23.32 87.6899 23.68C85.0499 25.53 82.3699 27.33 79.7299 29.18C79.5199 29.32 79.3499 29.66 79.3399 29.92C78.9499 37.52 78.5899 45.12 78.2199 52.72C77.8699 59.76 77.5299 66.79 77.1599 73.83C76.9099 78.49 73.8999 82.35 69.3599 83.98C67.3199 84.71 65.2399 85.3 63.1599 84.41C61.4599 83.68 59.7699 82.79 58.2899 81.69C56.4399 80.32 55.7799 78.27 56.1799 76.01C56.4999 74.23 56.3199 72.58 55.7099 70.89C54.3099 67.07 52.9699 63.23 51.6399 59.39C51.3699 58.61 51.0199 57.97 50.2699 57.56C49.8299 57.32 49.4799 56.93 48.9999 56.54C48.7899 57.07 48.6099 57.53 48.4299 58C45.7899 64.82 42.7499 71.44 38.5499 77.46C36.1399 80.93 33.4199 84.12 29.7799 86.38C29.0699 86.82 28.3099 87.21 27.5299 87.53C26.6099 87.92 25.6899 87.57 25.2999 86.76C24.8699 85.9 25.1199 84.91 26.0499 84.47C31.2899 81.99 34.5099 77.54 37.4299 72.83C41.1999 66.76 43.9899 60.22 46.3799 53.5C46.4699 53.23 46.5299 52.88 46.4299 52.63C45.4799 50.29 45.2199 47.89 45.6399 45.33C45.4799 45.35 45.3599 45.35 45.2599 45.38C39.2999 47.41 33.5799 49.94 28.4399 53.63C27.4399 54.35 26.5299 55.18 25.5299 55.9C24.4899 56.65 23.2299 56.23 22.8599 55.07C22.5899 54.25 22.9099 53.58 23.5499 53.11C25.8699 51.43 28.1199 49.63 30.5699 48.16C35.5699 45.15 40.9599 42.99 46.5499 41.34C46.9599 41.22 47.4199 40.96 47.6599 40.63C48.9699 38.85 50.6599 37.56 52.6399 36.64C54.8699 35.61 57.1199 34.63 59.3599 33.62C60.0699 33.3 60.7599 33.27 61.3799 33.79C61.8899 34.22 62.0699 34.79 61.9499 35.45C61.8099 36.19 61.2699 36.55 60.6399 36.83C58.5199 37.78 56.4099 38.77 54.2599 39.68C48.8699 41.95 47.4999 48.12 50.3099 52.53C51.7999 54.86 53.9599 56.16 56.6999 56.41C59.0699 56.62 61.4499 56.74 63.8299 56.91C64.1899 56.93 64.5499 56.96 64.8999 57.03C65.8699 57.2 66.4799 57.94 66.4099 58.85C66.3399 59.76 65.6299 60.44 64.6399 60.42C63.4399 60.39 62.2399 60.28 61.0399 60.2C59.3299 60.08 57.6199 59.94 55.9099 59.81C55.7899 59.8 55.6599 59.82 55.4599 59.84C56.2799 62.15 57.0899 64.41 57.8799 66.67C58.4399 68.29 59.1199 69.88 59.4799 71.55C59.7599 72.87 59.8099 74.3 59.6599 75.65C59.4199 77.9 59.6899 78.68 61.6699 79.78C61.8299 79.87 61.9899 79.94 62.2799 80.09C61.9799 78.86 61.6999 77.74 61.4299 76.62C61.2799 76.02 61.1199 75.43 60.9899 74.83C60.7699 73.73 61.2699 72.84 62.2299 72.61C63.1699 72.38 64.0499 72.94 64.3399 74.05C64.8999 76.18 65.4099 78.32 65.9399 80.45C65.9999 80.7 66.0699 80.94 66.1599 81.28C68.7699 80.66 71.0999 79.67 72.5899 77.14C71.4599 77.1 70.6099 77.52 69.8799 78.24C69.6799 78.44 69.5099 78.66 69.3199 78.87C68.6399 79.63 67.6399 79.76 66.9199 79.19C66.1399 78.57 65.9999 77.6 66.6199 76.73C67.6999 75.21 69.1599 74.2 70.9899 73.83C71.8299 73.66 72.7099 73.66 73.6999 73.57C74.4099 59.33 75.1099 45.02 75.8299 30.6C75.4499 30.64 75.1599 30.66 74.8699 30.7C72.7999 30.93 70.7799 30.72 68.8199 30C68.0099 29.7 67.5599 28.96 67.6499 28.21C67.7499 27.41 68.3399 26.76 69.1399 26.68C69.5099 26.65 69.9099 26.73 70.2699 26.84C73.5899 27.85 76.6399 27.27 79.4399 25.26C80.1399 24.76 80.8399 24.27 81.4899 23.6C81.2199 23.6 80.9499 23.6 80.6799 23.6C76.6099 23.6 72.5299 23.61 68.4599 23.6C66.9999 23.6 66.1199 22.78 66.4299 21.59C66.5799 21.02 67.1099 20.55 67.5699 19.91C66.1399 19.24 64.5899 18.41 62.9699 17.77C59.8299 16.52 56.5399 15.99 53.1499 15.84C48.1399 15.62 43.1599 15.84 38.1999 16.53C32.2699 17.36 26.5299 18.92 20.9199 21C18.2599 21.99 15.5899 22.95 12.9199 23.91C11.8699 24.29 11.0699 24.09 10.5999 23.36C10.0599 22.53 10.2699 21.46 11.1499 20.97C11.6799 20.67 12.2699 20.47 12.8499 20.28C18.1499 18.49 23.4199 16.56 28.7799 14.96C33.7899 13.46 38.9799 12.71 44.2199 12.5C47.4899 12.37 50.7799 12.35 54.0499 12.47C61.1399 12.72 67.4399 15.17 72.9599 19.61C73.4499 20 73.9199 20.18 74.5499 20.18C78.5699 20.15 82.5999 20.19 86.6199 20.15C87.6999 20.14 88.5199 20.41 89.0199 21.41C88.9999 21.71 88.9999 22.01 88.9999 22.32Z" fill="#C2A180"/>
<path d="M71.3599 47.84C70.9499 47.61 70.4699 47.46 70.1499 47.14C69.3499 46.35 68.6099 45.5 67.8899 44.64C67.1999 43.82 67.2599 42.81 67.9699 42.16C68.6799 41.52 69.6899 41.56 70.4399 42.34C71.2199 43.15 71.9599 44 72.6999 44.85C73.1899 45.42 73.3299 46.09 72.9799 46.78C72.6599 47.38 72.1399 47.73 71.3599 47.84Z" fill="#C2A180"/>
</svg>
