<svg width="100" height="100" viewBox="0 0 100 100" fill="none" xmlns="http://www.w3.org/2000/svg">
<path d="M32.5801 46.2241C35.7995 47.4472 38.2995 49.4435 40.134 52.2403C41.5369 51.5478 42.9218 50.8734 44.3696 50.163C41.7347 48.0317 40.3229 45.2979 40.6016 41.8537C40.8085 39.2908 41.8247 37.0875 43.857 35.4149C47.7419 32.2135 53.821 32.6991 57.0314 36.467C59.909 39.8483 60.5835 46.0533 55.4397 50.163C56.8245 50.8464 58.2004 51.5209 59.6662 52.2313C61.4738 49.4885 63.9648 47.4472 67.2201 46.2331C65.1068 44.3716 63.9738 42.1414 64.1536 39.3807C64.2975 37.2134 65.0889 35.307 66.7345 33.8232C69.846 31.0084 75.0078 31.1164 77.9664 34.066C79.6841 35.7746 80.3855 37.9149 80.2866 40.2979C80.1877 42.681 79.1085 44.6055 77.2201 46.2062C77.5348 46.3411 77.7416 46.431 77.9485 46.5209C81.042 47.8338 83.461 49.9292 85.1426 52.8428C87.4628 56.8625 84.8279 61.5118 80.1966 61.5388C75.7902 61.5658 71.3838 61.5478 66.9683 61.5478C66.6806 61.5478 66.3928 61.5478 66.177 61.5478C65.9522 62.447 65.8353 63.2834 65.5385 64.0477C64.5763 66.5387 62.2382 68.0765 59.4054 68.0855C53.0925 68.1035 46.7707 68.0855 40.4578 68.0945C37.5351 68.1035 34.1269 66.224 33.7312 61.5478C33.4524 61.5478 33.1647 61.5478 32.8769 61.5478C28.4435 61.5478 24.0101 61.5658 19.5676 61.5388C16.5371 61.5208 14.2439 59.4794 13.8483 56.4849C13.6864 55.2708 13.9562 54.1288 14.5497 53.0676C16.1774 50.154 18.5155 48.0227 21.564 46.6648C21.8698 46.5299 22.1845 46.395 22.5802 46.2152C20.395 44.2637 19.2799 41.9346 19.5766 39.039C19.7835 37.0156 20.5568 35.253 22.0766 33.8681C25.1431 31.0624 30.278 31.1074 33.2546 33.985C35.0261 35.6937 35.7725 37.8519 35.6826 40.253C35.5837 42.645 34.4776 44.6055 32.5801 46.2241ZM49.8731 65.5136C53.0386 65.5136 56.213 65.5495 59.3785 65.5046C62.6248 65.4596 64.4234 62.3481 62.8227 59.5244C60.0169 54.5874 55.6735 52.0964 50.071 52.0424C44.4056 51.9885 39.9632 54.4165 37.0585 59.3715C35.2779 62.4021 37.0945 65.5046 40.6016 65.5136C43.6951 65.5226 46.7886 65.5136 49.8731 65.5136ZM61.8245 53.6881C63.0385 55.4327 64.1536 57.0604 65.3047 58.6611C65.4396 58.841 65.7903 58.9579 66.0421 58.9579C70.7723 58.9758 75.4935 58.9848 80.2236 58.9669C82.8315 58.9489 84.2164 56.4849 82.9484 54.2007C78.3711 46.0353 66.5637 45.8375 61.8245 53.6881ZM38.0027 53.6611C35.5028 49.9561 31.9237 47.8249 27.2115 47.9687C22.6162 48.1126 19.145 50.2979 16.8339 54.2637C15.5839 56.4129 16.9777 58.9219 19.4238 58.9399C24.2259 58.9848 29.037 58.9579 33.8391 58.9399C34.0639 58.9399 34.3697 58.814 34.4956 58.6431C35.6466 57.0514 36.7707 55.4327 38.0027 53.6611ZM49.9091 49.2817C53.776 49.2817 56.6806 46.404 56.6717 42.5821C56.6627 38.7782 53.731 35.8735 49.8911 35.8735C46.0602 35.8735 43.1196 38.7962 43.1286 42.6001C43.1376 46.431 46.0333 49.2907 49.9091 49.2817ZM27.6161 34.3717C24.5766 34.3627 22.0946 36.7818 22.0676 39.7943C22.0406 42.7799 24.5226 45.2619 27.5532 45.2889C30.5747 45.3069 33.0837 42.8519 33.1107 39.8573C33.1287 36.8627 30.6557 34.3897 27.6161 34.3717ZM72.2291 34.3717C69.1895 34.3627 66.6986 36.8088 66.6896 39.8033C66.6806 42.7979 69.1626 45.2709 72.1931 45.2799C75.2237 45.2889 77.7146 42.8429 77.7326 39.8393C77.7416 36.8537 75.2596 34.3807 72.2291 34.3717Z" fill="#C2A180" stroke="#C2A180" stroke-width="0.3"/>
<path d="M49.8731 85.9991C36.1862 85.4415 25.5388 79.7671 18.5155 67.8157C18.4435 67.6988 18.3806 67.5819 18.3176 67.465C17.9399 66.7186 18.1108 66.0082 18.7493 65.6395C19.3877 65.2708 20.0892 65.4776 20.5478 66.1701C21.51 67.6269 22.3733 69.1557 23.4525 70.5136C29.4956 78.1124 37.3552 82.6088 47.0494 83.2653C61.0331 84.2095 71.6985 78.4182 79.0545 66.5028C79.1265 66.3859 79.1804 66.269 79.2524 66.1521C79.72 65.4417 80.4034 65.2348 81.0419 65.6035C81.6804 65.9632 81.9232 66.7186 81.4736 67.4201C80.3225 69.2276 79.2344 71.1071 77.8855 72.7618C71.9413 80.0908 64.1895 84.2635 54.8821 85.5584C53.2274 85.8012 51.5278 85.8642 49.8731 85.9991Z" fill="#C2A180" stroke="#C2A180" stroke-width="0.3"/>
<path d="M77.7417 27.2675C77.4629 27.6362 77.2561 28.1308 76.9143 28.2747C76.5366 28.4366 76.0061 28.3196 75.5654 28.2117C75.3496 28.1578 75.1787 27.852 75.0079 27.6542C68.8478 20.6309 61.0242 17.0068 51.7706 16.5122C43.1466 16.0446 35.3499 18.4186 28.6323 23.9312C27.1845 25.1182 25.9435 26.5481 24.6216 27.888C24.0011 28.5175 23.2727 28.6614 22.6971 28.2117C22.0766 27.7171 22.0407 26.9528 22.6522 26.2243C24.8914 23.5355 27.4993 21.2783 30.4399 19.3989C44.2977 10.577 63.2184 12.4295 74.8999 23.7783C75.6913 24.5427 76.4197 25.379 77.1391 26.2064C77.373 26.4671 77.4989 26.8358 77.7417 27.2675Z" fill="#C2A180" stroke="#C2A180" stroke-width="0.3"/>
<path d="M49.1808 78.3102C40.9794 78.0854 33.6054 74.6682 27.886 67.7887C27.2565 67.0334 27.2655 66.215 27.886 65.7294C28.5245 65.2348 29.2619 65.3877 29.9004 66.188C33.5154 70.7204 38.1557 73.7239 43.8121 74.902C54.0908 77.0513 62.8767 74.3984 69.8101 66.287C69.9 66.188 69.972 66.0711 70.0619 65.9722C70.6195 65.3697 71.3569 65.2798 71.9234 65.7474C72.472 66.197 72.5889 67.0334 72.0313 67.6179C70.5745 69.1556 69.1716 70.7743 67.5349 72.1053C62.4091 76.2509 56.4739 78.2383 49.1808 78.3102Z" fill="#C2A180" stroke="#C2A180" stroke-width="0.3"/>
<path d="M67.2742 27.807C67.2562 29.0031 66.33 29.6236 65.5026 29.2729C65.2868 29.1829 65.08 29.039 64.8821 28.9042C55.6376 22.4923 44.1449 22.5013 34.9093 28.8952C34.5676 29.129 34.082 29.4347 33.7673 29.3448C33.3266 29.2189 32.841 28.8322 32.6162 28.4186C32.3104 27.852 32.6791 27.3394 33.1737 26.9797C35.2241 25.4869 37.4183 24.2459 39.8104 23.3916C49.2258 20.0373 58.0836 21.1704 66.3389 26.7999C66.7796 27.0876 67.0674 27.5732 67.2742 27.807Z" fill="#C2A180" stroke="#C2A180" stroke-width="0.3"/>
</svg>
