<svg width="100" height="100" viewBox="0 0 100 100" fill="none" xmlns="http://www.w3.org/2000/svg">
<path d="M30.0392 89C29.3996 88.5398 29.2124 87.908 29.267 87.1513C29.306 86.5975 29.267 86.0359 29.2748 85.4743C29.3216 83.2356 30.8348 81.7302 33.0813 81.6834C33.4089 81.6756 33.7365 81.6834 34.1499 81.6834C34.1499 81.3558 34.1499 81.0906 34.1499 80.8176C34.1499 68.891 34.1577 56.9645 34.1343 45.0379C34.1343 44.6011 33.9627 44.0863 33.7053 43.7353C30.866 39.9054 28.0034 36.0911 25.1329 32.2768C24.6259 31.606 24.2827 30.8884 24.4621 30.0225C24.7117 28.8213 25.6711 28.0725 27.0127 28.0569C29.0954 28.0413 31.1781 28.0491 33.2529 28.0491C33.5259 28.0491 33.7989 28.0491 34.1577 28.0491C34.1577 27.2066 34.1733 26.4266 34.1577 25.6544C34.1109 23.6341 34.8208 21.9493 36.2716 20.5453C37.2544 19.5936 38.2295 18.6264 39.1655 17.628C39.3293 17.4564 39.4307 17.082 39.3605 16.8714C38.5025 14.2037 39.5945 12.0118 42.27 11.1304C42.3636 11.0992 42.4416 11.0368 42.5352 10.99C43.0422 10.99 43.5492 10.99 44.0562 10.99C44.727 11.3332 45.4681 11.5906 46.0453 12.0508C47.6677 13.3457 48.0031 15.5999 46.9501 17.4174C45.9439 19.1646 43.791 19.9524 41.88 19.227C41.3963 19.0398 41.1155 19.1256 40.7723 19.4922C39.8441 20.4673 38.8925 21.4189 37.9252 22.3471C36.9892 23.2441 36.5446 24.3206 36.5914 25.6154C36.6226 26.3954 36.5992 27.1832 36.5992 28.0491C36.9502 28.0491 37.2466 28.0491 37.543 28.0491C49.2746 28.0491 61.0061 28.0491 72.7376 28.0491C74.2665 28.0491 75.1791 28.6653 75.5145 29.9133C75.7641 30.8416 75.3819 31.5904 74.8515 32.308C72.0278 36.0599 69.2197 39.8274 66.3883 43.5715C66.0216 44.0629 65.8422 44.5309 65.8422 45.1628C65.8578 57.0191 65.8578 68.8754 65.8578 80.7318C65.8578 81.0126 65.8578 81.2856 65.8578 81.6834C66.2868 81.6834 66.6769 81.6678 67.0747 81.6834C69.1495 81.7536 70.655 83.2434 70.7252 85.3105C70.7486 85.9189 70.7018 86.5351 70.7408 87.1357C70.7954 87.8924 70.6082 88.532 69.9686 88.9844C56.6536 89 43.3464 89 30.0392 89ZM63.354 81.6912C63.354 67.0112 63.354 52.4248 63.354 37.7993C62.925 37.7993 62.5427 37.8227 62.1683 37.7915C61.4819 37.7291 61.0061 37.2455 60.9827 36.6215C60.9593 35.9741 61.4507 35.4203 62.1761 35.3891C62.9874 35.3501 63.7986 35.3501 64.6098 35.3891C65.3664 35.4203 65.8032 35.8961 65.8344 36.6761C65.8656 37.3625 65.8422 38.049 65.8422 38.7354C65.8422 39.1644 65.8422 39.5934 65.8422 40.0224C65.8968 40.0302 65.9514 40.0302 66.0138 40.038C68.3617 36.9023 70.7174 33.7666 73.112 30.5685C57.6598 30.5685 42.3246 30.5685 26.8801 30.5685C29.2982 33.7978 31.6539 36.9335 34.0095 40.0692C34.1499 39.0708 34.1499 38.1582 34.1499 37.2455C34.1499 35.7167 34.4853 35.3891 36.0454 35.3891C42.9252 35.3891 49.805 35.3891 56.6848 35.3891C56.9422 35.3891 57.1996 35.3735 57.4414 35.4125C58.0966 35.5295 58.5022 35.9351 58.5022 36.6059C58.5022 37.2767 58.0888 37.6823 57.4336 37.7915C57.184 37.8383 56.9266 37.8149 56.677 37.8149C50.2808 37.8149 43.8846 37.8149 37.4884 37.8149C37.1998 37.8149 36.9034 37.8149 36.6382 37.8149C36.6382 52.5028 36.6382 67.0658 36.6382 81.6912C36.9814 81.6912 37.2778 81.6912 37.5742 81.6912C43.947 81.6912 50.3198 81.6912 56.6926 81.6912C57.9328 81.6912 58.5256 82.089 58.5256 82.9158C58.5256 83.7348 57.9328 84.1327 56.6848 84.1327C49.0172 84.1327 41.3495 84.1327 33.6819 84.1327C33.4557 84.1327 33.2217 84.1249 32.9955 84.1405C32.2233 84.1951 31.7787 84.6241 31.7241 85.3885C31.7007 85.7629 31.7163 86.1295 31.7163 86.5273C43.9392 86.5273 56.0842 86.5273 68.2213 86.5273C68.4241 84.5071 68.0965 84.1327 66.123 84.1327C64.8282 84.1327 63.5334 84.1483 62.2385 84.1249C61.4975 84.1093 60.9983 83.61 60.9749 82.9548C60.9515 82.284 61.4741 81.7536 62.2385 81.7068C62.5973 81.6756 62.9484 81.6912 63.354 81.6912ZM43.323 17.082C44.2746 17.0664 45.1171 16.2083 45.1092 15.2567C45.1014 14.3051 44.259 13.4549 43.3074 13.4471C42.3324 13.4393 41.4431 14.3363 41.4821 15.3113C41.5133 16.2629 42.3792 17.0976 43.323 17.082Z" fill="#C2A180" stroke="#C2A180" stroke-width="0.2"/>
</svg>
