<svg width="1440" height="236" viewBox="0 0 1440 236" fill="none" xmlns="http://www.w3.org/2000/svg">
<path d="M1404.59 114.638C1404.59 97.2097 1418.83 82.9922 1436.29 82.9922C1453.76 82.9922 1468 97.2097 1468 114.638C1468 132.066 1453.76 146.283 1436.29 146.283C1418.6 146.054 1404.59 132.066 1404.59 114.638Z" fill="white" fill-opacity="0.1"/>
<path d="M914.506 -27.0801H875.445V146.97H914.506V-27.0801Z" fill="white" fill-opacity="0.1"/>
<path d="M1030.08 146.05H1117.4V-28H1078.34V107.296H1030.08C1016.76 107.296 1005.27 102.48 996.079 93.0783C986.889 83.6764 981.834 72.2107 981.834 59.1397V-28H942.773V59.1397C942.773 82.9885 951.275 103.856 968.278 120.596C985.28 137.565 1005.96 146.05 1030.08 146.05Z" fill="white" fill-opacity="0.1"/>
<path d="M618.78 -2.31672C601.777 -19.286 581.098 -28 557.203 -28C533.307 -28 512.398 -19.286 495.625 -2.31672C478.622 14.6526 470.121 35.2909 470.121 59.1397C470.121 82.9885 478.622 103.856 495.625 120.596C512.628 137.565 533.307 146.05 557.203 146.05C581.098 146.05 601.777 137.565 618.78 120.596C635.783 103.627 644.514 82.9885 644.514 59.1397C644.284 35.2909 635.783 14.4233 618.78 -2.31672ZM591.208 93.0783C581.788 102.48 570.299 107.067 557.203 107.067C543.876 107.067 532.388 102.251 523.197 92.849C513.777 83.4471 508.952 71.9814 508.952 58.9104C508.952 45.8394 513.777 34.3737 523.197 24.9718C532.618 15.5699 544.106 10.7542 557.203 10.7542C570.299 10.7542 581.788 15.5699 591.208 24.9718C600.628 34.3737 605.453 45.8394 605.453 58.9104C605.453 72.2107 600.628 83.6764 591.208 93.0783Z" fill="white" fill-opacity="0.1"/>
<path d="M419.123 -2.31672C402.12 -19.286 381.211 -28 357.316 -28C333.42 -28 312.511 -19.286 295.738 -2.31672C278.736 14.6526 270.234 35.2909 270.234 59.1397C270.234 82.9885 278.736 103.856 295.738 120.596C312.741 137.565 333.42 146.05 357.316 146.05C373.399 146.05 388.104 142.152 400.971 134.584L405.567 131.833V148.343C405.567 161.644 400.742 173.109 391.321 182.511C381.901 191.913 370.412 196.729 357.316 196.729C345.138 196.729 334.339 192.601 325.378 184.575L297.806 212.322C314.349 228.145 334.339 235.942 357.316 235.942C381.211 235.942 401.89 227.228 418.893 210.029C435.666 193.06 444.397 172.421 444.627 148.802V147.197V62.5794C444.627 61.2035 444.627 59.8277 444.627 58.6811C444.627 35.2909 436.126 14.4233 419.123 -2.31672ZM391.551 93.0783C382.131 102.48 370.642 107.067 357.546 107.067C344.219 107.067 332.731 102.251 323.54 92.849C314.12 83.4471 309.295 71.9814 309.295 58.9104C309.295 45.8394 314.12 34.3737 323.54 24.9718C332.731 15.5699 344.219 10.9836 357.316 10.9836C370.412 10.9836 381.901 15.7992 391.321 25.2011C400.742 34.603 405.567 46.0687 405.567 59.1397C405.567 72.2107 400.971 83.6764 391.551 93.0783Z" fill="white" fill-opacity="0.1"/>
<path d="M120.889 -2.31672C103.886 -19.286 83.2069 -28 59.3112 -28C35.1857 -28 14.5068 -19.286 -2.49595 -2.31672C-19.4986 14.4233 -28 35.2909 -28 59.1397C-28 82.9885 -19.4986 103.856 -2.49595 120.596C13.5877 136.648 33.3476 145.362 55.8647 146.05H85.2747V107.067H56.0944C44.1466 106.379 33.8071 101.563 25.076 93.0783C15.6556 83.6764 11.0603 72.2107 11.0603 59.1397C11.0603 46.0687 15.8853 34.603 25.3058 25.2011C34.4964 15.5699 45.9847 10.9836 59.3112 10.9836C72.4078 10.9836 83.8961 15.7992 93.3166 25.2011C102.737 34.3737 107.562 45.8394 107.562 59.1397V146.279H146.622V59.1397C146.393 35.2909 137.891 14.4233 120.889 -2.31672Z" fill="white" fill-opacity="0.1"/>
<path d="M262.432 -27.3154H261.972C238.076 -27.3154 217.168 -18.8308 200.395 -1.86147C183.392 15.1078 174.891 35.7462 174.891 59.8243V146.964H213.951V59.8243C213.951 46.524 218.776 35.0583 228.196 25.8857C237.617 16.4837 249.105 11.6681 262.202 11.6681H262.661V-27.3154H262.432Z" fill="white" fill-opacity="0.1"/>
<path d="M759.866 -28H672.555V146.05H711.615V10.9836H759.866C773.192 10.9836 784.681 15.7992 793.871 25.2011C803.062 34.603 808.117 46.0687 808.117 59.1397V146.279H847.177V59.1397C847.177 35.2909 838.676 14.4233 821.673 -2.31672C804.67 -19.5153 783.761 -28 759.866 -28Z" fill="white" fill-opacity="0.1"/>
<path d="M1429.88 -1.86147C1412.88 -18.8308 1392.2 -27.3154 1368.31 -27.3154C1344.41 -27.3154 1323.5 -18.6015 1306.73 -1.63215C1305.35 -0.256264 1303.97 1.11963 1302.82 2.49552L1300.53 5.01798C1298.69 2.72483 1296.62 0.660997 1294.55 -1.40284C1277.55 -18.3721 1256.87 -26.8568 1232.98 -26.8568H1145.66V147.193H1184.72V11.8974H1232.98C1246.3 11.8974 1257.79 16.713 1266.98 26.115C1276.4 35.5169 1281.23 46.9826 1281.23 60.0536V147.193H1320.29V60.0536C1320.29 59.8243 1320.29 59.5949 1320.29 59.1363C1320.52 46.2947 1325.11 35.0582 1334.3 25.8856C1343.72 16.4837 1355.21 11.6681 1368.31 11.6681C1381.4 11.6681 1392.89 16.4837 1402.31 25.8856C1411.04 34.5996 1415.64 44.9188 1416.33 56.8432V61.4295H1455.39V56.8432C1454.7 33.9117 1446.2 14.4199 1429.88 -1.86147Z" fill="white" fill-opacity="0.1"/>
</svg>
