<svg width="21" height="21" viewBox="0 0 21 21" fill="none" xmlns="http://www.w3.org/2000/svg">
<g id="Frame" opacity="0.3">
<path id="Vector" d="M8.29134 10.7917C8.20801 10.7084 8.16634 10.6112 8.16634 10.5C8.16634 10.3889 8.20801 10.2917 8.29134 10.2084L10.6247 7.87504C10.7497 7.75004 10.8991 7.71893 11.073 7.78171C11.2463 7.84393 11.333 7.97226 11.333 8.16671V12.8334C11.333 13.0278 11.2463 13.1562 11.073 13.2184C10.8991 13.2812 10.7497 13.25 10.6247 13.125L8.29134 10.7917ZM2.16634 10.5C2.16634 11.6528 2.38523 12.7362 2.82301 13.75C3.26023 14.7639 3.85384 15.6459 4.60384 16.3959C5.35384 17.1459 6.23579 17.7395 7.24967 18.1767C8.26356 18.6145 9.3469 18.8334 10.4997 18.8334C11.6525 18.8334 12.7358 18.6145 13.7497 18.1767C14.7636 17.7395 15.6455 17.1459 16.3955 16.3959C17.1455 15.6459 17.7394 14.7639 18.1772 13.75C18.6144 12.7362 18.833 11.6528 18.833 10.5C18.833 9.34726 18.6144 8.26393 18.1772 7.25004C17.7394 6.23615 17.1455 5.35421 16.3955 4.60421C15.6455 3.85421 14.7636 3.2606 13.7497 2.82337C12.7358 2.3856 11.6525 2.16671 10.4997 2.16671C9.3469 2.16671 8.26356 2.3856 7.24967 2.82337C6.23579 3.2606 5.35384 3.85421 4.60384 4.60421C3.85384 5.35421 3.26023 6.23615 2.82301 7.25004C2.38523 8.26393 2.16634 9.34726 2.16634 10.5Z" fill="#18212A"/>
</g>
</svg>
