<svg width="102" height="18" viewBox="0 0 102 18" fill="none" xmlns="http://www.w3.org/2000/svg">
<path d="M97.6758 9.72503C97.6758 8.53676 98.6471 7.56738 99.8377 7.56738C101.028 7.56738 102 8.53676 102 9.72503C102 10.9133 101.028 11.8827 99.8377 11.8827C98.6314 11.867 97.6758 10.9133 97.6758 9.72503Z" fill="black"/>
<path d="M64.2618 0.0625H61.5986V11.9296H64.2618V0.0625Z" fill="black"/>
<path d="M72.1415 11.8671H78.0946V0H75.4314V9.22472H72.1415C71.2329 9.22472 70.4496 8.89639 69.823 8.25535C69.1963 7.61431 68.8517 6.83255 68.8517 5.94135V0H66.1885V5.94135C66.1885 7.5674 66.7681 8.9902 67.9274 10.1316C69.0867 11.2886 70.4966 11.8671 72.1415 11.8671Z" fill="black"/>
<path d="M44.0987 1.75113C42.9394 0.594135 41.5295 0 39.9003 0C38.271 0 36.8454 0.594135 35.7018 1.75113C34.5425 2.90813 33.9629 4.31529 33.9629 5.94135C33.9629 7.5674 34.5425 8.9902 35.7018 10.1316C36.8611 11.2886 38.271 11.8671 39.9003 11.8671C41.5295 11.8671 42.9394 11.2886 44.0987 10.1316C45.258 8.97456 45.8533 7.5674 45.8533 5.94135C45.8376 4.31529 45.258 2.8925 44.0987 1.75113ZM42.2188 8.25535C41.5765 8.89639 40.7932 9.20909 39.9003 9.20909C38.9916 9.20909 38.2083 8.88075 37.5817 8.23971C36.9394 7.59867 36.6104 6.81691 36.6104 5.92571C36.6104 5.03451 36.9394 4.25275 37.5817 3.61171C38.224 2.97067 39.0073 2.64234 39.9003 2.64234C40.7932 2.64234 41.5765 2.97067 42.2188 3.61171C42.8611 4.25275 43.1901 5.03451 43.1901 5.92571C43.1901 6.83255 42.8611 7.61431 42.2188 8.25535Z" fill="black"/>
<path d="M30.4855 1.75113C29.3262 0.594135 27.9006 0 26.2714 0C24.6421 0 23.2165 0.594135 22.0729 1.75113C20.9136 2.90813 20.334 4.3153 20.334 5.94135C20.334 7.5674 20.9136 8.9902 22.0729 10.1316C23.2322 11.2886 24.6421 11.8671 26.2714 11.8671C27.368 11.8671 28.3706 11.6013 29.2479 11.0853L29.5612 10.8977V12.0234C29.5612 12.9303 29.2322 13.712 28.5899 14.353C27.9476 14.9941 27.1643 15.3224 26.2714 15.3224C25.4411 15.3224 24.7048 15.041 24.0938 14.4938L22.2139 16.3856C23.3418 17.4644 24.7048 17.996 26.2714 17.996C27.9006 17.996 29.3105 17.4019 30.4698 16.2293C31.6134 15.0723 32.2087 13.6651 32.2244 12.0547V11.9452V6.17588C32.2244 6.08206 32.2244 5.98825 32.2244 5.91008C32.2244 4.31529 31.6448 2.8925 30.4855 1.75113ZM28.6056 8.25535C27.9633 8.89639 27.18 9.20909 26.287 9.20909C25.3784 9.20909 24.5951 8.88075 23.9685 8.23971C23.3262 7.59867 22.9972 6.81692 22.9972 5.92571C22.9972 5.03451 23.3262 4.25275 23.9685 3.61171C24.5951 2.97067 25.3784 2.65797 26.2714 2.65797C27.1643 2.65797 27.9476 2.98631 28.5899 3.62735C29.2322 4.26839 29.5612 5.05015 29.5612 5.94135C29.5612 6.83255 29.2479 7.61431 28.6056 8.25535Z" fill="black"/>
<path d="M10.1515 1.75113C8.99222 0.594135 7.58229 0 5.95304 0C4.30812 0 2.89819 0.594135 1.73891 1.75113C0.579638 2.8925 0 4.3153 0 5.94135C0 7.5674 0.579638 8.9902 1.73891 10.1316C2.83553 11.226 4.18279 11.8202 5.71805 11.8671H7.72328V9.20909H5.73372C4.91909 9.16218 4.21413 8.83385 3.61882 8.25535C2.97652 7.61431 2.6632 6.83255 2.6632 5.94135C2.6632 5.05015 2.99219 4.26839 3.63449 3.62735C4.26112 2.97067 5.04442 2.65797 5.95304 2.65797C6.84599 2.65797 7.62929 2.98631 8.27159 3.62735C8.91389 4.25275 9.24288 5.03451 9.24288 5.94135V11.8827H11.9061V5.94135C11.8904 4.3153 11.3108 2.8925 10.1515 1.75113Z" fill="black"/>
<path d="M19.8017 0.046875H19.7704C18.1411 0.046875 16.7155 0.625374 15.5719 1.78237C14.4126 2.93937 13.833 4.34653 13.833 5.98822V11.9296H16.4962V5.98822C16.4962 5.08138 16.8252 4.29963 17.4675 3.67422C18.1098 3.03318 18.8931 2.70485 19.786 2.70485H19.8174V0.046875H19.8017Z" fill="black"/>
<path d="M53.7187 0H47.7656V11.8671H50.4288V2.65797H53.7187C54.6273 2.65797 55.4106 2.98631 56.0372 3.62735C56.6638 4.26839 57.0085 5.05015 57.0085 5.94135V11.8827H59.6717V5.94135C59.6717 4.3153 59.0921 2.8925 57.9328 1.75113C56.7735 0.5785 55.3479 0 53.7187 0Z" fill="black"/>
<path d="M99.4002 1.78237C98.2409 0.625374 96.831 0.046875 95.2017 0.046875C93.5725 0.046875 92.1469 0.64101 91.0033 1.79801C90.9093 1.89182 90.8153 1.98563 90.7369 2.07944L90.5803 2.25143C90.455 2.09508 90.314 1.95436 90.173 1.81364C89.0137 0.656645 87.6038 0.0781452 85.9745 0.0781452H80.0215V11.9452H82.6847V2.72048H85.9745C86.8831 2.72048 87.6664 3.04882 88.2931 3.68986C88.9354 4.3309 89.2644 5.11266 89.2644 6.00386V11.9452H91.9276V6.00386C91.9276 5.98822 91.9276 5.97259 91.9276 5.94132C91.9432 5.06575 92.2565 4.29963 92.8832 3.67422C93.5255 3.03318 94.3088 2.70485 95.2017 2.70485C96.0947 2.70485 96.878 3.03318 97.5203 3.67422C98.1156 4.26836 98.4289 4.97194 98.4759 5.78497V6.09767H101.139V5.78497C101.092 4.22145 100.512 2.89247 99.4002 1.78237Z" fill="black"/>
</svg>
