<svg width="131" height="23" viewBox="0 0 131 23" fill="none" xmlns="http://www.w3.org/2000/svg">
<path d="M124.836 12.4295C124.836 10.9108 126.077 9.67188 127.599 9.67188C129.121 9.67188 130.362 10.9108 130.362 12.4295C130.362 13.9482 129.121 15.1871 127.599 15.1871C126.057 15.1671 124.836 13.9482 124.836 12.4295Z" fill="white"/>
<path d="M82.1303 0.0800781H78.7266V15.2469H82.1303V0.0800781Z" fill="white"/>
<path d="M92.2021 15.1668H99.8104V0H96.4067V11.7897H92.2021C91.0408 11.7897 90.0397 11.3701 89.2388 10.5508C88.438 9.73154 87.9975 8.73241 87.9975 7.5934V0H84.5938V7.5934C84.5938 9.67159 85.3346 11.49 86.8162 12.9487C88.2978 14.4275 90.0998 15.1668 92.2021 15.1668Z" fill="white"/>
<path d="M56.3605 2.23805C54.8788 0.75934 53.0769 0 50.9946 0C48.9123 0 47.0903 0.75934 45.6287 2.23805C44.1471 3.71677 43.4062 5.5152 43.4062 7.5934C43.4062 9.67159 44.1471 11.49 45.6287 12.9487C47.1103 14.4275 48.9123 15.1668 50.9946 15.1668C53.0769 15.1668 54.8788 14.4275 56.3605 12.9487C57.8421 11.47 58.6029 9.67159 58.6029 7.5934C58.5829 5.5152 57.8421 3.69678 56.3605 2.23805ZM53.9578 10.5508C53.1369 11.3701 52.1358 11.7698 50.9946 11.7698C49.8333 11.7698 48.8322 11.3501 48.0313 10.5308C47.2104 9.71155 46.79 8.71242 46.79 7.57341C46.79 6.4344 47.2104 5.43527 48.0313 4.61599C48.8522 3.7967 49.8533 3.37706 50.9946 3.37706C52.1358 3.37706 53.1369 3.7967 53.9578 4.61599C54.7787 5.43527 55.1992 6.4344 55.1992 7.57341C55.1992 8.73241 54.7787 9.73154 53.9578 10.5508Z" fill="white"/>
<path d="M38.9625 2.23805C37.4809 0.75934 35.6589 0 33.5766 0C31.4943 0 29.6723 0.75934 28.2107 2.23805C26.7291 3.71677 25.9883 5.5152 25.9883 7.5934C25.9883 9.67159 26.7291 11.49 28.2107 12.9487C29.6923 14.4275 31.4943 15.1668 33.5766 15.1668C34.9781 15.1668 36.2595 14.8271 37.3808 14.1677L37.7812 13.9279V15.3666C37.7812 16.5256 37.3607 17.5248 36.5398 18.344C35.7189 19.1633 34.7178 19.583 33.5766 19.583C32.5154 19.583 31.5744 19.2233 30.7935 18.5239L28.3909 20.9418C29.8325 22.3206 31.5744 23 33.5766 23C35.6589 23 37.4608 22.2407 38.9425 20.742C40.4041 19.2633 41.1649 17.4648 41.1849 15.4066V15.2667V7.89314C41.1849 7.77324 41.1849 7.65334 41.1849 7.55343C41.1849 5.5152 40.4441 3.69679 38.9625 2.23805ZM36.5599 10.5508C35.739 11.3701 34.7379 11.7698 33.5966 11.7698C32.4353 11.7698 31.4342 11.3501 30.6334 10.5308C29.8125 9.71156 29.392 8.71242 29.392 7.57341C29.392 6.43441 29.8125 5.43527 30.6334 4.61599C31.4342 3.7967 32.4353 3.39705 33.5766 3.39705C34.7178 3.39705 35.7189 3.81668 36.5398 4.63597C37.3607 5.45526 37.7812 6.45439 37.7812 7.5934C37.7812 8.73241 37.3808 9.73154 36.5599 10.5508Z" fill="white"/>
<path d="M12.9742 2.23805C11.4926 0.75934 9.69062 0 7.60834 0C5.50603 0 3.70406 0.75934 2.22244 2.23805C0.740812 3.69679 0 5.5152 0 7.5934C0 9.67159 0.740812 11.49 2.22244 12.9487C3.62397 14.3475 5.34586 15.1069 7.30801 15.1668H9.87082V11.7698H7.32803C6.28689 11.7098 5.3859 11.2902 4.62507 10.5508C3.80417 9.73154 3.40373 8.73241 3.40373 7.5934C3.40373 6.45439 3.82419 5.45526 4.64509 4.63597C5.44597 3.7967 6.44707 3.39705 7.60834 3.39705C8.74959 3.39705 9.75069 3.81668 10.5716 4.63597C11.3925 5.43527 11.8129 6.4344 11.8129 7.5934V15.1868H15.2167V7.5934C15.1967 5.5152 14.4558 3.69679 12.9742 2.23805Z" fill="white"/>
<path d="M25.308 0.0595703H25.268C23.1857 0.0595703 21.3637 0.798927 19.9021 2.27764C18.4205 3.75635 17.6797 5.55479 17.6797 7.65297V15.2464H21.0834V7.65297C21.0834 6.49397 21.5039 5.49484 22.3248 4.69554C23.1457 3.87625 24.1468 3.45662 25.288 3.45662H25.3281V0.0595703H25.308Z" fill="white"/>
<path d="M68.6552 0H61.0469V15.1668H64.4506V3.39705H68.6552C69.8165 3.39705 70.8176 3.81668 71.6185 4.63597C72.4193 5.45526 72.8598 6.45439 72.8598 7.5934V15.1868H76.2635V7.5934C76.2635 5.5152 75.5227 3.69679 74.0411 2.23805C72.5595 0.739357 70.7375 0 68.6552 0Z" fill="white"/>
<path d="M127.039 2.27764C125.557 0.798927 123.755 0.0595703 121.673 0.0595703C119.59 0.0595703 117.768 0.81891 116.307 2.29762C116.187 2.41752 116.067 2.53742 115.966 2.65731L115.766 2.87712C115.606 2.67729 115.426 2.49745 115.246 2.31761C113.764 0.838893 111.962 0.0995356 109.88 0.0995356H102.271V15.2663H105.675V3.4766H109.88C111.041 3.4766 112.042 3.89623 112.843 4.71552C113.664 5.53481 114.084 6.53394 114.084 7.67295V15.2663H117.488V7.67295C117.488 7.65297 117.488 7.63298 117.488 7.59302C117.508 6.47399 117.909 5.49484 118.709 4.69554C119.53 3.87625 120.531 3.45662 121.673 3.45662C122.814 3.45662 123.815 3.87625 124.636 4.69554C125.397 5.45488 125.797 6.3541 125.857 7.39319V7.79284H129.261V7.39319C129.201 5.39493 128.46 3.69641 127.039 2.27764Z" fill="white"/>
</svg>
