<svg width="252" height="126" viewBox="0 0 252 126" fill="none" xmlns="http://www.w3.org/2000/svg">
<path d="M38.4377 126C36.3122 126 35.0722 125.683 34.718 125.049C34.3637 124.521 34.1866 123.728 34.1866 122.672C34.1866 122.249 34.718 120.717 35.7808 118.075C36.9617 115.434 38.4968 112 40.3862 107.774C42.3937 103.653 44.5194 99.1094 46.763 94.1434C41.331 93.7208 35.7217 93.4038 29.9354 93.1925C24.1491 92.8755 18.2447 92.717 12.2222 92.717C7.85292 92.717 4.72358 91.9774 2.83417 90.4981C0.944754 89.0189 0 87.3811 0 85.5849C0 82.8377 1.41709 80.4604 4.25121 78.4528C9.44709 74.6491 14.8201 70.2642 20.3703 65.2981C25.9204 60.2264 31.4115 54.9434 36.8436 49.4491C42.3937 43.9547 47.6487 38.566 52.6084 33.283C57.5681 27.8943 62.0554 22.9811 66.0704 18.5434C70.0854 14 73.3919 10.3019 75.9899 7.44905C78.5878 4.49056 80.182 2.74717 80.7725 2.21887C81.481 1.58491 82.1304 1.05661 82.7209 0.633964C83.3113 0.211321 84.0199 0 84.8465 0C86.3816 0 87.1492 0.845285 87.1492 2.53585C87.1492 4.43774 86.0273 7.39623 83.7837 11.4113C81.6581 15.4264 78.7059 20.0755 74.9271 25.3585C71.2664 30.5359 67.0742 35.9774 62.3507 41.683C57.7452 47.3887 52.9036 52.9887 47.8258 58.483C42.8661 63.8717 37.9654 68.8377 33.1238 73.3811C28.4003 77.8189 24.0901 81.3585 20.1932 84C25.0348 83.8943 30.1716 83.7358 35.6037 83.5245C41.1538 83.2075 46.5268 82.9434 51.7227 82.7321C54.2026 77.1321 56.5643 71.6377 58.808 66.2491C61.0517 60.8604 62.7639 56.2113 63.9448 52.3019C64.6534 50.1887 66.0114 48.9736 68.0189 48.6566C70.1445 48.234 72.2701 48.0226 74.3956 48.0226C76.7574 48.0226 78.5878 48.1811 79.8868 48.4981C81.1858 48.8151 81.8353 50.0302 81.8353 52.1434C81.8353 52.883 81.2448 54.7849 80.0639 57.8491C78.883 60.8076 77.2888 64.5057 75.2813 68.9434C73.3919 73.2755 71.2072 77.8717 68.7274 82.7321C70.6168 82.7321 72.5653 82.8377 74.5728 83.0491C76.6984 83.1547 78.4697 83.5774 79.8868 84.317C81.4219 84.951 82.1895 86.1132 82.1895 87.8038C82.1895 88.7547 81.7172 90.0227 80.7725 91.6076C79.9458 93.1925 78.824 94.6189 77.4069 95.8868C75.9899 97.1547 74.4547 97.7887 72.8015 97.7887C71.6206 97.7887 69.8492 97.5774 67.4875 97.1547C65.2438 96.6264 63.2953 96.2566 61.6421 96.0453C58.6899 101.434 55.7377 106.4 52.7855 110.943C49.8333 115.487 47.1173 119.132 44.6374 121.879C42.1576 124.626 40.091 126 38.4377 126Z" fill="#3A2918"/>
<path d="M125.317 97.7887C113.863 97.7887 105.183 94.566 99.2786 88.1208C93.4923 81.5698 90.5992 72.8 90.5992 61.8113C90.5992 55.1547 91.4848 48.2868 93.2561 41.2076C95.0275 34.1283 97.7435 27.5245 101.404 21.3962C105.183 15.2679 110.025 10.3547 115.929 6.6566C121.833 2.85283 128.919 0.95095 137.185 0.95095C145.097 0.95095 151.651 2.53585 156.847 5.70566C162.043 8.76981 165.939 13.0491 168.537 18.5434C171.135 24.0377 172.434 30.3774 172.434 37.5623C172.434 42.634 171.785 47.9698 170.486 53.5698C169.187 59.1698 167.238 64.6113 164.641 69.8943C162.043 75.0717 158.795 79.7736 154.898 84C151.119 88.2264 146.75 91.6075 141.79 94.1434C136.831 96.5736 131.34 97.7887 125.317 97.7887ZM123.546 88.5962C128.033 88.5962 131.93 87.2755 135.237 84.634C138.661 81.8868 141.554 78.3472 143.916 74.0151C146.396 69.5774 148.403 64.8226 149.939 59.7509C151.592 54.5736 152.773 49.5019 153.481 44.5359C154.19 39.5698 154.544 35.2377 154.544 31.5396C154.544 27.3132 154.013 23.4566 152.95 19.9698C152.005 16.483 150.352 13.683 147.99 11.5698C145.628 9.45661 142.44 8.4 138.425 8.4C134.174 8.4 130.336 9.77359 126.911 12.5208C123.605 15.2679 120.712 18.9132 118.232 23.4566C115.752 27.8943 113.685 32.7019 112.032 37.8792C110.497 43.0566 109.316 48.1811 108.49 53.2528C107.781 58.2189 107.427 62.5509 107.427 66.2491C107.427 70.2642 107.84 73.9623 108.667 77.3434C109.611 80.7245 111.265 83.4717 113.626 85.5849C115.988 87.5925 119.295 88.5962 123.546 88.5962Z" fill="#C2A180"/>
<path d="M203.289 126C201.163 126 199.923 125.683 199.569 125.049C199.215 124.521 199.037 123.728 199.037 122.672C199.037 122.249 199.569 120.717 200.632 118.075C201.812 115.434 203.348 112 205.237 107.774C207.245 103.653 209.37 99.1094 211.614 94.1434C206.182 93.7208 200.573 93.4038 194.786 93.1925C189 92.8755 183.096 92.717 177.073 92.717C172.704 92.717 169.574 91.9774 167.685 90.4981C165.796 89.0189 164.851 87.3811 164.851 85.5849C164.851 82.8377 166.268 80.4604 169.102 78.4528C174.298 74.6491 179.671 70.2642 185.221 65.2981C190.771 60.2264 196.262 54.9434 201.694 49.4491C207.245 43.9547 212.5 38.566 217.459 33.283C222.419 27.8943 226.906 22.9811 230.921 18.5434C234.936 14 238.243 10.3019 240.841 7.44905C243.439 4.49056 245.033 2.74717 245.623 2.21887C246.332 1.58491 246.981 1.05661 247.572 0.633964C248.162 0.211321 248.871 0 249.697 0C251.232 0 252 0.845285 252 2.53585C252 4.43774 250.878 7.39623 248.634 11.4113C246.509 15.4264 243.557 20.0755 239.778 25.3585C236.117 30.5359 231.925 35.9774 227.201 41.683C222.596 47.3887 217.754 52.9887 212.677 58.483C207.717 63.8717 202.816 68.8377 197.975 73.3811C193.251 77.8189 188.941 81.3585 185.044 84C189.886 83.8943 195.022 83.7358 200.454 83.5245C206.005 83.2075 211.378 82.9434 216.574 82.7321C219.053 77.1321 221.415 71.6377 223.659 66.2491C225.903 60.8604 227.615 56.2113 228.796 52.3019C229.504 50.1887 230.862 48.9736 232.87 48.6566C234.995 48.234 237.121 48.0226 239.246 48.0226C241.608 48.0226 243.439 48.1811 244.738 48.4981C246.037 48.8151 246.686 50.0302 246.686 52.1434C246.686 52.883 246.096 54.7849 244.915 57.8491C243.734 60.8076 242.14 64.5057 240.132 68.9434C238.243 73.2755 236.058 77.8717 233.578 82.7321C235.468 82.7321 237.416 82.8377 239.424 83.0491C241.549 83.1547 243.321 83.5774 244.738 84.317C246.273 84.951 247.04 86.1132 247.04 87.8038C247.04 88.7547 246.568 90.0227 245.623 91.6076C244.797 93.1925 243.675 94.6189 242.258 95.8868C240.841 97.1547 239.306 97.7887 237.652 97.7887C236.471 97.7887 234.7 97.5774 232.338 97.1547C230.095 96.6264 228.146 96.2566 226.493 96.0453C223.541 101.434 220.589 106.4 217.636 110.943C214.684 115.487 211.968 119.132 209.488 121.879C207.008 124.626 204.942 126 203.289 126Z" fill="#3A2918"/>
</svg>
