<svg width="180" height="38" viewBox="0 0 180 38" fill="none" xmlns="http://www.w3.org/2000/svg">
<path d="M80.3771 22.4212L80.1905 22.4679C78.3759 22.8412 76.0895 23.8937 74.0623 25.2987C70.096 28.0828 66.9593 27.2585 66.0002 26.8956C66.8971 27.0044 67.82 26.7037 68.4784 26.0505C69.3754 25.1587 69.619 23.8418 69.1317 22.5197C68.7895 21.6021 68.0637 20.8555 67.1667 20.5185C65.1188 19.746 62.8064 20.7881 62.0132 22.836C61.5569 24.0129 61.588 25.2935 62.0961 26.4445C62.5939 27.5799 63.5115 28.4561 64.647 28.9124C65.2899 29.2494 69.8316 31.1884 75.431 27.2585C77.1731 26.0505 79.1795 25.1172 80.7038 24.801L80.9215 24.7491C82.788 24.3136 84.7374 24.8476 86.1321 26.1853C87.4386 27.4348 88.0037 29.1405 87.6823 30.8722C87.6564 31.0122 87.6252 31.147 87.5941 31.2818C87.2882 32.469 86.4743 33.4489 85.3077 34.0504C83.6279 34.9058 81.9999 34.854 80.8282 33.9207C79.7913 33.0912 79.3454 31.7173 79.6824 30.4263C79.8431 29.8093 80.2838 29.2753 80.8904 28.959C81.8133 28.4769 82.6999 28.4821 83.322 28.9746C83.856 29.3997 84.0893 30.1048 83.9131 30.7685C83.7523 31.3803 83.125 31.7536 82.5184 31.5928C81.8807 31.4269 81.2274 31.8106 81.0563 32.4483C80.8904 33.0912 81.2741 33.7445 81.9118 33.9104C83.7938 34.4029 85.7329 33.2675 86.2306 31.3751C86.6453 29.7938 86.0906 28.1139 84.8152 27.0978C83.4413 26.0038 81.5592 25.9053 79.7809 26.8385C78.5781 27.4659 77.7019 28.5546 77.3701 29.8197C76.7946 32.0232 77.5619 34.3666 79.335 35.7872C81.2482 37.3219 83.8923 37.4722 86.4069 36.1812C88.1645 35.2791 89.445 33.7133 89.922 31.8832C89.9739 31.6913 90.0154 31.4943 90.0516 31.3077C90.5234 28.7724 89.7043 26.2734 87.8015 24.4588C87.169 23.8574 86.4587 23.3648 85.6966 23.0019C84.053 22.219 82.1866 22.0013 80.3771 22.4212ZM64.2892 25.4853C64.0404 24.915 64.0248 24.2825 64.2478 23.7018C64.5692 22.8723 65.4973 22.4523 66.3216 22.7634C66.586 22.8671 66.7778 23.0849 66.8815 23.3596C67.0371 23.7848 67.006 24.1373 66.7934 24.3499C66.6223 24.5158 66.3735 24.5728 66.1557 24.4847C65.5387 24.2462 64.844 24.5521 64.6055 25.1691C64.5018 25.4439 64.5018 25.729 64.5899 25.9883C64.4707 25.8327 64.367 25.6668 64.2892 25.4853Z" fill="white"/>
<path d="M94.0388 23.0019C93.2766 23.3648 92.5664 23.8574 91.9338 24.4588C90.0311 26.2786 89.2119 28.7724 89.6837 31.3077C89.72 31.4995 89.7615 31.6913 89.8133 31.8832C90.2903 33.7133 91.5709 35.2791 93.3285 36.1812C95.843 37.4722 98.4872 37.3219 100.4 35.7872C102.168 34.3666 102.941 32.0232 102.365 29.8197C102.033 28.5546 101.152 27.4659 99.9545 26.8385C98.1761 25.9053 96.2941 26.0038 94.9202 27.0978C93.6448 28.1139 93.09 29.7938 93.5048 31.3751C94.0025 33.2623 95.9364 34.3977 97.8236 33.9104C98.4613 33.7496 98.8449 33.0912 98.679 32.4483C98.5131 31.8106 97.8599 31.4269 97.217 31.5928C96.6104 31.7536 95.983 31.3803 95.8223 30.7685C95.646 30.1048 95.8793 29.3997 96.4134 28.9746C97.0303 28.4821 97.9169 28.4769 98.8449 28.959C99.4515 29.2753 99.8923 29.8145 100.053 30.4263C100.39 31.7173 99.9389 33.086 98.9072 33.9207C97.7354 34.854 96.1023 34.9058 94.4276 34.0504C93.2611 33.4541 92.4471 32.469 92.1412 31.2818C92.1049 31.147 92.0738 31.007 92.0531 30.8722C91.7316 29.1405 92.2968 27.4348 93.6033 26.1853C95.0031 24.8476 96.9474 24.3136 98.8138 24.7491L99.0316 24.801C100.556 25.112 102.562 26.0505 104.304 27.2585C109.904 31.1884 114.446 29.2494 115.088 28.9124C116.224 28.4561 117.142 27.5799 117.639 26.4445C118.147 25.2935 118.173 24.0129 117.722 22.836C116.929 20.7881 114.617 19.746 112.569 20.5185C111.677 20.8555 110.946 21.6021 110.604 22.5197C110.111 23.8418 110.355 25.1587 111.257 26.0505C111.921 26.7037 112.838 27.0044 113.735 26.8956C112.776 27.2585 109.634 28.0828 105.673 25.2987C103.646 23.8937 101.359 22.8412 99.5449 22.4679L99.3582 22.4212C97.5332 22.0013 95.6719 22.219 94.0388 23.0019ZM115.135 25.9883C115.223 25.729 115.223 25.4439 115.12 25.1691C114.881 24.5521 114.186 24.2462 113.569 24.4847C113.352 24.5677 113.097 24.5158 112.932 24.3499C112.714 24.1373 112.683 23.7848 112.843 23.3596C112.947 23.0849 113.144 22.8671 113.403 22.7634C114.228 22.4523 115.161 22.8775 115.477 23.7018C115.7 24.2825 115.69 24.915 115.436 25.4853C115.358 25.6668 115.254 25.8327 115.135 25.9883Z" fill="white"/>
<path d="M127.215 19.1082C125.369 21.4931 122.886 22.8463 120.314 22.8826C119.682 22.893 119.044 22.8204 118.417 22.6701C115.477 21.9546 113.222 19.5645 112.677 16.5781C112.615 16.2515 112.584 15.9197 112.579 15.5879C112.558 14.2036 113.02 12.8193 113.891 11.6683C115.156 9.99883 116.893 9.03448 118.707 9.00856C119.143 9.00338 119.583 9.05004 120.024 9.15373C122.098 9.64627 123.679 11.3261 124.068 13.4259C124.115 13.6799 124.141 13.934 124.141 14.188C124.172 16.3759 122.632 18.3305 120.418 18.7453H120.413C120.413 18.7453 120.413 18.7453 120.408 18.7453L120.195 18.766C119.583 18.7764 119.044 18.3461 118.92 17.7291V17.7239C118.92 17.7239 118.92 17.7239 118.92 17.7187L118.899 17.501C118.889 16.884 119.324 16.3396 119.946 16.2256C120.916 16.0493 121.595 15.1835 121.579 14.2243C121.579 14.1102 121.569 14.0014 121.548 13.8873C121.346 12.783 120.511 11.9068 119.428 11.6475C119.195 11.5905 118.966 11.5698 118.738 11.5698C117.758 11.5853 116.763 12.1297 115.928 13.2185C115.399 13.9132 115.125 14.7428 115.14 15.5464C115.145 15.733 115.161 15.9249 115.197 16.1115C115.565 18.1024 117.069 19.6993 119.023 20.1763C119.454 20.2799 119.879 20.3318 120.309 20.3214C122.057 20.2955 123.783 19.3519 125.198 17.5321C126.168 16.2774 126.66 14.8413 126.64 13.3896C126.635 13.0422 126.598 12.6896 126.536 12.3423C126.5 12.1401 126.453 11.9379 126.401 11.7409C125.743 9.22113 123.933 7.30282 121.393 6.44217C120.465 6.13109 119.516 5.98592 118.572 6.00147C116.768 6.0274 115.005 6.63918 113.554 7.78499L113.284 7.99756L113.279 8.00274L113.274 8.00792C111.552 9.28334 109.494 11.7357 107.975 14.3435V14.3384C105.772 18.1854 103.091 20.2748 100.789 21.3895C98.482 22.5042 96.5533 22.6493 95.8223 22.6597C95.7289 22.6597 95.6564 22.6597 95.6045 22.6597C95.5112 22.6649 95.4179 22.6701 95.3246 22.6701H95.1742C93.7017 22.6545 92.2915 22.1205 91.1717 21.1406C90.8398 20.8503 90.5495 20.534 90.2903 20.1866C90.0259 20.5236 89.7252 20.8399 89.3933 21.1199C88.2942 22.0479 86.9306 22.5508 85.5101 22.5716H85.3597C85.2197 22.5716 85.0797 22.5612 84.9397 22.5508C84.5042 22.556 82.617 22.5042 80.2528 21.4206C77.8679 20.3266 75.006 18.1698 72.7196 14.0065V14.0117C71.2523 11.3727 69.2355 8.87894 67.5194 7.55686L67.509 7.54649L67.2653 7.34429C65.7255 6.08443 63.8176 5.43635 61.8785 5.46228C61.0697 5.47264 60.2505 5.60226 59.4573 5.85631C56.8961 6.67029 55.0503 8.55232 54.3452 11.0617C54.2882 11.2587 54.2415 11.4609 54.2001 11.6631C54.1067 12.109 54.0653 12.56 54.0705 13.0059C54.0912 14.3539 54.5526 15.6915 55.434 16.8736C56.8805 18.8075 58.6796 19.7822 60.5149 19.7563C60.8623 19.7511 61.2097 19.7096 61.5571 19.6319C63.522 19.1912 65.0567 17.6254 65.4611 15.6397C65.5077 15.4012 65.5337 15.1575 65.5285 14.9139C65.5181 14.1569 65.2589 13.3896 64.7819 12.7311C63.9316 11.5749 62.8999 11.015 61.8733 11.0254C61.6867 11.0306 61.5 11.0513 61.3134 11.0876C60.2246 11.3261 59.3743 12.1919 59.1514 13.2911C59.1203 13.4362 59.1099 13.5814 59.1099 13.7214C59.1255 14.6443 59.7735 15.4686 60.7068 15.6604C61.3082 15.7849 61.7229 16.3085 61.7281 16.8944C61.7281 16.9825 61.723 17.0758 61.7022 17.1692C61.5778 17.7706 61.0593 18.1854 60.4683 18.1957C60.3749 18.1957 60.2816 18.1905 60.1935 18.1698C58.0626 17.7343 56.5798 15.8626 56.5487 13.7629C56.5435 13.4414 56.5746 13.1096 56.642 12.783C57.0672 10.6936 58.6848 9.04486 60.7638 8.58861C61.1164 8.51084 61.4741 8.46936 61.8266 8.46417C63.7346 8.43307 65.5544 9.44407 66.8505 11.2172C67.6386 12.3008 68.0689 13.5814 68.0897 14.8724C68.0949 15.2975 68.0586 15.7278 67.9704 16.1478C67.3638 19.1238 65.067 21.4672 62.117 22.1309C61.6037 22.2449 61.0904 22.3071 60.5772 22.3123C57.8812 22.3538 55.2681 20.9332 53.3861 18.4031C52.1936 16.8011 51.5456 14.9087 51.5196 13.0059C51.5093 12.3838 51.5663 11.7564 51.6959 11.1446C51.7477 10.8802 51.8099 10.621 51.8825 10.3618C52.8158 7.01766 55.3096 4.47201 58.6848 3.40916C59.7217 3.08253 60.7897 2.91144 61.8474 2.89589C64.3827 2.85959 66.8817 3.70469 68.8933 5.35859L69.1214 5.54523C71.1538 7.12135 73.3106 9.79662 74.9645 12.757V12.7622C76.9865 16.4433 79.4336 18.232 81.4038 19.1186C83.374 20.0052 84.8568 19.9844 84.9553 19.9844H84.9656H85.0693H85.0849H85.1005C85.2301 19.9948 85.3545 20 85.4841 20C86.3136 19.9896 87.1017 19.6941 87.7498 19.1497C88.4964 18.5172 88.9527 17.641 89.0408 16.6611C89.0512 16.5677 89.0511 16.4744 89.0511 16.3863C89.0304 15.0487 88.0038 13.8977 86.6558 13.768L86.4951 13.7629C86.07 13.7681 85.6137 13.9547 85.2716 14.2761C84.7998 14.722 84.5976 15.1938 84.6027 15.6086C84.6027 15.7382 84.6286 15.8678 84.6701 15.9974C84.8308 16.4589 85.2508 16.7907 85.733 16.8322C86.3914 16.8944 86.8892 17.4388 86.8995 18.0868L86.8943 18.2165V18.2216C86.8321 18.8905 86.2722 19.3778 85.6293 19.3882L85.5049 19.383C84.0169 19.2482 82.7414 18.2528 82.2489 16.8425C82.1141 16.4537 82.0415 16.0493 82.0363 15.6501C82.0208 14.4783 82.5496 13.3274 83.5036 12.42C84.3124 11.6579 85.3752 11.2224 86.4536 11.2068C86.5988 11.2068 86.7492 11.212 86.8995 11.2224C87.335 11.2639 87.7446 11.3779 88.1386 11.5179C87.615 11.0358 87.2417 10.3825 87.1017 9.62034C87.0395 9.27816 87.0084 8.93079 87.0032 8.58342C86.9825 6.89323 87.558 5.1823 88.1438 3.85504C88.7297 2.53296 89.3259 1.59973 89.3933 1.50122C89.6422 1.12274 90.057 0.951645 90.4458 0.946461C90.8554 0.941275 91.2961 1.11755 91.5553 1.52195C91.6124 1.61528 92.1619 2.50185 92.7063 3.7669C93.2507 5.03195 93.7951 6.67029 93.821 8.30345C93.8262 8.76488 93.7899 9.2315 93.6966 9.68256C93.5462 10.4395 93.1574 11.0876 92.6337 11.5594C93.0278 11.4246 93.4374 11.3261 93.8677 11.2898H93.8728C93.9506 11.2846 94.0336 11.2794 94.1165 11.2794C95.2623 11.2639 96.3978 11.7253 97.2377 12.5497C98.1294 13.4259 98.6323 14.5146 98.6479 15.6241C98.6531 16.0856 98.5753 16.547 98.4146 16.9981C97.8961 18.3979 96.6103 19.3675 95.1275 19.4763H95.1172C95.1172 19.4763 95.1172 19.4763 95.112 19.4763L95.0498 19.4815C94.3706 19.4971 93.8054 18.9786 93.7536 18.3098H93.7484V18.2942C93.7484 18.2942 93.7484 18.2942 93.7484 18.289L93.7432 18.2165C93.7328 17.5425 94.2513 16.9721 94.9357 16.9203C95.4179 16.8892 95.843 16.5678 96.0141 16.1063C96.0659 15.9612 96.0919 15.8108 96.0919 15.6604C96.0867 15.2612 95.8897 14.8102 95.449 14.3747C95.0912 14.0221 94.6091 13.8303 94.1632 13.8355L94.075 13.8406C92.6804 13.9495 91.6072 15.1523 91.6279 16.547L91.6331 16.6922C91.7005 17.6721 92.1412 18.5586 92.8774 19.2015C93.5618 19.7978 94.4172 20.114 95.3142 20.0985L95.5164 20.0881H95.5319H95.646H95.6563H95.6667C95.6719 20.0881 95.729 20.0881 95.8119 20.0881C96.2941 20.0829 97.8339 19.9844 99.7211 19.0616C101.608 18.1387 103.858 16.3967 105.777 13.0474V13.0422C107.482 10.1181 109.691 7.48428 111.734 5.96L111.983 5.76299C113.886 4.26463 116.193 3.46619 118.547 3.4299C119.775 3.40916 121.02 3.601 122.222 4.0054C125.577 5.13046 128.024 7.72277 128.895 11.0824C128.962 11.3416 129.019 11.6009 129.071 11.8653C129.159 12.3423 129.206 12.8296 129.216 13.3118C129.216 15.3701 128.527 17.4128 127.215 19.1082ZM90.3888 9.84847H90.394C90.5547 9.84847 90.7258 9.79663 90.8554 9.69812C90.985 9.59961 91.0991 9.45444 91.1613 9.17447C91.2131 8.91005 91.2391 8.61971 91.2339 8.31901C91.2235 7.24579 90.8398 6.01703 90.4199 5.00084C89.9377 6.12591 89.5178 7.45317 89.5385 8.54713C89.5437 8.7597 89.5592 8.9619 89.5955 9.15373C89.6525 9.44407 89.7666 9.58924 89.8962 9.69293C90.031 9.79144 90.2021 9.84329 90.3681 9.84329L90.3888 9.84847ZM90.4355 12.4097H90.3473C90.0725 12.4097 89.8081 12.363 89.5489 12.3008C89.8392 12.5289 90.0985 12.7882 90.3369 13.0733C90.5806 12.7933 90.8502 12.5445 91.1457 12.3215C90.9176 12.3682 90.6843 12.4045 90.4355 12.4097Z" fill="white"/>
<path d="M179.067 18.6727H119.921C119.407 18.6727 118.987 18.4505 118.987 18.1727C118.987 17.8977 119.402 17.6727 119.921 17.6727H179.067C179.58 17.6727 180 17.8977 180 18.1727C179.995 18.4505 179.58 18.6727 179.067 18.6727Z" fill="white"/>
<path d="M60.0795 18.2061H0.933227C0.419949 18.2061 0 17.9839 0 17.7061C0 17.4311 0.414764 17.2061 0.933227 17.2061H60.0795C60.5928 17.2061 61.0127 17.4311 61.0127 17.7061C61.0127 17.9839 60.5979 18.2061 60.0795 18.2061Z" fill="white"/>
</svg>
