<svg width="192" height="191" viewBox="0 0 192 191" fill="none" xmlns="http://www.w3.org/2000/svg">
<path d="M6.5041 161.623C6.31116 161.663 6.12212 161.71 5.93312 161.765C4.13758 162.277 2.62558 163.58 1.78293 165.333C1.61361 165.683 1.47183 166.033 1.35764 166.384C0.656748 168.534 0.983597 170.7 2.32238 172.286C3.01146 173.105 3.90919 173.692 4.88965 174.011C5.94098 174.354 7.09472 174.385 8.20512 174.066C9.42577 173.716 10.4535 172.838 11.0323 171.66C11.1583 171.404 11.2646 171.144 11.3473 170.889C11.8277 169.416 11.6072 167.916 10.6779 166.805C10.1897 166.222 9.55967 165.809 8.87059 165.585C8.13426 165.344 7.32705 165.321 6.54741 165.545C5.43307 165.868 4.61405 166.715 4.27935 167.738C4.08247 168.349 4.05492 169.026 4.24393 169.688C4.33055 170.003 4.57072 170.231 4.85816 170.325C5.03142 170.381 5.22043 170.388 5.4055 170.337C5.71657 170.247 5.94888 170.01 6.03944 169.723C6.09457 169.554 6.10245 169.361 6.04732 169.176C5.96463 168.884 5.97646 168.593 6.06309 168.325C6.20878 167.872 6.57101 167.498 7.06321 167.357C7.47272 167.238 7.89408 167.25 8.2839 167.376C8.64616 167.494 8.97688 167.711 9.23282 168.014C9.72502 168.609 9.85106 169.396 9.56361 170.302C9.50849 170.475 9.43366 170.652 9.34703 170.833C8.99658 171.542 8.38627 172.062 7.68538 172.263C6.94511 172.475 6.17334 172.456 5.47245 172.223C4.81881 172.011 4.22026 171.621 3.75956 171.074C2.84998 169.995 2.62949 168.569 3.13744 166.99C3.228 166.715 3.33825 166.435 3.47607 166.152C4.10608 164.848 5.15744 163.947 6.44897 163.576C6.59466 163.533 6.74035 163.498 6.88997 163.466C7.85862 163.261 8.82331 163.317 9.72502 163.608C10.5598 163.88 11.3395 164.356 12.0128 165.025C13.4933 166.502 14.1233 168.593 13.702 170.617L13.6508 170.865V170.873C13.5799 171.263 13.4697 171.692 13.32 172.149C12.883 173.495 12.1309 175.047 11.2213 176.433C10.4023 177.661 9.85104 178.835 9.49666 179.925C8.1815 183.985 9.57936 186.871 9.80774 187.3C9.84712 187.395 9.89042 187.489 9.93767 187.58C10.4299 188.545 11.241 189.297 12.253 189.714C12.3632 189.761 12.4774 189.801 12.5877 189.836C13.6193 190.171 14.7337 190.128 15.7456 189.71C16.8245 189.261 17.5963 188.371 17.931 187.34C18.1988 186.513 18.1908 185.592 17.8443 184.729C17.5018 183.89 16.7891 183.229 15.911 182.926H15.9071L15.8441 182.906C14.6392 182.508 13.4067 182.76 12.6074 183.611C12.3199 183.918 12.1073 184.28 11.9852 184.662C11.7844 185.28 11.8002 185.966 12.06 186.592V186.596C12.1703 186.859 12.3868 187.048 12.6388 187.131C12.8436 187.198 13.0759 187.194 13.2886 187.104C13.5524 186.993 13.7414 186.777 13.8241 186.525C13.891 186.32 13.887 186.088 13.8004 185.875C13.7177 185.674 13.7099 185.45 13.7768 185.249C13.8162 185.123 13.8871 185.005 13.9816 184.902C14.1233 184.753 14.2926 184.662 14.5092 184.623C14.7218 184.583 14.9817 184.603 15.2692 184.694L15.3125 184.709H15.3085C15.6787 184.835 15.9818 185.119 16.1118 185.442C16.289 185.879 16.293 186.344 16.1551 186.765C15.9819 187.296 15.5881 187.749 15.0368 187.978C14.4344 188.226 13.7886 188.249 13.1783 188.053C13.1114 188.033 13.0444 188.005 12.9775 187.978C12.312 187.702 11.8041 187.194 11.5285 186.533L11.5245 186.525L11.4891 186.45L11.4851 186.442L11.4812 186.438C11.434 186.344 10.1581 184.005 11.2922 180.512C11.5954 179.579 12.0718 178.559 12.7924 177.476V177.472C13.8044 175.933 14.6195 174.259 15.1077 172.747C15.277 172.219 15.4109 171.712 15.4975 171.235L15.5448 171.007C16.0961 168.357 15.2731 165.62 13.3437 163.699C12.4577 162.816 11.4221 162.183 10.3078 161.82C9.09894 161.423 7.79957 161.352 6.5041 161.623Z" fill="url(#paint0_linear_246_1582)"/>
<path d="M30.1138 183.701C30.0863 183.894 30.0508 184.087 30.0115 184.28C29.6216 186.107 28.4207 187.702 26.7315 188.663C26.3928 188.856 26.0503 189.021 25.7077 189.159C23.6129 190.002 21.4275 189.824 19.754 188.592C18.8877 187.958 18.2459 187.104 17.86 186.147C17.4466 185.119 17.3364 183.969 17.5805 182.843C17.8483 181.603 18.6555 180.516 19.7895 179.858C20.0375 179.717 20.2856 179.595 20.5376 179.492C21.9749 178.913 23.4869 179.035 24.6563 179.886C25.2706 180.331 25.7274 180.933 25.9951 181.611C26.2826 182.331 26.3613 183.134 26.1881 183.926C25.9439 185.06 25.1485 185.934 24.1523 186.336C23.5577 186.576 22.8844 186.643 22.2111 186.501C21.8922 186.434 21.648 186.21 21.5338 185.93C21.4669 185.765 21.4472 185.572 21.4866 185.383C21.5535 185.064 21.778 184.82 22.0575 184.709C22.2229 184.643 22.4159 184.623 22.6049 184.662C22.9002 184.725 23.1915 184.694 23.4554 184.591C23.8964 184.414 24.2429 184.028 24.3531 183.528C24.4437 183.115 24.4004 182.689 24.2508 182.311C24.109 181.957 23.8688 181.642 23.5499 181.41C22.9238 180.957 22.1323 180.886 21.2464 181.236C21.0771 181.303 20.9038 181.39 20.7306 181.488C20.0454 181.886 19.5689 182.528 19.4154 183.241C19.2539 183.993 19.3249 184.761 19.6005 185.45C19.8564 186.088 20.2856 186.659 20.8605 187.08C21.9985 187.915 23.4357 188.041 24.9792 187.426C25.2509 187.32 25.5226 187.186 25.7943 187.033C27.0504 186.316 27.8812 185.206 28.1647 183.894C28.1962 183.745 28.2238 183.595 28.2435 183.445C28.3813 182.465 28.2632 181.504 27.9127 180.626C27.5859 179.811 27.0583 179.063 26.3416 178.437C24.7666 177.059 22.6403 176.57 20.6478 177.13L20.4037 177.197L20.3958 177.2C20.01 177.295 19.5887 177.437 19.1476 177.614C17.8325 178.142 16.3362 178.996 15.0132 179.996C13.8437 180.898 12.7097 181.524 11.6426 181.953C7.68136 183.54 4.70848 182.339 4.26353 182.138C4.16509 182.103 4.0706 182.067 3.9761 182.028C2.97989 181.603 2.1766 180.843 1.69227 179.862C1.63715 179.756 1.5899 179.646 1.54659 179.535C1.14101 178.527 1.10952 177.417 1.45997 176.378C1.83404 175.271 2.66882 174.444 3.68078 174.039C4.48798 173.716 5.40544 173.661 6.2914 173.952C7.1498 174.235 7.85857 174.905 8.22083 175.759L8.22477 175.763L8.25231 175.826C8.72876 177.004 8.56339 178.248 7.76406 179.102C7.47661 179.409 7.13013 179.646 6.75606 179.795C6.14967 180.039 5.46846 180.067 4.82663 179.85H4.82269C4.55493 179.756 4.35015 179.555 4.25171 179.311C4.16902 179.11 4.16118 178.878 4.23599 178.661C4.32656 178.39 4.53131 178.189 4.77938 178.09C4.9802 178.012 5.20859 177.996 5.42909 178.071C5.63778 178.142 5.85828 178.134 6.0591 178.051C6.18116 178 6.29534 177.925 6.38984 177.823C6.52766 177.673 6.60641 177.496 6.63397 177.279C6.65759 177.063 6.62218 176.807 6.51193 176.527L6.49616 176.488V176.492C6.3426 176.129 6.04334 175.85 5.71259 175.74C5.2637 175.594 4.79907 175.621 4.38956 175.787C3.8698 175.996 3.44453 176.417 3.25159 176.984C3.0429 177.598 3.06259 178.248 3.29884 178.842C3.3264 178.905 3.35396 178.972 3.38546 179.035C3.7044 179.681 4.2478 180.154 4.92507 180.382L4.93295 180.386L5.01168 180.417L5.01957 180.421L5.02351 180.425C5.12195 180.469 7.5396 181.579 10.9456 180.217C11.8552 179.85 12.8396 179.307 13.8713 178.516H13.8752C15.3439 177.405 16.9583 176.476 18.4349 175.885C18.9507 175.681 19.4469 175.515 19.9155 175.397L20.1399 175.334C22.7466 174.606 25.5305 175.243 27.5819 177.039C28.523 177.862 29.2239 178.854 29.661 179.941C30.1414 181.099 30.2989 182.39 30.1138 183.701Z" fill="url(#paint1_linear_246_1582)"/>
<path d="M7.90601 184.481C7.90601 184.269 7.81152 184.083 7.67764 183.95C7.54376 183.816 7.35477 183.721 7.14608 183.721C7.09883 183.721 7.04764 183.725 7.00039 183.737C6.92951 183.753 6.16167 183.926 5.2639 184.312C4.36613 184.698 3.32661 185.288 2.71629 186.19C2.48003 186.54 2.36189 186.93 2.36189 187.316C2.36189 187.816 2.5627 188.308 2.94071 188.69C3.31872 189.072 3.81091 189.273 4.31492 189.269C4.70081 189.269 5.09456 189.151 5.44107 188.915C6.34278 188.305 6.93342 187.265 7.31931 186.367C7.70519 185.466 7.87449 184.702 7.89418 184.631C7.90206 184.58 7.90601 184.528 7.90601 184.481ZM4.31492 187.769C4.19286 187.769 4.07869 187.71 3.996 187.627C3.91331 187.545 3.85426 187.43 3.85426 187.308C3.85426 187.226 3.87788 187.135 3.9527 187.021C4.18895 186.666 4.60633 186.336 5.08278 186.064C5.3781 185.895 5.69309 185.749 5.99628 185.627C5.88209 185.914 5.74426 186.218 5.58282 186.505C5.31506 186.985 4.98037 187.419 4.60236 187.667C4.48817 187.745 4.39368 187.769 4.31492 187.769Z" fill="url(#paint2_linear_246_1582)"/>
<path d="M183.809 186H30.1909C25.686 186 22.0001 185.778 22.0001 185.5C22.0001 185.225 25.645 185 30.1909 185H183.809C188.314 185 192 185.222 192 185.5C192 185.778 188.314 186 183.809 186Z" fill="url(#paint3_linear_246_1582)"/>
<path d="M5 170C4.45 170 4 166.506 4 162.148V7.85219C4 3.53349 4.445 0 5 0C5.55 0 6 3.49423 6 7.85219V162.148C6 166.506 5.555 170 5 170Z" fill="url(#paint4_linear_246_1582)"/>
<path d="M19.5414 173.287L18.9862 172.731C19.1437 172.574 19.2185 172.373 19.2185 172.168C19.2185 171.964 19.1437 171.763 18.9862 171.605C18.8286 171.448 18.6318 171.373 18.4231 171.373C18.2183 171.373 18.0175 171.448 17.86 171.605C17.7025 171.763 17.6277 171.964 17.6277 172.168C17.6277 172.373 17.7025 172.574 17.86 172.731C18.0175 172.889 18.2183 172.964 18.4231 172.964C18.6279 172.964 18.8286 172.889 18.9862 172.731L19.5414 173.287L20.0966 173.842C19.6359 174.302 19.0256 174.535 18.4231 174.535C17.8207 174.535 17.2103 174.302 16.7496 173.842C16.2889 173.381 16.0566 172.771 16.0566 172.168C16.0566 171.566 16.2889 170.955 16.7496 170.495C17.2103 170.034 17.8207 169.802 18.4231 169.802C19.0256 169.802 19.6359 170.034 20.0966 170.495C20.5573 170.955 20.7896 171.566 20.7896 172.168C20.7896 172.771 20.5573 173.381 20.0966 173.842L19.5414 173.287Z" fill="url(#paint5_linear_246_1582)"/>
<defs>
<linearGradient id="paint0_linear_246_1582" x1="-230.6" y1="38.6962" x2="184.272" y2="273.68" gradientUnits="userSpaceOnUse">
<stop stop-color="#EEDEBC"/>
<stop offset="0.059" stop-color="#DDC6A3"/>
<stop offset="0.1398" stop-color="#C9A885"/>
<stop offset="0.2581" stop-color="#9A7A5F"/>
<stop offset="0.3602" stop-color="#C9A885"/>
<stop offset="0.4892" stop-color="#EEDEBC"/>
<stop offset="0.5415" stop-color="#DDC6A3"/>
<stop offset="0.6129" stop-color="#C9A885"/>
<stop offset="0.7204" stop-color="#9A7A5F"/>
<stop offset="0.8387" stop-color="#C9A885"/>
<stop offset="1" stop-color="#EEDEBC"/>
</linearGradient>
<linearGradient id="paint1_linear_246_1582" x1="-231.109" y1="39.593" x2="183.762" y2="274.576" gradientUnits="userSpaceOnUse">
<stop stop-color="#EEDEBC"/>
<stop offset="0.059" stop-color="#DDC6A3"/>
<stop offset="0.1398" stop-color="#C9A885"/>
<stop offset="0.2581" stop-color="#9A7A5F"/>
<stop offset="0.3602" stop-color="#C9A885"/>
<stop offset="0.4892" stop-color="#EEDEBC"/>
<stop offset="0.5415" stop-color="#DDC6A3"/>
<stop offset="0.6129" stop-color="#C9A885"/>
<stop offset="0.7204" stop-color="#9A7A5F"/>
<stop offset="0.8387" stop-color="#C9A885"/>
<stop offset="1" stop-color="#EEDEBC"/>
</linearGradient>
<linearGradient id="paint2_linear_246_1582" x1="-236.617" y1="49.3179" x2="178.255" y2="284.3" gradientUnits="userSpaceOnUse">
<stop stop-color="#EEDEBC"/>
<stop offset="0.059" stop-color="#DDC6A3"/>
<stop offset="0.1398" stop-color="#C9A885"/>
<stop offset="0.2581" stop-color="#9A7A5F"/>
<stop offset="0.3602" stop-color="#C9A885"/>
<stop offset="0.4892" stop-color="#EEDEBC"/>
<stop offset="0.5415" stop-color="#DDC6A3"/>
<stop offset="0.6129" stop-color="#C9A885"/>
<stop offset="0.7204" stop-color="#9A7A5F"/>
<stop offset="0.8387" stop-color="#C9A885"/>
<stop offset="1" stop-color="#EEDEBC"/>
</linearGradient>
<linearGradient id="paint3_linear_246_1582" x1="-2599.09" y1="91.9373" x2="-2533.65" y2="699.126" gradientUnits="userSpaceOnUse">
<stop stop-color="#EEDEBC"/>
<stop offset="0.059" stop-color="#DDC6A3"/>
<stop offset="0.1398" stop-color="#C9A885"/>
<stop offset="0.2581" stop-color="#9A7A5F"/>
<stop offset="0.3602" stop-color="#C9A885"/>
<stop offset="0.4892" stop-color="#EEDEBC"/>
<stop offset="0.5415" stop-color="#DDC6A3"/>
<stop offset="0.6129" stop-color="#C9A885"/>
<stop offset="0.7204" stop-color="#9A7A5F"/>
<stop offset="0.8387" stop-color="#C9A885"/>
<stop offset="1" stop-color="#EEDEBC"/>
</linearGradient>
<linearGradient id="paint4_linear_246_1582" x1="-288.374" y1="-1219.76" x2="403.837" y2="-1169.83" gradientUnits="userSpaceOnUse">
<stop stop-color="#EEDEBC"/>
<stop offset="0.059" stop-color="#DDC6A3"/>
<stop offset="0.1398" stop-color="#C9A885"/>
<stop offset="0.2581" stop-color="#9A7A5F"/>
<stop offset="0.3602" stop-color="#C9A885"/>
<stop offset="0.4892" stop-color="#EEDEBC"/>
<stop offset="0.5415" stop-color="#DDC6A3"/>
<stop offset="0.6129" stop-color="#C9A885"/>
<stop offset="0.7204" stop-color="#9A7A5F"/>
<stop offset="0.8387" stop-color="#C9A885"/>
<stop offset="1" stop-color="#EEDEBC"/>
</linearGradient>
<linearGradient id="paint5_linear_246_1582" x1="-227.35" y1="32.9606" x2="187.519" y2="267.941" gradientUnits="userSpaceOnUse">
<stop stop-color="#EEDEBC"/>
<stop offset="0.059" stop-color="#DDC6A3"/>
<stop offset="0.1398" stop-color="#C9A885"/>
<stop offset="0.2581" stop-color="#9A7A5F"/>
<stop offset="0.3602" stop-color="#C9A885"/>
<stop offset="0.4892" stop-color="#EEDEBC"/>
<stop offset="0.5415" stop-color="#DDC6A3"/>
<stop offset="0.6129" stop-color="#C9A885"/>
<stop offset="0.7204" stop-color="#9A7A5F"/>
<stop offset="0.8387" stop-color="#C9A885"/>
<stop offset="1" stop-color="#EEDEBC"/>
</linearGradient>
</defs>
</svg>
