<svg width="192" height="190" viewBox="0 0 192 190" fill="none" xmlns="http://www.w3.org/2000/svg">
<path d="M185.516 28.4354C185.709 28.3961 185.898 28.3488 186.087 28.2937C187.882 27.7818 189.394 26.4785 190.237 24.7262C190.406 24.3758 190.548 24.0253 190.662 23.6749C191.363 21.525 191.036 19.3593 189.698 17.7724C189.009 16.9534 188.111 16.3667 187.13 16.0478C186.079 15.7052 184.925 15.6737 183.815 15.9927C182.594 16.3431 181.567 17.2212 180.988 18.3985C180.862 18.6545 180.755 18.9144 180.673 19.1703C180.192 20.643 180.413 22.1432 181.342 23.2536C181.83 23.8363 182.46 24.2498 183.149 24.4742C183.886 24.7144 184.693 24.7381 185.473 24.5136C186.587 24.1907 187.406 23.3441 187.741 22.3204C187.938 21.71 187.965 21.0328 187.776 20.3713C187.689 20.0563 187.449 19.8279 187.162 19.7334C186.989 19.6782 186.8 19.6704 186.615 19.7216C186.303 19.8121 186.071 20.0484 185.981 20.3358C185.925 20.5051 185.918 20.6981 185.973 20.8832C186.055 21.1745 186.044 21.4659 185.957 21.7337C185.811 22.1865 185.449 22.5606 184.957 22.7023C184.547 22.8204 184.126 22.8086 183.736 22.6826C183.374 22.5645 183.043 22.3479 182.787 22.0447C182.295 21.4502 182.169 20.6626 182.456 19.757C182.512 19.5837 182.586 19.4066 182.673 19.2254C183.023 18.5167 183.634 17.9969 184.335 17.7961C185.075 17.5834 185.847 17.6031 186.548 17.8355C187.201 18.0481 187.8 18.4379 188.26 18.9852C189.17 20.0641 189.391 21.4895 188.883 23.0685C188.792 23.3441 188.682 23.6237 188.544 23.9072C187.914 25.2106 186.863 26.1123 185.571 26.4824C185.425 26.5257 185.28 26.5612 185.13 26.5927C184.161 26.7974 183.197 26.7423 182.295 26.4509C181.46 26.1792 180.681 25.7028 180.007 25.0334C178.527 23.5568 177.897 21.4659 178.318 19.442L178.369 19.1939V19.186C178.44 18.7962 178.55 18.367 178.7 17.9103C179.137 16.5636 179.889 15.0122 180.799 13.6262C181.618 12.3976 182.169 11.2242 182.523 10.1335C183.839 6.07387 182.441 3.18761 182.212 2.75841C182.173 2.66391 182.13 2.56941 182.082 2.47884C181.59 1.51413 180.779 0.762054 179.767 0.344669C179.657 0.297418 179.543 0.25804 179.432 0.222602C178.401 -0.112094 177.286 -0.0687804 176.274 0.348604C175.196 0.79749 174.424 1.68739 174.089 2.71904C173.821 3.54593 173.829 4.46733 174.176 5.32966C174.518 6.16837 175.231 6.82988 176.109 7.13308H176.113L176.176 7.15277C177.381 7.55046 178.613 7.29846 179.413 6.44794C179.7 6.1408 179.913 5.77855 180.035 5.3966C180.236 4.7784 180.22 4.09326 179.96 3.46718V3.46324C179.85 3.19942 179.633 3.01042 179.381 2.92773C179.176 2.86079 178.944 2.86473 178.731 2.95529C178.468 3.06554 178.279 3.28211 178.196 3.53412C178.129 3.73887 178.133 3.97119 178.22 4.18382C178.302 4.38464 178.31 4.60908 178.243 4.8099C178.204 4.9359 178.133 5.05403 178.038 5.15641C177.897 5.30604 177.727 5.3966 177.511 5.43598C177.298 5.47535 177.038 5.45566 176.751 5.3651L176.708 5.34935H176.711C176.341 5.22335 176.038 4.93984 175.908 4.61696C175.731 4.17988 175.727 3.71525 175.865 3.29392C176.038 2.76235 176.432 2.30953 176.983 2.08115C177.586 1.83308 178.231 1.80945 178.842 2.00633C178.909 2.02602 178.976 2.05358 179.043 2.08115C179.708 2.35678 180.216 2.86473 180.492 3.52624L180.495 3.53412L180.531 3.60893L180.535 3.61681L180.539 3.62075C180.586 3.71525 181.862 6.05418 180.728 9.54682C180.425 10.48 179.948 11.4999 179.228 12.5827V12.5866C178.216 14.1262 177.401 15.7997 176.912 17.3118C176.743 17.8394 176.609 18.3473 176.522 18.8238L176.475 19.0522C175.924 21.7022 176.747 24.4388 178.676 26.3603C179.562 27.2424 180.598 27.8763 181.712 28.2386C182.921 28.6363 184.22 28.7071 185.516 28.4354Z" fill="url(#paint0_linear_246_1574)"/>
<path d="M161.906 6.35741C161.934 6.16447 161.969 5.97153 162.009 5.77859C162.398 3.95154 163.599 2.35682 165.289 1.39605C165.627 1.20311 165.97 1.03773 166.312 0.89991C168.407 0.0572654 170.593 0.234458 172.266 1.46692C173.132 2.10088 173.774 2.95533 174.16 3.91217C174.573 4.93988 174.684 6.08966 174.44 7.21581C174.172 8.45615 173.365 9.54293 172.231 10.2005C171.982 10.3423 171.734 10.4643 171.482 10.5667C170.045 11.1455 168.533 11.0235 167.364 10.1729C166.749 9.72799 166.293 9.12554 166.025 8.44828C165.737 7.7277 165.659 6.92443 165.832 6.13297C166.076 4.99894 166.871 4.1248 167.868 3.72317C168.462 3.48297 169.136 3.41603 169.809 3.55778C170.128 3.62472 170.372 3.84917 170.486 4.12874C170.553 4.29412 170.573 4.48706 170.533 4.67606C170.467 4.99501 170.242 5.23914 169.962 5.34939C169.797 5.41633 169.604 5.43602 169.415 5.39664C169.12 5.33364 168.828 5.36514 168.565 5.46752C168.124 5.64471 167.777 6.03059 167.667 6.53067C167.576 6.94412 167.62 7.36937 167.769 7.74738C167.911 8.10177 168.151 8.41677 168.47 8.64909C169.096 9.10192 169.888 9.17279 170.774 8.82235C170.943 8.75541 171.116 8.66878 171.289 8.57034C171.975 8.17264 172.451 7.53082 172.605 6.81811C172.766 6.06603 172.695 5.2982 172.42 4.60912C172.164 3.97123 171.734 3.40028 171.16 2.97896C170.022 2.14419 168.584 2.01819 167.041 2.63245C166.769 2.73877 166.497 2.87264 166.226 3.02621C164.97 3.74285 164.139 4.85325 163.855 6.16447C163.824 6.3141 163.796 6.46373 163.777 6.61336C163.639 7.59382 163.757 8.55459 164.107 9.43268C164.434 10.2478 164.962 10.9959 165.678 11.622C167.253 13.0001 169.38 13.4884 171.372 12.9293L171.616 12.8623L171.624 12.8584C172.01 12.7639 172.431 12.6221 172.872 12.4449C174.188 11.9173 175.684 11.0628 177.007 10.0627C178.176 9.16098 179.31 8.5349 180.377 8.10571C184.339 6.51886 187.312 7.71982 187.756 7.92064C187.855 7.95608 187.949 7.99151 188.044 8.03089C189.04 8.45615 189.843 9.21611 190.328 10.1966C190.383 10.3029 190.43 10.4131 190.473 10.5234C190.879 11.5314 190.91 12.6418 190.56 13.6813C190.186 14.7878 189.351 15.6147 188.339 16.0203C187.532 16.3431 186.615 16.3983 185.729 16.1069C184.87 15.8234 184.161 15.154 183.799 14.2995L183.795 14.2956L183.768 14.2326C183.291 13.0553 183.457 11.811 184.256 10.9565C184.543 10.6494 184.89 10.4131 185.264 10.2635C185.87 10.0194 186.552 9.99181 187.193 10.2084H187.197C187.465 10.3029 187.67 10.5037 187.768 10.7478C187.851 10.9486 187.859 11.181 187.784 11.3975C187.693 11.6692 187.489 11.87 187.241 11.9685C187.04 12.0472 186.811 12.063 186.591 11.9882C186.382 11.9173 186.162 11.9252 185.961 12.0079C185.839 12.059 185.725 12.1339 185.63 12.2362C185.492 12.3859 185.414 12.5631 185.386 12.7796C185.362 12.9962 185.398 13.2521 185.508 13.5317L185.524 13.5711V13.5671C185.677 13.9294 185.977 14.209 186.307 14.3192C186.756 14.4649 187.221 14.4374 187.63 14.272C188.15 14.0633 188.575 13.642 188.768 13.0749C188.977 12.4607 188.957 11.811 188.721 11.2164C188.694 11.1534 188.666 11.0865 188.635 11.0235C188.316 10.3777 187.772 9.90518 187.095 9.6768L187.087 9.67287L187.008 9.64137L187 9.63743L186.997 9.63349C186.898 9.59018 184.48 8.47978 181.074 9.84218C180.165 10.2084 179.18 10.7518 178.149 11.5432H178.145C176.676 12.6536 175.062 13.5829 173.585 14.1735C173.069 14.3783 172.573 14.5437 172.105 14.6618L171.88 14.7248C169.273 15.4533 166.49 14.8154 164.438 13.0198C163.497 12.1969 162.796 11.2046 162.359 10.1178C161.879 8.96016 161.721 7.66863 161.906 6.35741Z" fill="url(#paint1_linear_246_1574)"/>
<path d="M184.114 5.57771C184.114 5.79034 184.209 5.9754 184.343 6.10928C184.476 6.24316 184.665 6.33766 184.874 6.33766C184.921 6.33766 184.973 6.33372 185.02 6.32191C185.091 6.30616 185.859 6.13291 186.756 5.74702C187.654 5.36114 188.694 4.7705 189.304 3.86879C189.54 3.51834 189.658 3.12852 189.658 2.74264C189.658 2.24256 189.458 1.75037 189.08 1.36842C188.702 0.986472 188.209 0.785655 187.705 0.789592C187.319 0.789592 186.926 0.907721 186.579 1.14398C185.677 1.7543 185.087 2.79383 184.701 3.6916C184.315 4.59331 184.146 5.3572 184.126 5.42808C184.118 5.47926 184.114 5.53045 184.114 5.57771ZM187.705 2.28981C187.827 2.28981 187.942 2.34888 188.024 2.43157C188.107 2.51426 188.166 2.62845 188.166 2.75051C188.166 2.8332 188.142 2.92377 188.068 3.03796C187.831 3.39234 187.414 3.7231 186.937 3.99479C186.642 4.16411 186.327 4.3098 186.024 4.43186C186.138 4.14442 186.276 3.84123 186.437 3.55378C186.705 3.0734 187.04 2.64026 187.418 2.39219C187.532 2.31344 187.627 2.28981 187.705 2.28981Z" fill="url(#paint2_linear_246_1574)"/>
<path d="M8.1908 4H161.809C166.314 4 170 4.2225 170 4.5C170 4.775 166.355 5 161.809 5H8.1908C3.68586 5 0 4.7775 0 4.5C0 4.2225 3.68586 4 8.1908 4Z" fill="url(#paint3_linear_246_1574)"/>
<path d="M187 20C187.55 20 188 23.4942 188 27.8522V182.148C188 186.467 187.555 190 187 190C186.45 190 186 186.506 186 182.148V27.8522C186 23.4942 186.445 20 187 20Z" fill="url(#paint4_linear_246_1574)"/>
<path d="M172.479 16.7723L173.034 17.3275C172.876 17.485 172.802 17.6858 172.802 17.8906C172.802 18.0953 172.876 18.2961 173.034 18.4536C173.191 18.6111 173.388 18.686 173.597 18.686C173.802 18.686 174.003 18.6111 174.16 18.4536C174.318 18.2961 174.392 18.0953 174.392 17.8906C174.392 17.6858 174.318 17.485 174.16 17.3275C174.003 17.17 173.802 17.0952 173.597 17.0952C173.392 17.0952 173.191 17.17 173.034 17.3275L172.479 16.7723L171.923 16.2171C172.384 15.7564 172.994 15.5241 173.597 15.5241C174.199 15.5241 174.81 15.7564 175.27 16.2171C175.731 16.6778 175.963 17.2881 175.963 17.8906C175.963 18.493 175.731 19.1033 175.27 19.564C174.81 20.0247 174.199 20.2571 173.597 20.2571C172.994 20.2571 172.384 20.0247 171.923 19.564C171.463 19.1033 171.23 18.493 171.23 17.8906C171.23 17.2881 171.463 16.6778 171.923 16.2171L172.479 16.7723Z" fill="url(#paint5_linear_246_1574)"/>
<defs>
<linearGradient id="paint0_linear_246_1574" x1="422.62" y1="151.363" x2="7.74806" y2="-83.6207" gradientUnits="userSpaceOnUse">
<stop stop-color="#EEDEBC"/>
<stop offset="0.059" stop-color="#DDC6A3"/>
<stop offset="0.1398" stop-color="#C9A885"/>
<stop offset="0.2581" stop-color="#9A7A5F"/>
<stop offset="0.3602" stop-color="#C9A885"/>
<stop offset="0.4892" stop-color="#EEDEBC"/>
<stop offset="0.5415" stop-color="#DDC6A3"/>
<stop offset="0.6129" stop-color="#C9A885"/>
<stop offset="0.7204" stop-color="#9A7A5F"/>
<stop offset="0.8387" stop-color="#C9A885"/>
<stop offset="1" stop-color="#EEDEBC"/>
</linearGradient>
<linearGradient id="paint1_linear_246_1574" x1="423.129" y1="150.466" x2="8.25804" y2="-84.5172" gradientUnits="userSpaceOnUse">
<stop stop-color="#EEDEBC"/>
<stop offset="0.059" stop-color="#DDC6A3"/>
<stop offset="0.1398" stop-color="#C9A885"/>
<stop offset="0.2581" stop-color="#9A7A5F"/>
<stop offset="0.3602" stop-color="#C9A885"/>
<stop offset="0.4892" stop-color="#EEDEBC"/>
<stop offset="0.5415" stop-color="#DDC6A3"/>
<stop offset="0.6129" stop-color="#C9A885"/>
<stop offset="0.7204" stop-color="#9A7A5F"/>
<stop offset="0.8387" stop-color="#C9A885"/>
<stop offset="1" stop-color="#EEDEBC"/>
</linearGradient>
<linearGradient id="paint2_linear_246_1574" x1="428.637" y1="140.741" x2="13.7655" y2="-94.2413" gradientUnits="userSpaceOnUse">
<stop stop-color="#EEDEBC"/>
<stop offset="0.059" stop-color="#DDC6A3"/>
<stop offset="0.1398" stop-color="#C9A885"/>
<stop offset="0.2581" stop-color="#9A7A5F"/>
<stop offset="0.3602" stop-color="#C9A885"/>
<stop offset="0.4892" stop-color="#EEDEBC"/>
<stop offset="0.5415" stop-color="#DDC6A3"/>
<stop offset="0.6129" stop-color="#C9A885"/>
<stop offset="0.7204" stop-color="#9A7A5F"/>
<stop offset="0.8387" stop-color="#C9A885"/>
<stop offset="1" stop-color="#EEDEBC"/>
</linearGradient>
<linearGradient id="paint3_linear_246_1574" x1="2791.09" y1="98.0627" x2="2725.65" y2="-509.126" gradientUnits="userSpaceOnUse">
<stop stop-color="#EEDEBC"/>
<stop offset="0.059" stop-color="#DDC6A3"/>
<stop offset="0.1398" stop-color="#C9A885"/>
<stop offset="0.2581" stop-color="#9A7A5F"/>
<stop offset="0.3602" stop-color="#C9A885"/>
<stop offset="0.4892" stop-color="#EEDEBC"/>
<stop offset="0.5415" stop-color="#DDC6A3"/>
<stop offset="0.6129" stop-color="#C9A885"/>
<stop offset="0.7204" stop-color="#9A7A5F"/>
<stop offset="0.8387" stop-color="#C9A885"/>
<stop offset="1" stop-color="#EEDEBC"/>
</linearGradient>
<linearGradient id="paint4_linear_246_1574" x1="480.374" y1="1409.76" x2="-211.837" y2="1359.83" gradientUnits="userSpaceOnUse">
<stop stop-color="#EEDEBC"/>
<stop offset="0.059" stop-color="#DDC6A3"/>
<stop offset="0.1398" stop-color="#C9A885"/>
<stop offset="0.2581" stop-color="#9A7A5F"/>
<stop offset="0.3602" stop-color="#C9A885"/>
<stop offset="0.4892" stop-color="#EEDEBC"/>
<stop offset="0.5415" stop-color="#DDC6A3"/>
<stop offset="0.6129" stop-color="#C9A885"/>
<stop offset="0.7204" stop-color="#9A7A5F"/>
<stop offset="0.8387" stop-color="#C9A885"/>
<stop offset="1" stop-color="#EEDEBC"/>
</linearGradient>
<linearGradient id="paint5_linear_246_1574" x1="419.37" y1="157.098" x2="4.50076" y2="-77.8818" gradientUnits="userSpaceOnUse">
<stop stop-color="#EEDEBC"/>
<stop offset="0.059" stop-color="#DDC6A3"/>
<stop offset="0.1398" stop-color="#C9A885"/>
<stop offset="0.2581" stop-color="#9A7A5F"/>
<stop offset="0.3602" stop-color="#C9A885"/>
<stop offset="0.4892" stop-color="#EEDEBC"/>
<stop offset="0.5415" stop-color="#DDC6A3"/>
<stop offset="0.6129" stop-color="#C9A885"/>
<stop offset="0.7204" stop-color="#9A7A5F"/>
<stop offset="0.8387" stop-color="#C9A885"/>
<stop offset="1" stop-color="#EEDEBC"/>
</linearGradient>
</defs>
</svg>
