<svg width="171" height="30" viewBox="0 0 171 30" fill="none" xmlns="http://www.w3.org/2000/svg">
    <g id="Group 12778">
        <path id="Vector" d="M162.841 16.2119C162.841 14.231 164.458 12.6151 166.441 12.6151C168.423 12.6151 170.04 14.231 170.04 16.2119C170.04 18.1928 168.423 19.8088 166.441 19.8088C164.432 19.7827 162.841 18.1928 162.841 16.2119Z" fill="#4B5563"/>
        <path id="Vector_2" d="M107.207 0.10437H102.773V19.8872H107.207V0.10437Z" fill="#4B5563"/>
        <path id="Vector_3" d="M120.326 19.7828H130.238V0H125.804V15.3779H120.326C118.814 15.3779 117.509 14.8306 116.466 13.7619C115.423 12.6933 114.849 11.3901 114.849 9.90443V0H110.415V9.90443C110.415 12.6151 111.38 14.987 113.31 16.8897C115.24 18.8184 117.588 19.7828 120.326 19.7828Z" fill="#4B5563"/>
        <path id="Vector_4" d="M73.6356 2.9192C71.7054 0.990443 69.3579 0 66.6452 0C63.9326 0 61.559 0.990443 59.6549 2.9192C57.7247 4.84796 56.7596 7.19374 56.7596 9.90443C56.7596 12.6151 57.7247 14.987 59.6549 16.8897C61.5851 18.8184 63.9326 19.7828 66.6452 19.7828C69.3579 19.7828 71.7054 18.8184 73.6356 16.8897C75.5657 14.9609 76.5569 12.6151 76.5569 9.90443C76.5308 7.19374 75.5657 4.82189 73.6356 2.9192ZM70.5056 13.7619C69.4362 14.8306 68.132 15.3519 66.6452 15.3519C65.1324 15.3519 63.8282 14.8045 62.7849 13.7359C61.7155 12.6672 61.1677 11.364 61.1677 9.87837C61.1677 8.3927 61.7155 7.08949 62.7849 6.02085C63.8543 4.95222 65.1585 4.40486 66.6452 4.40486C68.132 4.40486 69.4362 4.95222 70.5056 6.02085C71.575 7.08949 72.1227 8.3927 72.1227 9.87837C72.1227 11.3901 71.575 12.6933 70.5056 13.7619Z" fill="#4B5563"/>
        <path id="Vector_5" d="M50.9704 2.9192C49.0402 0.990443 46.6666 0 43.9539 0C41.2413 0 38.8677 0.990443 36.9636 2.9192C35.0334 4.84796 34.0684 7.19374 34.0684 9.90443C34.0684 12.6151 35.0334 14.987 36.9636 16.8897C38.8938 18.8184 41.2413 19.7828 43.9539 19.7828C45.7798 19.7828 47.4491 19.3397 48.9098 18.4796L49.4314 18.1668V20.0434C49.4314 21.5552 48.8837 22.8584 47.8143 23.927C46.7449 24.9957 45.4407 25.543 43.9539 25.543C42.5715 25.543 41.3456 25.0738 40.3284 24.1616L37.1984 27.3154C39.0764 29.1138 41.3456 30 43.9539 30C46.6666 30 49.0141 29.0096 50.9443 27.0547C52.8484 25.126 53.8395 22.7802 53.8656 20.0956V19.9131V10.2954C53.8656 10.139 53.8656 9.98262 53.8656 9.8523C53.8656 7.19374 52.9005 4.82189 50.9704 2.9192ZM47.8404 13.7619C46.7709 14.8306 45.4668 15.3519 43.98 15.3519C42.4672 15.3519 41.163 14.8045 40.1197 13.7359C39.0503 12.6672 38.5025 11.364 38.5025 9.87837C38.5025 8.3927 39.0503 7.08949 40.1197 6.02085C41.163 4.95222 42.4672 4.43093 43.9539 4.43093C45.4407 4.43093 46.7449 4.97828 47.8143 6.04692C48.8837 7.11555 49.4314 8.41877 49.4314 9.90443C49.4314 11.3901 48.9098 12.6933 47.8404 13.7619Z" fill="#4B5563"/>
        <path id="Vector_6" d="M17.1142 2.9192C15.184 0.990443 12.8365 0 10.1238 0C7.38508 0 5.03758 0.990443 3.10741 2.9192C1.17724 4.82189 0.212158 7.19374 0.212158 9.90443C0.212158 12.6151 1.17724 14.987 3.10741 16.8897C4.93324 18.7142 7.17641 19.7046 9.73258 19.7828H13.0712V15.3519H9.75866C8.40232 15.2737 7.22858 14.7263 6.23741 13.7619C5.16799 12.6933 4.64633 11.3901 4.64633 9.90443C4.64633 8.41877 5.19408 7.11555 6.26349 6.04692C7.30683 4.95222 8.61099 4.43093 10.1238 4.43093C11.6106 4.43093 12.9147 4.97828 13.9842 6.04692C15.0536 7.08949 15.6013 8.3927 15.6013 9.90443V19.8089H20.0355V9.90443C20.0094 7.19374 19.0443 4.82189 17.1142 2.9192Z" fill="#4B5563"/>
        <path id="Vector_7" d="M33.1812 0.0782471H33.129C30.4163 0.0782471 28.0427 1.04263 26.1387 2.97138C24.2085 4.90014 23.2434 7.24593 23.2434 9.98268V19.8871H27.6776V9.98268C27.6776 8.47095 28.2253 7.16773 29.2947 6.12516C30.3642 5.05653 31.6683 4.50918 33.1551 4.50918H33.2072V0.0782471H33.1812Z" fill="#4B5563"/>
        <path id="Vector_8" d="M89.6512 0H79.7395V19.7828H84.1737V4.43093H89.6512C91.164 4.43093 92.4682 4.97828 93.5115 6.04692C94.5548 7.11555 95.1287 8.41877 95.1287 9.90443V19.8089H99.5628V9.90443C99.5628 7.19374 98.5977 4.82189 96.6676 2.9192C94.7374 0.964379 92.3638 0 89.6512 0Z" fill="#4B5563"/>
        <path id="Vector_9" d="M165.711 2.97138C163.781 1.04263 161.434 0.0782471 158.721 0.0782471C156.008 0.0782471 153.635 1.06869 151.731 2.99745C151.574 3.15383 151.418 3.31022 151.287 3.4666L151.026 3.75331C150.818 3.49267 150.583 3.25809 150.348 3.02351C148.418 1.09475 146.07 0.130376 143.358 0.130376H133.446V19.9132H137.88V4.53524H143.358C144.871 4.53524 146.175 5.08259 147.218 6.15123C148.288 7.21986 148.835 8.52308 148.835 10.0087V19.9132H153.269V10.0087C153.269 9.98268 153.269 9.95661 153.269 9.90448C153.296 8.44488 153.817 7.16773 154.861 6.12516C155.93 5.05653 157.234 4.50918 158.721 4.50918C160.208 4.50918 161.512 5.05653 162.581 6.12516C163.572 7.11561 164.094 8.2885 164.172 9.64384V10.1651H168.606V9.64384C168.528 7.03741 167.563 4.82195 165.711 2.97138Z" fill="#4B5563"/>
    </g>
</svg>