<svg width="206" height="41" viewBox="0 0 206 41" fill="none" xmlns="http://www.w3.org/2000/svg">
<path d="M113.925 24.3847L114.137 24.4377C116.198 24.8616 118.794 26.0567 121.096 27.6521C125.6 30.8135 129.161 29.8775 130.25 29.4654C129.232 29.589 128.184 29.2476 127.436 28.5058C126.418 27.4932 126.141 25.9978 126.695 24.4966C127.083 23.4545 127.907 22.6068 128.926 22.2241C131.251 21.3469 133.877 22.5303 134.778 24.8557C135.296 26.1921 135.26 27.6462 134.684 28.9532C134.118 30.2425 133.076 31.2374 131.787 31.7555C131.057 32.1382 125.9 34.34 119.542 29.8775C117.564 28.5058 115.285 27.4461 113.554 27.0869L113.307 27.0281C111.188 26.5336 108.974 27.1399 107.39 28.6588C105.907 30.0776 105.265 32.0145 105.63 33.9809C105.66 34.1398 105.695 34.2929 105.73 34.4459C106.078 35.7941 107.002 36.9068 108.327 37.5897C110.234 38.5611 112.083 38.5022 113.413 37.4425C114.591 36.5006 115.097 34.9405 114.714 33.4746C114.532 32.774 114.031 32.1676 113.342 31.8085C112.295 31.261 111.288 31.2669 110.581 31.8261C109.975 32.3089 109.71 33.1096 109.91 33.8631C110.093 34.5578 110.805 34.9817 111.494 34.7992C112.218 34.6108 112.96 35.0464 113.154 35.7706C113.342 36.5006 112.907 37.2424 112.183 37.4308C110.046 37.99 107.844 36.7007 107.279 34.5519C106.808 32.7563 107.438 30.8489 108.886 29.695C110.446 28.4528 112.583 28.3409 114.602 29.4006C115.968 30.113 116.963 31.3493 117.34 32.7858C117.993 35.2878 117.122 37.9488 115.109 39.5619C112.936 41.3045 109.934 41.4753 107.078 40.0094C105.083 38.985 103.629 37.207 103.087 35.1289C103.028 34.911 102.981 34.6873 102.94 34.4754C102.404 31.5965 103.334 28.7589 105.495 26.6984C106.213 26.0155 107.02 25.4562 107.885 25.0441C109.751 24.1551 111.871 23.9079 113.925 24.3847ZM132.193 27.8641C132.476 27.2165 132.493 26.4982 132.24 25.8389C131.875 24.8969 130.822 24.42 129.885 24.7733C129.585 24.891 129.367 25.1383 129.25 25.4503C129.073 25.9331 129.108 26.3334 129.35 26.5748C129.544 26.7631 129.827 26.8279 130.074 26.7278C130.774 26.457 131.563 26.8044 131.834 27.5049C131.952 27.817 131.952 28.1408 131.852 28.4351C131.987 28.2585 132.105 28.0701 132.193 27.8641Z" fill="url(#paint0_linear_136_501)"/>
<path d="M98.4131 25.0441C99.2785 25.4562 100.085 26.0155 100.803 26.6984C102.964 28.7648 103.894 31.5965 103.358 34.4754C103.317 34.6932 103.27 34.911 103.211 35.1289C102.669 37.2071 101.215 38.985 99.2196 40.0094C96.3643 41.4753 93.3618 41.3045 91.1894 39.5619C89.1819 37.9488 88.3047 35.2878 88.9582 32.7858C89.335 31.3493 90.3358 30.113 91.6957 29.4006C93.715 28.3409 95.8521 28.4528 97.4122 29.695C98.8605 30.8489 99.4904 32.7563 99.0194 34.5519C98.4542 36.6949 96.2583 37.9842 94.1154 37.4308C93.3912 37.2483 92.9556 36.5006 93.144 35.7706C93.3324 35.0464 94.0742 34.6108 94.8042 34.7992C95.493 34.9817 96.2053 34.5578 96.3879 33.8631C96.588 33.1096 96.3231 32.3089 95.7167 31.8261C95.0161 31.2669 94.0094 31.261 92.9556 31.8085C92.2668 32.1676 91.7664 32.7799 91.5839 33.4746C91.2012 34.9405 91.7134 36.4947 92.885 37.4425C94.2155 38.5022 96.0699 38.5611 97.9715 37.5897C99.2961 36.9127 100.22 35.7941 100.568 34.446C100.609 34.2929 100.644 34.1339 100.668 33.9809C101.033 32.0145 100.391 30.0776 98.9076 28.6588C97.318 27.1399 95.1103 26.5336 92.9909 27.0281L92.7437 27.0869C91.0128 27.4402 88.7345 28.5058 86.7564 29.8775C80.3982 34.34 75.241 32.1382 74.511 31.7555C73.2217 31.2374 72.1797 30.2425 71.6145 28.9532C71.0375 27.6462 71.0081 26.1921 71.5203 24.8557C72.4211 22.5302 75.0467 21.3469 77.3722 22.2241C78.3848 22.6068 79.2149 23.4545 79.6034 24.4966C80.1627 25.9978 79.886 27.4932 78.8616 28.5058C78.1081 29.2476 77.066 29.589 76.0475 29.4654C77.1367 29.8775 80.7043 30.8135 85.2022 27.6521C87.5041 26.0567 90.1003 24.8616 92.1608 24.4377L92.3728 24.3847C94.4451 23.9079 96.5586 24.1551 98.4131 25.0441ZM74.458 28.4351C74.3579 28.1408 74.3579 27.817 74.4757 27.5049C74.7465 26.8044 75.5354 26.457 76.2359 26.7278C76.4832 26.822 76.7717 26.7631 76.9601 26.5748C77.2073 26.3334 77.2427 25.9331 77.0602 25.4503C76.9424 25.1383 76.7187 24.891 76.4243 24.7733C75.4883 24.42 74.4286 24.9028 74.0694 25.8389C73.8163 26.4982 73.8281 27.2165 74.1166 27.8641C74.2049 28.0701 74.3226 28.2585 74.458 28.4351Z" fill="url(#paint1_linear_136_501)"/>
<path d="M60.7409 20.6232C62.8368 23.3313 65.6568 24.8678 68.5768 24.909C69.2951 24.9208 70.0192 24.8384 70.7315 24.6677C74.0696 23.8552 76.6305 21.1412 77.2487 17.7502C77.3193 17.3793 77.3546 17.0025 77.3605 16.6258C77.3841 15.0539 76.8601 13.482 75.8711 12.175C74.4346 10.2794 72.4624 9.18433 70.4019 9.1549C69.9073 9.14901 69.4069 9.20199 68.9065 9.31974C66.5516 9.87902 64.756 11.7865 64.3145 14.1708C64.2615 14.4593 64.2321 14.7477 64.2321 15.0362C64.1968 17.5206 65.9453 19.7401 68.4591 20.2111L68.465 20.2111C68.465 20.2111 68.465 20.2111 68.4708 20.2111L68.7122 20.2346C69.4069 20.2464 70.0192 19.7577 70.1605 19.0572L70.1605 19.0513C70.1605 19.0513 70.1605 19.0513 70.1605 19.0454L70.184 18.7981C70.1958 18.0976 69.7013 17.4794 68.9948 17.3499C67.8939 17.1497 67.1227 16.1665 67.1404 15.0774C67.1404 14.9479 67.1521 14.8243 67.1757 14.6948C67.4053 13.4408 68.3531 12.4458 69.5835 12.1515C69.8485 12.0867 70.1075 12.0632 70.3665 12.0632C71.4792 12.0808 72.6096 12.699 73.5574 13.9353C74.1579 14.7242 74.4699 15.6661 74.4523 16.5787C74.4464 16.7906 74.4287 17.0084 74.3875 17.2204C73.9695 19.481 72.2622 21.2943 70.0427 21.8359C69.5541 21.9537 69.0713 22.0125 68.5827 22.0008C66.5987 21.9713 64.6383 20.8999 63.0311 18.8335C61.9302 17.4088 61.3709 15.778 61.3944 14.1296C61.4003 13.7351 61.4416 13.3348 61.5122 12.9404C61.5534 12.7108 61.6064 12.4812 61.6652 12.2575C62.4129 9.39627 64.4676 7.21801 67.3523 6.24073C68.4061 5.8875 69.4835 5.72266 70.5549 5.74032C72.6037 5.76975 74.6053 6.46444 76.2537 7.76552L76.5599 8.00689L76.5657 8.01278L76.5716 8.01866C78.5262 9.46691 80.8634 12.2516 82.5884 15.2128L82.5884 15.2069C85.0904 19.5752 88.1341 21.9478 90.748 23.2135C93.3678 24.4793 95.5579 24.6441 96.388 24.6559C96.4939 24.6559 96.5764 24.6559 96.6352 24.6559C96.7412 24.6618 96.8471 24.6677 96.9531 24.6677L97.1239 24.6677C98.7958 24.65 100.397 24.0436 101.669 22.9309C102.046 22.6013 102.375 22.2421 102.67 21.8477C102.97 22.2304 103.311 22.5895 103.688 22.9074C104.936 23.9612 106.484 24.5323 108.098 24.5558L108.268 24.5558C108.427 24.5558 108.586 24.544 108.745 24.5323C109.24 24.5382 111.383 24.4793 114.067 23.2489C116.775 22.0067 120.025 19.5576 122.621 14.8302L122.621 14.836C124.287 11.8395 126.578 9.00772 128.526 7.50648L128.538 7.49471L128.815 7.2651C130.563 5.83452 132.73 5.09862 134.931 5.12806C135.85 5.13983 136.78 5.28701 137.681 5.57548C140.589 6.49977 142.685 8.63683 143.486 11.4862C143.55 11.71 143.603 11.9395 143.65 12.1691C143.756 12.6754 143.803 13.1876 143.798 13.6939C143.774 15.2246 143.25 16.7435 142.249 18.0858C140.607 20.2817 138.564 21.3885 136.48 21.3591C136.085 21.3532 135.691 21.3061 135.296 21.2178C133.065 20.7174 131.323 18.9394 130.863 16.6846C130.81 16.4138 130.781 16.1371 130.787 15.8604C130.799 15.0009 131.093 14.1296 131.635 13.3819C132.6 12.0691 133.772 11.4332 134.937 11.445C135.149 11.4509 135.361 11.4745 135.573 11.5157C136.809 11.7865 137.775 12.7696 138.028 14.0177C138.063 14.1826 138.075 14.3474 138.075 14.5064C138.058 15.5543 137.322 16.4904 136.262 16.7082C135.579 16.8495 135.108 17.4441 135.102 18.1093C135.102 18.2094 135.108 18.3154 135.132 18.4214C135.273 19.1043 135.862 19.5752 136.533 19.587C136.639 19.587 136.745 19.5811 136.845 19.5576C139.264 19.0631 140.948 16.9378 140.984 14.5535C140.989 14.1885 140.954 13.8117 140.878 13.4408C140.395 11.0682 138.558 9.19611 136.197 8.67804C135.797 8.58973 135.391 8.54263 134.99 8.53674C132.824 8.50142 130.757 9.64942 129.286 11.6628C128.391 12.8933 127.902 14.3474 127.879 15.8133C127.873 16.2961 127.914 16.7847 128.014 17.2616C128.703 20.6408 131.311 23.3018 134.661 24.0554C135.244 24.1849 135.826 24.2556 136.409 24.2615C139.47 24.3086 142.438 22.6955 144.575 19.8225C145.929 18.0034 146.665 15.8545 146.694 13.6939C146.706 12.9875 146.641 12.2751 146.494 11.5804C146.435 11.2802 146.364 10.9858 146.282 10.6915C145.222 6.89422 142.391 4.0036 138.558 2.79672C137.381 2.42583 136.168 2.23156 134.967 2.2139C132.088 2.17269 129.25 3.1323 126.966 5.01032L126.707 5.22225C124.399 7.01196 121.95 10.0498 120.072 13.4113L120.072 13.4172C117.776 17.5971 114.997 19.6282 112.76 20.6349C110.523 21.6417 108.839 21.6181 108.728 21.6181L108.716 21.6181L108.598 21.6181L108.58 21.6181L108.563 21.6181C108.416 21.6299 108.274 21.6358 108.127 21.6358C107.185 21.624 106.29 21.2884 105.554 20.6703C104.707 19.952 104.188 18.9571 104.088 17.8444C104.077 17.7384 104.077 17.6325 104.077 17.5324C104.1 16.0135 105.266 14.7065 106.797 14.5593L106.979 14.5535C107.462 14.5593 107.98 14.7713 108.368 15.1363C108.904 15.6426 109.134 16.1783 109.128 16.6493C109.128 16.7965 109.098 16.9437 109.051 17.0908C108.869 17.6148 108.392 17.9916 107.844 18.0387C107.097 18.1093 106.532 18.7275 106.52 19.4634L106.526 19.6106L106.526 19.6165C106.596 20.3759 107.232 20.9293 107.962 20.9411L108.103 20.9352C109.793 20.7821 111.241 19.6518 111.801 18.0505C111.954 17.6089 112.036 17.1497 112.042 16.6964C112.06 15.3659 111.459 14.0589 110.376 13.0287C109.458 12.1633 108.251 11.6687 107.026 11.6511C106.861 11.6511 106.691 11.657 106.52 11.6687C106.025 11.7158 105.56 11.8453 105.113 12.0043C105.707 11.4568 106.131 10.715 106.29 9.84958C106.361 9.46103 106.396 9.06659 106.402 8.67214C106.426 6.75292 105.772 4.81014 105.107 3.30302C104.442 1.80178 103.765 0.742092 103.688 0.630236C103.405 0.20047 102.935 0.00618743 102.493 0.000299404C102.028 -0.00558671 101.527 0.194578 101.233 0.65378C101.168 0.75975 100.544 1.76646 99.9262 3.20294C99.308 4.63942 98.6899 6.49977 98.6604 8.35424C98.6545 8.8782 98.6957 9.40805 98.8017 9.92024C98.9724 10.7798 99.414 11.5157 100.009 12.0514C99.5612 11.8983 99.0961 11.7865 98.6074 11.7453L98.6016 11.7453C98.5133 11.7394 98.419 11.7335 98.3248 11.7335C97.0238 11.7158 95.7345 12.2398 94.7807 13.1759C93.7681 14.1708 93.1971 15.4071 93.1794 16.667C93.1736 17.1909 93.2619 17.7149 93.4444 18.2271C94.0331 19.8166 95.4931 20.9175 97.1768 21.0412L97.1886 21.0412C97.1886 21.0412 97.1886 21.0412 97.1945 21.0412L97.2652 21.047C98.0364 21.0647 98.6781 20.476 98.737 19.7165L98.7429 19.7165L98.7429 19.6989C98.7429 19.6989 98.7429 19.6989 98.7429 19.693L98.7487 19.6106C98.7605 18.8452 98.1718 18.1976 97.3947 18.1388C96.8471 18.1034 96.3644 17.7384 96.1701 17.2145C96.1113 17.0496 96.0818 16.8789 96.0818 16.7082C96.0877 16.2549 96.3114 15.7427 96.8118 15.2482C97.218 14.8478 97.7655 14.63 98.2718 14.6359L98.372 14.6418C99.9556 14.7654 101.174 16.1312 101.151 17.7149L101.145 17.8797C101.068 18.9924 100.568 19.9991 99.7319 20.7291C98.9548 21.4062 97.9834 21.7653 96.9649 21.7476L96.7353 21.7358L96.7177 21.7358L96.5881 21.7358L96.5764 21.7358L96.5646 21.7358C96.5587 21.7358 96.4939 21.7358 96.3997 21.7358C95.8522 21.73 94.1037 21.6181 91.9608 20.5702C89.8178 19.5223 87.2628 17.5442 85.0845 13.741L85.0845 13.7351C83.1476 10.4148 80.6397 7.42406 78.3201 5.69322L78.0375 5.46951C75.8769 3.76811 73.2572 2.86148 70.5844 2.82027C69.1891 2.79672 67.7761 3.01455 66.4103 3.47375C62.6013 4.75127 59.8225 7.69487 58.8335 11.5098C58.757 11.8041 58.6922 12.0985 58.6333 12.3987C58.5333 12.9404 58.4803 13.4938 58.4685 14.0413C58.4685 16.3785 59.2515 18.698 60.7409 20.6232ZM102.558 10.1086L102.552 10.1086C102.369 10.1086 102.175 10.0498 102.028 9.9379C101.881 9.82604 101.751 9.66119 101.681 9.34328C101.622 9.04304 101.592 8.71336 101.598 8.3719C101.61 7.15325 102.046 5.75799 102.522 4.6041C103.07 5.88162 103.547 7.38874 103.523 8.63094C103.517 8.87231 103.5 9.10191 103.459 9.31974C103.394 9.64942 103.264 9.81426 103.117 9.932C102.964 10.0439 102.77 10.1027 102.581 10.1027L102.558 10.1086ZM102.505 13.0169L102.605 13.0169C102.917 13.0169 103.217 12.9639 103.511 12.8933C103.182 13.1523 102.887 13.4467 102.617 13.7705C102.34 13.4526 102.034 13.17 101.698 12.9168C101.957 12.9698 102.222 13.011 102.505 13.0169Z" fill="url(#paint2_linear_136_501)"/>
<path d="M1.86308 20.1278L69.0243 20.1278C69.6071 20.1278 70.084 19.6568 70.084 19.0681C70.084 18.4853 69.613 18.0084 69.0243 18.0084L1.86308 18.0084C1.28025 18.0084 0.80336 18.4853 0.80336 19.0681C0.80925 19.6568 1.28025 20.1278 1.86308 20.1278Z" fill="url(#paint3_linear_136_501)"/>
<path d="M136.975 19.598L204.137 19.598C204.719 19.598 205.196 19.127 205.196 18.5383C205.196 17.9555 204.725 17.4786 204.137 17.4786L136.975 17.4786C136.393 17.4786 135.916 17.9555 135.916 18.5383C135.916 19.127 136.387 19.598 136.975 19.598Z" fill="url(#paint4_linear_136_501)"/>
<defs>
<linearGradient id="paint0_linear_136_501" x1="349.28" y1="-101.534" x2="-271.006" y2="249.795" gradientUnits="userSpaceOnUse">
<stop stop-color="#EEDEBC"/>
<stop offset="0.059" stop-color="#DDC6A3"/>
<stop offset="0.1398" stop-color="#C9A885"/>
<stop offset="0.2581" stop-color="#9A7A5F"/>
<stop offset="0.3602" stop-color="#C9A885"/>
<stop offset="0.4892" stop-color="#EEDEBC"/>
<stop offset="0.5415" stop-color="#DDC6A3"/>
<stop offset="0.6129" stop-color="#C9A885"/>
<stop offset="0.7204" stop-color="#9A7A5F"/>
<stop offset="0.8387" stop-color="#C9A885"/>
<stop offset="1" stop-color="#EEDEBC"/>
</linearGradient>
<linearGradient id="paint1_linear_136_501" x1="342.379" y1="-113.717" x2="-277.906" y2="237.612" gradientUnits="userSpaceOnUse">
<stop stop-color="#EEDEBC"/>
<stop offset="0.059" stop-color="#DDC6A3"/>
<stop offset="0.1398" stop-color="#C9A885"/>
<stop offset="0.2581" stop-color="#9A7A5F"/>
<stop offset="0.3602" stop-color="#C9A885"/>
<stop offset="0.4892" stop-color="#EEDEBC"/>
<stop offset="0.5415" stop-color="#DDC6A3"/>
<stop offset="0.6129" stop-color="#C9A885"/>
<stop offset="0.7204" stop-color="#9A7A5F"/>
<stop offset="0.8387" stop-color="#C9A885"/>
<stop offset="1" stop-color="#EEDEBC"/>
</linearGradient>
<linearGradient id="paint2_linear_136_501" x1="338.817" y1="-120.009" x2="-281.469" y2="231.321" gradientUnits="userSpaceOnUse">
<stop stop-color="#EEDEBC"/>
<stop offset="0.059" stop-color="#DDC6A3"/>
<stop offset="0.1398" stop-color="#C9A885"/>
<stop offset="0.2581" stop-color="#9A7A5F"/>
<stop offset="0.3602" stop-color="#C9A885"/>
<stop offset="0.4892" stop-color="#EEDEBC"/>
<stop offset="0.5415" stop-color="#DDC6A3"/>
<stop offset="0.6129" stop-color="#C9A885"/>
<stop offset="0.7204" stop-color="#9A7A5F"/>
<stop offset="0.8387" stop-color="#C9A885"/>
<stop offset="1" stop-color="#EEDEBC"/>
</linearGradient>
<linearGradient id="paint3_linear_136_501" x1="324.773" y1="-144.805" x2="-295.515" y2="206.525" gradientUnits="userSpaceOnUse">
<stop stop-color="#EEDEBC"/>
<stop offset="0.059" stop-color="#DDC6A3"/>
<stop offset="0.1398" stop-color="#C9A885"/>
<stop offset="0.2581" stop-color="#9A7A5F"/>
<stop offset="0.3602" stop-color="#C9A885"/>
<stop offset="0.4892" stop-color="#EEDEBC"/>
<stop offset="0.5415" stop-color="#DDC6A3"/>
<stop offset="0.6129" stop-color="#C9A885"/>
<stop offset="0.7204" stop-color="#9A7A5F"/>
<stop offset="0.8387" stop-color="#C9A885"/>
<stop offset="1" stop-color="#EEDEBC"/>
</linearGradient>
<linearGradient id="paint4_linear_136_501" x1="357.363" y1="-87.2663" x2="-262.924" y2="264.064" gradientUnits="userSpaceOnUse">
<stop stop-color="#EEDEBC"/>
<stop offset="0.059" stop-color="#DDC6A3"/>
<stop offset="0.1398" stop-color="#C9A885"/>
<stop offset="0.2581" stop-color="#9A7A5F"/>
<stop offset="0.3602" stop-color="#C9A885"/>
<stop offset="0.4892" stop-color="#EEDEBC"/>
<stop offset="0.5415" stop-color="#DDC6A3"/>
<stop offset="0.6129" stop-color="#C9A885"/>
<stop offset="0.7204" stop-color="#9A7A5F"/>
<stop offset="0.8387" stop-color="#C9A885"/>
<stop offset="1" stop-color="#EEDEBC"/>
</linearGradient>
</defs>
</svg>
