<svg width="17" height="17" viewBox="0 0 17 17" fill="none" xmlns="http://www.w3.org/2000/svg">
<path d="M3.125 8.50833C2.95932 8.50833 2.825 8.37402 2.825 8.20833V3.125C2.825 2.95931 2.95931 2.825 3.125 2.825H6.79167C6.95735 2.825 7.09167 2.95931 7.09167 3.125V8.20833C7.09167 8.37402 6.95735 8.50833 6.79167 8.50833H3.125ZM3.125 14.175C2.95931 14.175 2.825 14.0407 2.825 13.875V11.625C2.825 11.4593 2.95931 11.325 3.125 11.325H6.79167C6.95735 11.325 7.09167 11.4593 7.09167 11.625V13.875C7.09167 14.0407 6.95735 14.175 6.79167 14.175H3.125ZM10.2083 14.175C10.0426 14.175 9.90833 14.0407 9.90833 13.875V8.79167C9.90833 8.62598 10.0426 8.49167 10.2083 8.49167H13.875C14.0407 8.49167 14.175 8.62598 14.175 8.79167V13.875C14.175 14.0407 14.0407 14.175 13.875 14.175H10.2083ZM9.90833 3.125C9.90833 2.95931 10.0426 2.825 10.2083 2.825H13.875C14.0407 2.825 14.175 2.95931 14.175 3.125V5.375C14.175 5.54069 14.0407 5.675 13.875 5.675H10.2083C10.0426 5.675 9.90833 5.54069 9.90833 5.375V3.125Z" stroke="white" stroke-width="1.4"/>
</svg>
