<svg width="17" height="17" viewBox="0 0 17 17" fill="none" xmlns="http://www.w3.org/2000/svg">
<path d="M2.12435 3.53301H14.8743C14.8755 3.53301 14.8755 3.53311 14.8757 3.53317C14.8763 3.53343 14.8779 3.53428 14.8796 3.53606C14.8814 3.53783 14.8823 3.53939 14.8825 3.54002C14.8826 3.54015 14.8827 3.54018 14.8827 3.54134V13.458C14.8827 13.459 14.8826 13.4592 14.8825 13.4593L14.8825 13.4593C14.8823 13.46 14.8814 13.4615 14.8796 13.4633C14.8779 13.4651 14.8763 13.4659 14.8757 13.4662C14.8756 13.4662 14.8756 13.4662 14.8755 13.4662C14.8754 13.4663 14.8751 13.4663 14.8743 13.4663H2.12435C2.12319 13.4663 2.12316 13.4662 2.12303 13.4662C2.1224 13.4659 2.12084 13.4651 2.11906 13.4633C2.11729 13.4615 2.11644 13.46 2.11618 13.4593C2.11612 13.4592 2.11602 13.4592 2.11602 13.458V3.54134C2.11602 3.54033 2.11609 3.54018 2.11615 3.54007C2.11616 3.54005 2.11617 3.54004 2.11618 3.54002C2.11644 3.53939 2.11729 3.53783 2.11906 3.53606C2.12084 3.53428 2.1224 3.53343 2.12303 3.53317C2.12304 3.53316 2.12306 3.53315 2.12308 3.53315C2.12319 3.53309 2.12334 3.53301 2.12435 3.53301Z" stroke="white" stroke-width="1.4"/>
<rect x="5.52539" y="2.83301" width="0.991667" height="11.3333" fill="white"/>
<rect x="10.4824" y="2.83301" width="0.991667" height="11.3333" fill="white"/>
</svg>
