<svg width="30" height="30" viewBox="0 0 30 30" fill="none" xmlns="http://www.w3.org/2000/svg">
<path d="M24.375 9.375V11.25H28.125V28.125H11.25V24.375H9.375V30H30V9.375H24.375Z" fill="#86868B"/>
<path d="M20.625 0H18.75V1.875H20.625V0Z" fill="#86868B"/>
<path d="M5.625 0H3.75V1.875H5.625V0Z" fill="#86868B"/>
<path d="M9.375 0H7.5V1.875H9.375V0Z" fill="#86868B"/>
<path d="M5.625 18.75H3.75V20.625H5.625V18.75Z" fill="#86868B"/>
<path d="M13.125 0H11.25V1.875H13.125V0Z" fill="#86868B"/>
<path d="M16.875 0H15V1.875H16.875V0Z" fill="#86868B"/>
<path d="M1.875 0H0V1.875H1.875V0Z" fill="#86868B"/>
<path d="M1.875 11.25H0V13.125H1.875V11.25Z" fill="#86868B"/>
<path d="M1.875 15H0V16.875H1.875V15Z" fill="#86868B"/>
<path d="M1.875 7.5H0V9.375H1.875V7.5Z" fill="#86868B"/>
<path d="M1.875 3.75H0V5.625H1.875V3.75Z" fill="#86868B"/>
<path d="M20.625 3.75H18.75V5.625H20.625V3.75Z" fill="#86868B"/>
<path d="M1.875 18.75H0V20.625H1.875V18.75Z" fill="#86868B"/>
<path d="M14.8993 22.6925L17.3293 25.1244L25.9478 16.5059L23.4522 14.0112L22.1247 10.0306L17.5506 5.45654L8.30403 9.26467C6.86749 9.85559 6.182 11.4991 6.77292 12.9356C6.79261 12.9835 6.81358 13.0308 6.83591 13.0775L6.72341 13.1909C5.25891 14.6554 5.25885 17.0297 6.72329 18.4942C6.72335 18.4943 6.72341 18.4944 6.72341 18.4944L10.2578 22.0297L14.8993 22.6925ZM7.49966 15.8431C7.49831 15.3456 7.69612 14.8682 8.04903 14.5175L11.364 17.8325L12.6897 16.5059L8.71184 12.5281C8.34557 12.1621 8.3454 11.5685 8.71137 11.2023C8.79891 11.1147 8.90298 11.0453 9.01747 10.9981L17.109 7.66717L20.484 11.0422L21.8097 15.02L23.2928 16.5022L17.3256 22.4694L15.7787 20.9225L11.139 20.2597L8.04528 17.1659C7.69419 16.8154 7.49778 16.3392 7.49966 15.8431Z" fill="#86868B"/>
</svg>
