<svg width="17" height="17" viewBox="0 0 17 17" fill="none" xmlns="http://www.w3.org/2000/svg">
<path d="M13.7639 9.19449C13.7922 8.96783 13.8135 8.74116 13.8135 8.50033C13.8135 8.25949 13.7922 8.03283 13.7639 7.80616L15.2585 6.63741C15.3931 6.53116 15.4285 6.33991 15.3435 6.18408L13.9268 3.73324C13.8631 3.61991 13.7427 3.55616 13.6152 3.55616C13.5727 3.55616 13.5302 3.56324 13.4947 3.57741L11.731 4.28574C11.3627 4.00241 10.966 3.76866 10.5339 3.59158L10.2647 1.71449C10.2435 1.54449 10.0947 1.41699 9.91765 1.41699H7.08432C6.90723 1.41699 6.75848 1.54449 6.73723 1.71449L6.46807 3.59158C6.03598 3.76866 5.63932 4.00949 5.27098 4.28574L3.50723 3.57741C3.46473 3.56324 3.42223 3.55616 3.37973 3.55616C3.25932 3.55616 3.1389 3.61991 3.07515 3.73324L1.65848 6.18408C1.5664 6.33991 1.6089 6.53116 1.74348 6.63741L3.23807 7.80616C3.20974 8.03283 3.18848 8.26658 3.18848 8.50033C3.18848 8.73408 3.20974 8.96783 3.23807 9.19449L1.74348 10.3632C1.6089 10.4695 1.57348 10.6607 1.65848 10.8166L3.07515 13.2674C3.1389 13.3807 3.25932 13.4445 3.38682 13.4445C3.42932 13.4445 3.47182 13.4374 3.50723 13.4232L5.27098 12.7149C5.63932 12.9982 6.03598 13.232 6.46807 13.4091L6.73723 15.2862C6.75848 15.4562 6.90723 15.5837 7.08432 15.5837H9.91765C10.0947 15.5837 10.2435 15.4562 10.2647 15.2862L10.5339 13.4091C10.966 13.232 11.3627 12.9912 11.731 12.7149L13.4947 13.4232C13.5372 13.4374 13.5797 13.4445 13.6222 13.4445C13.7427 13.4445 13.8631 13.3807 13.9268 13.2674L15.3435 10.8166C15.4285 10.6607 15.3931 10.4695 15.2585 10.3632L13.7639 9.19449ZM12.3614 7.98324C12.3897 8.20283 12.3968 8.35158 12.3968 8.50033C12.3968 8.64908 12.3827 8.80491 12.3614 9.01741L12.2622 9.81783L12.8927 10.3137L13.6577 10.9087L13.1618 11.7657L12.2622 11.4045L11.5256 11.107L10.8881 11.5887C10.5835 11.8153 10.2931 11.9853 10.0027 12.1057L9.25182 12.4103L9.13848 13.2107L8.99682 14.167H8.00515L7.87057 13.2107L7.75724 12.4103L7.0064 12.1057C6.70182 11.9782 6.41848 11.8153 6.13515 11.6028L5.49057 11.107L4.73973 11.4116L3.84015 11.7728L3.34432 10.9157L4.10932 10.3207L4.73973 9.82491L4.64057 9.02449C4.61932 8.80491 4.60515 8.64199 4.60515 8.50033C4.60515 8.35866 4.61932 8.19574 4.64057 7.98324L4.73973 7.18283L4.10932 6.68699L3.34432 6.09199L3.84015 5.23491L4.73973 5.59616L5.4764 5.89366L6.1139 5.41199C6.41848 5.18533 6.7089 5.01533 6.99932 4.89491L7.75015 4.59033L7.86349 3.78991L8.00515 2.83366H8.98973L9.12432 3.78991L9.23765 4.59033L9.98849 4.89491C10.2931 5.02241 10.5764 5.18533 10.8597 5.39783L11.5043 5.89366L12.2552 5.58908L13.1547 5.22783L13.6506 6.08491L12.8927 6.68699L12.2622 7.18283L12.3614 7.98324ZM8.50099 5.66699C6.93557 5.66699 5.66765 6.93491 5.66765 8.50033C5.66765 10.0657 6.93557 11.3337 8.50099 11.3337C10.0664 11.3337 11.3343 10.0657 11.3343 8.50033C11.3343 6.93491 10.0664 5.66699 8.50099 5.66699ZM8.50099 9.91699C7.72182 9.91699 7.08432 9.27949 7.08432 8.50033C7.08432 7.72116 7.72182 7.08366 8.50099 7.08366C9.28015 7.08366 9.91765 7.72116 9.91765 8.50033C9.91765 9.27949 9.28015 9.91699 8.50099 9.91699Z" fill="white"/>
</svg>
