<svg width="17" height="17" viewBox="0 0 17 17" fill="none" xmlns="http://www.w3.org/2000/svg">
<path d="M16.2923 5.66667C16.2923 6.44583 15.6548 7.08333 14.8757 7.08333C14.7482 7.08333 14.6277 7.06917 14.5144 7.03375L11.9927 9.54833C12.0282 9.66167 12.0423 9.78917 12.0423 9.91667C12.0423 10.6958 11.4048 11.3333 10.6257 11.3333C9.84648 11.3333 9.20898 10.6958 9.20898 9.91667C9.20898 9.78917 9.22315 9.66167 9.25857 9.54833L7.45232 7.74208C7.33898 7.7775 7.21148 7.79167 7.08398 7.79167C6.95648 7.79167 6.82898 7.7775 6.71565 7.74208L3.49273 10.9721C3.52815 11.0854 3.54232 11.2058 3.54232 11.3333C3.54232 12.1125 2.90482 12.75 2.12565 12.75C1.34648 12.75 0.708984 12.1125 0.708984 11.3333C0.708984 10.5542 1.34648 9.91667 2.12565 9.91667C2.25315 9.91667 2.37357 9.93083 2.4869 9.96625L5.7169 6.74333C5.68148 6.63 5.66732 6.5025 5.66732 6.375C5.66732 5.59583 6.30482 4.95833 7.08398 4.95833C7.86315 4.95833 8.50065 5.59583 8.50065 6.375C8.50065 6.5025 8.48648 6.63 8.45107 6.74333L10.2573 8.54958C10.3707 8.51417 10.4982 8.5 10.6257 8.5C10.7532 8.5 10.8807 8.51417 10.994 8.54958L13.5086 6.02792C13.4732 5.91458 13.459 5.79417 13.459 5.66667C13.459 4.8875 14.0965 4.25 14.8757 4.25C15.6548 4.25 16.2923 4.8875 16.2923 5.66667Z" fill="white"/>
</svg>
