<svg width="64" height="64" viewBox="0 0 64 64" fill="none" xmlns="http://www.w3.org/2000/svg">
<g id="Chevron right">
<path id="Vector" d="M34.3666 31.1667L23.9666 20.7667C23.4777 20.2778 23.2333 19.6555 23.2333 18.9C23.2333 18.1444 23.4777 17.5222 23.9666 17.0333C24.4555 16.5444 25.0777 16.3 25.8333 16.3C26.5888 16.3 27.211 16.5444 27.6999 17.0333L39.9666 29.3C40.4999 29.8333 40.7666 30.4555 40.7666 31.1667C40.7666 31.8778 40.4999 32.5 39.9666 33.0333L27.6999 45.3C27.211 45.7889 26.5888 46.0333 25.8333 46.0333C25.0777 46.0333 24.4555 45.7889 23.9666 45.3C23.4777 44.8111 23.2333 44.1889 23.2333 43.4333C23.2333 42.6778 23.4777 42.0555 23.9666 41.5667L34.3666 31.1667Z" fill="#fb2f39"/>
</g>
</svg>
