<svg width="60" height="61" viewBox="0 0 60 61" fill="none" xmlns="http://www.w3.org/2000/svg">
<circle cx="30" cy="30.0774" r="29" fill="white" stroke="#C17210" stroke-width="2"/>
<path d="M29.4997 13.75L29.5003 13.75C32.8801 13.754 36.1206 15.0924 38.5109 17.472C40.9011 19.8515 42.246 23.0781 42.25 26.4438V26.4441C42.25 31.0265 40.101 35.8825 36.087 40.4749C34.266 42.5636 32.2219 44.4486 29.9908 46.0965L29.9822 46.1029L29.9821 46.1027C29.8397 46.1987 29.6718 46.25 29.5 46.25C29.3282 46.25 29.1603 46.1987 29.0179 46.1027L29.0091 46.0967L29.0092 46.0965C26.7781 44.4486 24.734 42.5636 22.913 40.4749L29.4997 13.75ZM29.4997 13.75C26.1199 13.754 22.8794 15.0924 20.4891 17.472C18.0988 19.8515 16.754 23.0781 16.75 26.4438V26.4441M29.4997 13.75L16.75 26.4441M16.75 26.4441C16.75 31.0264 18.8989 35.8824 22.9129 40.4748L16.75 26.4441ZM34.8328 39.3456L34.832 39.3466C33.2311 41.192 31.4445 42.8692 29.5003 44.3518C27.559 42.8653 25.7725 41.1884 24.1677 39.3462L24.1676 39.3462C21.5447 36.3367 18.4405 31.6694 18.4405 26.4441C18.4405 23.5247 19.6054 20.7247 21.6793 18.66C23.7533 16.5953 26.5665 15.4352 29.5 15.4352C32.4335 15.4352 35.2467 16.5953 37.3207 18.66C39.3946 20.7247 40.5595 23.5247 40.5595 26.4441C40.5595 31.6697 37.4698 36.337 34.8328 39.3456ZM29.5 20.8609C28.3913 20.8609 27.3073 21.1882 26.3853 21.8016C25.4632 22.4149 24.7444 23.2868 24.3198 24.3071C23.8953 25.3275 23.7842 26.4503 24.0006 27.5335C24.2171 28.6168 24.7513 29.6117 25.5355 30.3924C26.3198 31.1731 27.3188 31.7047 28.4063 31.9201C29.4938 32.1354 30.621 32.0249 31.6454 31.6024C32.6698 31.18 33.5456 30.4646 34.1619 29.5464C34.7781 28.6282 35.1071 27.5486 35.1071 26.4441C35.1071 24.963 34.5161 23.5428 33.4645 22.4958C32.4128 21.4489 30.9867 20.8609 29.5 20.8609ZM29.4997 30.3421C28.7249 30.3421 27.9676 30.1133 27.3236 29.6849C26.6795 29.2565 26.1776 28.6476 25.8813 27.9355C25.585 27.2233 25.5075 26.4398 25.6585 25.6838C25.8096 24.9279 26.1824 24.2334 26.7301 23.6882C27.2778 23.1429 27.9757 22.7715 28.7357 22.621C29.4957 22.4705 30.2834 22.5478 30.9992 22.8429C31.715 23.1381 32.3266 23.6379 32.7569 24.2789C33.187 24.9198 33.4166 25.6732 33.4167 26.4437C33.4128 27.4761 32.9992 28.4654 32.2656 29.1957C31.5319 29.9261 30.5377 30.3383 29.4997 30.3421Z" fill="#C17210" stroke="#C17210" stroke-width="0.5"/>
</svg>
