<svg width="40" height="40" viewBox="0 0 40 40" fill="none" xmlns="http://www.w3.org/2000/svg">
<path d="M0.000959543 28.8731C0.000959543 22.9894 0.000959543 17.1067 0.000959543 11.2231C0.516344 12.1634 1.12212 12.5211 1.88077 12.3327C2.69904 12.1298 3.07019 11.5288 3.07019 10.4058C3.07019 8.92018 3.07019 7.4346 3.07019 5.94806C3.07019 5.78172 3.07019 5.61441 3.07019 5.35287C3.27788 5.55095 3.40385 5.66633 3.525 5.78749C6.50769 8.76922 9.48943 11.7519 12.4721 14.7346C12.5962 14.8586 12.7163 14.9894 12.8529 15.099C13.7135 15.7894 14.9731 15.3904 15.2798 14.3298C15.4692 13.674 15.2327 13.1529 14.7673 12.6884C11.7356 9.66537 8.71058 6.63556 5.68365 3.60768C5.56538 3.48941 5.45385 3.36249 5.27019 3.16537C5.52019 3.16537 5.67308 3.16537 5.825 3.16537C7.43846 3.16537 9.05192 3.16922 10.6654 3.16345C11.3788 3.16056 11.9375 2.78941 12.1721 2.1846C12.574 1.14999 11.8183 0.100946 10.651 0.0980618C7.75962 0.091331 4.86731 0.119216 1.97596 0.0817158C1.03558 0.0692158 0.372115 0.371139 0 1.24614C0 0.830754 0 0.414408 0 -0.000976562C13.3337 -0.000976562 26.6663 -0.000976562 40 -0.000976562C40 13.3327 40 26.6654 40 39.999C39.5846 39.999 39.1683 39.999 38.7529 39.999C39.6221 39.6221 39.9298 38.9625 39.9173 38.0202C39.8798 35.1452 39.9058 32.2683 39.9019 29.3923C39.901 28.4163 39.2596 27.724 38.3731 27.7221C37.4817 27.7192 36.8394 28.4067 36.8356 29.3817C36.8308 30.4846 36.8346 31.5865 36.8346 32.6894C36.8346 33.3375 36.8346 33.9856 36.8346 34.7308C36.6375 34.5471 36.5106 34.4356 36.3913 34.3163C33.3962 31.3231 30.4029 28.3288 27.4087 25.3365C27.2846 25.2125 27.1635 25.0817 27.025 24.9759C26.1673 24.3154 24.9375 24.7134 24.6288 25.7529C24.4337 26.4067 24.6625 26.9308 25.1288 27.3961C28.1721 30.4317 31.2096 33.4721 34.2481 36.5115C34.3625 36.6259 34.4712 36.7471 34.6423 36.9308C34.4154 36.9308 34.3038 36.9308 34.1923 36.9308C32.5308 36.9308 30.8692 36.9259 29.2077 36.9336C28.4298 36.9375 27.8413 37.4019 27.6654 38.1211C27.4952 38.8163 27.8404 39.5077 28.5346 39.8634C28.6173 39.9058 28.6962 39.9548 28.7769 40C22.8933 40 17.0106 40 11.1269 40C11.1481 39.9779 11.1654 39.9461 11.1913 39.9336C12.0288 39.5365 12.4067 38.9058 12.249 38.1663C12.0808 37.3769 11.4519 36.9317 10.499 36.9308C8.91635 36.9298 7.33365 36.9308 5.75096 36.9288C5.61827 36.9288 5.48461 36.9106 5.29134 36.8971C5.44904 36.7308 5.55481 36.6144 5.66538 36.5038C8.64904 33.5192 11.6337 30.5356 14.6173 27.5509C14.7529 27.4154 14.899 27.2865 15.0135 27.1336C15.3788 26.6471 15.4567 26.1106 15.2029 25.5538C14.9577 25.0163 14.5212 24.7173 13.9337 24.6625C13.3798 24.6115 12.9596 24.8663 12.5779 25.249C9.55289 28.2836 6.52212 31.3106 3.49231 34.3404C3.37692 34.4558 3.25577 34.5663 3.06827 34.7452C3.06827 32.9817 3.06827 31.3365 3.06827 29.6913C3.06827 28.5702 2.69327 27.9634 1.87788 27.7625C1.11827 27.575 0.515383 27.9308 0.000959543 28.8731ZM36.8356 5.33364C36.8356 5.61826 36.8356 5.7721 36.8356 5.92595C36.8356 7.49133 36.8346 9.05768 36.8365 10.6231C36.8375 11.6759 37.4635 12.3798 38.3837 12.3721C39.2865 12.3644 39.9038 11.6683 39.9038 10.6442C39.9058 7.70479 39.9058 4.76441 39.9038 1.82499C39.9029 0.712486 39.2933 0.0980623 38.1923 0.0971008C35.2365 0.0951777 32.2808 0.0951772 29.325 0.0980618C29.151 0.0980618 28.9702 0.102871 28.8029 0.144217C28.0471 0.328832 27.5558 1.03075 27.6346 1.79037C27.7144 2.55864 28.3587 3.15479 29.1673 3.16152C30.8125 3.17402 32.4587 3.16537 34.1038 3.16729C34.2538 3.16729 34.4029 3.18268 34.5529 3.19037C34.5817 3.2346 34.6106 3.27979 34.6404 3.32402C34.4971 3.42402 34.3356 3.50479 34.2144 3.62595C31.1942 6.63845 28.1721 9.64902 25.1731 12.6836C24.8894 12.9702 24.6702 13.3933 24.5865 13.7875C24.4548 14.4115 24.8692 15.0327 25.449 15.299C26.0644 15.5827 26.7067 15.4586 27.2433 14.9231C29.2125 12.9606 31.1769 10.9933 33.1423 9.02787C34.3404 7.83172 35.5365 6.63364 36.8356 5.33364Z" fill="white"/>
<path d="M0 1.24805C0.372115 0.373046 1.03558 0.0711227 1.97596 0.0836227C4.86731 0.121123 7.75865 0.0922763 10.651 0.0999686C11.8183 0.102853 12.5731 1.15189 12.1721 2.18651C11.9375 2.79035 11.3788 3.16247 10.6654 3.16535C9.05193 3.17112 7.43846 3.16728 5.825 3.16728C5.67211 3.16728 5.51923 3.16728 5.2702 3.16728C5.45385 3.36439 5.56443 3.49131 5.68366 3.60958C8.71058 6.63747 11.7356 9.66728 14.7673 12.6904C15.2327 13.1548 15.4692 13.6759 15.2798 14.3317C14.9731 15.3923 13.7125 15.7913 12.8529 15.1009C12.7163 14.9913 12.5971 14.8605 12.4721 14.7365C9.48942 11.7548 6.50769 8.77208 3.525 5.78939C3.40385 5.66824 3.27789 5.55285 3.07019 5.35478C3.07019 5.61631 3.07019 5.78266 3.07019 5.94997C3.07019 7.43554 3.07019 8.92112 3.07019 10.4077C3.07019 11.5307 2.69904 12.1317 1.88077 12.3346C1.12212 12.523 0.516347 12.1644 0.000962478 11.225C9.39024e-07 7.89804 0 4.57305 0 1.24805Z" fill="#C2A180"/>
<path d="M0 28.8731C0.514423 27.9308 1.11635 27.5741 1.87885 27.7616C2.69519 27.9625 3.06923 28.5693 3.06923 29.6904C3.06923 31.3356 3.06923 32.9798 3.06923 34.7443C3.25673 34.5664 3.37692 34.4558 3.49327 34.3394C6.52308 31.3106 9.55481 28.2827 12.5788 25.2481C12.9596 24.8654 13.3808 24.6106 13.9346 24.6616C14.5231 24.7164 14.9586 25.0154 15.2038 25.5529C15.4577 26.1096 15.3808 26.6462 15.0144 27.1327C14.9 27.2846 14.7538 27.4144 14.6183 27.55C11.6346 30.5346 8.65 33.5183 5.66635 36.5029C5.55577 36.6135 5.45 36.7298 5.29231 36.8962C5.48654 36.9106 5.61923 36.9279 5.75192 36.9279C7.33462 36.9298 8.91731 36.9289 10.5 36.9298C11.4529 36.9308 12.0817 37.376 12.25 38.1654C12.4077 38.9048 12.0288 39.5356 11.1923 39.9327C11.1663 39.9452 11.149 39.976 11.1279 39.9991C7.80288 39.9991 4.47692 39.9991 1.15192 39.9991C0.61827 39.7654 0.225001 39.3904 0.000962477 38.8481C9.39023e-07 35.5241 0 32.1991 0 28.8731Z" fill="#C2A180"/>
<path d="M28.7825 40.0009C28.7017 39.9548 28.6229 39.9067 28.5402 39.8644C27.846 39.5086 27.4998 38.8173 27.671 38.1221C27.8469 37.4038 28.4354 36.9384 29.2133 36.9346C30.8748 36.9269 32.5364 36.9317 34.1979 36.9317C34.3094 36.9317 34.42 36.9317 34.6479 36.9317C34.4758 36.749 34.3681 36.6269 34.2537 36.5125C31.2152 33.4731 28.1777 30.4317 25.1344 27.3971C24.6671 26.9317 24.4392 26.4077 24.6344 25.7538C24.9441 24.7144 26.1729 24.3173 27.0306 24.9769C27.1691 25.0836 27.2902 25.2134 27.4142 25.3375C30.4085 28.3307 33.4027 31.325 36.3969 34.3173C36.5162 34.4365 36.6431 34.548 36.8402 34.7317C36.8402 33.9865 36.8402 33.3384 36.8402 32.6904C36.8402 31.5875 36.8364 30.4855 36.8412 29.3827C36.846 28.4077 37.4873 27.7202 38.3787 27.7231C39.2662 27.7259 39.9066 28.4173 39.9075 29.3932C39.9114 32.2692 39.8844 35.1452 39.9229 38.0211C39.9354 38.9634 39.6277 39.623 38.7585 40C35.4335 40.0009 32.1085 40.0009 28.7825 40.0009Z" fill="#C2A180"/>
<path d="M0 38.85C0.225 39.3933 0.617308 39.7673 1.15096 40.001C0.767308 40.001 0.383654 40.001 0 40.001C0 39.6173 0 39.2337 0 38.85Z" fill="white"/>
<path d="M36.839 5.33362C35.5399 6.63362 34.3428 7.83073 33.1457 9.02785C31.1803 10.9932 29.2159 12.9615 27.2467 14.923C26.7101 15.4577 26.0678 15.5827 25.4524 15.299C24.8736 15.0327 24.4582 14.4105 24.5899 13.7875C24.6726 13.3932 24.8928 12.9702 25.1765 12.6836C28.1745 9.649 31.1976 6.63843 34.2178 3.62593C34.339 3.50477 34.5015 3.424 34.6438 3.324C34.6149 3.27977 34.5861 3.23458 34.5563 3.19035C34.4063 3.18169 34.2572 3.16727 34.1072 3.16727C32.462 3.16535 30.8159 3.17496 29.1707 3.1615C28.362 3.15477 27.7178 2.55862 27.638 1.79035C27.5592 1.03073 28.0505 0.329772 28.8063 0.144195C28.9745 0.102849 29.1544 0.0990014 29.3284 0.0980398C32.2842 0.0951552 35.2399 0.0941942 38.1957 0.0970788C39.2976 0.0980404 39.9072 0.713425 39.9072 1.82496C39.9092 4.76439 39.9092 7.70477 39.9072 10.6442C39.9063 11.6673 39.289 12.3644 38.387 12.3721C37.4659 12.3798 36.8409 11.6759 36.8399 10.623C36.838 9.05766 36.8399 7.49131 36.839 5.92593C36.839 5.77304 36.839 5.6192 36.839 5.33362Z" fill="#C2A180"/>
</svg>
