<svg width="35" height="26" viewBox="0 0 35 26" fill="none" xmlns="http://www.w3.org/2000/svg">
<path fill-rule="evenodd" clip-rule="evenodd" d="M31.1253 0.0540374C30.8491 0.105126 30.4617 0.230552 30.2645 0.33273C30.0672 0.435051 25.9666 4.4507 21.1521 9.25651L12.3985 17.9944L8.74101 14.3205C6.40758 11.9766 4.87578 10.5491 4.50962 10.3775C3.88748 10.0858 2.8065 10.0203 2.23071 10.2391C1.64746 10.461 0.736498 11.3727 0.558151 11.9133C0.323559 12.6244 0.363016 13.7344 0.642804 14.2908C0.977402 14.9561 10.4087 24.408 11.0915 24.7624C11.7822 25.1208 12.914 25.1476 13.6924 24.8239C14.1167 24.6473 16.8544 21.9965 24.1968 14.6528C31.3464 7.50168 34.1914 4.56551 34.3564 4.16699C34.9241 2.79591 34.4468 1.17053 33.2697 0.467197C32.5627 0.0447086 31.8838 -0.0861702 31.1253 0.0540374Z" fill="url(#paint0_linear_652_5393)"/>
<defs>
<linearGradient id="paint0_linear_652_5393" x1="0.404785" y1="0" x2="36.299" y2="2.74158" gradientUnits="userSpaceOnUse">
<stop stop-color="#DAB071"/>
<stop offset="1" stop-color="#C77E29"/>
</linearGradient>
</defs>
</svg>
