<svg width="62" height="40" viewBox="0 0 62 40" fill="none" xmlns="http://www.w3.org/2000/svg">
<path d="M0.925781 23.8195C0.925781 15.8797 0.925781 7.93985 0.925781 0C20.9754 0 41.0265 0 61.0762 0C61.0762 13.3338 61.0762 26.6662 61.0762 40C41.0265 40 20.9754 40 0.925781 40C0.925781 36.4541 0.925781 32.9083 0.925781 29.3639C1.35736 29.6797 1.75736 30.0602 2.22804 30.3008C4.35435 31.388 6.61601 32.0767 8.96939 32.4752C10.0461 32.6571 10.7423 32.194 10.7258 31.3203C10.7122 30.6466 10.2777 30.3263 9.44909 30.1007C7.57842 29.591 5.72879 29 3.86864 28.4466C3.44759 28.3218 3.29721 28.0692 3.31526 27.6165C3.35435 26.6451 3.30924 25.6692 3.33781 24.6962C3.44007 21.188 6.31225 18.2932 9.82654 18.2C11.798 18.1474 13.7739 18.1368 15.7453 18.1955C17.5333 18.2481 19.0596 18.9609 20.3243 20.2887C20.1814 20.4165 20.0927 20.5008 19.9965 20.5805C17.3228 22.797 15.7784 25.6135 15.5965 29.0947C15.4927 31.0857 15.5198 33.0827 15.5153 35.0767C15.5137 35.6436 15.8356 36.0256 16.3634 36.2872C26.0371 41.0692 35.7122 41.0902 45.4025 36.3323C46.1077 35.9865 46.3589 35.4932 46.3348 34.7248C46.2867 33.2782 46.2927 31.8301 46.3137 30.382C46.3724 26.5383 45.019 23.3218 42.1017 20.7865C41.9198 20.6286 41.7423 20.4647 41.5318 20.2767C42.61 19.1639 43.8566 18.3744 45.3423 18.2977C47.7318 18.1744 50.1423 18.1023 52.5243 18.2677C55.5498 18.4782 57.9273 20.788 58.3859 23.7865C58.5694 24.985 58.4641 26.2241 58.5378 27.4421C58.5709 27.994 58.428 28.3323 57.8686 28.4947C56.028 29.0256 54.204 29.6105 52.3544 30.1068C51.4476 30.3504 50.9649 30.8857 51.1664 31.6677C51.3408 32.3429 51.9318 32.6316 52.8596 32.4812C55.4175 32.0662 57.8386 31.2301 60.1528 30.0752C60.6671 29.818 60.9408 29.4331 60.9333 28.8316C60.9137 27.5338 60.9408 26.2346 60.9243 24.9368C60.8927 22.3098 59.9694 20.0241 57.995 18.2932C56.9513 17.3789 55.6762 16.7278 54.5303 15.9744C58.1604 12.2947 57.2807 7.48421 54.6145 4.83008C51.7258 1.95489 47.2822 1.7203 44.1363 4.32481C42.5513 5.63759 41.5739 7.32481 41.3198 9.36542C40.9904 12.012 41.9378 14.2391 43.7739 16.0647C42.992 16.4586 42.2175 16.7654 41.5363 17.2135C40.8551 17.6632 40.2747 18.2632 39.6341 18.7774C39.5047 18.8812 39.2777 18.9729 39.1393 18.9308C38.4747 18.7278 37.825 18.4752 37.1619 18.2376C42.5393 13.6256 41.6897 6.8797 37.9619 3.21354C34.1589 -0.526314 28.2581 -0.703758 24.2611 2.88421C22.3047 4.6406 21.1303 6.8391 20.9122 9.46165C20.6175 13.0241 22.0386 15.9023 24.7438 18.2301C23.9408 18.5068 23.2145 18.7579 22.4386 19.0256C21.2671 17.6602 19.801 16.7008 18.0611 16.1474C22.21 11.815 20.5889 6.86015 17.9844 4.54286C14.9107 1.80752 10.4611 1.85413 7.43405 4.64361C4.70022 7.1624 3.53631 12.1474 7.48217 16.1459C5.45962 16.803 3.82503 17.9729 2.58894 19.6902C1.6927 20.9338 1.26563 22.3579 0.925781 23.8195Z" fill="white"/>
<path d="M0.925839 24.837C0.925876 24.1609 0.99361 23.4845 1.17407 22.8329C1.48188 21.7216 1.89411 20.6523 2.58601 19.6917C3.8221 17.9729 5.45668 16.8045 7.47924 16.1474C3.53337 12.1489 4.69729 7.16392 7.43113 4.64512C10.4582 1.85565 14.9078 1.80903 17.9815 4.54437C20.586 6.86167 22.2071 11.8166 18.0582 16.1489C19.798 16.7023 21.2642 17.6617 22.4356 19.0271C23.2101 18.7594 23.9379 18.5083 24.7409 18.2316C22.0356 15.9038 20.6146 13.0256 20.9093 9.46317C21.1259 6.84061 22.3018 4.64061 24.2582 2.88572C28.2567 -0.703752 34.1559 -0.524804 37.9589 3.21505C41.6868 6.88121 42.5364 13.6256 37.1589 18.2391C37.8221 18.4767 38.4717 18.7293 39.1364 18.9323C39.2747 18.9744 39.5033 18.8827 39.6311 18.779C40.2717 18.2647 40.8522 17.6647 41.5334 17.215C42.2146 16.7654 42.989 16.4587 43.771 16.0662C41.9349 14.2406 40.9875 12.0135 41.3168 9.36693C41.571 7.32632 42.5484 5.63911 44.1334 4.32633C47.2807 1.72181 51.7244 1.9564 54.6116 4.83159C57.2762 7.48422 58.1559 12.2947 54.5274 15.9759C55.6732 16.7293 56.9484 17.3805 57.992 18.2947C59.968 20.0256 60.8898 22.3098 60.9213 24.9384C60.9364 26.2361 60.9108 27.5353 60.9304 28.8331C60.9394 29.4346 60.6657 29.8211 60.1499 30.0767C57.8356 31.2316 55.4146 32.0662 52.8567 32.4827C51.9289 32.6331 51.3379 32.3444 51.1634 31.6692C50.9619 30.8857 51.4447 30.3504 52.3514 30.1083C54.201 29.612 56.0251 29.0271 57.8657 28.4963C58.4251 28.3353 58.568 27.9955 58.5349 27.4436C58.4612 26.2256 58.5665 24.985 58.383 23.788C57.9244 20.791 55.5454 18.4797 52.5213 18.2692C50.1379 18.1023 47.7289 18.1744 45.3394 18.2993C43.8537 18.3759 42.6071 19.1654 41.5289 20.2782C41.7394 20.4662 41.9168 20.6286 42.0988 20.788C45.0161 23.3233 46.3695 26.5399 46.3108 30.3835C46.2883 31.8301 46.2838 33.2797 46.3319 34.7263C46.3574 35.4947 46.1063 35.988 45.3995 36.3338C35.7093 41.0917 26.0356 41.0707 16.3604 36.2887C15.8326 36.0271 15.5108 35.6466 15.5123 35.0782C15.5168 33.0842 15.4898 31.0857 15.5935 29.0963C15.7755 25.615 17.3198 22.797 19.9935 20.582C20.0883 20.5038 20.1785 20.4181 20.3213 20.2902C19.0567 18.9609 17.5289 18.2496 15.7424 18.197C13.771 18.1384 11.795 18.1489 9.8236 18.2015C6.30932 18.2962 3.43714 21.1895 3.33488 24.6978C3.30631 25.6707 3.35143 26.6451 3.31233 27.6181C3.29428 28.0707 3.44466 28.3233 3.86571 28.4481C5.72586 29.0015 7.57398 29.5925 9.44616 30.1023C10.2747 30.3278 10.7093 30.6481 10.7228 31.3218C10.7394 32.1955 10.0431 32.6587 8.96646 32.4767C6.61458 32.0782 4.35142 31.3895 2.22511 30.3023C1.32614 29.8427 0.923952 28.7684 0.924781 27.7587C0.92558 26.7846 0.925786 25.8108 0.925839 24.837ZM30.9439 20.2617C30.9409 20.3023 30.9394 20.3429 30.9364 20.3835C29.6883 20.3835 28.4386 20.3669 27.1905 20.3865C22.8567 20.4526 18.9259 23.603 18.2071 27.8617C17.8657 29.8812 18.0071 31.9835 17.971 34.0481C17.968 34.2361 18.2356 34.5113 18.4416 34.6075C26.7544 38.4391 35.0762 38.4346 43.4041 34.6406C43.8221 34.4496 43.9244 34.1895 43.9153 33.7699C43.8823 32.4241 43.8717 31.0767 43.8627 29.7308C43.8326 25.3504 40.9033 21.5624 36.5995 20.6812C34.7635 20.3038 32.8326 20.3865 30.9439 20.2617ZM30.9259 2.69174C26.783 2.69174 23.2807 6.18046 23.2732 10.3173C23.2657 14.4572 26.7544 17.9654 30.8913 17.9775C35.0762 17.9895 38.589 14.4887 38.5815 10.3158C38.5725 6.17745 35.0717 2.69174 30.9259 2.69174ZM12.7123 15.7353C15.7289 15.7399 18.1815 13.3353 18.1905 10.3639C18.201 7.38347 15.7499 4.92031 12.7695 4.9158C9.78902 4.91129 7.32586 7.36843 7.33037 10.3444C7.33488 13.2962 9.76496 15.7308 12.7123 15.7353ZM49.0807 15.7353C52.0853 15.7369 54.5259 13.3113 54.5213 10.3293C54.5168 7.35339 52.0507 4.90377 49.0687 4.9158C46.1244 4.92632 43.6732 7.36993 43.6612 10.3038C43.6492 13.2872 46.0898 15.7338 49.0807 15.7353Z" fill="#C2A180"/>
<path d="M30.9437 20.2617C32.8324 20.3865 34.7632 20.3038 36.5993 20.6797C40.9016 21.5624 43.8324 25.3489 43.8625 29.7293C43.8715 31.0752 43.8805 32.4226 43.9151 33.7684C43.9256 34.188 43.8234 34.4481 43.4038 34.6391C35.076 38.4331 26.7542 38.4391 18.4414 34.606C18.2354 34.5113 17.9677 34.2346 17.9707 34.0466C18.0068 31.982 17.8655 29.8797 18.2068 27.8602C18.9256 23.6015 22.8549 20.4511 27.1903 20.385C28.4384 20.3654 29.688 20.382 30.9361 20.382C30.9392 20.3429 30.9407 20.3023 30.9437 20.2617Z" fill="white"/>
<path d="M30.9256 2.69171C35.073 2.69171 38.5722 6.17742 38.5798 10.3158C38.5873 14.4902 35.0745 17.9895 30.8895 17.9774C26.7542 17.9654 23.264 14.4571 23.2715 10.3173C23.2805 6.18043 26.7813 2.69171 30.9256 2.69171Z" fill="white"/>
<path d="M12.712 15.7354C9.76468 15.7309 7.3346 13.2963 7.33008 10.3429C7.32557 7.36845 9.78874 4.9098 12.7692 4.91431C15.7496 4.91882 18.1993 7.38198 18.1902 10.3624C18.1797 13.3354 15.7286 15.7399 12.712 15.7354Z" fill="white"/>
<path d="M49.0812 15.7354C46.0902 15.7339 43.6496 13.2888 43.6631 10.3038C43.6752 7.36995 46.1263 4.92634 49.0707 4.91582C52.0526 4.90379 54.5188 7.35341 54.5233 10.3293C54.5263 13.3113 52.0857 15.7369 49.0812 15.7354Z" fill="white"/>
</svg>
