<svg width="32" height="32" viewBox="0 0 32 32" fill="none" xmlns="http://www.w3.org/2000/svg">
<path d="M8.86966 6.65658L8.86023 6.51667H8.72H6.70667H6.54609L6.55701 6.67687C6.67791 8.44997 7.02718 10.1562 7.57806 11.7685L7.65587 11.9963L7.82607 11.8261L9.42607 10.2261L9.4887 10.1634L9.4641 10.0783C9.14722 8.98248 8.94898 7.8331 8.86966 6.65658ZM21.9074 22.549L21.8232 22.5252L21.761 22.5868L20.161 24.1735L19.9874 24.3457L20.2196 24.4224C21.8443 24.9595 23.55 25.3088 25.3231 25.4297L25.4833 25.4406V25.28V23.2933V23.1532L25.3435 23.1437C24.1805 23.0644 23.0307 22.8661 21.9074 22.549ZM21.8555 20.061L21.8555 20.0611L21.8596 20.0624C23.3681 20.5608 24.9973 20.83 26.6667 20.83C27.3172 20.83 27.85 21.3628 27.85 22.0133V26.6667C27.85 27.3172 27.3172 27.85 26.6667 27.85C14.2295 27.85 4.15 17.7705 4.15 5.33333C4.15 4.68284 4.68284 4.15 5.33333 4.15H10C10.6505 4.15 11.1833 4.68284 11.1833 5.33333C11.181 6.966 11.44 8.58851 11.9505 10.1393C12.0807 10.5548 11.9858 11.0154 11.6539 11.3473L8.7206 14.2806L8.64342 14.3578L8.69312 14.455C10.6403 18.2625 13.7375 21.3597 17.545 23.3069L17.6422 23.3566L17.7194 23.2794L20.6514 20.3474C20.8908 20.1206 21.187 20.0033 21.4933 20.0033V20.0034L21.4975 20.0033C21.6194 19.9998 21.7409 20.0194 21.8555 20.061Z" fill="#C2A180" stroke="white" stroke-width="0.3"/>
</svg>
