<svg width="32" height="32" viewBox="0 0 32 32" fill="none" xmlns="http://www.w3.org/2000/svg">
<path d="M16.0127 8C15.0238 8 14.0571 8.29325 13.2348 8.84265C12.4126 9.39206 11.7717 10.173 11.3933 11.0866C11.0149 12.0002 10.9158 13.0055 11.1088 13.9755C11.3017 14.9454 11.7779 15.8363 12.4772 16.5355C13.1764 17.2348 14.0673 17.711 15.0372 17.9039C16.0071 18.0969 17.0125 17.9978 17.9261 17.6194C18.8397 17.241 19.6206 16.6001 20.17 15.7779C20.7195 14.9556 21.0127 13.9889 21.0127 13C21.0094 11.6749 20.4816 10.4051 19.5446 9.46811C18.6076 8.53114 17.3378 8.0033 16.0127 8ZM16.0127 16C15.4194 16 14.8393 15.8241 14.346 15.4944C13.8526 15.1648 13.4681 14.6962 13.2411 14.1481C13.014 13.5999 12.9546 12.9967 13.0703 12.4147C13.1861 11.8328 13.4718 11.2982 13.8914 10.8787C14.3109 10.4591 14.8455 10.1734 15.4274 10.0576C16.0094 9.94189 16.6126 10.0013 17.1607 10.2284C17.7089 10.4554 18.1775 10.8399 18.5071 11.3333C18.8367 11.8266 19.0127 12.4067 19.0127 13C19.0094 13.7946 18.6923 14.5558 18.1304 15.1177C17.5685 15.6796 16.8073 15.9967 16.0127 16ZM16.0127 2C13.0963 2.00331 10.3004 3.1633 8.23818 5.22548C6.17599 7.28766 5.016 10.0836 5.0127 13C5.0127 16.925 6.8252 21.0875 10.2627 25.025C11.8079 26.8085 13.5432 28.4181 15.4377 29.825C15.608 29.9384 15.8081 29.9989 16.0127 29.9989C16.2173 29.9989 16.4174 29.9384 16.5877 29.825C18.4877 28.4202 20.2274 26.8105 21.7752 25.025C25.2002 21.0875 27.0127 16.925 27.0127 13C27.0094 10.0836 25.8494 7.28766 23.7872 5.22548C21.725 3.1633 18.9291 2.00331 16.0127 2ZM16.0127 27.75C13.9502 26.125 7.0127 20.15 7.0127 13C7.0127 10.6131 7.96091 8.32387 9.64873 6.63604C11.3366 4.94821 13.6257 4 16.0127 4C18.3996 4 20.6888 4.94821 22.3767 6.63604C24.0645 8.32387 25.0127 10.6131 25.0127 13C25.0127 20.15 18.0752 26.125 16.0127 27.75Z" fill="#C2A180"/>
</svg>
